<svg id="Layer_1" enable-background="new 0 0 512 512" height="512" viewBox="0 0 512 512" width="512" xmlns="http://www.w3.org/2000/svg"><path d="m206.977 14.231 23.734 21.465 31.287-6.722c13.081-2.811 26.165 4.743 30.271 17.477l9.822 30.457 30.457 9.822c12.734 4.107 20.288 17.19 17.477 30.271l-6.722 31.287 21.465 23.734c8.975 9.923 8.975 25.031 0 34.954l-21.465 23.734 6.722 31.287c2.811 13.081-4.743 26.165-17.477 30.271l-30.457 9.822-9.822 30.457c-4.107 12.734-17.19 20.288-30.271 17.477l-31.287-6.722-23.734 21.465c-9.923 8.975-25.031 8.975-34.954 0l-23.734-21.465-31.287 6.722c-13.081 2.811-26.165-4.743-30.271-17.477l-9.822-30.457-30.457-9.822c-12.734-4.107-20.288-17.19-17.477-30.271l6.722-31.287-21.465-23.734c-8.975-9.923-8.975-25.031 0-34.954l21.465-23.734-6.722-31.287c-2.811-13.081 4.743-26.165 17.477-30.271l30.457-9.822 9.822-30.457c4.107-12.734 17.19-20.288 30.271-17.477l31.287 6.722 23.734-21.465c9.923-8.975 25.031-8.975 34.954 0z" fill="#ffb357"/><path d="m189.5 327.179c-75.917 0-137.679-61.763-137.679-137.679s61.762-137.679 137.679-137.679 137.679 61.762 137.679 137.679-61.762 137.679-137.679 137.679z" fill="#fce3a0"/><path d="m126.525 189.5c0-62.976 42.502-116.208 100.327-132.528-11.883-3.354-24.411-5.152-37.352-5.152-75.917 0-137.679 61.763-137.679 137.679s61.762 137.68 137.679 137.68c12.941 0 25.469-1.798 37.352-5.152-57.825-16.319-100.327-69.552-100.327-132.527z" fill="#ffce71"/><ellipse cx="106.831" cy="188.263" fill="#ff8e9e" rx="29.212" ry="23.263" transform="matrix(1 .003 -.003 1 .59 -.334)"/><ellipse cx="265.169" cy="188.759" fill="#ff8e9e" rx="29.212" ry="23.263" transform="matrix(-1 -.003 .003 -1 529.746 378.348)"/><path d="m326.446 225.071c-11.192-2.839-22.909-4.351-34.972-4.351-61.774 0-114.317 39.481-133.8 94.583v.006c-50.772.673-93.174 42.149-93.174 94.597 0 52.242 42.351 94.593 94.593 94.593h201.281z" fill="#d4d4d5"/><path d="m433.344 362.607c-.004-66.44-45.554-121.977-106.898-137.535-61.429 15.597-106.874 71.26-106.874 137.541 0 78.002 62.939 141.295 140.802 141.888h73.181c39.182 0 70.945-31.763 70.945-70.945 0-39.697-32.442-71.157-71.156-70.949z" fill="#efedee"/><ellipse cx="225.471" cy="395.343" fill="#ff8e9e" rx="25.471" ry="20.283" transform="matrix(1 .003 -.003 1 1.24 -.705)"/><ellipse cx="363.529" cy="395.775" fill="#ff8e9e" rx="25.471" ry="20.283" transform="matrix(-1 -.003 .003 -1 725.818 792.687)"/><path d="m121.527 146.025c-4.142 0-7.499 3.358-7.499 7.499v9.999c0 4.142 3.358 7.499 7.499 7.499 4.142 0 7.499-3.358 7.499-7.499v-9.999c0-4.141-3.357-7.499-7.499-7.499z"/><path d="m249.518 146.025c-4.142 0-7.499 3.358-7.499 7.499v9.999c0 4.142 3.358 7.499 7.499 7.499 4.142 0 7.499-3.358 7.499-7.499v-9.999c.001-4.141-3.357-7.499-7.499-7.499z"/><path d="m205.256 164.758c-3.737-1.788-8.214-.206-10.001 3.531-1.666 3.484-5.29 5.735-9.233 5.735s-7.567-2.251-9.233-5.735c-1.787-3.737-6.265-5.317-10.001-3.531-3.737 1.786-5.318 6.264-3.531 10.001 4.143 8.665 13.079 14.264 22.765 14.264s18.621-5.599 22.765-14.264c1.787-3.737.206-8.215-3.531-10.001z"/><path d="m440.677 355.422c-2.682-56.213-36.583-104.379-84.696-127.514l14.361-15.88c11.604-12.831 11.604-32.182 0-45.013l-18.887-20.883 5.916-27.529c3.634-16.914-6.043-33.673-22.507-38.983l-26.797-8.642-8.642-26.798c-5.31-16.465-22.067-26.139-38.982-22.506l-27.529 5.915-20.886-18.886c-12.831-11.604-32.181-11.604-45.013 0l-20.882 18.887-27.529-5.915c-16.912-3.635-33.672 6.041-38.983 22.506l-8.642 26.797-26.798 8.642c-16.464 5.31-26.14 22.069-22.506 38.982l5.915 27.529-18.887 20.885c-11.604 12.831-11.604 32.182 0 45.013l18.887 20.883-5.915 27.529c-3.634 16.913 6.042 33.673 22.506 38.983l26.797 8.642 8.642 26.798c.818 2.536 1.919 4.925 3.279 7.157-16.721 18.706-25.869 42.6-25.869 67.894.001 56.289 45.797 102.085 102.088 102.085h274.442c12.365 0 24.201-2.797 35.179-8.314 3.7-1.86 5.193-6.367 3.333-10.068-1.859-3.701-6.366-5.194-10.069-3.333-8.868 4.457-18.438 6.716-28.443 6.716h-274.442c-48.02 0-87.087-39.067-87.087-87.087 0-47.396 38.475-86.466 85.768-87.092 3.288-.044 6.059-2.202 7.03-5.17 18.991-53.487 69.87-89.412 126.662-89.412 74.083 0 134.356 60.282 134.36 134.378 0 1.999.798 3.915 2.218 5.323 1.419 1.408 3.329 2.174 5.34 2.176l.321-.001c34.888 0 63.272 28.462 63.272 63.446 0 14.561-5.054 28.782-14.232 40.044-2.616 3.211-2.135 7.935 1.076 10.551 3.214 2.618 7.936 2.134 10.552-1.076 11.35-13.932 17.602-31.518 17.602-49.52 0-40.908-31.407-74.603-71.323-78.139zm-288.261-47.398c-4.349.277-8.644.846-12.872 1.665-48.782-20.335-80.191-67.251-80.191-120.166 0-29.688 10.303-58.748 29.009-81.828 2.608-3.218 2.114-7.94-1.103-10.549-3.218-2.607-7.94-2.114-10.549 1.104-20.865 25.742-32.356 58.157-32.356 91.273 0 29.606 8.895 58.106 25.723 82.421 12.737 18.403 29.315 33.435 48.562 44.222-8.729 3.782-16.941 8.795-24.406 14.965-.11-.291-.239-.572-.335-.871l-9.821-30.454c-.741-2.296-2.54-4.095-4.836-4.836l-30.454-9.821c-9.105-2.936-14.455-12.204-12.446-21.557l6.722-31.285c.507-2.359-.152-4.817-1.77-6.606l-21.464-23.733c-6.417-7.095-6.417-17.796 0-24.891l21.464-23.733c1.618-1.789 2.277-4.247 1.77-6.606l-6.722-31.285c-2.009-9.352 3.341-18.62 12.445-21.556l30.454-9.821c2.296-.741 4.095-2.54 4.836-4.836l9.821-30.454c2.936-9.105 12.205-14.455 21.557-12.446l31.285 6.722c2.361.508 4.817-.151 6.606-1.77l23.733-21.464c7.095-6.417 17.796-6.417 24.891 0l23.731 21.463c1.789 1.618 4.246 2.277 6.606 1.77l31.285-6.722c9.352-2.009 18.619 3.341 21.556 12.445l9.821 30.454c.741 2.296 2.54 4.095 4.836 4.836l30.454 9.821c9.105 2.936 14.455 12.203 12.445 21.556l-6.722 31.285c-.507 2.359.152 4.817 1.77 6.606l21.464 23.733c6.417 7.095 6.417 17.796 0 24.891l-17.92 19.815c-3.147-1.117-6.345-2.127-9.584-3.034 1.968-9.587 2.979-19.384 2.979-29.227 0-80.047-65.123-145.17-145.17-145.17-32.722 0-64.834 11.248-90.421 31.671-3.237 2.584-3.767 7.303-1.183 10.54 2.584 3.236 7.301 3.766 10.54 1.183 23.272-18.576 51.303-28.395 81.064-28.395 71.776 0 130.171 58.394 130.171 130.171 0 8.728-.885 17.414-2.608 25.914-70.302-12.192-138.965 27.117-164.667 92.59z"/><path d="m223.02 363.51v9.999c0 4.142 3.358 7.5 7.499 7.5s7.499-3.358 7.499-7.5v-9.999c0-4.142-3.358-7.499-7.499-7.499s-7.499 3.357-7.499 7.499z"/><path d="m351.011 363.51v9.999c0 4.142 3.358 7.5 7.5 7.5s7.499-3.358 7.499-7.5v-9.999c0-4.142-3.358-7.499-7.499-7.499-4.142 0-7.5 3.357-7.5 7.499z"/><path d="m304.248 373.274c-1.666 3.484-5.29 5.735-9.233 5.735s-7.567-2.251-9.233-5.735c-1.787-3.737-6.265-5.317-10.001-3.531-3.737 1.786-5.318 6.264-3.531 10.001 4.143 8.665 13.079 14.264 22.765 14.264s18.621-5.599 22.765-14.264c1.787-3.737.206-8.214-3.531-10.001-3.737-1.788-8.214-.205-10.001 3.531z"/></svg>