<svg id="Layer_1" enable-background="new 0 0 512 512" height="512" viewBox="0 0 512 512" width="512" xmlns="http://www.w3.org/2000/svg"><path d="m303.38 12.414c-12.642-3.206-25.876-4.914-39.502-4.914-69.776 0-129.126 44.596-151.133 106.835v.007c-57.35.76-105.245 47.61-105.245 106.853 0 59.01 47.837 106.847 106.847 106.847h227.356z" fill="#d4d4d5"/><path d="m424.126 167.767c-.004-75.047-51.455-137.779-120.746-155.353-69.387 17.617-120.719 80.491-120.719 155.359 0 88.107 71.092 159.6 159.042 160.269h82.662c44.258 0 80.135-35.878 80.135-80.136 0-44.837-36.644-80.373-80.374-80.139z" fill="#efedee"/><ellipse cx="197.331" cy="201.805" fill="#ff8e9e" rx="29.212" ry="23.263" transform="matrix(1 .003 -.003 1 .633 -.617)"/><ellipse cx="355.669" cy="202.301" fill="#ff8e9e" rx="29.212" ry="23.263" transform="matrix(-1 -.003 .003 -1 710.703 405.716)"/><path d="m254.016 360.596-.035-.035c-3.431-3.372-8.978-3.358-12.389.035-21.107 20.991-50.348 58.073-50.348 87.705v.002h.035c0 31.93 25.438 56.197 56.523 56.197 31.231.002 56.526-25.165 56.526-56.198h.035c-.001-30.253-28.909-66.384-50.347-87.706z" fill="#b9f0ff"/><path d="m119.818 387.841-.021-.021c-2.109-2.072-5.517-2.064-7.613.021-12.97 12.899-30.939 35.687-30.939 53.896v.001h.021c0 19.621 15.632 34.533 34.734 34.533 19.192.001 34.736-15.464 34.736-34.534h.021c-.001-18.591-17.765-40.794-30.939-53.896z" fill="#7ce3ff"/><path d="m392.943 359.96-.026-.026c-2.577-2.533-6.743-2.522-9.305.026-15.852 15.766-37.815 43.617-37.815 65.872v.002h.026c0 23.982 19.106 42.208 42.453 42.208 23.457.002 42.455-18.901 42.455-42.208h.026c-.001-22.723-21.713-49.86-37.814-65.874z" fill="#7ce3ff"/><path d="m431.472 160.537c-3.804-89.166-77.525-160.537-167.595-160.537-69.259 0-131.477 42.802-156.421 107.029-58.917 3.438-107.456 52.369-107.456 114.166 0 45.752 27.16 87 69.193 105.084 3.805 1.638 8.216-.12 9.854-3.926 1.637-3.805-.121-8.216-3.926-9.854-36.522-15.712-60.121-51.551-60.121-91.304 0-64.643 61.757-113.095 125.336-95.916.655.177 1.313.262 1.961.262 3.305 0 6.333-2.202 7.236-5.545 1.081-3.999-1.285-8.116-5.284-9.197-6.744-1.822-13.664-3.005-20.661-3.566 23.989-55.568 79.119-92.233 140.289-92.233 81.832 0 148.836 64.699 152.576 145.639-1.624.145-3.244.321-4.846.555-4.099.598-6.937 4.406-6.338 8.504.599 4.107 4.415 6.937 8.504 6.338 44.419-6.481 83.227 28.018 83.227 71.87 0 40.051-32.584 72.636-72.636 72.636h-310.016c-4.153 0-8.331-.259-12.417-.768-4.112-.506-7.858 2.405-8.37 6.516-.512 4.11 2.405 7.857 6.516 8.369 4.698.585 9.499.882 14.27.883h310.017c48.322 0 87.636-39.313 87.636-87.636 0-45.992-35.531-83.823-80.528-87.369z"/><path d="m219.5 177.042v-10c0-4.142-3.358-7.5-7.5-7.5s-7.5 3.358-7.5 7.5v10c0 4.142 3.358 7.5 7.5 7.5s7.5-3.358 7.5-7.5z"/><path d="m347.5 177.042v-10c0-4.142-3.358-7.5-7.5-7.5s-7.5 3.358-7.5 7.5v10c0 4.142 3.358 7.5 7.5 7.5s7.5-3.358 7.5-7.5z"/><path d="m276.5 197.542c9.687 0 18.623-5.599 22.766-14.265 1.787-3.737.206-8.215-3.531-10.001-3.737-1.789-8.215-.206-10.001 3.531-1.666 3.484-5.291 5.735-9.234 5.735s-7.568-2.251-9.234-5.735c-1.787-3.737-6.266-5.317-10.001-3.531-3.737 1.787-5.318 6.265-3.531 10.001 4.143 8.666 13.079 14.265 22.766 14.265z"/><path d="m304.408 455.245c-4.009-1.051-8.106 1.349-9.155 5.356-5.61 21.431-25.123 36.399-47.451 36.399-27.49 0-49.023-21.39-49.023-48.697 0-.223-.01-.442-.029-.66.44-25.414 26.116-59.835 48.133-81.73.498-.495 1.337-.497 1.845.001 11.322 11.261 38.489 40.521 46.188 68.95 1.083 3.997 5.2 6.36 9.2 5.278 3.999-1.083 6.362-5.202 5.279-9.2-8.648-31.93-37.91-63.551-50.156-75.73-6.355-6.246-16.598-6.24-22.935.066-12.33 12.262-52.56 55.21-52.56 93.025 0 .258.013.514.039.766.397 35.351 28.374 62.931 64.019 62.931 29.145 0 54.625-19.574 61.962-47.6 1.049-4.007-1.348-8.106-5.356-9.155z"/><path d="m125.053 382.47c-5.022-4.935-13.167-4.91-18.159.053-7.777 7.734-33.151 34.861-33.151 59.215 0 .21.009.419.026.625.324 23.271 18.756 41.408 42.229 41.408h.003c11.274 0 21.876-4.367 29.851-12.297 7.835-7.792 12.216-18.107 12.378-29.106.017-.208.026-.418.026-.63 0-23.659-23.127-49.24-33.115-59.178-.029-.031-.058-.061-.088-.09zm18.182 59.267c0 7.213-2.827 13.997-7.959 19.101-5.145 5.116-11.989 7.934-19.274 7.934 0 0-.001 0-.002 0-15.271 0-27.234-11.875-27.234-27.033 0-.165-.005-.328-.016-.49.322-14.183 14.5-33.55 27.252-46.605 13.289 13.575 26.938 32.422 27.25 46.6-.012.162-.017.327-.017.493z"/><path d="m398.173 354.584c-5.49-5.394-14.395-5.367-19.851.058-9.39 9.338-40.025 42.07-40.025 71.192 0 .225.01.448.029.668.348 27.554 22.162 49.039 49.948 49.039h.005c27.658 0 49.584-22.154 49.946-49.022.021-.226.031-.455.031-.687 0-28.325-27.991-59.222-40.025-71.191-.019-.017-.046-.045-.058-.057zm25.057 71.249c0 19.174-15.617 34.708-34.952 34.708-.001 0-.002 0-.003 0-19.6 0-34.953-15.246-34.953-34.708 0-.184-.007-.367-.02-.548.364-18.279 18.854-43.19 34.975-59.386 16.855 16.921 34.613 41.118 34.974 59.37-.014.188-.021.376-.021.564z"/></svg>