<svg id="Layer_1" enable-background="new 0 0 512 512" height="512" viewBox="0 0 512 512" width="512" xmlns="http://www.w3.org/2000/svg"><path d="m284.255 369.132h-15.827c9.055-8.439 35.533-33.114 44.511-41.481l-43.151-43.151-86.144 92.437c-4.369 4.71-7.008 11.04-6.924 17.971.175 14.337 11.94 25.818 26.277 25.643h25.307l-54.707 67.325c-3.295 4.055-2.991 9.944.703 13.638 3.689 3.689 9.567 3.998 13.622.716l111.222-90.003c5.336-4.363 8.862-11.039 8.952-18.47.164-13.33-10.511-24.462-23.841-24.625z" fill="#ffb357"/><path d="m138.319 352.204h-10.791c6.174-5.754 24.227-22.578 30.348-28.283l-29.42-29.421-58.735 63.025c-2.979 3.211-4.778 7.527-4.721 12.253.119 9.776 8.141 17.603 17.916 17.484h17.255l-37.3 45.903c-2.246 2.765-2.039 6.78.479 9.299 2.515 2.515 6.523 2.726 9.288.488l75.833-61.366c3.638-2.975 6.042-7.526 6.104-12.593.111-9.088-7.167-16.678-16.256-16.789z" fill="#fce3a0"/><path d="m405.112 349.306h-8.94c5.115-4.767 20.071-18.705 25.143-23.432l-24.375-24.374-48.661 52.215c-2.468 2.66-3.959 6.236-3.911 10.151.099 8.099 6.745 14.584 14.843 14.485h14.296l-30.903 38.03c-1.861 2.29-1.69 5.617.397 7.704 2.084 2.084 5.404 2.258 7.695.405l62.826-50.84c3.014-2.465 5.006-6.235 5.057-10.433.093-7.53-5.937-13.819-13.467-13.911z" fill="#fff1d4"/><path d="m303.38 12.414c-12.642-3.206-25.876-4.914-39.502-4.914-69.776 0-129.126 44.596-151.133 106.835v.007c-57.35.76-105.245 47.61-105.245 106.853 0 59.01 47.837 106.847 106.847 106.847h227.356z" fill="#b9bbbc"/><path d="m424.126 167.767c-.004-75.047-51.455-137.779-120.746-155.353-69.387 17.617-120.719 80.491-120.719 155.359 0 88.107 71.092 159.6 159.042 160.269h82.662c44.258 0 80.135-35.878 80.135-80.136 0-44.837-36.644-80.373-80.374-80.139z" fill="#d4d4d5"/><ellipse cx="206.971" cy="198.885" fill="#ff8e9e" rx="25.471" ry="20.283" transform="matrix(1 .003 -.003 1 .624 -.648)"/><ellipse cx="345.029" cy="199.317" fill="#ff8e9e" rx="25.471" ry="20.283" transform="matrix(-1 -.003 .003 -1 689.433 399.714)"/><path d="m267.266 193.275c1.666-3.484 5.291-5.735 9.234-5.735s7.568 2.251 9.234 5.735c1.787 3.737 6.266 5.317 10.001 3.531 3.737-1.787 5.318-6.265 3.531-10.001-4.144-8.666-13.08-14.265-22.766-14.265s-18.623 5.599-22.766 14.265c-1.787 3.737-.206 8.215 3.531 10.001 3.737 1.788 8.214.205 10.001-3.531z"/><path d="m424.364 335.542c48.322 0 87.636-39.313 87.636-87.636 0-45.992-35.531-83.823-80.528-87.369-3.804-89.166-77.525-160.537-167.595-160.537-69.259 0-131.476 42.802-156.421 107.029-27.965 1.631-54.128 13.417-74.153 33.515-21.475 21.555-33.303 50.197-33.303 80.65 0 52.482 35.542 96.813 83.818 110.203l-19.596 21.028c-4.261 4.593-6.764 10.645-6.722 17.444.174 14.181 12.12 25.16 25.489 24.893h1.424l-27.364 33.676c-4.599 5.663-4.317 14.014 1 19.331 5.342 5.339 13.682 5.565 19.308 1.014l75.863-61.391c14.986-12.254 10.017-35.786-7.87-41.544l11.058-10.306h55.561l-33.823 36.294c-5.633 6.072-8.978 14.091-8.925 23.163.223 18.226 15.23 33.054 33.454 33.054l9.873-.002-44.77 55.095c-5.608 6.905-5.317 17.136 1.22 23.671 3.342 3.343 7.787 5.184 12.516 5.184 4.036 0 7.987-1.398 11.129-3.939l111.251-90.028c2.561-2.094 4.775-4.566 6.583-7.348 2.257-3.473 1.271-8.118-2.202-10.376s-8.119-1.271-10.375 2.202c-.963 1.481-2.141 2.797-3.472 3.886l-111.22 90.002c-1.081.875-2.633.782-3.604-.189-.964-.964-1.066-2.519-.185-3.604l54.707-67.324c1.824-2.245 2.195-5.34.951-7.952-1.243-2.613-3.878-4.277-6.772-4.277h-25.375l-.255.002c-9.84 0-18.387-7.944-18.456-18.469 0-4.668 1.749-9.124 4.913-12.534l43.342-46.508h19.023c4.142 0 7.5-3.357 7.5-7.5s-3.358-7.5-7.5-7.5h-137.15c-54.78 0-99.347-44.567-99.347-99.348 0-64.629 61.745-113.102 125.336-95.915 4.022 1.085 8.122-1.306 9.197-5.283 1.081-3.999-1.285-8.116-5.284-9.197-6.744-1.823-13.664-3.005-20.661-3.566 23.989-55.571 79.119-92.236 140.289-92.236 81.832 0 148.836 64.7 152.576 145.639-1.625.145-3.245.321-4.847.555-4.099.599-6.936 4.406-6.337 8.505.599 4.098 4.406 6.937 8.505 6.337 3.475-.507 7.038-.765 10.59-.765.038 0 .074-.005.112-.006h.077c39.947 0 72.446 32.587 72.446 72.641 0 40.052-32.584 72.636-72.636 72.636h-142.795c-4.142 0-7.5 3.357-7.5 7.5s3.358 7.5 7.5 7.5h11.902l-30.156 28.104c-2.254 2.101-2.994 5.366-1.865 8.234 1.129 2.867 3.897 4.752 6.979 4.752l15.735-.001c5.042.063 9.738 2.424 12.884 6.478 2.54 3.274 7.252 3.865 10.523 1.328 3.272-2.54 3.867-7.251 1.328-10.523-5.339-6.881-13.07-11.189-21.613-12.102l28.189-26.27h39.491l-12.183 13.072c-4.009 4.321-6.01 9.893-5.912 15.398.171 11.628 9.426 21.154 20.907 21.805l-20.993 25.835c-4.178 5.141-4.008 12.803.915 17.737 4.891 4.889 12.543 5.118 17.716.931l62.857-50.864c12.288-10.05 9.653-29.482-4.948-35.882l8.619-8.032zm-289.958 0-11.99 11.174c-2.255 2.102-2.995 5.367-1.866 8.234 1.129 2.868 3.897 4.753 6.979 4.753l10.699-.001c8.355.104 12.025 10.738 5.526 16.054l-71.748 58.061 33.986-41.825c3.974-4.891.484-12.229-5.821-12.229h-17.254c-.066 0-.154 0-.22.002-8.908 0-13.474-10.672-7.489-17.125l25.964-27.86c8.336.959 11.794.762 33.234.762zm254.787 16.513c1.129 2.867 3.897 4.752 6.979 4.752l8.85-.001c5.578.068 8.312 7.31 3.784 11.015l-49.866 40.352 20.388-25.091c1.825-2.245 2.195-5.34.952-7.953-1.244-2.612-3.879-4.276-6.772-4.276h-14.295c-.04 0-.144 0-.184.001-6.183 0-9.494-7.461-5.263-12.024l21.701-23.286h24.474l-8.883 8.278c-2.254 2.1-2.994 5.366-1.865 8.233z"/><path d="m212 159.542c-4.142 0-7.5 3.358-7.5 7.5v10c0 4.142 3.358 7.5 7.5 7.5s7.5-3.358 7.5-7.5v-10c0-4.142-3.358-7.5-7.5-7.5z"/><path d="m340 159.542c-4.142 0-7.5 3.358-7.5 7.5v10c0 4.142 3.358 7.5 7.5 7.5s7.5-3.358 7.5-7.5v-10c0-4.142-3.358-7.5-7.5-7.5z"/><path d="m228.99 152.17c2.071-3.587.842-8.174-2.745-10.245l-12.99-7.5c-3.587-2.071-8.175-.843-10.245 2.745-2.071 3.587-.842 8.174 2.745 10.245l12.99 7.5c3.588 2.071 8.175.842 10.245-2.745z"/><path d="m348.99 137.17c-2.072-3.588-6.659-4.815-10.245-2.745l-12.99 7.5c-3.587 2.071-4.816 6.658-2.745 10.245 1.389 2.406 3.91 3.751 6.502 3.751 1.272 0 2.563-.324 3.743-1.006l12.99-7.5c3.587-2.071 4.817-6.658 2.745-10.245z"/></svg>