<svg id="Layer_1" enable-background="new 0 0 512 512" height="512" viewBox="0 0 512 512" width="512" xmlns="http://www.w3.org/2000/svg"><path d="m303.38 12.414c-12.642-3.206-25.876-4.914-39.502-4.914-69.776 0-129.126 44.596-151.133 106.835v.007c-57.35.76-105.245 47.61-105.245 106.853 0 59.01 47.837 106.847 106.847 106.847h227.356z" fill="#d4d4d5"/><path d="m424.126 167.767c-.004-75.047-51.455-137.779-120.746-155.353-69.387 17.617-120.719 80.491-120.719 155.359 0 88.107 71.092 159.6 159.042 160.269h82.662c44.258 0 80.135-35.878 80.135-80.136 0-44.837-36.644-80.373-80.374-80.139z" fill="#efedee"/><path d="m216.774 328.042 4.393-4.394c5.858-5.857 5.858-15.355 0-21.213-5.857-5.857-15.355-5.857-21.213 0l-10.606 10.606h-8.787v-8.787l10.606-10.606c5.858-5.857 5.858-15.355 0-21.213-5.857-5.857-15.355-5.857-21.213 0l-4.394 4.394-4.394-4.394c-5.857-5.857-15.355-5.857-21.213 0s-5.858 15.355 0 21.213l10.606 10.606v8.787h-8.787l-10.606-10.606c-5.857-5.857-15.355-5.857-21.213 0s-5.858 15.355 0 21.213l4.393 4.394-4.393 4.394c-5.858 5.857-5.858 15.355 0 21.213 2.929 2.929 6.768 4.394 10.606 4.394s7.678-1.465 10.606-4.394l10.606-10.606h8.787v8.787l-10.606 10.606c-5.858 5.857-5.858 15.355 0 21.213 5.857 5.857 15.355 5.857 21.213 0l4.394-4.394 4.394 4.394c2.929 2.929 6.768 4.394 10.606 4.394s7.678-1.465 10.606-4.394c5.858-5.857 5.858-15.355 0-21.213l-10.606-10.606v-8.787h8.787l10.606 10.606c2.929 2.929 6.768 4.394 10.606 4.394s7.678-1.465 10.606-4.394c5.858-5.857 5.858-15.355 0-21.213z" fill="#b9f0ff"/><path d="m495.714 421.831 4.393-4.394c5.858-5.857 5.858-15.355 0-21.213-5.857-5.857-15.355-5.857-21.213 0l-10.606 10.606h-8.788v-8.787l10.606-10.606c5.858-5.857 5.858-15.355 0-21.213-5.857-5.857-15.355-5.857-21.213 0l-4.394 4.394-4.394-4.394c-5.857-5.857-15.355-5.857-21.213 0s-5.858 15.355 0 21.213l10.606 10.606v8.787h-8.787l-10.606-10.606c-5.857-5.857-15.355-5.857-21.213 0s-5.858 15.355 0 21.213l4.393 4.394-4.393 4.394c-5.858 5.857-5.858 15.355 0 21.213 2.929 2.929 6.768 4.394 10.606 4.394s7.678-1.465 10.606-4.394l10.606-10.606h8.787v8.787l-10.606 10.606c-5.858 5.857-5.858 15.355 0 21.213 5.857 5.857 15.355 5.857 21.213 0l4.394-4.394 4.394 4.394c2.929 2.929 6.768 4.394 10.606 4.394s7.678-1.465 10.606-4.394c5.858-5.857 5.858-15.355 0-21.213l-10.604-10.607v-8.787h8.787l10.606 10.606c2.929 2.929 6.768 4.394 10.606 4.394s7.678-1.465 10.606-4.394c5.858-5.857 5.858-15.355 0-21.213z" fill="#7ce3ff"/><path d="m304.3 413.472.014.014c12.177-12.177 15.084-38.354 15.037-55.565v-.028c-.024-2.738-2.262-4.965-5.001-4.972-16.944-.046-43.639 3.109-55.565 15.036l-.001.001.014.014c-12.852 12.852-12.38 32.857.132 45.369 12.569 12.57 32.879 12.621 45.37.131z" fill="#7ce3ff"/><path d="m76.808 406.719.008.008c6.958-6.958 8.619-21.917 8.592-31.752v-.016c-.014-1.565-1.292-2.837-2.857-2.841-9.682-.027-24.936 1.777-31.752 8.592h-.001l.008.008c-7.344 7.344-7.074 18.776.075 25.925 7.183 7.184 18.789 7.213 25.927.076z" fill="#b9f0ff"/><path d="m227.069 440.073c-13.014-.036-33.517 2.388-42.677 11.548l-.001.001.011.011c-9.871 9.871-9.508 25.236.101 34.846 9.654 9.655 25.253 9.695 34.847.101l.011.011c9.352-9.352 11.585-29.458 11.549-42.677v-.022c-.018-2.103-1.737-3.813-3.841-3.819z" fill="#7ce3ff"/><path d="m138.203 434.616c-16.944-.046-43.639 3.109-55.565 15.036l-.001.001.014.014c-12.852 12.852-12.38 32.857.132 45.369 12.569 12.571 32.88 12.623 45.37.132l.014.014c12.177-12.177 15.084-38.355 15.037-55.565v-.028c-.024-2.739-2.262-4.966-5.001-4.973z" fill="#7ce3ff"/><path d="m331.012 450.826c-13.014-.036-33.517 2.388-42.677 11.548l-.001.001.011.011c-9.871 9.871-9.508 25.236.101 34.846 9.654 9.655 25.253 9.695 34.847.101l.011.011c9.352-9.352 11.585-29.458 11.549-42.677v-.022c-.019-2.103-1.738-3.814-3.841-3.819z" fill="#b9f0ff"/><ellipse cx="206.971" cy="198.885" fill="#ff8e9e" rx="25.471" ry="20.283" transform="matrix(1 .003 -.003 1 .624 -.648)"/><ellipse cx="345.029" cy="199.317" fill="#ff8e9e" rx="25.471" ry="20.283" transform="matrix(-1 -.003 .003 -1 689.433 399.714)"/><path d="m204.5 167.042v10c0 4.142 3.358 7.5 7.5 7.5s7.5-3.358 7.5-7.5v-10c0-4.142-3.358-7.5-7.5-7.5s-7.5 3.358-7.5 7.5z"/><path d="m332.5 167.042v10c0 4.142 3.358 7.5 7.5 7.5s7.5-3.358 7.5-7.5v-10c0-4.142-3.358-7.5-7.5-7.5s-7.5 3.358-7.5 7.5z"/><path d="m285.734 176.807c-1.666 3.484-5.291 5.735-9.234 5.735s-7.568-2.251-9.234-5.735c-1.787-3.737-6.266-5.317-10.001-3.531-3.737 1.787-5.318 6.265-3.531 10.001 4.144 8.666 13.08 14.265 22.766 14.265s18.623-5.599 22.766-14.265c1.787-3.737.206-8.215-3.531-10.001-3.737-1.789-8.214-.206-10.001 3.531z"/><path d="m196.47 388.952c7.005-7.006 8.345-17.347 4.418-25.582 8.169 3.894 18.522 2.641 25.582-4.418 6.219-6.22 8.163-15.284 5.296-23.41h192.598c48.322 0 87.636-39.313 87.636-87.636 0-18.434-5.651-36.06-16.342-50.974-2.414-3.368-7.102-4.137-10.466-1.726-3.366 2.413-4.139 7.099-1.726 10.466 8.854 12.35 13.534 26.955 13.534 42.234 0 40.052-32.584 72.636-72.636 72.636h-192.598c2.864-8.116.93-17.183-5.296-23.41-6.908-6.907-17.23-8.374-25.589-4.403 3.906-8.178 2.648-18.537-4.411-25.597-8.475-8.474-22.086-8.762-30.91-.86-8.823-7.9-22.434-7.614-30.91.86-7.044 7.045-8.325 17.404-4.412 25.597-8.358-3.975-18.68-2.505-25.588 4.403-5.971 5.972-7.936 14.485-5.69 22.217-47.499-7.417-83.96-48.606-83.96-98.154 0-54.068 43.893-98.639 97.844-99.354 3.288-.043 6.059-2.203 7.03-5.171 21.584-60.818 79.432-101.67 144.003-101.67 84.221 0 152.744 68.531 152.749 152.767 0 3.774 2.864 7.512 7.928 7.499 13.985.001 27.596 4.051 39.36 11.713 3.471 2.258 8.116 1.28 10.378-2.192 2.26-3.471 1.278-8.117-2.192-10.378-12.258-7.982-26.183-12.719-40.628-13.868-3.803-89.167-77.525-160.541-167.595-160.541-69.259 0-131.476 42.802-156.421 107.029-27.965 1.631-54.128 13.417-74.153 33.515-21.476 21.555-33.303 50.197-33.303 80.651 0 58.091 43.543 106.202 99.705 113.412-6.041 14.944 5.063 30.935 20.856 30.935 3.402 0 6.689-.75 9.672-2.172-3.926 8.236-2.587 18.575 4.418 25.582 8.476 8.476 22.086 8.762 30.909.861 8.78 7.872 22.361 7.687 30.91-.861zm-25.606-15.001c-2.93-2.929-7.678-2.928-10.606 0l-4.394 4.394c-4.713 4.715-12.803 1.35-12.803-5.303 0-2.003.78-3.887 2.197-5.303l10.606-10.606c1.407-1.407 2.197-3.314 2.197-5.304v-8.787c0-4.143-3.358-7.5-7.5-7.5h-8.787c-1.989 0-3.897.79-5.303 2.196l-10.606 10.606c-1.417 1.417-3.3 2.197-5.303 2.197-6.705 0-9.985-8.122-5.303-12.804 4.809-4.81 4.881-4.784 5.516-5.845 1.452-2.413 1.393-5.389 0-7.703-.634-1.06-.694-1.022-5.517-5.846-1.417-1.416-2.197-3.3-2.197-5.303 0-6.603 8.052-10.055 12.803-5.303l10.606 10.606c1.406 1.406 3.314 2.196 5.303 2.196h8.787c4.142 0 7.5-3.357 7.5-7.5v-8.787c0-1.989-.79-3.896-2.197-5.304l-10.606-10.606c-1.417-1.416-2.197-3.3-2.197-5.303 0-6.652 8.089-10.018 12.803-5.303l4.394 4.394c2.929 2.928 7.678 2.928 10.606 0l4.394-4.394c4.713-4.715 12.803-1.35 12.803 5.303 0 2.003-.78 3.887-2.197 5.303l-10.606 10.606c-1.407 1.407-2.197 3.314-2.197 5.304v8.787c0 4.143 3.358 7.5 7.5 7.5h8.787c1.989 0 3.897-.79 5.303-2.196l10.606-10.606c4.67-4.671 12.803-1.417 12.803 5.303 0 2.003-.78 3.887-2.197 5.303v.001c-.461.461-4.507 4.477-4.894 4.948-1.61 1.97-2.081 4.576-1.374 6.919.67 2.22 1.604 2.861 6.268 7.527 2.931 2.93 2.931 7.675 0 10.605-2.932 2.932-7.674 2.932-10.606 0l-10.606-10.606c-1.406-1.406-3.314-2.196-5.303-2.196h-8.787c-4.142 0-7.5 3.357-7.5 7.5v8.787c0 1.989.79 3.896 2.197 5.304l10.606 10.606c1.417 1.416 2.197 3.3 2.197 5.303 0 6.606-8.051 10.055-12.803 5.303z"/><path d="m479.821 386.518c3.896-8.155 2.661-18.524-4.411-25.597-8.476-8.474-22.087-8.763-30.91-.86-8.823-7.902-22.435-7.613-30.91.86-6.913 6.913-8.378 17.243-4.396 25.604-8.362-3.983-18.69-2.517-25.604 4.396-8.475 8.476-8.762 22.087-.86 30.91-7.901 8.823-7.614 22.435.86 30.91 7.073 7.071 17.44 8.308 25.597 4.411-3.973 8.358-2.505 18.68 4.403 25.589 8.476 8.475 22.087 8.762 30.91.861 8.779 7.872 22.361 7.687 30.909-.861 7.005-7.004 8.345-17.346 4.419-25.582 14.993 7.146 32.172-3.904 32.172-20.328 0-5.591-2.025-10.871-5.729-15 3.703-4.13 5.729-9.409 5.729-15 0-16.489-17.226-27.416-32.179-20.313zm10.589 40.616 4.394 4.395c2.93 2.93 2.931 7.675-.001 10.605-2.93 2.932-7.675 2.932-10.605 0l-10.606-10.606c-1.407-1.406-3.314-2.196-5.304-2.196h-8.788c-4.143 0-7.5 3.357-7.5 7.5v8.787c0 1.989.79 3.896 2.196 5.304l10.607 10.606c4.678 4.678 1.405 12.803-5.304 12.803-2.003 0-3.887-.78-5.303-2.197l-4.394-4.394c-2.931-2.929-7.678-2.928-10.607 0l-4.394 4.394c-4.73 4.733-12.802 1.325-12.802-5.303 0-2.004.779-3.887 2.196-5.303l10.606-10.606c1.406-1.407 2.196-3.314 2.196-5.304v-8.787c0-4.143-3.357-7.5-7.5-7.5h-8.787c-1.989 0-3.896.79-5.304 2.196l-10.606 10.606c-1.416 1.417-3.3 2.197-5.303 2.197-6.616 0-10.04-8.067-5.303-12.803l4.394-4.394c2.929-2.93 2.929-7.678 0-10.607l-4.394-4.394c-4.723-4.722-1.334-12.802 5.303-12.802 2.004 0 3.887.779 5.303 2.196l10.606 10.606c1.407 1.406 3.314 2.196 5.304 2.196h8.787c4.143 0 7.5-3.357 7.5-7.5v-8.787c0-1.989-.79-3.896-2.196-5.304l-10.606-10.606c-1.417-1.416-2.196-3.299-2.196-5.303 0-6.617 8.068-10.04 12.802-5.303l4.394 4.394c2.93 2.928 7.678 2.928 10.607 0l4.394-4.394c2.924-2.926 7.681-2.924 10.606 0 2.93 2.93 2.931 7.675-.001 10.605l-10.606 10.606c-1.406 1.407-2.196 3.314-2.196 5.304v8.787c0 4.143 3.357 7.5 7.5 7.5h8.787c1.989 0 3.896-.79 5.304-2.196l10.606-10.606c4.667-4.67 12.803-1.419 12.803 5.303 0 2.003-.78 3.887-2.197 5.304l-4.393 4.394c-2.928 2.93-2.928 7.678.001 10.607z"/><path d="m309.167 419.204c.155-.131.305-.27.45-.414 15.661-15.661 17.269-47.799 17.233-60.963-.06-6.822-5.657-12.388-12.479-12.407-10.201.02-44.79 1.133-60.89 17.233-15.633 15.687-15.59 40.254.145 55.989 15.339 15.341 40.072 15.572 55.541.562zm-45.066-45.93c9.845-9.889 33.675-12.615 47.735-12.838-.251 17.364-3.634 38.128-12.495 47.408-.118.104-.233.212-.345.324-4.603 4.604-10.729 7.136-17.26 7.136-.023 0-.047 0-.07 0-6.574-.019-12.765-2.6-17.433-7.268-9.784-9.783-9.841-25.053-.132-34.762z"/><path d="m82.119 412.03c9.45-9.45 10.816-27.285 10.789-37.137-.047-5.416-4.387-10.275-10.543-10.275-6.398 0-26.9.82-36.869 10.788-.114.114-.225.232-.331.354-9.88 10.234-9.734 26.039.414 36.187 10.176 10.177 26.538 10.086 36.54.083zm-10.615-10.614c-2.023 2.022-4.717 3.136-7.59 3.136-9.376 0-14.842-11.492-7.803-18.531 4.268-4.267 15.303-5.9 21.678-6.271-.342 6.317-1.807 17.158-6.285 21.666z"/><path d="m227.09 432.573c-8.017.004-35.159.902-48.002 13.745-12.637 12.637-12.586 32.765.111 45.463 12.702 12.703 33.017 12.514 45.464.113 12.49-12.49 13.774-37.729 13.746-48.069-.054-6.186-5.132-11.234-11.319-11.252zm-13.043 48.703c-6.809 6.808-17.628 6.513-24.24-.102-6.717-6.717-7.008-17.334-.101-24.238 6.819-6.856 23.904-8.984 33.653-9.307-.303 10.05-2.219 26.517-9.312 33.647z"/><path d="m137.872 427.114c-10.634 0-44.617 1.312-60.538 17.232-15.462 15.462-15.756 40.09.145 55.99 15.429 15.431 40.41 15.622 55.991.146 15.662-15.663 17.27-47.8 17.233-60.963-.056-6.471-5.2-12.405-12.831-12.405zm-15.022 62.748c-4.531 4.531-10.604 7.136-17.332 7.136-21.256-.06-33.506-26.088-17.564-42.029 9.849-9.892 33.683-12.616 47.735-12.838-.206 14.223-2.8 37.736-12.839 47.731z"/><path d="m330.768 443.322c-8.332 0-35.034 1.044-47.736 13.747-12.547 12.499-12.672 32.677.111 45.461 12.676 12.679 33.041 12.537 45.464.113 12.491-12.489 13.774-37.729 13.746-48.068-.053-5.913-4.781-11.253-11.585-11.253zm-12.778 48.704c-3.207 3.207-7.476 4.971-12.027 4.971-14.842 0-23.457-18.171-12.314-29.311.091-.092.18-.186.266-.28 6.113-5.766 20.505-8.6 33.387-9.027-.303 10.04-2.217 26.514-9.312 33.647z"/></svg>