<svg id="Layer_1" enable-background="new 0 0 512 512" height="512" viewBox="0 0 512 512" width="512" xmlns="http://www.w3.org/2000/svg"><path d="m227.286 50.489c-22.126 7.231-41.936 19.644-57.977 35.82h-146.809c-8.284 0-15 6.716-15 15s6.716 15 15 15h80c8.284 0 15 6.716 15 15s-6.716 15-15 15h-50c-8.284 0-15 6.716-15 15s6.716 15 15 15h20c8.284 0 15 6.716 15 15s-6.716 15-15 15h-40c-8.284 0-15 6.716-15 15s6.716 15 15 15h26.315c-2.783 7.689-4.315 15.995-4.315 24.692 0 40.073 32.485 72.558 72.557 72.558h173.531z" fill="#d4d4d5"/><path d="m504.5 236.816c0-53.64-43.366-96.059-95.292-96.747v-.007c-19.926-56.354-73.663-96.732-136.841-96.732-15.724 0-30.877 2.517-45.082 7.159-22.513 31.241-35.784 69.586-35.784 111.035 0 76.018 44.616 141.606 109.086 172.035h107.169c53.431 0 96.744-43.313 96.744-96.743z" fill="#efedee"/><g fill="#b9f0ff"><path d="m254.43 304.06c-5.327-6.557-13.904-11.036-21.362-10.498-16.272.994-19.731 9.949-25.618 22.16-6.597 13.058-18.053 23.714-32.133 28.903-9.154 3.425-19.219 4.369-28.643 2.697-13.216-2.271-24.739-8.996-34.76-21.815-6.526-9.133-17.752-11.569-16.752-11.255-4.431-1.392-6.895-6.112-5.503-10.543.952-3.032 3.475-5.144 6.385-5.729 11.247-2.234 23.848.129 34.975 8.281 6.388 4.784 13.411 6.499 19.164 5.97 17.296-1.691 19.291-18.346 21.902-23.869 4.015-9.625 10.232-16.976 16.979-23.214 19.258-16.652 42.683-18.074 54.519-15.499 30.489 5.281 52.056 31.459 54.506 58.326 1.767 33.423-18.694 55.379-40.642 61.946-7.987 2.428-16.373 2.886-24.063 1.292-4.562-.946-7.493-5.41-6.547-9.972.653-3.15 2.984-5.522 5.866-6.378 27.648-8.205 34.444-35.256 21.727-50.803z"/><path d="m56.493 415.32c45.363-3.145 60.748-18.096 83.646-17.342 28.203 1.169 41.33 19.313 45.627 23.999 27.347 29.747 70.193 36.444 104.46 19.314 17.756-8.878 23.068-17.616 29.472-21.889 14.267-9.983 39.497-.313 43.442 24.147.599 5.607.017 9.662-.587 12.836-.828 4.358-.328 9.193 3.668 11.387 4.068 2.234 8.319.143 12.013-4.596 2.078-2.666 3.963-5.816 5.548-8.746 18.94-39.519-16.675-80.491-56.186-80.943-26.359-.302-40.342 16.265-47.895 22.706-17.898 15.302-48.442 18.586-71.105 1.586-7.975-5.623-31.6-27.655-73.014-22.25-26.035 4.002-39.415 17.574-70.433 23.066-3.306.585-6.632 1.03-9.971 1.351-3.956.38-6.975 3.701-6.975 7.675-.001 4.487 3.813 8.009 8.29 7.699z"/><path d="m330.197 329.583c11.585-17.465 34.903-22.155 56.625-6.703 10.459 7.37 27.081 11.78 38.893 6.53 13.444-6.562 14.126-17.088 8.425-23.016-8.148-8.471-21.025-2.082-20.023-2.451-4.621 1.703-9.748-.663-11.451-5.285-4.771-12.95 26.438-34.986 53.516-16.898 30.456 19.813 24.844 68.247-15.389 84.477-31.697 12.399-63.283-4.979-74.803-18.54-3.738-4.536-8.743-8.548-14.563-8.307-4.704.115-10.856 3.591-9.856 3.096-8.137 4.031-16.363-5.341-11.374-12.903z"/></g><ellipse cx="237.331" cy="207.322" fill="#ff8e9e" rx="29.212" ry="23.263" transform="matrix(1 .003 -.003 1 .651 -.743)"/><ellipse cx="395.669" cy="207.818" fill="#ff8e9e" rx="29.212" ry="23.263" transform="matrix(-1 -.003 .003 -1 790.686 416.875)"/><path d="m512 236.816c0-27.763-10.782-53.874-30.36-73.524-18.146-18.212-41.824-28.937-67.147-30.525-22.799-58.194-79.273-96.937-142.126-96.937-39.936 0-77.502 15.239-106.138 42.979h-143.729c-12.407 0-22.5 10.094-22.5 22.5s10.093 22.5 22.5 22.5h80c4.136 0 7.5 3.364 7.5 7.5s-3.364 7.5-7.5 7.5h-50c-12.407 0-22.5 10.094-22.5 22.5s10.093 22.5 22.5 22.5h20c4.136 0 7.5 3.364 7.5 7.5s-3.364 7.5-7.5 7.5h-40c-12.407 0-22.5 10.094-22.5 22.5s10.093 22.5 22.5 22.5h16.351c-4.149 18.852-1.369 38.689 8.046 55.772 2 3.627 6.562 4.948 10.188 2.948 3.628-1.999 4.948-6.562 2.948-10.188-8.187-14.854-10.173-32.272-5.713-48.532h3.33c4.142 0 7.5-3.357 7.5-7.5s-3.358-7.5-7.5-7.5h-8.836-26.314c-4.136 0-7.5-3.364-7.5-7.5s3.364-7.5 7.5-7.5h40c12.407 0 22.5-10.094 22.5-22.5s-10.093-22.5-22.5-22.5h-20c-4.136 0-7.5-3.364-7.5-7.5s3.364-7.5 7.5-7.5h50c12.407 0 22.5-10.094 22.5-22.5s-10.093-22.5-22.5-22.5h-80c-4.136 0-7.5-3.364-7.5-7.5s3.364-7.5 7.5-7.5h146.81c2 0 3.917-.799 5.326-2.219 26.064-26.285 60.773-40.76 97.731-40.76 58.141 0 110.228 36.763 129.69 91.509.951 3 3.738 5.186 7.051 5.229 48.464.642 87.892 40.68 87.892 89.248 0 20.916-7.071 40.588-20.111 56.461-3.874-7.052-9.478-13.15-16.581-17.779-19.733-13.157-41.738-8.666-54.797 1.627-8.974 7.072-12.76 16.316-9.883 24.125 3.356 9.112 13.498 12.764 21.081 9.73h.001c.333-.123.653-.267.958-.43 10.863-4.272 18.824 5.171 4.882 12.058-9.272 4.037-23.084.008-31.381-5.839-26.657-18.964-55.513-10.824-67.598 9.29h-19.175c1.099-5.9 1.521-12.08 1.183-18.479-.005-.096-.012-.19-.021-.285-2.922-32.048-28.372-59.362-60.542-65.008-29.73-6.331-66.371 11.081-79.793 43.043-3.043 6.61-3.918 18.279-15.73 19.433-4.512.419-9.604-1.227-14.043-4.551-12.258-8.981-26.771-12.39-40.885-9.583-5.702 1.146-10.324 5.297-12.062 10.833-2.963 9.431 3.56 18.663 11.192 20.137 4.721 1.366 8.849 4.101 12.31 8.528 10.826 13.849 23.713 21.892 39.358 24.58 10.676 1.895 22.249.81 32.547-3.044 6.678-2.461 12.935-6.081 18.501-10.604h46.941c-3.503 2.876-7.821 5.143-12.783 6.615-10.28 3.05-14.631 15.134-8.793 24.025 4.451 6.779 11.983 7.963 20.975 7.963 14.042 0 28.321-5.339 39.761-15.164 7.586-6.515 13.392-14.467 17.308-23.439h22.782c4.163 9.365 15.386 12.293 22.792 7.865 1.078-.571 4.207-1.941 6.342-2.041 3.255-.108 6.7 3.441 8.467 5.584.023.028.047.057.071.085 14.1 16.6 49.248 33.972 83.323 20.641 27.581-11.126 42.954-37.594 38.827-63.648 19.102-19.562 29.576-45.222 29.576-72.729zm-418.061 84.825c1.036.164 2.072.105 3.049-.15-1.03.273-2.083.321-3.049.15zm116.122 4.418c1.492-2.233 2.867-4.548 4.083-6.955.021-.041.042-.083.062-.125l.872-1.817c5.226-10.919 7.388-15.438 18.529-16.119 4.757-.356 11.077 2.915 15.018 7.767 3.827 4.678 5.261 10.984 4.023 17.25h-42.587zm62.679 27.061c-10.922 9.378-25.064 13.397-37.833 10.75-.251-.053-.45-.188-.591-.402s-.186-.451-.134-.703c.106-.51.529-.673.656-.71 15.786-4.686 27.289-15.339 31.56-29.229 3.636-11.823 1.332-24.352-6.147-33.493-6.684-8.229-16.703-13.317-25.9-13.317-.583 0-1.165.021-1.74.062-19.866 1.214-25.558 13.108-31.063 24.61l-.825 1.72c-5.89 11.617-16.092 20.794-28.033 25.195-7.858 2.938-16.631 3.768-24.745 2.329-11.802-2.028-21.626-8.22-30.032-18.928-3.239-4.479-7.824-8.31-13.271-11.088-3.262-1.663-5.638-2.488-7.358-2.87-.397-.193-.605-.655-.469-1.088.153-.488.616-.604.69-.619 9.925-1.971 20.253.505 29.018 6.927 7.313 5.477 16.186 8.184 24.39 7.432 19.09-1.866 24.349-17.588 26.876-25.144.397-1.188.808-2.415 1.077-2.983.05-.105.097-.212.142-.319 3.04-7.287 7.825-13.806 15.056-20.508 17.736-15.271 39.098-15.682 47.926-13.764.104.023.209.044.314.062 25.213 4.367 45.955 26.483 48.304 51.476.917 18.079-5.425 33.916-17.868 44.602zm165.32 6.133c-29.4 11.5-57.821-6.406-66.321-16.375-7.785-9.419-15.476-11.173-20.561-10.984-5.097.145-11.258 2.823-13.203 3.985-.987.354-2.32-.949-1.528-2.15 4.321-6.514 10.769-10.856 18.155-12.226 8.873-1.651 18.771 1.015 27.899 7.508 11.659 8.216 31.106 13.989 46.261 7.252.081-.036.162-.074.242-.113 18.251-8.908 19.645-25.489 10.541-34.955-9.424-9.799-23.021-6.723-28.298-4.217-.612.1-1.293-.235-1.544-.913-.198-.538.537-3.569 5.093-7.159 6.574-5.18 21.811-11.201 37.22-.909.025.018.051.034.076.051 25.152 16.361 20.761 57.168-14.032 71.205z"/><path d="m370.153 390.439c-3.141 2.701-3.497 7.437-.796 10.577 23.322 27.119 6.858 56.129.477 59.971-.228-.922-.092-2.259.087-3.199 5.707-29.989-16.28-49.772-37.305-49.772-20.717 0-21.336 14.361-45.744 26.567-33.637 16.816-73.714 7.617-96.748-19.007-5.652-6.533-20.666-23.888-49.738-25.094-25.055-.827-39.639 14.254-84.442 17.357-.308 0-.316-.401-.049-.427 44.108-4.244 57.635-25.23 92.458-25.23 30.705 0 48.658 16.576 55.829 21.662 25.006 18.692 59.403 15.996 80.385-1.944 8.013-6.829 19.67-21.058 42.943-20.912 6.959.079 13.883 1.577 20.581 4.451 3.81 1.636 8.218-.128 9.85-3.934 1.634-3.807-.127-8.217-3.934-9.85-9.104-3.908-17.961-5.616-27.121-5.672-29.014 0-44.859 18.375-52.059 24.509-15.56 13.304-42.21 15.932-61.731 1.287-18.132-13.486-35.857-24.598-64.743-24.598-39.064 0-52.65 21.328-93.891 25.299-7.844.751-13.76 7.261-13.76 15.141 0 8.881 7.608 15.818 16.309 15.181 25.607-1.775 42.055-7.189 55.271-11.54 13.419-4.418 40.757-15.625 66.498 14.127 27.258 31.525 74.704 42.658 114.8 22.609 26.464-13.232 26.134-24.983 39.036-24.983 9.703 0 20.717 7.395 23.087 21.532.777 7.661-.988 10.004-.988 15.246 0 10.501 7.44 16.377 14.859 16.377 19.131 0 43.372-47.472 11.156-84.936-2.701-3.14-7.436-3.495-10.577-.795z"/><path d="m252 190.059c4.142 0 7.5-3.358 7.5-7.5v-10c0-4.142-3.358-7.5-7.5-7.5s-7.5 3.358-7.5 7.5v10c0 4.142 3.358 7.5 7.5 7.5z"/><path d="m387.5 182.559v-10c0-4.142-3.358-7.5-7.5-7.5s-7.5 3.358-7.5 7.5v10c0 4.142 3.358 7.5 7.5 7.5s7.5-3.358 7.5-7.5z"/><path d="m316.5 203.059c9.687 0 18.623-5.599 22.766-14.265 1.787-3.737.206-8.215-3.531-10.001-3.737-1.789-8.215-.206-10.001 3.531-1.666 3.484-5.291 5.735-9.234 5.735s-7.568-2.251-9.234-5.735c-1.787-3.737-6.266-5.317-10.001-3.531-3.737 1.787-5.318 6.265-3.531 10.001 4.143 8.666 13.079 14.265 22.766 14.265z"/></svg>