<svg id="Layer_1" enable-background="new 0 0 512 512" height="512" viewBox="0 0 512 512" width="512" xmlns="http://www.w3.org/2000/svg"><path d="m307.57 22.567c-36.288-13.208-73.633-17.44-109.618-13.839-5.182.519-9.629 3.91-11.41 8.804-2.309 6.345.409 13.475 6.424 16.541 88.698 45.217 131.744 150.387 96.805 246.382-35.067 96.345-135.855 148.777-232.527 126.511-6.579-1.516-13.244 2.197-15.553 8.542l-.002.006c-1.781 4.894-.555 10.35 3.081 14.078 25.251 25.888 56.579 46.651 92.867 59.858 128.448 46.751 271.253-18.919 318.407-148.476 46.97-129.046-19.474-271.455-148.474-318.407z" fill="#fce3a0"/><path d="m251.688 43.617c-20.654-7.517-41.712-11.574-62.551-12.493 1.058 1.183 2.343 2.191 3.83 2.949 88.697 45.217 131.743 150.387 96.804 246.382-35.067 96.345-135.855 148.777-232.527 126.511-1.629-.375-3.263-.428-4.835-.202 16.555 12.692 35.296 23.122 55.952 30.64 108.339 39.432 228.785-15.957 268.557-125.23 39.616-108.842-16.426-228.956-125.23-268.557z" fill="#ffce71"/><ellipse cx="318.094" cy="303.451" fill="#ff8e9e" rx="22.474" ry="17.897" transform="matrix(1 .003 -.003 1 .952 -.995)"/><ellipse cx="439.909" cy="303.832" fill="#ff8e9e" rx="22.474" ry="17.897" transform="matrix(-1 -.003 .003 -1 878.864 609.041)"/><path d="m433.366 110.711c-48.922-71.053-128.967-110.711-210.824-110.711-8.418 0-16.942.426-25.337 1.265-8.021.803-14.973 6.182-17.71 13.702-3.546 9.735.478 20.901 10.065 25.788 87.467 44.589 126.203 146.36 93.163 237.135-27.574 75.76-100.232 126.661-180.801 126.661-14.433 0-28.899-1.646-42.993-4.894-10.369-2.385-20.691 3.493-24.266 13.23-.008.021-.015.04-.022.061-2.699 7.418-1.048 15.927 4.76 21.88 4.925 5.05 10.118 9.947 15.435 14.557 3.129 2.716 7.867 2.377 10.58-.753 2.713-3.129 2.376-7.866-.753-10.579-5.002-4.338-9.888-8.946-14.524-13.698-1.702-1.745-2.155-4.173-1.413-6.246.004-.012.009-.023.013-.036 1.021-2.807 3.947-4.463 6.822-3.798 15.199 3.501 30.797 5.276 46.362 5.276 84.342 0 164.024-51.711 194.896-136.53 36.32-99.798-8.582-208.797-100.446-255.629-2.655-1.354-3.796-4.51-2.783-7.295.791-2.173 2.749-3.67 5.108-3.906 7.9-.79 15.922-1.19 23.844-1.19 133.825-.001 241.078 109.399 241.078 240.917 0 133.856-109.415 241.082-240.989 241.082-28.082 0-55.814-4.911-82.427-14.598-18.581-6.763-36.233-15.737-52.466-26.673-3.437-2.314-8.097-1.405-10.411 2.029-2.314 3.436-1.405 8.097 2.03 10.41 17.244 11.617 35.99 21.148 55.716 28.329 28.263 10.287 57.721 15.503 87.558 15.503 51.957 0 102.127-15.595 145.087-45.098 72.553-49.826 110.902-130.775 110.902-210.984 0-51.997-15.648-102.209-45.254-145.207z"/><path d="m332.001 283.5v-10c0-4.142-3.358-7.5-7.5-7.5s-7.5 3.358-7.5 7.5v10c0 4.142 3.358 7.5 7.5 7.5s7.5-3.358 7.5-7.5z"/><path d="m440.001 283.5v-10c0-4.142-3.358-7.5-7.5-7.5s-7.5 3.358-7.5 7.5v10c0 4.142 3.358 7.5 7.5 7.5s7.5-3.358 7.5-7.5z"/><path d="m379.001 319c9.687 0 18.623-5.599 22.766-14.265 1.787-3.737.206-8.215-3.531-10.001-3.737-1.789-8.215-.206-10.001 3.531-1.666 3.484-5.291 5.735-9.234 5.735s-7.568-2.251-9.234-5.735c-1.787-3.737-6.266-5.317-10.001-3.531-3.737 1.787-5.318 6.265-3.531 10.001 4.144 8.666 13.08 14.265 22.766 14.265z"/></svg>