<svg id="Layer_1" enable-background="new 0 0 512 512" height="512" viewBox="0 0 512 512" width="512" xmlns="http://www.w3.org/2000/svg"><path d="m337.213 88.769c11.716-11.716 11.716-30.711 0-42.427-11.715-11.716-30.711-11.716-42.426 0l-8.787 8.787v-17.005c0-16.346-12.816-30.164-29.156-30.613-16.954-.465-30.844 13.14-30.844 29.989v17.629l-8.787-8.787c-11.715-11.716-30.711-11.716-42.426 0-11.716 11.716-11.716 30.711 0 42.427l51.213 51.213v38.858c0 6.402-3.065 12.417-8.244 16.18l-22.446 16.308c-5.179 3.763-11.847 4.819-17.936 2.841l-29.777-9.675-32.881-64.532c-7.521-14.762-25.585-20.633-40.351-13.11-14.763 7.522-20.632 25.587-13.11 40.35l5.642 11.072-20.118-6.537c-15.758-5.123-32.684 3.504-37.802 19.261-5.12 15.758 3.503 32.682 19.261 37.802l20.119 6.537-10.507 5.354c-14.896 7.59-21.276 26.194-13.493 40.99 5.356 10.183 15.771 16.035 26.572 16.034 4.581 0 9.233-1.054 13.596-3.276l64.532-32.881 29.56 9.605c6.089 1.978 10.862 6.752 12.841 12.841l10.642 32.751c1.979 6.089.922 12.757-2.841 17.936l-20.57 28.309-71.535 11.33c-16.364 2.592-27.529 17.959-24.938 34.324 2.593 16.365 17.953 27.533 34.324 24.938l12.273-1.944-12.073 16.619c-9.677 13.319-7.301 32.175 5.848 42.082 5.421 4.085 11.758 6.049 18.039 6.049 9.276 0 18.425-4.29 24.295-12.368l12.434-17.114 1.944 12.273c2.341 14.775 15.094 25.311 29.594 25.311 1.56 0 3.142-.122 4.73-.374 16.364-2.592 27.529-17.959 24.938-34.324l-11.33-71.534 30.915-42.55 10.373-60c-6.222 0-11.465-3.995-13.292-9.619l-4.657-14.334c-1.864-5.736.178-12.019 5.057-15.563l12.193-8.859c4.879-3.545 11.485-3.545 16.364 0l.417.303 29.72-52.571-.075-.054c-5.179-3.763-8.244-9.778-8.244-16.18v-38.858z" fill="#7ce3ff"/><path d="m503.023 190.998c-5.119-15.757-22.042-24.38-37.802-19.261l-20.118 6.537 5.358-10.515c7.422-14.566 2.274-32.698-12.084-40.515-14.895-8.109-33.444-2.292-41.093 12.719l-32.881 64.532-29.777 9.675c-6.089 1.978-12.757.922-17.936-2.841l-22.371-16.254c-19.69 9.834-31.447 30.629-29.72 52.571l11.776 8.556c4.879 3.545 6.92 9.828 5.057 15.563l-4.657 14.334c-1.864 5.735-7.208 9.619-13.239 9.619h-15.018c-11.26 17.84-14.99 39.415-10.373 60h35.71l30.915 42.55-11.33 71.534c-2.592 16.365 8.573 31.732 24.938 34.324 1.59.252 3.17.374 4.73.374 14.499 0 27.253-10.537 29.594-25.311l1.944-12.273 12.434 17.114c5.87 8.08 15.018 12.368 24.295 12.368 6.285 0 12.63-1.969 18.054-6.061 13.137-9.911 15.505-28.757 5.832-42.07l-12.074-16.618 12.273 1.944c16.372 2.594 31.732-8.573 34.324-24.938s-8.573-31.731-24.938-34.324l-71.535-11.331-20.568-28.31c-3.763-5.179-4.819-11.847-2.841-17.936l10.642-32.751c1.978-6.089 6.752-10.862 12.841-12.841l29.56-9.605 64.532 32.881c4.363 2.223 9.014 3.276 13.596 3.276 10.801 0 21.219-5.853 26.574-16.037 7.78-14.796 1.398-33.399-13.497-40.988l-10.505-5.353 20.119-6.537c15.757-5.119 24.38-22.044 19.259-37.801z" fill="#b9f0ff"/><path d="m474.442 162.758c-6.66 0-10.958 1.637-15.098 2.982 5.766-17.521-1.666-36.501-17.434-45.086-18.302-9.964-41.608-3.227-51.355 15.902l-31.467 61.763c-29.263 9.509-27.998 9.327-30.679 9.327-5.342 0-5.655-1.157-29.792-18.696-3.226-2.344-5.152-6.124-5.152-10.113v-35.751l49.011-49.016c7.082-7.083 10.982-16.5 10.982-26.516 0-31.162-35.658-48.342-59.997-30.006-.302-20.207-16.533-36.989-36.441-37.535-21.019-.584-38.546 16.327-38.546 37.531-14.485-10.91-35.47-10.05-49.011 3.493-14.652 14.654-14.657 38.376 0 53.033l49.011 49.016v35.751c0 3.988-1.926 7.769-5.152 10.113-24.36 17.701-24.534 18.696-29.793 18.696-2.671 0-1.76.07-27.817-8.397-3.933-1.28-8.17.876-9.449 4.815-1.28 3.939.876 8.171 4.815 9.451 41.646 13.533 34.242 14.324 71.06-12.429 7.098-5.157 11.335-13.474 11.335-22.248 0-41.833.783-41.181-2.196-44.161l-51.208-51.213c-14.22-14.221-3.955-38.409 15.908-38.409 11.26 0 16.159 6.842 24.693 15.377 4.707 4.707 12.802 1.373 12.802-5.303v-17.629c0-12.597 10.413-22.84 23.135-22.491 12.053.331 21.86 10.7 21.86 23.115v17.005c0 6.659 8.08 10.023 12.802 5.303 8.586-8.587 13.466-15.377 24.693-15.377 20.116 0 29.948 24.368 15.907 38.41-55.306 55.312-53.403 52.222-53.403 56.515v38.857c0 8.774 4.237 17.091 11.41 22.302l22.367 16.254c7.37 5.355 16.561 6.54 24.66 3.906 32.129-10.441 32.256-9.712 34.138-13.403l32.877-64.531c5.783-11.351 19.697-15.594 30.821-9.537 10.688 5.82 14.608 19.486 8.986 30.524l-5.357 10.515c-3.022 5.932 2.653 12.601 8.999 10.537l20.116-6.536c14.694-4.776 29.457 6.263 29.457 21.405 0 9.772-6.25 18.369-15.553 21.392l-20.116 6.537c-6.341 2.06-7.025 10.788-1.088 13.815l10.504 5.352c11.051 5.631 16.148 19.587 10.263 30.815-5.712 10.862-19.101 15.186-30.123 9.569-69.745-35.541-66.177-34.654-70.247-33.331l-29.557 9.604c-8.344 2.711-14.944 9.311-17.654 17.656-17.106 52.65-18.687 40.959 13.831 85.722 2.556 3.519-.64 2.123 76.42 14.329 10.999 1.743 18.982 11.074 18.982 22.186 0 12.39-9.873 22.541-22.46 22.541-2.32 0-2.471-.109-15.832-2.226-6.571-1.043-11.164 6.414-7.239 11.816 12.592 17.334 16.552 20.856 16.552 30.405 0 22.111-27.966 30.442-40.522 13.159l-12.433-17.114c-3.928-5.409-12.435-3.332-13.473 3.236l-1.943 12.272c-1.743 11-11.073 18.985-22.184 18.985-12.386 0-22.538-9.876-22.538-22.468 0-2.552-.726 2.8 11.609-75.09.668-4.212 1.362-1.862-32.25-48.131-1.411-1.942-3.667-3.092-6.067-3.092h-35.707c-2.4 0-4.656 1.149-6.067 3.092-33.6 46.253-32.917 43.923-32.25 48.131 12.373 78.129 11.61 72.567 11.61 75.09 0 9.969-6.847 16.666-8.214 17.349-13.122 10.813-33.726 3.703-36.508-13.865l-1.944-12.273c-1.039-6.576-9.55-8.638-13.473-3.236l-12.433 17.114c-7.244 9.971-21.504 12.458-31.749 4.738-9.931-7.483-11.542-21.702-4.293-31.683l12.073-16.618c3.904-5.373-.631-12.857-7.239-11.816-13.391 2.121-13.523 2.227-15.833 2.227-12.624 0-22.46-10.192-22.46-22.542 0-11.113 7.983-20.444 18.982-22.186 77.252-12.237 73.898-10.856 76.421-14.329 32.724-45.044 30.824-33.42 13.831-85.723-2.712-8.344-9.31-14.944-17.654-17.656-31.871-10.356-31.588-11.034-35.279-9.154-70.165 35.755-67.448 35.338-74.714 35.339-8.394 0-16.03-4.608-19.932-12.026-5.887-11.184-.816-25.172 10.26-30.815l10.506-5.353c5.94-3.028 5.251-11.756-1.088-13.815l-20.116-6.537c-9.303-3.023-15.553-11.62-15.553-21.392 0-15.232 14.846-26.155 29.457-21.406l20.116 6.537c2.885.938 6.049.044 8.02-2.262 6.552-7.673-7.12-15.879-7.12-29.538 0-23.662 31.891-31.158 42.55-10.239l22.035 43.251c1.882 3.691 6.397 5.159 10.087 3.278 3.69-1.88 5.158-6.397 3.277-10.087l-22.035-43.251c-9.493-18.632-32.102-25.724-50.433-16.388-16.893 8.61-24.421 28.076-18.456 45.541-4.038-1.312-8.339-2.951-15-2.951-21.086 0-37.497 17.146-37.497 37.515 0 16.291 10.415 30.62 25.917 35.657l3.517 1.143c-9.819 7.129-15.917 18.772-15.917 31.05 0 20.278 16.61 37.088 37.406 37.088 11.782-.001 11.944-1.518 78.754-35.564l26.603 8.644c3.793 1.232 6.792 4.233 8.024 8.026l10.639 32.75c1.192 3.669.669 7.847-1.774 11.211l-18.74 25.796-68.46 10.844c-20.787 3.293-34.393 22.561-31.167 42.905 2.936 18.532 18.798 31.959 37.599 31.633-32.079 44.157 28.456 88.419 60.666 44.089 5.467 17.928 23.206 28.913 41.706 25.982 20.249-3.209 34.447-22.218 31.167-42.904l-10.842-68.465 26.839-36.945h28.065l26.839 36.945c-11.809 74.567-11.308 70.281-11.308 74.368 0 18.536 13.304 34.098 31.633 37.002 18.511 2.934 36.242-8.067 41.706-25.982 32.291 44.435 92.664-.026 60.665-44.09 21.213.359 38.066-16.674 38.066-37.536 0-18.535-13.304-34.097-31.634-37.002l-68.459-10.844-18.74-25.796c-2.441-3.361-2.969-7.535-1.775-11.21l10.64-32.751c1.232-3.793 4.232-6.793 8.024-8.026l26.603-8.644c66.793 34.037 66.977 35.564 78.755 35.564 15.594-.001 29.456-9.572 34.979-23.954.001-.004.003-.008.005-.013 6.114-15.94.277-34.168-13.497-44.171 47.542-15.452 32.282-74.315-8.062-74.315z"/><path d="m274.268 269.447c-1.269 3.89.827 8.15 4.809 9.45 4.136 1.303 8.216-1.004 9.459-4.82v-.01c2.917-9.083-.502-18.642-7.789-23.94-12.463-9.052-16.197-12.94-24.767-12.94-8.636 0-12.2 3.801-24.787 12.94-5.539 4.02-8.839 10.5-8.839 17.33 0 4.271.677 5.45 5.709 20.96 1.38 4.28 4.04 7.96 7.689 10.64 7.001 5.132 12.207 4.16 27.757 4.16 15.218 0 11.101-17.09 1.18-15.11-1 .179-.52.11-16.198.11-2.849-.01-5.269-1.75-6.159-4.44l-4.659-14.33c-.893-2.765.182-5.618 2.329-7.18 18.556-13.478 13.371-13.485 31.937 0 2.276 1.655 3.171 4.597 2.33 7.16-.001.01-.001.01-.001.02z"/></svg>