<svg id="Layer_1" enable-background="new 0 0 512 512" height="512" viewBox="0 0 512 512" width="512" xmlns="http://www.w3.org/2000/svg"><path d="m343.879 443.5h-87.881v61h87.881c16.844 0 30.5-13.655 30.5-30.5s-13.655-30.5-30.5-30.5z" fill="#efedee"/><path d="m168.117 443.5c-16.844 0-30.5 13.655-30.5 30.5s13.656 30.5 30.5 30.5h87.881v-61z" fill="#d4d4d5"/><circle cx="255.998" cy="52.5" fill="#d4d4d5" r="45"/><path d="m255.998 52.5c-66.74 0-121.037 54.297-121.037 121.037h242.074c0-66.74-54.297-121.037-121.037-121.037z" fill="#ff8e9e"/><path d="m255.998 52.5c-66.74 0-121.037 54.297-121.037 121.037h77.168v-51.408c14.812-31.433 42.742-55.515 76.706-65.1-10.446-2.948-21.46-4.529-32.837-4.529z" fill="#ea5b70"/><path d="m255.998 115.814c-46.987 0-91.463 21.211-121.037 57.723 0 66.74 54.297 121.037 121.037 121.037s121.037-54.297 121.037-121.037c-29.574-36.512-74.05-57.723-121.037-57.723z" fill="#efedee"/><path d="m134.961 173.537c0 66.74 54.297 121.037 121.037 121.037 11.377 0 22.391-1.581 32.837-4.529-50.835-14.347-88.2-61.145-88.2-116.508 0-18.374 4.136-35.794 11.494-51.408-30.018 8.814-57.045 26.564-77.168 51.408z" fill="#d4d4d5"/><circle cx="255.998" cy="157.532" fill="#ff6f4d" r="15"/><ellipse cx="195.091" cy="187.988" fill="#ff8e9e" rx="22.474" ry="17.897" transform="matrix(1 .003 -.003 1 .59 -.61)"/><ellipse cx="316.905" cy="188.369" fill="#ff8e9e" rx="22.474" ry="17.897" transform="matrix(-1 -.003 .003 -1 633.22 377.73)"/><path d="m230.164 252.675c-57.878 11.938-101.392 63.186-101.392 124.599 0 70.265 56.961 127.226 127.226 127.226 4.671 0 9.281-.259 13.822-.75z" fill="#d4d4d5"/><path d="m383.224 377.274c0-70.265-56.961-127.226-127.226-127.226-8.852 0-17.492.906-25.834 2.627-31.241 38.056-45.914 86.113-37.823 134.68 8.015 48.108 36.233 90.453 77.479 116.395 63.762-6.89 113.404-60.882 113.404-126.476z" fill="#efedee"/><g fill="#4c5659"><circle cx="255.998" cy="309.574" r="15"/><circle cx="255.998" cy="369.574" r="15"/><circle cx="255.998" cy="429.574" r="15"/></g><path d="m429.406 279.406 5.357-5.357c5.858-5.858 5.858-15.355 0-21.213-5.857-5.858-15.355-5.858-21.213 0l-5.357 5.357c-2.13-5.691-7.603-9.75-14.037-9.75-8.284 0-15 6.716-15 15v23.787l-25.606 25.606c-5.858 5.858-5.858 15.355 0 21.213 2.929 2.929 6.768 4.394 10.606 4.394s7.678-1.464 10.606-4.394l25.606-25.606h23.787c8.284 0 15-6.716 15-15 .001-6.435-4.058-11.907-9.749-14.037z" fill="#ce857a"/><path d="m82.591 279.406-5.357-5.357c-5.858-5.858-5.858-15.355 0-21.213 5.857-5.858 15.355-5.858 21.213 0l5.357 5.357c2.13-5.691 7.603-9.75 14.037-9.75 8.284 0 15 6.716 15 15v23.787l25.606 25.606c5.858 5.858 5.858 15.355 0 21.213-2.929 2.929-6.768 4.394-10.606 4.394s-7.678-1.464-10.606-4.394l-25.606-25.606h-23.789c-8.284 0-15-6.716-15-15 0-6.435 4.06-11.907 9.751-14.037z" fill="#c77464"/><path d="m201.998 150.537c-4.142 0-7.5 3.358-7.5 7.5v10c0 4.142 3.358 7.5 7.5 7.5s7.5-3.358 7.5-7.5v-10c0-4.142-3.358-7.5-7.5-7.5z"/><path d="m309.998 175.537c4.142 0 7.5-3.358 7.5-7.5v-10c0-4.142-3.358-7.5-7.5-7.5s-7.5 3.358-7.5 7.5v10c0 4.142 3.358 7.5 7.5 7.5z"/><path d="m279.264 189.272c1.787-3.737.206-8.215-3.531-10.001-3.737-1.789-8.215-.206-10.001 3.531-1.666 3.484-5.291 5.735-9.234 5.735s-7.568-2.251-9.234-5.735c-1.787-3.737-6.266-5.317-10.001-3.531-3.737 1.787-5.318 6.265-3.531 10.001 4.144 8.666 13.08 14.265 22.766 14.265 9.687 0 18.623-5.599 22.766-14.265z"/><path d="m255.998 180.032c12.406 0 22.5-10.093 22.5-22.5s-10.094-22.5-22.5-22.5-22.5 10.093-22.5 22.5 10.094 22.5 22.5 22.5zm0-30c4.136 0 7.5 3.364 7.5 7.5s-3.364 7.5-7.5 7.5-7.5-3.364-7.5-7.5 3.364-7.5 7.5-7.5z"/><path d="m440.065 247.534c-8.5-8.501-22.093-8.789-30.933-.842-4.047-3.613-9.355-5.749-14.977-5.749-12.406 0-22.5 10.093-22.5 22.5v20.681l-9.816 9.816c-6.665-8.459-14.253-16.024-22.581-22.579 28.513-24.333 45.276-60.189 45.276-97.823 0-52.24-31.328-97.297-76.181-117.381 2.153-30.432-22.087-56.157-52.355-56.157-30.243 0-54.509 25.699-52.356 56.156-44.853 20.084-76.181 65.141-76.181 117.381 0 37.638 16.766 73.498 45.285 97.831-8.333 6.556-15.926 14.12-22.588 22.573l-9.818-9.818v-20.681c0-12.407-10.094-22.5-22.5-22.5-5.621 0-10.93 2.136-14.977 5.749-8.822-7.931-22.416-7.675-30.932.841-8.624 8.622-8.665 22.232-.843 30.933-3.612 4.047-5.749 9.356-5.749 14.978 0 12.407 10.094 22.5 22.5 22.5h20.681l19.416 19.415c-12.249 37.43-7.453 78.524 13.027 112.067-6.886 7.038-10.846 16.552-10.846 26.575 0 20.953 17.047 38 38 38h175.762c20.953 0 38-17.047 38-38 0-10.023-3.959-19.536-10.844-26.573 20.48-33.533 25.278-74.63 13.025-112.069l19.415-19.415h20.681c12.406 0 22.5-10.093 22.5-22.5 0-5.622-2.136-10.931-5.749-14.978 7.935-8.826 7.672-22.421-.842-30.931zm-184.067-232.534c20.031 0 36.443 15.786 37.451 35.571-11.855-3.618-24.428-5.571-37.451-5.571s-25.596 1.953-37.451 5.571c1.008-19.785 17.42-35.571 37.451-35.571zm-144.371 285.943h-23.787c-4.136 0-7.5-3.364-7.5-7.5 0-3.102 1.961-5.92 4.88-7.013 5.106-1.91 6.528-8.474 2.675-12.327l-5.357-5.357c-2.925-2.923-2.939-7.666.001-10.606 2.93-2.931 7.675-2.932 10.605 0l5.356 5.356c3.846 3.846 10.413 2.441 12.328-2.674 1.092-2.918 3.91-4.879 7.012-4.879 4.136 0 7.5 3.364 7.5 7.5v23.787c0 1.989.79 3.897 2.196 5.303l18.073 18.071c.003.004.007.007.01.01l7.524 7.524c2.935 2.938 2.926 7.681.001 10.607-2.931 2.931-7.674 2.934-10.608 0l-25.606-25.606c-1.408-1.406-3.315-2.196-5.303-2.196zm245.499 140.436h-5.956c-4.143 0-7.5 3.358-7.5 7.5s3.357 7.5 7.5 7.5h7.466c5.192 4.353 8.242 10.789 8.242 17.621 0 12.682-10.317 23-23 23h-175.761c-12.683 0-23-10.318-23-23 0-6.833 3.05-13.268 8.243-17.622h7.466c4.143 0 7.5-3.358 7.5-7.5s-3.357-7.5-7.5-7.5h-5.954c-18.233-28.718-23.314-63.97-14.127-96.593 8.035 2.662 16.888.684 23.006-5.433 8.791-8.792 8.794-23.022-.001-31.819l-2.909-2.908c19.566-25.594 48.607-42.32 80.592-46.2 4.111-.499 7.041-4.236 6.542-8.349-.499-4.112-4.243-7.039-8.349-6.542-19.383 2.351-37.8 8.895-54.111 18.923-26.35-20.947-42.226-52.686-43.023-86.265 28.25-33.64 69.466-52.879 113.506-52.879 23.153 0 46.312 5.528 66.972 15.988 3.693 1.87 8.208.392 10.079-3.304 1.871-3.695.392-8.208-3.304-10.079-22.75-11.518-48.251-17.606-73.747-17.605-41.908 0-81.488 15.824-111.544 44.026 9.957-52.507 56.183-92.339 111.544-92.339 55.376 0 101.612 39.853 111.553 92.383-3.618-3.387-7.381-6.615-11.289-9.656-3.269-2.542-7.98-1.956-10.524 1.313s-1.956 7.981 1.313 10.525c8.209 6.388 15.753 13.655 22.453 21.627-.797 33.577-16.67 65.312-43.017 86.259-16.607-10.21-35.397-16.804-55.186-19.044-4.136-.467-7.83 2.494-8.296 6.609s2.493 7.83 6.608 8.296c32.38 3.664 61.766 20.433 81.542 46.31l-2.91 2.91c-8.791 8.792-8.793 23.023 0 31.818 5.584 5.586 14.327 8.354 22.986 5.362 9.218 32.654 4.145 67.937-14.105 96.667zm69.65-154.949c2.919 1.093 4.88 3.911 4.88 7.013 0 4.136-3.364 7.5-7.5 7.5h-23.787c-1.989 0-3.896.79-5.304 2.197l-24.926 24.926c-3.907 3.907-8.432 3.537-11.287.682-2.935-2.938-2.926-7.681-.001-10.607l7.528-7.527c.002-.003.005-.005.008-.008l18.073-18.071c1.406-1.406 2.196-3.314 2.196-5.303v-23.787c0-4.136 3.364-7.5 7.5-7.5 3.102 0 5.92 1.96 7.012 4.879 1.912 5.107 8.476 6.528 12.328 2.674l5.356-5.357c2.929-2.93 7.674-2.933 10.606.001 2.925 2.923 2.939 7.666-.001 10.605l-5.356 5.356c-3.854 3.854-2.428 10.417 2.675 12.327z"/><path d="m255.998 287.074c-12.406 0-22.5 10.093-22.5 22.5s10.094 22.5 22.5 22.5 22.5-10.093 22.5-22.5-10.094-22.5-22.5-22.5zm0 30c-4.136 0-7.5-3.364-7.5-7.5s3.364-7.5 7.5-7.5 7.5 3.364 7.5 7.5-3.364 7.5-7.5 7.5z"/><path d="m255.998 347.074c-12.406 0-22.5 10.093-22.5 22.5s10.094 22.5 22.5 22.5 22.5-10.093 22.5-22.5-10.094-22.5-22.5-22.5zm0 30c-4.136 0-7.5-3.364-7.5-7.5s3.364-7.5 7.5-7.5 7.5 3.364 7.5 7.5-3.364 7.5-7.5 7.5z"/><path d="m255.998 407.074c-12.406 0-22.5 10.093-22.5 22.5s10.094 22.5 22.5 22.5 22.5-10.093 22.5-22.5-10.094-22.5-22.5-22.5zm0 30c-4.136 0-7.5-3.364-7.5-7.5s3.364-7.5 7.5-7.5 7.5 3.364 7.5 7.5-3.364 7.5-7.5 7.5z"/></svg>