<svg id="Layer_1" enable-background="new 0 0 512 512" height="512" viewBox="0 0 512 512" width="512" xmlns="http://www.w3.org/2000/svg"><path d="m151.891 230.991-4.569-3.668 4.569-3.67c6.46-5.187 7.492-14.628 2.306-21.087-5.185-6.46-14.628-7.494-21.087-2.306l-17.666 14.184-17.944 8.142v-4.021l21.664-17.392c6.46-5.187 7.492-14.628 2.307-21.088-5.188-6.459-14.625-7.492-21.088-2.307l-2.883 2.314v-4.592c0-8.284-6.716-15-15-15s-15 6.716-15 15v4.592l-2.882-2.313c-6.46-5.185-15.901-4.152-21.088 2.307-5.186 6.46-4.153 15.901 2.307 21.088l21.663 17.391v4.021l-17.943-8.142-17.666-14.184c-6.461-5.186-15.901-4.152-21.087 2.307-5.187 6.46-4.154 15.901 2.306 21.087l4.57 3.67-4.57 3.668c-6.46 5.187-7.492 14.628-2.307 21.088 2.963 3.69 7.315 5.61 11.707 5.61 3.294 0 6.611-1.081 9.381-3.304l11.949-9.593 13.752 6.241-7.001 7.736h-20.411c-8.284 0-15 6.716-15 15s6.716 15 15 15h12.067v6.73c0 8.284 6.716 15 15 15s15-6.716 15-15v-15.951l10.253-11.33 10.254 11.331v15.95c0 8.284 6.716 15 15 15s15-6.716 15-15v-6.73h12.067c8.284 0 15-6.716 15-15s-6.716-15-15-15h-20.411l-7.001-7.736 13.752-6.24 11.948 9.592c2.77 2.223 6.086 3.304 9.381 3.304 4.392 0 8.744-1.92 11.707-5.61 5.186-6.461 4.154-15.902-2.306-21.089z" fill="#7ce3ff"/><path d="m471.529 404.991-4.569-3.668 4.569-3.67c6.46-5.187 7.492-14.628 2.306-21.087-5.185-6.46-14.628-7.494-21.087-2.306l-17.666 14.184-17.944 8.142v-4.021l21.664-17.392c6.46-5.187 7.492-14.628 2.307-21.088-5.188-6.459-14.625-7.492-21.088-2.307l-2.883 2.314v-4.592c0-8.284-6.716-15-15-15s-15 6.716-15 15v4.592l-2.882-2.313c-6.46-5.185-15.901-4.152-21.088 2.307-5.186 6.46-4.153 15.901 2.307 21.088l21.663 17.392v4.021l-17.943-8.142-17.667-14.185c-6.461-5.186-15.901-4.152-21.087 2.307-5.187 6.46-4.154 15.901 2.306 21.087l4.57 3.67-4.57 3.668c-6.46 5.187-7.492 14.628-2.307 21.088 2.963 3.69 7.315 5.61 11.707 5.61 3.294 0 6.611-1.081 9.381-3.304l11.949-9.593 13.752 6.241-7.001 7.736h-20.412c-8.284 0-15 6.716-15 15s6.716 15 15 15h12.067v6.73c0 8.284 6.716 15 15 15s15-6.716 15-15v-15.951l10.253-11.33 10.254 11.331v15.95c0 8.284 6.716 15 15 15s15-6.716 15-15v-6.73h12.067c8.284 0 15-6.716 15-15s-6.716-15-15-15h-20.411l-7.001-7.736 13.752-6.24 11.948 9.592c2.77 2.223 6.086 3.304 9.381 3.304 4.392 0 8.744-1.92 11.707-5.61 5.188-6.461 4.156-15.903-2.304-21.089z" fill="#b9f0ff"/><path d="m333.439 77.991-4.569-3.668 4.569-3.67c6.46-5.187 7.492-14.628 2.306-21.087-5.185-6.46-14.628-7.494-21.087-2.306l-17.666 14.184-17.944 8.142v-4.021l21.664-17.392c6.46-5.187 7.492-14.628 2.307-21.088-5.188-6.459-14.625-7.492-21.088-2.307l-2.883 2.314v-4.592c0-8.284-6.716-15-15-15s-15 6.716-15 15v4.592l-2.882-2.313c-6.46-5.185-15.901-4.152-21.088 2.307-5.186 6.46-4.153 15.901 2.307 21.088l21.663 17.392v4.021l-17.943-8.142-17.666-14.185c-6.461-5.186-15.901-4.152-21.087 2.307-5.187 6.46-4.154 15.901 2.306 21.087l4.57 3.67-4.57 3.668c-6.46 5.187-7.492 14.628-2.307 21.088 2.963 3.69 7.315 5.61 11.707 5.61 3.294 0 6.611-1.081 9.381-3.304l11.949-9.593 13.752 6.241-7.001 7.736h-20.412c-8.284 0-15 6.716-15 15s6.716 15 15 15h12.067v6.73c0 8.284 6.716 15 15 15s15-6.716 15-15v-15.951l10.253-11.33 10.254 11.331v15.95c0 8.284 6.716 15 15 15s15-6.716 15-15v-6.73h12.067c8.284 0 15-6.716 15-15s-6.716-15-15-15h-20.411l-7.001-7.736 13.752-6.24 11.948 9.592c2.77 2.223 6.086 3.304 9.381 3.304 4.392 0 8.744-1.92 11.707-5.61 5.187-6.461 4.154-15.902-2.305-21.089z" fill="#b9f0ff"/><g fill="#7ce3ff"><path d="m193.714 442.213h6.213c8.284 0 15-6.716 15-15s-6.716-15-15-15h-15l-6.213-6.213 6.213-6.213h15c8.284 0 15-6.716 15-15s-6.716-15-15-15h-6.213v-6.213c0-8.284-6.716-15-15-15s-15 6.716-15 15v15l-6.213 6.213-6.213-6.213v-15c0-8.284-6.716-15-15-15s-15 6.716-15 15v6.213h-6.213c-8.284 0-15 6.716-15 15 0 4.142 1.679 7.892 4.393 10.607 2.714 2.714 6.465 4.393 10.607 4.393h15l6.213 6.213-6.213 6.213h-15c-8.284 0-15 6.716-15 15s6.716 15 15 15h6.213v6.213c0 4.142 1.679 7.892 4.393 10.607 2.714 2.714 6.465 4.393 10.607 4.393 8.284 0 15-6.716 15-15v-15l6.213-6.213 6.213 6.213v15c0 4.142 1.679 7.892 4.393 10.607 2.714 2.714 6.465 4.393 10.607 4.393 8.284 0 15-6.716 15-15z"/><path d="m495.714 225.999 4.393-4.394c5.858-5.857 5.858-15.355 0-21.213-5.857-5.857-15.355-5.857-21.213 0l-10.606 10.606h-8.788v-8.787l10.606-10.606c5.858-5.857 5.858-15.355 0-21.213-5.857-5.857-15.355-5.857-21.213 0l-4.394 4.394-4.394-4.394c-5.857-5.857-15.355-5.857-21.213 0s-5.858 15.355 0 21.213l10.606 10.606v8.787h-8.787l-10.606-10.606c-5.857-5.857-15.355-5.857-21.213 0s-5.858 15.355 0 21.213l4.393 4.394-4.393 4.394c-5.858 5.857-5.858 15.355 0 21.213 2.929 2.929 6.768 4.394 10.606 4.394s7.678-1.465 10.606-4.394l10.606-10.606h8.787v8.787l-10.606 10.606c-5.858 5.857-5.858 15.355 0 21.213 5.857 5.857 15.355 5.857 21.213 0l4.394-4.394 4.394 4.394c2.929 2.929 6.768 4.394 10.606 4.394s7.678-1.465 10.606-4.394c5.858-5.857 5.858-15.355 0-21.213l-10.604-10.606v-8.787h8.787l10.606 10.606c2.929 2.929 6.768 4.394 10.606 4.394s7.678-1.465 10.606-4.394c5.858-5.857 5.858-15.355 0-21.213z"/><circle cx="315.999" cy="222.586" r="30"/></g><circle cx="115.999" cy="92.586" fill="#b9f0ff" r="30"/><circle cx="220.999" cy="282.586" fill="#b9f0ff" r="15"/><circle cx="280.999" cy="352.586" fill="#7ce3ff" r="15"/><circle cx="240.999" cy="489.5" fill="#b9f0ff" r="15"/><path d="m130.247 296.27h4.58c17.576 0 28.335-19.348 19.184-34.243 12.459-7.425 14.616-24.358 4.935-34.703 7.457-7.944 8.284-20.513 1.105-29.452-6.963-8.673-18.791-10.66-27.927-5.885 1.778-15.818-13.005-28.505-28.467-24.161-7.175-19.719-35.129-19.712-42.304-.001-15.386-4.325-30.26 8.284-28.464 24.176-15.912-8.285-34.7 4.574-32.751 22.402.535 4.901 2.61 9.39 5.926 12.921-9.692 10.358-7.512 27.285 4.936 34.703-9.163 14.915 1.628 34.242 19.184 34.242h4.58c.409 12.052 10.34 21.731 22.489 21.731 12.406 0 22.5-10.093 22.5-22.5v-13.062l2.753-3.042 2.754 3.043v13.061c0 12.407 10.094 22.5 22.5 22.5 12.15 0 22.08-9.679 22.487-21.73zm-29.987-.77c0-16.933.572-18.207-1.939-20.983-10.644-11.762-11.51-13.798-15.814-13.798-4.288 0-5.141 2.004-15.813 13.797-2.507 2.771-1.939 4.032-1.939 20.984 0 4.136-3.364 7.5-7.5 7.5s-7.5-3.364-7.5-7.5v-6.73c0-4.142-3.357-7.5-7.5-7.5h-12.069c-4.136 0-7.5-3.364-7.5-7.5s3.364-7.5 7.5-7.5c3.936 0 7.157-3.033 7.469-6.888l7.291-5.853 9.554 4.335c3.774 1.713 8.218.041 9.93-3.73 1.711-3.772.041-8.217-3.73-9.929l-13.753-6.241c-2.575-1.168-5.589-.79-7.795.981-12.843 10.311-13.238 11.245-16.635 11.245-7.048 0-10.224-8.918-4.706-13.349 4.341-3.484 7.376-5.101 7.376-9.516 0-4.419-3.038-6.037-7.375-9.52-3.231-2.592-3.749-7.31-1.152-10.543 2.588-3.224 7.317-3.743 10.544-1.153 3.458 2.775 8.637 1.99 11.058-1.89 1.872 2.153 1.169 1.423 21.745 17.943 0 10.601 15 10.266 15 .424 0-3.98.495-7.221-2.805-9.869l-21.663-17.392c-3.225-2.589-3.742-7.32-1.154-10.544 2.589-3.224 7.319-3.743 10.545-1.154 2.573 2.066 5.888 5.591 10.82 3.228 4.99-2.394 4.257-7.242 4.257-11.354 0-4.136 3.364-7.5 7.5-7.5s7.5 3.364 7.5 7.5c0 4.079-.753 8.953 4.257 11.355 4.877 2.335 8.149-1.083 10.819-3.228 3.228-2.589 7.957-2.07 10.546 1.152 2.589 3.225 2.071 7.956-1.153 10.544l-21.664 17.392c-3.29 2.642-2.805 5.877-2.805 9.87 0 9.815 15 10.197 15-.425 20.622-16.556 19.886-15.803 21.745-17.942 2.423 3.883 7.606 4.665 11.061 1.888 3.22-2.588 7.94-2.088 10.542 1.154 2.593 3.229 2.081 7.947-1.154 10.543-4.34 3.486-7.373 5.104-7.373 9.519 0 4.412 3.03 6.029 7.374 9.515 3.225 2.589 3.742 7.32 1.153 10.544-2.6 3.239-7.318 3.743-10.544 1.153l-11.948-9.592c-2.205-1.77-5.22-2.149-7.794-.981l-13.752 6.24c-3.772 1.712-5.442 6.157-3.731 9.929 1.712 3.771 6.154 5.44 9.929 3.731l9.554-4.335 7.291 5.853c.312 3.855 3.533 6.888 7.469 6.888 4.136 0 7.5 3.364 7.5 7.5s-3.364 7.5-7.5 7.5h-12.069c-4.143 0-7.5 3.358-7.5 7.5v6.73c0 4.136-3.364 7.5-7.5 7.5s-7.5-3.362-7.5-7.498z"/><path d="m451.757 365.988c1.778-15.818-13.007-28.506-28.466-24.162-7.175-19.719-35.129-19.712-42.304-.001-15.385-4.328-30.26 8.284-28.464 24.177-9.321-4.853-21.104-2.63-27.929 5.87-7.164 8.923-6.371 21.491 1.104 29.453-9.691 10.358-7.512 27.285 4.936 34.703-9.163 14.915 1.628 34.242 19.184 34.242h4.58c.407 12.052 10.338 21.73 22.487 21.73 12.406 0 22.5-10.093 22.5-22.5v-13.062l2.753-3.042 2.754 3.043v13.061c0 12.407 10.094 22.5 22.5 22.5 12.149 0 22.08-9.679 22.487-21.73h4.58c17.573 0 28.337-19.345 19.184-34.243 12.462-7.427 14.614-24.36 4.935-34.703 3.315-3.532 5.391-8.021 5.926-12.922 1.97-18.004-17.012-30.637-32.747-22.414zm2.703 89.281h-12.067c-4.143 0-7.5 3.358-7.5 7.5v6.73c0 4.136-3.364 7.5-7.5 7.5s-7.5-3.364-7.5-7.5v-15.95c0-3.74-1.346-4.377-12.193-16.363-2.979-3.29-8.147-3.285-11.121 0-10.866 12.007-12.192 12.631-12.192 16.362v15.952c0 4.136-3.364 7.5-7.5 7.5s-7.5-3.364-7.5-7.5v-6.73c0-4.142-3.357-7.5-7.5-7.5h-12.067c-4.136 0-7.5-3.364-7.5-7.5s3.364-7.5 7.5-7.5c3.936 0 7.157-3.033 7.469-6.888l7.291-5.853 9.553 4.335c3.775 1.711 8.218.041 9.93-3.73 1.711-3.771.041-8.217-3.73-9.929l-13.752-6.241c-2.575-1.169-5.589-.789-7.795.981l-11.948 9.592c-3.24 2.601-7.954 2.074-10.545-1.152-2.589-3.225-2.071-7.956 1.152-10.544 4.341-3.484 7.376-5.101 7.376-9.516 0-4.419-3.038-6.037-7.375-9.52-3.23-2.592-3.749-7.31-1.152-10.543 2.588-3.224 7.317-3.743 10.544-1.153 3.461 2.778 8.64 1.986 11.058-1.89 1.872 2.154 1.161 1.417 21.745 17.943 0 10.601 15 10.266 15 .424 0-3.978.489-7.225-2.805-9.87l-21.663-17.392c-3.225-2.589-3.742-7.32-1.154-10.544 2.59-3.224 7.318-3.743 10.545-1.154l2.882 2.313c4.897 3.931 12.195.438 12.195-5.849v-4.59c0-4.136 3.364-7.5 7.5-7.5s7.5 3.364 7.5 7.5v4.593c0 6.278 7.291 9.785 12.195 5.849l2.881-2.313c3.227-2.588 7.957-2.07 10.546 1.152 2.589 3.225 2.071 7.956-1.153 10.544l-21.664 17.392c-3.29 2.642-2.805 5.877-2.805 9.87 0 9.815 15 10.197 15-.425 20.622-16.556 19.886-15.803 21.745-17.942 2.424 3.884 7.605 4.664 11.061 1.888 3.229-2.594 7.945-2.081 10.542 1.154 2.593 3.229 2.081 7.947-1.154 10.543-4.34 3.486-7.373 5.104-7.373 9.519 0 4.412 3.03 6.029 7.374 9.515 5.508 4.423 2.357 13.35-4.705 13.35-3.398 0-3.795-.937-16.634-11.245-2.205-1.771-5.218-2.149-7.794-.981l-13.752 6.24c-3.772 1.712-5.442 6.157-3.731 9.929s6.156 5.439 9.929 3.731l9.554-4.335 7.291 5.853c.312 3.855 3.533 6.888 7.469 6.888 4.136 0 7.5 3.364 7.5 7.5s-3.367 7.5-7.503 7.5z"/><path d="m187.607 74.285c-9.692 10.358-7.512 27.285 4.936 34.703-9.163 14.915 1.628 34.242 19.184 34.242h4.58c.407 12.052 10.338 21.73 22.487 21.73 12.406 0 22.5-10.093 22.5-22.5v-13.062l2.753-3.042 2.754 3.043v13.061c0 12.407 10.094 22.5 22.5 22.5 12.149 0 22.08-9.679 22.487-21.73h4.58c12.406 0 22.5-10.093 22.5-22.5 0-4.301-1.215-8.322-3.316-11.743 12.458-7.425 14.616-24.358 4.935-34.703 12.663-13.491 4.369-35.725-13.994-37.734-4.486-.491-8.916.353-12.828 2.398 1.779-15.832-13.02-28.504-28.466-24.161-7.175-19.719-35.129-19.712-42.304-.001-15.386-4.326-30.26 8.284-28.465 24.176-9.321-4.853-21.103-2.63-27.929 5.87-7.162 8.923-6.369 21.491 1.106 29.453zm21.137-21.215c3.457 2.774 8.635 1.991 11.058-1.89 1.871 2.152 1.161 1.416 21.745 17.943 0 10.601 15 10.266 15 .424 0-3.98.495-7.221-2.805-9.869l-21.662-17.392c-3.225-2.589-3.742-7.32-1.154-10.544 2.59-3.224 7.318-3.743 10.545-1.154l2.882 2.313c4.896 3.931 12.195.438 12.195-5.849v-4.592c0-4.136 3.364-7.5 7.5-7.5s7.5 3.364 7.5 7.5c0 4.079-.753 8.953 4.257 11.355 4.91 2.353 8.231-1.149 10.819-3.228 3.227-2.589 7.957-2.07 10.546 1.152 2.589 3.225 2.071 7.956-1.153 10.544-26.292 21.107-24.469 17.469-24.469 27.262 0 9.815 15 10.197 15-.425 20.622-16.556 19.886-15.803 21.745-17.942 2.421 3.882 7.603 4.666 11.061 1.888 5.148-4.137 12.879-.016 12.148 6.664-.415 3.797-2.748 5.024-7.33 8.704-3.734 3-3.737 8.694.001 11.696l4.569 3.667c3.225 2.589 3.742 7.32 1.153 10.544-2.6 3.239-7.318 3.743-10.544 1.153-18.03-14.475-12.446-13.884-33.494-4.334-3.772 1.712-5.442 6.157-3.731 9.929 1.712 3.771 6.155 5.441 9.929 3.731l9.554-4.335 7.291 5.853c.312 3.855 3.533 6.888 7.469 6.888 4.136 0 7.5 3.364 7.5 7.5s-3.364 7.5-7.5 7.5h-12.067c-4.143 0-7.5 3.358-7.5 7.5v6.73c0 4.136-3.364 7.5-7.5 7.5s-7.5-3.364-7.5-7.5c0-16.933.572-18.207-1.939-20.983-10.644-11.762-11.51-13.798-15.814-13.798-4.288 0-5.141 2.004-15.813 13.797-2.507 2.771-1.939 4.032-1.939 20.984 0 4.136-3.364 7.5-7.5 7.5s-7.5-3.364-7.5-7.5v-6.73c0-4.142-3.357-7.5-7.5-7.5h-12.067c-4.136 0-7.5-3.364-7.5-7.5s3.364-7.5 7.5-7.5c3.936 0 7.157-3.033 7.469-6.888l7.291-5.853 9.553 4.335c3.774 1.712 8.218.041 9.93-3.73 1.711-3.771.041-8.217-3.73-9.929-20.834-9.455-15.287-10.285-33.495 4.333-1.702 1.366-3.488 1.653-4.687 1.653-7.048 0-10.224-8.918-4.706-13.349l4.57-3.668c3.735-2.998 3.74-8.694.002-11.697-4.592-3.687-6.916-4.91-7.331-8.703-.728-6.62 6.96-10.826 12.148-6.66z"/><path d="m505.406 195.09c-6.908-6.908-17.229-8.375-25.589-4.404 3.89-8.142 2.671-18.514-4.411-25.596-8.476-8.475-22.087-8.763-30.91-.861-8.823-7.901-22.434-7.614-30.91.861-6.913 6.913-8.378 17.242-4.396 25.604-8.363-3.982-18.69-2.517-25.604 4.396-8.475 8.476-8.762 22.086-.86 30.91-7.901 8.823-7.614 22.434.86 30.91 7.056 7.056 17.418 8.319 25.597 4.411-3.973 8.359-2.505 18.68 4.403 25.589 8.477 8.475 22.087 8.763 30.91.861 14.265 12.793 37.5 2.842 37.5-16.771 0-3.402-.75-6.689-2.172-9.672 8.236 3.925 18.575 2.589 25.581-4.418 8.532-8.531 8.751-22.114.862-30.91 7.872-8.779 7.687-22.362-.861-30.91zm-15 36.212 4.394 4.395c2.93 2.931 2.931 7.674-.001 10.606-2.93 2.931-7.675 2.931-10.605 0-14.924-14.924-10.528-12.803-24.697-12.803-4.143 0-7.5 3.358-7.5 7.5 0 14.35-1.886 10.008 12.804 24.697 2.93 2.931 2.931 7.674-.001 10.606-2.93 2.931-7.675 2.931-10.605 0-4.374-4.374-5.849-6.59-9.697-6.59-3.816 0-5.262 2.155-9.697 6.59-4.724 4.724-12.802 1.332-12.802-5.303 0-2.003.779-3.887 2.196-5.303 14.925-14.925 12.803-10.527 12.803-24.697 0-4.142-3.357-7.5-7.5-7.5-8.664 0-11.277-.616-14.091 2.197-11.147 11.147-11.893 12.803-15.909 12.803-6.617 0-10.038-8.068-5.303-12.803l4.394-4.394c2.929-2.929 2.929-7.678 0-10.606l-4.394-4.394c-2.925-2.924-2.925-7.682 0-10.606 2.929-2.93 7.675-2.931 10.605 0 14.707 14.707 10.36 12.803 24.697 12.803 4.143 0 7.5-3.358 7.5-7.5 0-14.173 2.121-9.773-12.803-24.697-2.929-2.928-2.932-7.675 0-10.606 2.924-2.924 7.682-2.924 10.605 0l4.394 4.394c2.93 2.929 7.678 2.929 10.607 0l4.394-4.394c4.724-4.724 12.803-1.332 12.803 5.303 0 2.003-.78 3.886-2.197 5.303-14.925 14.925-12.803 10.527-12.803 24.697 0 4.142 3.357 7.5 7.5 7.5 8.664 0 11.277.616 14.091-2.197 11.15-11.15 11.893-12.803 15.909-12.803 4.144 0 7.5 3.353 7.5 7.5 0 3.83-2.167 5.273-6.59 9.697-2.93 2.928-2.93 7.677-.001 10.605z"/><path d="m207.447 406.005c8.555-3.026 14.981-11.25 14.979-21.219 0-11.986-9.422-21.813-21.247-22.466-.652-11.826-10.479-21.247-22.466-21.247 1.982 0-15.475-1.266-21.219 14.981-3.101-8.721-11.436-14.981-21.207-14.981 1 0-8.456-.864-15.91 6.59-3.953 3.953-6.254 9.118-6.556 14.657-11.797.643-21.249 10.401-21.247 22.466 0 9.925 6.38 18.17 14.964 21.213-23.176 8.215-17.941 42.343 6.283 43.678.302 5.54 2.603 10.705 6.555 14.657 11.627 11.631 31.587 7.255 37.124-8.375 3.03 8.553 11.253 14.966 21.213 14.966 11.986 0 21.813-9.421 22.466-21.248 11.797-.643 21.249-10.4 21.247-22.466.001-9.769-6.26-18.105-14.979-21.206zm-27.822 11.512c2.842 2.842 4.606 2.196 20.303 2.196 6.679 0 9.995 8.111 5.303 12.803-1.416 1.416-3.299 2.196-5.303 2.196.052 0-6.163 0-6.215 0-4.142 0-7.499 3.358-7.499 7.5v6.213c0 6.687-8.114 9.992-12.803 5.304-2.831-2.832-2.196-4.507-2.196-20.304 0-3.901-2.018-5.124-8.411-11.517-2.927-2.928-7.678-2.929-10.605 0-6.157 6.157-8.411 7.553-8.411 11.517 0 15.763.644 17.464-2.196 20.303-2.932 2.931-7.675 2.932-10.606 0-2.746-2.746-2.196-5.455-2.196-11.516 0-4.142-3.357-7.5-7.5-7.5h-6.214c-4.135 0-7.499-3.364-7.499-7.501 0-4.144 3.353-7.499 7.498-7.499 20.804 0 16.379 1.728 26.518-8.41 2.927-2.926 2.93-7.678 0-10.607-6.374-6.374-7.608-8.41-11.517-8.41-15.762 0-17.463.644-20.303-2.196-2.929-2.93-2.932-7.676 0-10.607 2.699-2.698 5.217-2.197 11.517-2.197 4.143 0 7.5-3.358 7.5-7.5v-6.213c0-4.145 3.354-7.5 7.499-7.5 4.135 0 7.5 3.364 7.5 7.5 0 21.109-1.61 16.496 8.411 26.517 2.928 2.929 7.678 2.929 10.605 0 6.157-6.157 8.411-7.553 8.411-11.517 0-15.764-.644-17.464 2.196-20.303 4.687-4.687 12.803-1.384 12.803 5.303v6.213c0 4.142 3.357 7.5 7.5 7.5h6.214c6.678 0 9.995 8.112 5.303 12.803-2.834 2.833-4.506 2.197-20.303 2.197-3.973 0-5.356 2.249-11.517 8.41-1.407 1.407-2.197 3.314-2.197 5.304-.001 3.902 2.017 5.125 8.41 11.518z"/><path d="m353.499 222.586c0-21.78-18.62-39.133-40.521-37.379-4.129.33-7.209 3.945-6.879 8.074s3.941 7.208 8.074 6.878c13.182-1.054 24.326 9.382 24.326 22.427 0 12.407-10.094 22.5-22.5 22.5-17.006 0-27.814-18.22-19.858-33.091 1.954-3.652.577-8.197-3.076-10.151-3.654-1.956-8.196-.577-10.15 3.076-13.306 24.874 4.804 55.166 33.085 55.166 20.677 0 37.499-16.822 37.499-37.5z"/><path d="m124.831 129.038c4.026-.973 6.501-5.025 5.528-9.051s-5.026-6.504-9.052-5.529c-14.239 3.439-27.809-7.411-27.809-21.872 0-12.407 10.094-22.5 22.5-22.5 15.454 0 26.315 15.293 21.27 29.862-1.355 3.914.719 8.186 4.633 9.542 3.918 1.359 8.186-.719 9.541-4.632 8.431-24.349-9.753-49.771-35.443-49.771-20.678 0-37.5 16.822-37.5 37.5 0 24.101 22.623 42.181 46.332 36.451z"/><path d="m220.999 260.086c-12.406 0-22.5 10.093-22.5 22.5s10.094 22.5 22.5 22.5 22.5-10.093 22.5-22.5-10.094-22.5-22.5-22.5zm0 30c-4.136 0-7.5-3.364-7.5-7.5s3.364-7.5 7.5-7.5 7.5 3.364 7.5 7.5-3.364 7.5-7.5 7.5z"/><path d="m280.999 330.086c-12.406 0-22.5 10.093-22.5 22.5s10.094 22.5 22.5 22.5 22.5-10.093 22.5-22.5-10.094-22.5-22.5-22.5zm0 30c-4.136 0-7.5-3.364-7.5-7.5s3.364-7.5 7.5-7.5 7.5 3.364 7.5 7.5-3.364 7.5-7.5 7.5z"/><path d="m240.999 467c-12.406 0-22.5 10.093-22.5 22.5s10.094 22.5 22.5 22.5 22.5-10.093 22.5-22.5-10.094-22.5-22.5-22.5zm0 30c-4.136 0-7.5-3.364-7.5-7.5s3.364-7.5 7.5-7.5 7.5 3.364 7.5 7.5-3.364 7.5-7.5 7.5z"/></svg>