<svg id="Layer_1" enable-background="new 0 0 512 512" height="512" viewBox="0 0 512 512" width="512" xmlns="http://www.w3.org/2000/svg"><path d="m280.484 21.249c-5.22-8.609-14.364-13.749-24.461-13.749 0 0 0 0-.001 0-10.095 0-19.241 5.139-24.462 13.749-19.797 32.647-32.297 69.317-36.695 107.242-15.778-8.978-32.601-15.921-50.246-20.725-10.008-2.722-20.384.044-27.747 7.409-7.401 7.406-10.177 17.842-7.428 27.919 5.974 21.889 12.508 34.629 20.78 50.757 4.499 8.773 9.505 18.533 15.279 31.522-30.642-24.348-66.287-41.682-104.544-50.672-9.263-2.178-18.785.53-25.491 7.236-6.699 6.699-9.403 16.216-7.232 25.46 10.759 45.81 33.237 87.475 65.438 121.608-3.07 1.616-6.088 3.301-9.042 5.045-8.328 4.917-13.299 13.647-13.296 23.353.003 9.759 5.012 18.538 13.399 23.483 33.475 19.743 71.796 30.179 110.822 30.179 27.453 0 57.61-5.756 80.465-15.204l34.707-356.066c-3.163-6.308-6.577-12.497-10.245-18.546z" fill="#ff6f4d"/><path d="m496.466 181.951c-6.694-6.701-16.187-9.41-25.38-7.249-38.312 9.003-73.983 26.446-104.526 50.694 6.23-14.171 11.42-24.238 16.06-33.24 7.817-15.163 13.991-27.14 19.961-48.997 2.72-9.956-.127-20.68-7.43-27.99-7.354-7.359-17.714-10.125-27.729-7.403-17.644 4.804-34.466 11.747-50.244 20.725-3.583-30.897-12.547-60.961-26.451-88.697-52.267 42.001-85.442 104.264-92.027 171.002-6.6 66.891 14.067 133.615 57.32 185.064 22.854 9.448 53.01 15.204 80.464 15.204 39.026 0 77.348-10.436 110.823-30.178 8.385-4.946 13.395-13.725 13.397-23.484.003-9.705-4.968-18.435-13.293-23.352-2.955-1.745-5.973-3.429-9.043-5.045 32.147-34.078 54.606-75.667 65.385-121.386 2.198-9.307-.528-18.904-7.287-25.668z" fill="#ff8f71"/><path d="m429.092 246.69c-4.679-6.835-14.012-8.586-20.851-3.906l-137.22 93.92v-77.584l55.585-55.585c5.858-5.858 5.858-15.355 0-21.213-5.857-5.858-15.355-5.858-21.213 0l-34.372 34.372v-32.348c0-8.077-6.207-15.027-14.275-15.407-8.614-.406-15.725 6.458-15.725 14.983v32.814l-34.415-34.415c-5.857-5.858-15.355-5.858-21.213 0s-5.858 15.355 0 21.213l55.628 55.628v77.569l-137.263-93.949c-6.838-4.679-16.173-2.93-20.851 3.906-4.68 6.836-2.931 16.171 3.905 20.851l78.918 54.015-31.415 18.626c-7.126 4.225-9.478 13.426-5.252 20.552 2.802 4.727 7.793 7.353 12.917 7.353 2.601 0 5.236-.677 7.636-2.1l43.418-25.743 39.283 26.887c5.575 3.816 9.209 10.407 8.568 18.137l-7.817 94.314c-1.106 13.339 9.36 24.804 22.743 24.918 13.536.115 24.248-11.42 23.134-24.91l-7.791-94.356c-.637-7.712 2.99-14.314 8.569-18.133 0 0 39.24-26.857 39.24-26.857l43.418 25.743c2.4 1.423 5.035 2.1 7.636 2.1 5.123 0 10.115-2.626 12.917-7.353 4.226-7.126 1.874-16.328-5.252-20.552l-31.415-18.626 78.918-54.015c6.838-4.678 8.587-14.013 3.907-20.849z" fill="#ec5334"/><path d="m469.351 167.402c-29.457 6.923-57.939 18.954-83.695 35.247 4.05-7.974 25.451-47.325 25.451-67.16 0-19.993-16.17-36.259-36.045-36.259-12.724 0-39.673 11.358-51.925 17.55-5.52-35.083-17.954-69.248-36.248-99.418-14.047-23.172-47.723-23.126-61.746 0-18.295 30.172-30.728 64.337-36.248 99.419-12.041-6.085-39.185-17.543-51.895-17.543-19.905 0-36.098 16.223-36.098 36.164 0 19.755 22.361 61.281 25.331 67.121-38.374-24.229-80.5-36.064-91.632-36.064-19.079-.002-34.601 15.513-34.601 34.585 0 13.062 16.02 73.968 61.752 126.004-24.875 14.55-22.72 47.385-.823 60.299 52.636 31.046 115.447 38.418 170.216 24.576-5.999 72.391-5.661 67.762-5.661 69.593 0 16.668 13.574 30.343 30.268 30.484 18.251.035 32.105-15.334 30.661-33.027l-5.536-67.047c40.844 10.336 87.613 9.13 131.756-6.599 3.902-1.39 5.938-5.68 4.549-9.582-1.391-3.901-5.682-5.939-9.582-4.548-40.649 14.482-86.381 16.571-128.034 4.854-.979-11.854-.991-11.667-.991-12.56 0-4.143 1.96-7.861 5.378-10.201l35.29-24.156c42.815 25.387 42.782 26.453 50.762 26.453 22.904 0 30.993-30.291 11.49-41.856l-21.298-12.628c9.581-6.558 63.542-43.493 69.209-47.373 6.132-4.197 9.793-11.143 9.793-18.58 0-17.939-20.233-28.805-35.21-18.555l-125.475 85.886v-60.254l53.386-53.387c14.221-14.223 3.956-38.41-15.91-38.41-6.01 0-11.66 2.34-15.91 6.59l-21.566 21.568v-14.241c0-4.142-3.357-7.5-7.5-7.5s-7.5 3.358-7.5 7.5v32.348c0 6.655 8.082 10.026 12.803 5.303 37.353-37.355 35.428-36.568 39.672-36.568 6.606 0 10.055 8.051 5.303 12.803-60.166 60.17-57.778 56.595-57.778 60.888v77.583c0 6.022 6.768 9.592 11.736 6.189 147.997-101.303 138.077-95.231 141.433-95.231 4.168 0 7.515 3.383 7.515 7.489 0 4.994-3.299 6.225-11.933 12.135-.002.002-70.243 48.08-70.245 48.082-4.516 3.092-4.304 9.844.411 12.64l31.413 18.626c3.678 2.182 4.68 6.812 2.624 10.277-2.174 3.668-6.801 4.685-10.274 2.625l-43.415-25.743c-2.509-1.488-5.654-1.387-8.061.262l-39.237 26.857c-7.843 5.369-12.656 14.674-11.807 24.939 8.33 100.885 7.846 94.666 7.846 95.666 0 8.538-6.959 15.484-15.512 15.484-8.974 0-16.224-7.681-15.468-16.798 7.133-86.076 7.915-94.806 7.915-96.688 0-9.031-4.45-17.469-11.904-22.572l-39.28-26.887c-2.407-1.649-5.554-1.75-8.061-.262-47.147 27.956-44.409 26.794-47.225 26.794-7.634 0-10.366-10.086-3.84-13.954l31.413-18.626c4.707-2.791 4.934-9.544.411-12.64l-78.914-54.015c-2.044-1.399-3.265-3.717-3.265-6.202 0-6.002 6.775-9.572 11.737-6.177l83.497 57.153c3.421 2.34 8.087 1.466 10.426-1.953 2.339-3.418 1.465-8.086-1.953-10.425l-83.498-57.153c-3.76-2.573-8.15-3.934-12.694-3.934-22.135 0-30.846 28.665-12.721 41.069l69.209 47.373-21.297 12.628c-10.516 6.233-14.295 20.004-7.88 30.828 6.23 10.509 20 14.304 30.828 7.879l39.302-23.304 35.333 24.186c3.678 2.518 5.722 6.675 5.329 11.329l-.945 11.4c-51.434 14.453-112.515 8.692-163.912-21.622-12.918-7.618-12.951-26.329-.1-33.916 2.851-1.684 5.786-3.321 8.721-4.867 4.382-2.306 5.37-8.172 1.962-11.783-31.215-33.089-53.203-73.954-63.588-118.178-3.331-14.184 9.464-27.031 23.705-23.678 36.803 8.648 71.931 25.676 101.587 49.243 6.117 4.859 14.693-1.78 11.519-8.919-16.331-36.739-26.578-47.991-35.675-81.207-3.837-14.065 7.198-26.885 20.318-26.885 7.356 0 33.059 8.771 54.154 20.774 4.668 2.657 10.541-.325 11.159-5.655 4.261-36.735 16.59-72.773 35.656-104.217 8.205-13.531 27.906-13.505 36.094 0 19.066 31.443 31.396 67.481 35.656 104.218.619 5.337 6.496 8.309 11.159 5.655 20.83-11.853 46.73-20.781 54.183-20.781 13.13 0 24.096 12.954 20.27 26.954-9.226 33.779-18.692 42.616-35.651 81.194-3.134 7.132 5.419 13.74 11.529 8.892 29.727-23.601 64.85-40.637 101.574-49.267 12.8-3.007 24.206 7.186 24.206 19.208 0 7.723-14.17 69.724-64.092 122.648-1.608 1.706-2.327 4.065-1.942 6.378.795 4.767 3.872 5.102 12.627 10.271 12.833 7.58 12.832 26.29-.101 33.918-3.058 1.803-6.206 3.552-9.359 5.198-3.672 1.916-5.096 6.447-3.18 10.119 1.918 3.673 6.448 5.094 10.119 3.179 3.383-1.765 6.761-3.641 10.041-5.576 22.224-13.11 23.692-45.999-.823-60.3 29.549-33.624 50.481-74.122 60.755-117.705 5.953-25.235-16.522-47.855-41.683-41.941z"/><path d="m201.305 187.626 34.414 34.415c4.708 4.705 12.804 1.374 12.804-5.303v-32.814c0-4.142-3.357-7.5-7.5-7.5s-7.5 3.358-7.5 7.5v14.708l-21.61-21.61c-14.232-14.236-38.409-3.943-38.409 15.91 0 6.01 2.341 11.66 6.59 15.909l53.43 53.431v60.241l-17.267-11.818c-3.42-2.34-8.086-1.464-10.426 1.953-2.339 3.418-1.465 8.086 1.953 10.425l29.003 19.852c4.971 3.402 11.736-.167 11.736-6.189 0-83.703.888-79.788-2.196-82.873l-55.627-55.628c-2.93-2.93-2.931-7.675.001-10.606 2.93-2.935 7.674-2.935 10.604-.003z"/><path d="m227.305 156.194c2.765-2.766 2.197-4.844 2.196-15.304 0-4.143-3.358-7.5-7.5-7.5-4.142.001-7.499 3.358-7.5 7.501v10c.002 6.691 8.114 9.993 12.804 5.303z"/><path d="m282.499 140.891v10c0 4.143 3.358 7.5 7.5 7.501 4.15-.002 7.499-3.364 7.5-7.5v-10c0-4.143-3.358-7.501-7.5-7.501-4.142.001-7.499 3.358-7.5 7.5z"/><path d="m271.737 141.89c-3.736-1.791-8.215-.207-10.002 3.529-2.019 4.22-8.44 4.244-10.467.002-1.788-3.737-6.265-5.317-10.001-3.531-10.434 4.99.046 21.72 15.232 21.72 15.187 0 25.674-16.729 15.238-21.72z"/></svg>