<svg id="Layer_1" enable-background="new 0 0 512 512" height="512" viewBox="0 0 512 512" width="512" xmlns="http://www.w3.org/2000/svg"><path d="m44.385 27.045c-4.889-1.198-9.939.217-13.509 3.787 0 0 0 0-.001.001-3.569 3.569-4.986 8.62-3.788 13.509 4.543 18.542 13.089 35.926 24.942 50.89-8.752 2.404-17.155 5.897-25.092 10.438-4.501 2.576-7.191 7.223-7.19 12.43.002 5.235 2.71 9.906 7.245 12.497 9.851 5.627 16.665 7.821 25.292 10.599 4.692 1.511 9.913 3.192 16.547 5.743-19.442 2.225-38.173 8.699-54.877 19.047-4.045 2.505-6.454 6.829-6.454 11.571 0 4.737 2.409 9.058 6.445 11.558 20 12.392 42.678 19.176 66.131 19.859-.514 1.657-.986 3.319-1.413 4.98-1.206 4.683.123 9.527 3.556 12.957 3.451 3.449 8.326 4.782 13.04 3.565 18.815-4.855 36.053-14.714 49.851-28.512 9.706-9.706 18.333-22.403 23.073-33.824l-113.619-138.161c-3.348-1.112-6.743-2.093-10.179-2.934z" fill="#ff6f4d"/><path d="m177.563 7.5c-4.736-.002-9.05 2.396-11.536 6.411-10.362 16.728-16.807 35.507-19.033 54.878-2.808-7.213-4.532-12.607-6.074-17.43-2.597-8.125-4.649-14.542-10.266-24.381-2.558-4.482-7.357-7.267-12.523-7.269-5.202-.002-9.843 2.683-12.421 7.186-4.54 7.937-8.032 16.339-10.437 25.091-12.189-9.656-25.987-17.116-40.709-22.007-3.63 33.329 6.655 67.071 27.922 92.995 21.316 25.983 52.213 42.266 85.696 45.164 11.421-4.739 24.117-13.366 33.824-23.073 13.798-13.798 23.657-31.036 28.512-49.851 1.216-4.713-.117-9.588-3.566-13.039-3.43-3.432-8.274-4.761-12.956-3.556-1.662.428-3.324.9-4.981 1.414-.683-23.414-7.446-46.059-19.799-66.034-2.515-4.068-6.871-6.497-11.653-6.499z" fill="#ff8f71"/><path d="m484.955 124.364c1.198-4.889-.217-9.939-3.787-13.509 0 0 0 0 0-.001-3.569-3.569-8.62-4.986-13.509-3.788-18.542 4.543-35.926 13.089-50.89 24.942-2.404-8.752-5.897-17.155-10.438-25.092-2.576-4.501-7.223-7.191-12.43-7.19-5.235.002-9.906 2.71-12.497 7.245-5.627 9.851-7.821 16.665-10.599 25.292-1.511 4.692-3.192 9.913-5.743 16.547-2.225-19.442-8.699-38.173-19.047-54.877-2.505-4.045-6.829-6.454-11.571-6.454-4.737 0-9.058 2.409-11.558 6.445-12.392 20-19.176 42.678-19.859 66.131-1.657-.514-3.319-.986-4.98-1.413-4.683-1.206-9.527.123-12.957 3.556-3.449 3.451-4.782 8.326-3.565 13.04 4.855 18.815 14.714 36.053 28.512 49.851 9.706 9.706 22.403 18.333 33.824 23.073l138.159-113.618c1.113-3.35 2.094-6.745 2.935-10.18z" fill="#ffb357"/><path d="m504.5 257.542c.002-4.736-2.396-9.05-6.411-11.536-16.728-10.362-35.507-16.807-54.878-19.033 7.213-2.808 12.607-4.532 17.43-6.074 8.125-2.597 14.542-4.649 24.381-10.266 4.482-2.558 7.267-7.357 7.269-12.523.002-5.202-2.683-9.843-7.186-12.421-7.937-4.54-16.339-8.032-25.091-10.437 9.657-12.191 17.117-25.989 22.007-40.711-33.329-3.63-67.071 6.655-92.995 27.922-25.983 21.316-42.266 52.213-45.164 85.696 4.739 11.421 13.366 24.117 23.073 33.824 13.798 13.798 31.036 23.657 49.851 28.512 4.713 1.216 9.588-.117 13.039-3.566 3.432-3.43 4.761-8.274 3.556-12.956-.428-1.662-.9-3.324-1.414-4.981 23.414-.683 46.059-7.446 66.034-19.799 4.068-2.513 6.497-6.87 6.499-11.651z" fill="#ffce71"/><path d="m221.476 261.629c-2.61-4.304-7.182-6.874-12.23-6.874 0 0 0 0-.001 0-5.048 0-9.62 2.57-12.231 6.874-9.898 16.323-16.149 34.659-18.348 53.621-7.889-4.489-16.3-7.96-25.123-10.362-5.004-1.361-10.192.022-13.873 3.705-3.7 3.703-5.089 8.921-3.714 13.96 2.987 10.945 6.254 17.314 10.39 25.379 2.249 4.387 4.753 9.266 7.64 15.761-15.321-12.174-33.143-20.841-52.272-25.336-4.631-1.089-9.392.265-12.745 3.618-3.349 3.349-4.702 8.108-3.616 12.73 5.379 22.905 16.619 43.738 32.719 60.804-1.535.808-3.044 1.65-4.521 2.522-4.164 2.459-6.649 6.823-6.648 11.676.001 4.879 2.506 9.269 6.699 11.741 16.738 9.871 35.898 15.089 55.411 15.089 13.726 0 28.805-2.878 40.233-7.602l17.353-178.033c-1.582-3.154-3.289-6.248-5.123-9.273z" fill="#00ce8e"/><path d="m329.467 341.98c-3.347-3.35-8.093-4.705-12.69-3.624-19.156 4.501-36.991 13.223-52.263 25.347 3.115-7.086 5.71-12.119 8.03-16.62 3.908-7.582 6.995-13.57 9.981-24.499 1.36-4.978-.064-10.34-3.715-13.995-3.677-3.68-8.857-5.063-13.865-3.702-8.822 2.402-17.233 5.874-25.122 10.362-1.792-15.449-6.274-30.481-13.225-44.348-26.134 21.001-42.721 52.132-46.014 85.501-3.3 33.445 7.034 66.807 28.66 92.532 11.427 4.724 26.505 7.602 40.232 7.602 19.513 0 38.674-5.218 55.412-15.089 4.193-2.473 6.697-6.863 6.699-11.742.001-4.852-2.484-9.217-6.646-11.676-1.478-.872-2.987-1.714-4.522-2.523 16.073-17.039 27.303-37.833 32.693-60.693 1.098-4.652-.265-9.451-3.645-12.833z" fill="#5fd9b3"/><path d="m168.922 183.471 31.104 31.104c2.856 2.855 7.507 3.118 10.494.4 3.189-2.902 3.276-7.843.263-10.857l-32.431-32.431c43.308-22.034 60.112-67.524 60.112-79.932 0-12.203-10.377-21.886-22.509-21.025-.204-2.181-.458-4.354-.762-6.508-.577-4.102-4.375-6.957-8.473-6.381-4.102.578-6.958 4.371-6.381 8.473 1.959 13.913-.105 16.661 4.315 19.819 3.71 2.65 6.736.9 11.209-.252 4.31-1.105 8.581 2.823 7.393 7.458-7.552 29.264-28.555 54.539-55.178 66.663-1.279-3.423-.852-3.236 3.913-28.672l24.452-6.249c4.015-1.027 6.435-5.113 5.409-9.124-1.025-4.013-5.11-6.435-9.123-5.409l-17.692 4.521 8.804-46.999c.762-4.071-1.919-7.99-5.991-8.752-4.071-.762-7.989 1.918-8.753 5.991l-15.309 81.72-27.43-27.43v-39.304c0-4.142-3.358-7.5-7.5-7.5s-7.5 3.358-7.5 7.5v24.304l-11.435-11.436c-2.856-2.855-7.507-3.118-10.494-.4-3.189 2.902-3.276 7.843-.262 10.857l11.602 11.602h-24.335c-4.142 0-7.5 3.358-7.5 7.5s3.358 7.5 7.5 7.5h39.335l27.425 27.425-81.747 15.313c-4.072.763-6.754 4.682-5.991 8.753.763 4.072 4.681 6.754 8.753 5.991l46.999-8.805-4.521 17.692c-1.026 4.013 1.396 8.098 5.409 9.123 4.015 1.027 8.099-1.399 9.124-5.409l6.249-24.452c25.123-4.707 26.112-5.642 30.285-3.148-12.841 24.394-36.84 43.403-64.369 50.506-4.493 1.161-8.614-2.885-7.46-7.39 1.16-4.504 2.898-7.511.252-11.212-1.363-1.907-3.54-3.067-5.884-3.136-22.074-.643-43.651-7.122-62.398-18.737-3.874-2.402-3.867-7.978.009-10.378 15.604-9.666 33.509-15.88 51.781-17.971 7.761-.888 9.133-11.648 1.839-14.451-18.959-7.289-26.321-7.577-40.811-15.854-4.614-2.636-4.626-9.286-.051-11.904 7.365-4.213 15.223-7.482 23.354-9.716 5.181-1.422 7.224-7.682 3.893-11.889-17.314-21.858-23.75-46.502-23.75-49.708 0-4.092 4.002-7.626 8.44-6.537 17.339 4.248 33.943 12.387 48.019 23.536 1.974 1.563 4.599 2.032 6.991 1.249 7.081-2.319 3.242-8.616 14.61-28.493 1.241-2.169 3.396-3.413 5.909-3.413 9.44.005 13.245 22.127 21.877 44.301 2.826 7.258 13.55 5.883 14.44-1.865 2.104-18.31 8.313-36.216 17.957-51.786 2.398-3.871 8.03-3.802 10.434.083 4.126 6.673 7.637 13.75 10.433 21.034 1.485 3.866 5.818 5.8 9.69 4.313 3.866-1.484 5.798-5.823 4.313-9.69-3.132-8.156-7.061-16.078-11.679-23.546-8.277-13.387-27.709-13.39-35.943-.093-6 9.686-10.813 20.177-14.309 31.103-5.521-15.725-12.094-28.848-27.21-28.855-7.925 0-15.002 4.097-18.933 10.963-3.058 5.346-5.682 10.92-7.848 16.659-20.597-13.895-43.574-20.702-50.402-20.702-13.859 0-24.566 13.049-21.145 27 3.919 15.996 10.793 31.432 20.07 45.182-5.738 2.166-11.313 4.792-16.661 7.851-14.655 8.387-14.63 29.557.06 37.949 6.801 3.885 12.329 6.265 17.724 8.214-10.874 3.494-21.327 8.298-30.99 14.285-13.341 8.259-13.336 27.625-.012 35.88 18.41 11.408 39.259 18.392 60.78 20.421-.85 12.218 8.883 22.51 21.027 22.51 10.394-.001 53.442-14.117 77.121-54.947z"/><path d="m502.04 239.63c-9.658-5.982-20.12-10.786-31.014-14.28 5.285-1.89 10.75-4.228 17.713-8.202 14.513-8.284 14.909-29.486.089-37.969-5.346-3.057-10.92-5.682-16.659-7.849 13.898-20.596 20.704-43.58 20.704-50.405 0-13.893-13.101-24.549-27-21.144-15.996 3.919-31.432 10.794-45.182 20.071-2.166-5.739-4.792-11.314-7.851-16.662-8.387-14.655-29.561-14.62-37.949.059-3.885 6.802-6.264 12.329-8.214 17.724-3.494-10.874-8.298-21.327-14.285-30.991-8.26-13.341-27.626-13.336-35.88-.011-7.392 11.929-12.933 24.826-16.469 38.332-1.049 4.007 1.35 8.105 5.356 9.155 4.003 1.044 8.104-1.35 9.155-5.356 3.156-12.058 8.104-23.574 14.707-34.23 2.403-3.874 7.978-3.867 10.378.009 9.666 15.603 15.88 33.508 17.971 51.78.889 7.774 11.653 9.116 14.451 1.839 7.286-18.947 7.575-26.316 15.854-40.81 2.639-4.62 9.28-4.635 11.905-.051 4.213 7.366 7.481 15.224 9.715 23.355 1.423 5.181 7.683 7.225 11.89 3.893 14.075-11.15 30.68-19.289 48.018-23.537 4.883-1.194 9.451 3.215 8.228 8.228-4.249 17.338-12.387 33.943-23.536 48.017-3.342 4.221-1.271 10.47 3.892 11.889 8.134 2.236 15.992 5.505 23.353 9.714 2.168 1.241 3.412 3.396 3.412 5.909-.001 2.481-1.338 4.786-3.487 6.013-14.768 8.43-21.118 8.196-40.813 15.863-7.262 2.828-5.882 13.55 1.864 14.44 18.313 2.104 36.219 8.314 51.786 17.958 3.872 2.399 3.801 8.031-.083 10.434-18.725 11.579-40.27 18.038-62.308 18.681-2.343.068-4.52 1.229-5.883 3.136-2.646 3.701-.909 6.714.251 11.211 1.177 4.589-3.089 8.511-7.458 7.392-29.264-7.552-54.539-28.555-66.663-55.178 3.42-1.278 3.236-.852 28.672 3.913l6.249 24.452c1.027 4.015 5.113 6.435 9.124 5.409 4.013-1.025 6.435-5.11 5.409-9.123l-4.521-17.692 46.999 8.804c4.071.762 7.99-1.919 8.752-5.991.762-4.071-1.918-7.99-5.991-8.753l-81.72-15.309 27.43-27.43h39.304c4.142 0 7.5-3.358 7.5-7.5s-3.358-7.5-7.5-7.5h-24.304l11.437-11.437c2.855-2.856 3.118-7.507.4-10.494-2.902-3.189-7.843-3.276-10.857-.262l-11.602 11.602v-24.335c0-4.142-3.358-7.5-7.5-7.5s-7.5 3.358-7.5 7.5v39.335l-27.425 27.425-15.314-81.746c-.764-4.072-4.682-6.754-8.753-5.991-4.072.762-6.754 4.681-5.991 8.752l8.805 46.999-17.692-4.522c-4.013-1.026-8.098 1.396-9.123 5.409-1.027 4.015 1.399 8.099 5.409 9.124l24.452 6.249c4.707 25.126 5.641 26.113 3.148 30.285-24.394-12.841-43.402-36.84-50.506-64.369-1.044-4.036 2.104-7.662 5.832-7.662 1.292 0 4.212.904 6.188 1.517 4.691 1.457 9.516-1.935 9.715-6.864.145-4.731-3.29-7.807-7.085-8.009-3.417-.998-5.707-1.644-8.817-1.644-13.61 0-23.846 12.889-20.356 26.409 7.772 30.12 28.032 56.577 54.265 71.791l-21.104 21.104c-2.856 2.855-3.118 7.507-.4 10.494 2.902 3.189 7.843 3.277 10.857.263l22.431-22.431c22.055 43.349 67.57 60.112 79.932 60.112 12.147 0 21.876-10.302 21.024-22.512 21.481-2.026 42.294-8.988 60.678-20.356 6.292-3.891 10.051-10.631 10.054-18.032-.003-7.353-3.727-14.048-9.963-17.911z"/><path d="m315.039 331.056c-11.067 2.6-21.854 6.594-32.016 11.813 2.437-5.194 4.663-10.786 6.726-18.345 4.432-16.276-10.385-31.335-26.795-26.872-5.943 1.618-11.741 3.703-17.331 6.229-3.162-16.282-9.217-32.059-17.757-46.143-8.522-14.044-28.839-13.928-37.287.002-8.54 14.082-14.593 29.856-17.756 46.141-5.59-2.526-11.389-4.611-17.334-6.23-7.477-2.034-15.456-.048-21.136 5.637-11.137 11.144-5.496 25.863 1.179 39.65-12.31-6.342-29.91-12.45-36.988-12.45-11.615 0-21.064 9.477-21.064 21.124 0 7.825 8.344 37.187 29.137 62.284-10.869 9.265-9.3 26.666 3.154 34.013 28.068 16.554 62.124 20.326 91.907 11.608v44.772c0 4.038 3.103 7.513 7.137 7.703 4.307.203 7.863-3.229 7.863-7.491v-45.011c28.769 8.445 63.027 5.507 91.999-11.58 12.228-7.211 14.235-24.471 3.147-34.002 3.336-4.021 6.448-8.225 9.301-12.564 2.275-3.462 1.313-8.111-2.148-10.387-3.459-2.273-8.111-1.313-10.387 2.148-11.442 17.413-16.649 17.27-15.591 23.635 1.254 7.536 11.067 5.665 11.067 12.964-.001 2.231-1.098 4.157-3.009 5.285-26.014 15.341-57.658 17.826-83.734 8.975 1.399-4.047 2.309-3.93 23.394-18.361l21.709 12.872c3.565 2.113 8.165.935 10.276-2.626 2.113-3.563.937-8.164-2.626-10.276l-15.707-9.313 39.459-27.008c3.418-2.34 4.292-7.007 1.953-10.425s-7.006-4.293-10.425-1.953l-68.61 46.96v-38.792l27.792-27.792c2.929-2.929 2.929-7.677 0-10.606s-7.678-2.929-10.606 0l-17.186 17.186v-16.174c0-4.038-3.104-7.513-7.137-7.703-4.307-.203-7.863 3.229-7.863 7.491v16.407l-17.208-17.207c-2.929-2.929-7.678-2.929-10.606 0-2.929 2.929-2.929 7.677 0 10.606l27.814 27.814v38.785l-68.632-46.975c-3.419-2.339-8.086-1.465-10.425 1.953-2.34 3.418-1.465 8.086 1.953 10.425l39.459 27.008-15.708 9.313c-3.563 2.113-4.739 6.713-2.626 10.276 2.113 3.565 6.716 4.738 10.277 2.626l21.709-12.872c21.181 14.497 22.005 14.335 23.406 18.349-25.8 8.773-57.445 6.561-83.767-8.963-1.912-1.128-3.009-3.054-3.01-5.282 0-3.304 1.518-4.599 6.736-7.338 5.298-2.783 5.528-8.676 2.388-12.007-15.13-16.038-25.797-35.841-30.849-57.27-.958-4.057 2.21-7.604 5.888-7.604 1.612 0 26.795 5.074 50.747 24.089 6.103 4.845 14.666-1.753 11.529-8.893-7.899-17.963-17.788-33.196-17.788-41.949 0-4.877 4.423-7.719 8.52-6.61 22.106 6.02 23.833 13.182 30.482 9.816 2.245-1.138 3.771-3.326 4.061-5.826 2.069-17.838 8.055-35.334 17.311-50.597 2.646-4.362 8.988-4.363 11.636 0 9.256 15.264 15.242 32.76 17.311 50.597.62 5.346 6.506 8.303 11.159 5.654 10.215-5.812 22.493-9.896 25.225-9.896 4.201 0 7.796 4.104 6.542 8.705-4.393 16.098-9.403 21.522-17.648 40.067-1.403 3.156-.469 6.862 2.262 8.978 2.73 2.113 6.553 2.091 9.258-.059 22.635-17.985 47.937-24.082 50.789-24.082 3.651 0 6.826 3.471 5.877 7.507-1.187 5.054-2.697 10.071-4.489 14.914-1.438 3.884.545 8.199 4.43 9.637 3.881 1.438 8.198-.545 9.637-4.43 1.814-4.9 5.597-16.309 5.597-21.584-.005-13.472-12.592-23.621-25.954-20.47z"/></svg>