<svg id="Layer_1" enable-background="new 0 0 512 512" height="512" viewBox="0 0 512 512" width="512" xmlns="http://www.w3.org/2000/svg"><path d="m249.323 194.51c-6.194-7.626-16.169-12.833-24.842-12.208-18.923 1.156-22.945 11.569-29.792 25.77-7.672 15.185-20.994 27.577-37.367 33.611-10.645 3.983-22.35 5.081-33.309 3.136-15.369-2.641-28.77-10.462-40.422-25.369-7.589-10.621-20.644-13.454-19.481-13.088-5.153-1.619-8.018-7.108-6.399-12.26 1.107-3.526 4.041-5.981 7.425-6.662 13.079-2.598 27.733.15 40.672 9.63 7.428 5.564 15.596 7.558 22.287 6.942 20.113-1.966 22.433-21.335 25.47-27.757 4.669-11.193 11.899-19.742 19.745-26.996 22.395-19.364 49.637-21.018 63.401-18.024 35.456 6.141 60.536 36.584 63.385 67.827 2.054 38.868-21.739 64.401-47.262 72.038-9.288 2.824-19.04 3.356-27.983 1.502-5.305-1.1-8.713-6.292-7.614-11.596.759-3.663 3.47-6.422 6.822-7.417 32.15-9.541 40.054-40.998 25.264-59.079z" fill="#b9f0ff"/><path d="m331.077 225.398c13.82-20.834 41.635-26.429 67.546-7.995 12.476 8.791 32.304 14.052 46.395 7.789 16.037-7.828 16.851-20.384 10.05-27.455-9.719-10.105-25.081-2.484-23.885-2.924-5.513 2.031-11.628-.791-13.659-6.304-5.692-15.448 31.537-41.733 63.837-20.157 36.33 23.634 29.635 81.41-18.357 100.77-37.81 14.79-75.488-5.939-89.23-22.116-4.459-5.41-10.43-10.196-17.372-9.909-5.611.137-12.95 4.284-11.757 3.693-9.706 4.808-19.518-6.373-13.568-15.392z" fill="#55dafe"/><path d="m358.39 329.69c-4.056 4.054-2.519 8.556-1.439 12.04-15.717.458-30.917 4.998-44.326 13.291-2.73 1.688-4.361 4.612-4.362 7.822-.002 3.179 1.608 6.075 4.303 7.744 11.229 6.956 23.834 11.282 36.838 12.776-4.842 1.885-8.463 3.042-11.7 4.077-5.454 1.743-9.762 3.12-16.366 6.891-3.008 1.717-4.878 4.938-4.879 8.406-.001 3.492 1.801 6.607 4.824 8.338 5.327 3.047 10.967 5.392 16.843 7.006-7.766 9.804-13.624 21.432-16.743 34.16-.804 3.282.146 6.672 2.542 9.068 2.396 2.396 5.786 3.347 9.068 2.543 12.446-3.05 24.116-8.786 34.161-16.743 1.614 5.875 3.959 11.516 7.006 16.843 1.729 3.021 4.848 4.827 8.343 4.827 3.514-.001 6.65-1.819 8.389-4.863 5.858-10.255 6.169-15.602 10.969-28.085 1.494 13.051 5.839 25.624 12.785 36.837 1.681 2.715 4.584 4.332 7.767 4.332 3.18 0 6.08-1.617 7.759-4.326 8.319-13.425 12.872-28.648 13.331-44.391 3.267 1.013 7.908 2.697 12.041-1.438 2.315-2.317 3.21-5.589 2.393-8.753-5.993-23.224-23.092-41.169-41.844-48.952-7.78-18.747-25.691-35.841-48.951-41.844-3.163-.816-6.435.079-8.752 2.394z" fill="#ffb357"/><path d="m367.143 327.296c-2.966-.765-6.017-.01-8.297 1.993 7.311 5.515 13.07 14.105 14.898 25.434.696 6.521.019 11.235-.683 14.927-.963 5.068-.381 10.691 4.265 13.242 4.731 2.598 9.674.166 13.97-5.345 2.417-3.1 4.609-6.763 6.451-10.17 2.908-6.067 4.7-12.163 5.531-18.176-9.186-10.092-21.618-18.159-36.135-21.905z" fill="#ffce71"/><path d="m154.81 57.626c-4.053-4.056-8.556-2.519-12.041-1.438-.458-15.717-4.998-30.917-13.291-44.326-1.688-2.73-4.612-4.361-7.822-4.362-3.179-.002-6.075 1.608-7.744 4.303-6.956 11.229-11.282 23.834-12.776 36.838-1.885-4.842-3.042-8.463-4.077-11.7-1.743-5.454-3.121-9.762-6.891-16.366-1.717-3.008-4.938-4.878-8.406-4.879-3.492-.001-6.607 1.801-8.338 4.824-3.047 5.327-5.392 10.968-7.006 16.843-9.804-7.767-21.432-13.624-34.16-16.743-3.282-.804-6.672.146-9.068 2.542-2.396 2.396-3.347 5.786-2.542 9.069 3.05 12.446 8.786 24.116 16.743 34.16-5.875 1.614-11.516 3.958-16.844 7.006-3.021 1.729-4.827 4.848-4.827 8.344.001 3.514 1.819 6.649 4.863 8.389 10.255 5.858 15.602 6.169 28.085 10.969-13.051 1.494-25.624 5.839-36.837 12.785-2.715 1.681-4.333 4.584-4.333 7.767 0 3.18 1.617 6.08 4.326 7.759 13.425 8.319 28.648 12.872 44.391 13.331-1.014 3.267-2.697 7.908 1.438 12.041 2.317 2.315 5.589 3.21 8.753 2.393 6.666-1.72 12.895-4.359 18.576-7.686 14.11-8.263 24.827-20.789 30.375-34.157 18.748-7.78 35.842-25.69 41.844-48.951.819-3.166-.076-6.438-2.391-8.755z" fill="#ff8f71"/><path d="m300.7 56.295c-.002 5.734 4.269 7.831 7.497 9.531-10.789 11.437-18.327 25.396-21.945 40.741-.737 3.124.178 6.345 2.447 8.615 2.247 2.249 5.433 3.158 8.518 2.433 12.859-3.022 24.831-8.876 35.082-17.014-2.091 4.756-3.833 8.135-5.39 11.156-2.624 5.089-4.696 9.109-6.7 16.445-.913 3.341.043 6.941 2.494 9.394 2.468 2.47 5.945 3.399 9.307 2.485 5.922-1.612 11.568-3.943 16.863-6.956 1.441 12.424 5.521 24.789 12.316 35.994 1.752 2.889 4.821 4.614 8.21 4.614 3.388 0 6.458-1.725 8.21-4.614 6.644-10.957 10.84-23.265 12.316-35.994 5.296 3.013 10.942 5.344 16.864 6.956 3.359.914 6.842-.015 9.313-2.487 2.484-2.486 3.416-5.988 2.493-9.371-3.109-11.394-6.67-15.395-12.103-27.615 10.284 8.172 22.248 13.99 35.088 17.007 3.109.731 6.305-.178 8.555-2.429 2.248-2.248 3.156-5.443 2.427-8.545-3.611-15.375-11.155-29.359-21.963-40.816 3.027-1.594 7.499-3.685 7.497-9.531-.001-3.275-1.682-6.222-4.497-7.882-20.659-12.184-45.44-12.782-64.202-5.026-18.758-7.755-43.51-7.178-64.202 5.026-2.813 1.661-4.494 4.607-4.495 7.883z" fill="#5fd9b3"/><path d="m124.373 501.81c4.056-4.054 2.519-8.556 1.439-12.04 15.717-.458 30.917-4.998 44.326-13.291 2.73-1.688 4.361-4.612 4.362-7.822.002-3.179-1.608-6.075-4.303-7.744-11.229-6.956-23.834-11.282-36.838-12.776 4.842-1.885 8.463-3.042 11.7-4.077 5.454-1.743 9.762-3.12 16.366-6.891 3.008-1.717 4.878-4.938 4.879-8.406.001-3.492-1.801-6.607-4.824-8.338-5.327-3.047-10.968-5.392-16.843-7.006 7.766-9.804 13.624-21.432 16.743-34.16.804-3.282-.146-6.672-2.542-9.068-2.396-2.396-5.786-3.347-9.068-2.543-12.446 3.05-24.116 8.786-34.161 16.743-1.614-5.875-3.959-11.516-7.006-16.843-1.729-3.021-4.848-4.827-8.343-4.827-3.514.001-6.65 1.819-8.389 4.863-5.858 10.255-6.169 15.602-10.969 28.085-1.494-13.051-5.839-25.624-12.785-36.837-1.681-2.715-4.584-4.332-7.767-4.332-3.18 0-6.08 1.617-7.759 4.326-8.319 13.425-12.872 28.648-13.331 44.391-3.267-1.013-7.908-2.697-12.041 1.438-2.315 2.317-3.21 5.589-2.393 8.753 5.993 23.224 23.092 41.169 41.844 48.952 7.78 18.747 25.691 35.841 48.951 41.844 3.163.816 6.436-.079 8.752-2.394z" fill="#ffce71"/><path d="m144.813 178.309c-3.239 9.685-6.581 17.178-17.407 18.235-5.979.557-12.221-1.821-17.165-5.523-10.722-7.855-23.044-12.007-35.634-12.007-11.006 0-20.739 2.289-24.051 12.84-2.682 8.545 1.465 18.385 11.305 21.665h.001c5.69 1.835 10.65 3.936 15.82 10.552 36.949 47.267 101.524 32.798 123.764-12.74 6.866-14.308 9.239-20.671 23.593-21.548 8.301-.619 23.962 8.203 23.962 25.197 0 10.788-7.091 25.49-27.076 31.422-17.139 5.087-16.174 29.904 1.404 33.546 53.796 11.15 103.253-49.555 77.506-106.837-1.699-3.778-6.141-5.462-9.916-3.766-3.777 1.698-5.464 6.138-3.766 9.916 20.736 46.131-18.643 94.733-60.78 85.999-2.332-.484-2.491-3.793-.18-4.479 22.967-6.817 37.807-24.795 37.807-45.802 0-24.831-21.497-40.229-38.09-40.229-23.118 0-30.348 14.13-36.982 27.993-18.829 39.239-69.813 49.841-99.336 12.205-7.152-9.907-18.12-14.484-23.242-15.743-2.245-.715-2.048-3.948.247-4.409 2.617-.52 5.313-.783 8.01-.783 24.559 0 28.535 17.606 51.112 17.606 26.221 0 31.192-23.926 34.768-32.477 17.227-41.297 74.497-57.415 111.126-21.96 2.977 2.881 7.725 2.804 10.605-.172 2.881-2.977 2.804-7.725-.172-10.605-46.635-45.142-119.504-21.096-137.233 31.904z"/><path d="m455.047 152.688c-26.978 0-51.102 20.654-44.561 38.415 4.048 10.981 16.957 14.362 24.348 10.262 14.416-5.852 25.623 7.852 7.019 17.026-11.035 4.818-27.989.576-38.882-7.1-29.202-20.774-61.86-14.585-78.155 9.979-8.26 12.529 1.405 28.176 15.061 28.176 3.743 0 7.213-1.335 8.768-2.31 3.566-1.944 4.944-6.392 3.073-10.021-1.899-3.682-6.421-5.126-10.104-3.229-.577.299-.937.559-1.737.559-1.878 0-4.158-2.463-2.549-4.901 11.397-17.179 34.415-22.06 56.977-6.011 14.823 10.445 37.239 15.853 53.759 8.512 9.474-4.124 18.542-13.227 18.542-24.55 0-11.732-9.968-22.526-24.597-22.526-5.477 0-11.256 1.647-13.81 2.924-.229.053-.46.079-.692.079-1.621 0-3.063-1.321-3.063-2.793 0-5.834 13.231-17.491 30.604-17.491 20.623 0 41.953 17.527 41.953 43.827 0 29.547-26.729 55.172-60.971 55.172-26.153 0-48.102-14.634-56.506-24.496-.659-.799-1.338-1.573-2.019-2.304-2.822-3.031-7.568-3.2-10.6-.377s-3.2 7.568-.377 10.6c.629.675 1.008 1.127 1.529 1.753 15.822 18.623 56.814 40.233 97.752 24.215 28.06-11.319 46.19-36.662 46.19-64.563.001-35.388-28.814-58.827-56.952-58.827z"/><path d="m174.146 454.531c-4.813-2.981-9.916-5.538-15.212-7.635 1.899-.878 3.937-1.922 6.21-3.219 5.34-3.049 8.658-8.766 8.66-14.916.007-10.659-7.63-15.076-17.299-19.154 5.551-8.812 9.7-18.529 12.159-28.567 3.057-12.468-8.233-23.737-20.68-20.682-10.04 2.46-19.758 6.608-28.568 12.159-1.256-2.979-2.693-5.885-4.304-8.7-5.633-9.849-16.713-8.601-14.855-8.602-10.349.003-14.588 7.207-18.124 14.876-2.098-5.292-4.656-10.396-7.641-15.213-6.509-10.514-21.772-10.509-28.277-.009-7.47 12.055-12.186 25.628-13.834 39.673-9.778.545-17.508 10.311-14.817 20.733 5.273 20.435 18.857 38.439 36.503 49.073l-10.561 10.562c-2.929 2.93-2.929 7.678 0 10.607 2.931 2.929 7.678 2.928 10.607 0l10.561-10.561c16.138 26.782 44.868 37.044 53.292 37.044 4.34 0 8.522-1.706 11.708-4.89h.001c3.445-3.444 4.643-7.131 4.819-10.47 14.014-1.647 27.557-6.348 39.588-13.788 10.517-6.503 10.576-21.813.064-28.321zm-7.953 15.564c-12.2 7.545-26.239 11.754-40.601 12.172-4.639.135-8.541 4.574-6.861 9.987 1.089 3.497.885 3.701.341 4.245-.439.44-.985.589-1.578.438-17.943-4.63-33.541-17.074-41.796-33.004l38.415-38.415c2.929-2.93 2.929-7.678 0-10.607-2.93-2.928-7.678-2.928-10.607 0l-38.415 38.415c-15.93-8.255-28.374-23.854-33.004-41.797-.27-1.05.534-2.023 1.395-2.023.535 0 1.426.203 3.131.736 5.643 1.769 10.01-2.217 10.145-6.813.418-14.384 4.64-28.443 12.208-40.658.647-1.044 2.128-1.038 2.774.005 6.298 10.168 10.348 21.835 11.711 33.742.888 7.761 11.646 9.13 14.451 1.838 4.905-12.755 5.092-17.622 10.48-27.056.826-1.444 2.894-1.46 3.711-.034 2.725 4.765 4.839 9.847 6.284 15.107 1.424 5.179 7.687 7.225 11.89 3.892 9.171-7.266 19.99-12.569 31.287-15.337 1.507-.378 2.919.999 2.542 2.542-2.768 11.296-8.071 22.115-15.337 31.287-3.342 4.221-1.271 10.471 3.892 11.89 5.259 1.444 10.341 3.559 15.104 6.282 1.522.871 1.294 2.957-.048 3.722-9.621 5.494-13.729 5.301-27.068 10.492-7.262 2.828-5.881 13.55 1.864 14.44 11.932 1.371 23.601 5.417 33.746 11.701 1.03.637 1.002 2.157-.056 2.811z"/><path d="m7.876 135.785c12.055 7.47 25.627 12.186 39.673 13.834.468 8.393 7.784 15.357 16.512 15.357 7.527 0 36.462-9.336 53.273-37.064 10.502 10.502 11.351 12.26 15.367 12.26 6.624 0 10.041-8.065 5.304-12.804l-10.043-10.043c17.647-10.632 31.23-28.636 36.504-49.072 1.486-5.76-.14-11.714-4.35-15.927v-.001c-3.444-3.445-7.131-4.643-10.47-4.819-1.647-14.014-6.348-27.557-13.788-39.587-6.509-10.533-21.823-10.562-28.32-.066-2.982 4.814-5.539 9.917-7.636 15.214-2.937-6.354-7.157-14.864-18.137-14.871-.002 0-.003 0-.005 0-10.641 0-15.065 7.62-19.147 17.299-8.812-5.55-18.529-9.699-28.569-12.16-12.47-3.049-23.729 8.229-20.68 20.682 2.46 10.039 6.608 19.757 12.159 28.568-9.672 4.077-17.305 8.485-17.301 19.157.003 10.346 7.204 14.587 14.875 18.125-5.292 2.098-10.395 4.655-15.212 7.641-10.515 6.509-10.509 21.771-.009 28.277zm7.906-15.524c10.311-6.388 21.662-10.328 33.741-11.711 7.763-.888 9.13-11.648 1.838-14.451-12.755-4.905-17.622-5.092-27.056-10.48-1.446-.827-1.458-2.895-.034-3.711 4.765-2.725 9.847-4.839 15.107-6.284 5.171-1.421 7.229-7.674 3.892-11.89-7.266-9.172-12.569-19.991-15.337-31.287-.374-1.523 1.009-2.917 2.541-2.543 11.297 2.769 22.116 8.072 31.288 15.338 1.973 1.563 4.599 2.032 6.99 1.249 6.309-2.065 3.586-6.96 11.182-20.245.875-1.526 2.959-1.29 3.722.048 5.493 9.624 5.3 13.729 10.492 27.068 2.827 7.261 13.55 5.884 14.44-1.864 1.371-11.934 5.417-23.602 11.702-33.747.636-1.025 2.152-1.005 2.809.058 7.545 12.198 11.755 26.237 12.173 40.599.135 4.622 4.558 8.547 9.988 6.861 3.497-1.088 3.7-.885 4.244-.34.438.439.59.984.438 1.577-4.631 17.944-17.076 33.542-33.005 41.795l-18.932-18.933c-2.93-2.928-7.678-2.928-10.607 0-2.929 2.93-2.929 7.678 0 10.607l18.943 18.943c-7.939 15.198-23.185 28.189-41.808 32.993-.594.155-1.138.002-1.575-.436-.533-.533-.754-.754.291-4.091 1.754-5.625-2.2-10.008-6.813-10.143-14.384-.418-28.443-4.64-40.658-12.208-.501-.311-.776-.802-.776-1.384-.002-.583.275-1.076.78-1.388z"/><path d="m298.933 124.915c5.513-1.295 10.929-3.096 16.156-5.357-2.427 6.597-5.431 15.591 2.308 23.339 7.528 7.535 16.064 5.263 25.776 1.312 2.305 10.155 6.243 19.961 11.603 28.801 6.659 10.977 22.597 10.957 29.247-.001 5.359-8.839 9.298-18.645 11.604-28.8 9.757 3.969 18.244 6.226 25.782-1.313 7.297-7.302 5.232-15.377 2.297-23.333 5.225 2.259 10.643 4.059 16.161 5.354 12.021 2.823 22.829-7.954 19.999-19.989-3.242-13.805-9.505-26.737-18.271-37.836 6.515-7.285 5.102-19.665-4.184-25.138-18.178-10.721-40.513-13.846-60.513-8.887v-13.793c0-4.143-3.357-7.5-7.5-7.5s-7.5 3.357-7.5 7.5v13.792c-19.996-4.958-42.333-1.833-60.51 8.886-9.333 5.501-10.673 17.941-4.194 25.15-8.744 11.073-14.996 23.973-18.242 37.741-1.338 5.671.322 11.517 4.44 15.639 4.1 4.104 9.914 5.76 15.541 4.433zm-5.381-16.628c3.291-13.962 10.242-26.864 20.101-37.314 3.171-3.36 2.827-9.259-2.212-11.915-2.701-1.42-3.24-1.761-3.24-2.761 0-.62.279-1.112.808-1.424 15.96-9.412 35.789-11.645 52.891-6.217v30.619c0 4.143 3.357 7.5 7.5 7.5s7.5-3.357 7.5-7.5v-30.618c17.103-5.429 36.932-3.197 52.895 6.218.526.31.805.802.805 1.423 0 1.001-.485 1.321-3.491 2.891-4.391 2.313-5.362 8.18-1.961 11.783 9.876 10.469 16.832 23.396 20.117 37.387.135.572-.019 1.114-.428 1.523-.415.414-.961.569-1.538.433-11.642-2.736-22.755-8.123-32.138-15.579-6.117-4.861-14.694 1.78-11.52 8.919 2.018 4.538 3.778 7.971 5.331 11 2.666 5.199 4.592 8.956 6.389 15.54.215.789.021 1.515-.561 2.096-.568.569-1.274.763-2.039.554-5.297-1.442-10.385-3.541-15.125-6.237-4.674-2.659-10.541.328-11.159 5.654-1.349 11.623-5.249 23.023-11.278 32.968-.817 1.347-2.779 1.347-3.596.002-6.031-9.946-9.931-21.347-11.278-32.97-.29-2.5-1.814-4.688-4.06-5.825-5.921-3.001-7.444 2.382-22.22 6.407-1.691.466-3.009-1.175-2.6-2.665 2.919-10.688 5.976-13.494 11.721-26.559 3.134-7.133-5.422-13.743-11.529-8.893-9.406 7.467-20.519 12.857-32.138 15.587-.557.128-1.085-.023-1.494-.433-.433-.433-.594-.998-.453-1.594z"/><path d="m17.141 321.896c52.753-3.657 70.645-21.044 97.272-20.167 32.798 1.359 48.063 22.459 53.06 27.908 31.802 34.593 81.628 42.381 121.478 22.46 20.648-10.325 26.826-20.485 34.273-25.454 16.591-11.61 45.931-.363 50.519 28.081.696 6.521.019 11.236-.683 14.927-.963 5.068-.381 10.691 4.265 13.242 4.731 2.598 9.674.166 13.97-5.345 2.417-3.1 4.609-6.763 6.451-10.17 22.025-45.956-19.391-93.603-65.339-94.129-30.654-.351-46.914 18.914-55.698 26.404-20.813 17.795-56.333 21.614-82.689 1.845-9.274-6.539-36.748-32.161-84.908-25.875-30.277 4.654-45.836 20.437-81.908 26.824-3.844.681-7.713 1.198-11.596 1.571-4.601.442-8.111 4.304-8.111 8.926.003 5.217 4.439 9.312 9.644 8.952z" fill="#7ce3ff"/><path d="m428.696 367.145 12.702-12.702c2.929-2.93 2.929-7.678 0-10.607-2.93-2.928-7.678-2.928-10.607 0l-12.705 12.705c-2.048-3.395-4.384-6.668-7.004-9.799.738-8.804-.222-17.547-3.157-26.448-1.299-3.935-5.538-6.07-9.472-4.774-3.934 1.298-6.071 5.538-4.774 9.472 4.224 12.808 3.46 26.21-2.615 38.981-8.811 16.227-11.991 14.22-10.634 7.077 8.312-43.786-35.697-68.508-61.435-50.601-2.891 1.939-5.366 4.273-8.229 6.974-45.339 42.754-107.099 32.598-139.149-4.433-6.479-7.488-23.688-27.379-56.957-28.758-28.711-.941-46.081 16.581-98.037 20.181-.009.001-.111.004-.12.005-1.9 0-2.015-2.759-.174-2.935 51.124-4.912 66.67-29.346 107.642-29.346 35.9 0 56.708 19.101 65.64 25.425 12.841 9.604 28.232 14.679 44.516 14.679 52.541 0 52.609-41.795 98.198-41.493 17.348.197 35.153 8.254 47.632 21.55 2.833 3.02 7.578 3.173 10.602.337 3.02-2.834 3.171-7.581.336-10.601-15.082-16.072-36.219-26.166-59.308-26.291-33.199 0-51.394 21.083-59.747 28.21-9.877 8.444-23.623 13.288-37.713 13.288-15.472 0-26.891-5.059-38.853-14.165-10.2-7.762-34.086-25.938-71.303-25.938-45.543 0-60.503 24.747-109.074 29.414-8.494.814-14.897 7.861-14.897 16.391 0 9.536 8.133 17.11 17.659 16.435 53.165-3.685 72.077-20.907 96.443-20.156 26.726 1.108 40.352 16.857 46.17 23.583 19.773 22.859 50.196 37.576 82.861 37.576 17.021 0 34.023-4.003 49.172-11.575 21.522-10.762 28.737-21.689 35.082-25.925 16.028-10.572 43.948 5.64 38.305 35.37-1.631 8.585.436 17.051 8.021 21.215 13.84 7.605 26.275-7.245 32.678-23.155 3.148 5.691 3.014 8.171 6.881 9.78 18.025 7.502 32.354 24.308 37.403 43.877.153.592.003 1.137-.436 1.575-.534.533-.754.752-4.089-.29-5.574-1.743-10.008 2.145-10.145 6.813-.418 14.385-4.641 28.444-12.21 40.659-.645 1.041-2.125 1.039-2.773-.006-6.388-10.312-10.327-21.664-11.71-33.742-.89-7.775-11.654-9.115-14.451-1.838-4.905 12.755-5.092 17.622-10.48 27.056-.827 1.446-2.895 1.458-3.711.034-7.599-13.289-4.872-18.182-11.184-20.248-2.39-.783-5.017-.314-6.99 1.249-9.172 7.266-19.991 12.569-31.287 15.337-.734.184-1.438-.02-1.98-.56-.543-.543-.742-1.247-.563-1.981 2.769-11.297 8.072-22.116 15.338-31.288 3.342-4.221 1.271-10.471-3.892-11.89-5.26-1.445-10.343-3.56-15.104-6.282-1.525-.873-1.291-2.959.049-3.722 5.92-3.38 9.699-4.588 14.949-6.267 3.313-1.06 7.069-2.261 12.118-4.226 3.213-1.251 5.159-4.53 4.718-7.949-.441-3.42-3.157-6.098-6.582-6.491-11.931-1.371-23.6-5.417-33.745-11.7-.485-.301-.752-.785-.752-1.363.003-4.143-3.354-7.502-7.495-7.505-4.14-.003-7.502 3.352-7.505 7.495-.004 5.797 2.933 11.077 7.854 14.125 4.814 2.982 9.917 5.538 15.212 7.635-6.227 2.879-14.863 7.102-14.87 18.137-.003 10.659 7.655 15.085 17.299 19.152-5.55 8.812-9.699 18.529-12.16 28.569-1.433 5.851.259 11.891 4.524 16.156 4.266 4.265 10.305 5.959 16.157 4.523 10.039-2.46 19.757-6.608 28.568-12.159 4.075 9.664 8.478 17.302 19.153 17.302 10.363 0 14.607-7.228 18.129-14.875 2.099 5.292 4.657 10.396 7.642 15.214 6.51 10.511 21.774 10.508 28.276.007 7.471-12.055 12.187-25.626 13.835-39.673 9.754-.543 17.514-10.292 14.816-20.733-5.271-20.435-18.855-38.439-36.502-49.073z"/></svg>