<svg id="Layer_1" enable-background="new 0 0 512 512" height="512" viewBox="0 0 512 512" width="512" xmlns="http://www.w3.org/2000/svg"><path d="m192.538 30.643c-20.485-22.344-55.707-11.033-61.753 19.212-25.555-17.977-59.007 3.596-56.423 35.921-32.625-9.858-58.938 29.292-40.227 59.312-35.467 10.38-35.56 64.415 0 74.822-18.711 30.02 7.602 69.17 40.227 59.312-2.583 32.325 30.868 53.898 56.423 35.921 6.046 30.245 41.267 41.557 61.753 19.212 11.657 27.904 47.379 31.355 63.462 6.088z" fill="#ff6f4d"/><path d="m477.865 145.089c18.711-30.02-7.602-69.171-40.227-59.312 2.583-32.325-30.868-53.898-56.423-35.921-6.046-30.245-41.267-41.557-61.753-19.212-11.657-27.905-47.379-31.355-63.462-6.089-16.083-25.267-51.805-21.817-63.462 6.088-51.723 105.539-25.903 231.582 63.462 309.802 16.083 25.267 51.805 21.816 63.462-6.088 20.485 22.345 55.707 11.033 61.753-19.212 25.555 17.977 59.007-3.596 56.423-35.921 32.625 9.858 58.938-29.292 40.227-59.312 35.467-10.381 35.56-64.416 0-74.823z" fill="#ff8f71"/><path d="m362.111 388.981 30.406-99.51c4.842-15.845-4.078-32.615-19.924-37.457-15.844-4.841-32.614 4.078-37.457 19.924l-21.32 69.772c-7.768 25.424-31.232 42.79-57.816 42.79-4.488 0-8.884-.506-13.134-1.451h-29.868v121.451h164.216c5.159 0 8.804-5.099 7.091-9.965-2.373-6.741-7.086-12.378-13.164-15.939-9.233-5.409-15.141-15.072-15.141-25.773v-22.93c0-13.865 2.06-27.652 6.111-40.912z" fill="#ce857a"/><path d="m232.998 480.545v-73.673c0-8.935 3.55-17.505 9.868-23.823-20.77-4.621-38.181-20.06-44.683-41.338l-21.32-69.772c-4.842-15.846-21.613-24.768-37.457-19.924-15.846 4.842-24.766 21.612-19.924 37.457l30.406 99.51c4.052 13.26 6.111 27.047 6.111 40.912v22.93c0 10.701-5.908 20.363-15.141 25.772-6.078 3.561-10.791 9.198-13.164 15.939-1.713 4.867 1.931 9.965 7.091 9.965h108.213l-.132-.132c-6.318-6.319-9.868-14.888-9.868-23.823z" fill="#c77464"/><g fill="#ff6f4d"><path d="m452.36 190.635c2.932-4.352 2.932-10.062 0-14.414-9.262-13.747-24.971-22.793-42.801-22.793s-33.539 9.046-42.801 22.793c-2.932 4.352-2.932 10.062 0 14.414 9.262 13.747 24.971 22.793 42.801 22.793 17.831 0 33.539-9.046 42.801-22.793z"/><path d="m331.642 155.519c4.352 2.932 10.062 2.932 14.414 0 13.747-9.262 22.793-24.971 22.793-42.801s-9.046-33.539-22.793-42.801c-4.352-2.932-10.062-2.932-14.414 0-13.747 9.262-22.793 24.971-22.793 42.801s9.046 33.539 22.793 42.801z"/><path d="m238.132 293.953c1.004 5.15 5.042 9.188 10.192 10.192 16.27 3.171 33.774-1.54 46.382-14.148s17.319-30.112 14.148-46.382c-1.004-5.15-5.042-9.188-10.192-10.192-16.27-3.171-33.774 1.54-46.382 14.148s-17.319 30.112-14.148 46.382z"/><path d="m210.692 171.577c-2.932 4.352-2.932 10.062 0 14.414 9.262 13.747 24.971 22.793 42.801 22.793s33.539-9.046 42.801-22.793c2.932-4.352 2.932-10.062 0-14.414-9.262-13.747-24.971-22.793-42.801-22.793s-33.539 9.046-42.801 22.793z"/><path d="m416.699 368.257c-2.932 4.352-2.932 10.062 0 14.414 9.262 13.747 24.971 22.793 42.801 22.793s33.539-9.046 42.801-22.793c2.932-4.352 2.932-10.062 0-14.414-9.262-13.747-24.971-22.793-42.801-22.793s-33.539 9.047-42.801 22.793z"/><path d="m403.831 432.821c-5.15 1.004-9.188 5.042-10.192 10.192-3.171 16.27 1.54 33.774 14.148 46.382s30.112 17.319 46.382 14.148c5.15-1.004 9.188-5.042 10.192-10.192 3.171-16.27-1.54-33.774-14.148-46.382s-30.112-17.319-46.382-14.148z"/><path d="m38.132 433.953c1.004 5.15 5.042 9.188 10.192 10.192 16.27 3.171 33.774-1.54 46.382-14.148s17.319-30.112 14.148-46.382c-1.004-5.15-5.042-9.188-10.192-10.192-16.27-3.171-33.774 1.54-46.382 14.148s-17.319 30.112-14.148 46.382z"/><path d="m208.324 53.423c-5.15 1.004-9.188 5.042-10.192 10.192-3.171 16.27 1.54 33.774 14.148 46.382s30.112 17.319 46.382 14.148c5.15-1.004 9.188-5.042 10.192-10.192 3.171-16.27-1.54-33.774-14.148-46.382s-30.112-17.319-46.382-14.148z"/></g><path d="m82.132 229.953c1.004 5.15 5.042 9.188 10.192 10.192 16.27 3.171 33.774-1.54 46.382-14.148s17.319-30.112 14.148-46.382c-1.004-5.15-5.042-9.188-10.192-10.192-16.27-3.171-33.774 1.54-46.382 14.148s-17.319 30.112-14.148 46.382z" fill="#ec5334"/><path d="m112.324 79.423c-5.15 1.004-9.188 5.042-10.192 10.192-3.171 16.27 1.54 33.774 14.148 46.382s30.112 17.319 46.382 14.148c5.15-1.004 9.188-5.042 10.192-10.192 3.171-16.27-1.54-33.774-14.148-46.382s-30.112-17.319-46.382-14.148z" fill="#ec5334"/><ellipse cx="187.593" cy="448.351" fill="#ff8e9e" rx="22.474" ry="17.897" transform="matrix(1 .003 -.003 1 1.406 -.586)"/><ellipse cx="324.407" cy="448.733" fill="#ff8e9e" rx="22.474" ry="17.897" transform="matrix(-1 -.003 .003 -1 647.408 898.48)"/><path d="m184.513 418.02v9.999c0 4.142 3.357 7.499 7.499 7.499 4.141 0 7.499-3.358 7.499-7.499v-9.999c0-4.142-3.357-7.499-7.499-7.499s-7.499 3.357-7.499 7.499z"/><path d="m312.49 418.02v9.999c0 4.142 3.357 7.499 7.499 7.499 4.141 0 7.499-3.358 7.499-7.499v-9.999c0-4.142-3.357-7.499-7.499-7.499s-7.499 3.357-7.499 7.499z"/><path d="m265.732 427.784c-1.666 3.484-5.29 5.735-9.232 5.735-3.943 0-7.566-2.251-9.232-5.735-1.787-3.737-6.264-5.317-10-3.53-11.084 5.3 1.649 24.264 19.232 24.264 17.503 0 30.389-18.929 19.232-24.264-3.737-1.789-8.214-.206-10 3.53z"/><path d="m360.519 194.826c23.438 34.784 74.606 34.762 98.024-.001 4.664-6.923 4.664-15.87 0-22.793-23.434-34.787-74.604-34.762-98.024 0-4.664 6.924-4.664 15.87 0 22.794zm12.437-14.414c17.493-25.964 55.669-25.949 73.15 0 1.234 1.832 1.234 4.2 0 6.033-17.489 25.957-55.662 25.954-73.15 0-1.234-1.833-1.234-4.2 0-6.033z"/><path d="m350.229 63.709c-6.885-4.641-15.903-4.645-22.791 0-12.371 8.336-21.073 20.883-24.502 35.329-.957 4.03 1.534 8.072 5.563 9.028 4.033.961 8.071-1.535 9.028-5.564 2.557-10.77 9.053-20.13 18.293-26.356 1.783-1.203 4.243-1.202 6.03.001 25.961 17.495 25.948 55.67-.002 73.156-1.783 1.203-4.244 1.202-6.029-.001-7.716-5.2-13.704-12.856-16.858-21.559-1.412-3.893-5.712-5.903-9.606-4.494-3.893 1.411-5.905 5.712-4.493 9.607 4.229 11.665 12.247 21.923 22.577 28.884 6.885 4.641 15.903 4.645 22.791 0 34.783-23.436 34.758-74.611-.001-98.031z"/><path d="m246.89 311.494c41.167 8.028 77.333-28.178 69.315-69.319-1.596-8.195-7.922-14.521-16.116-16.118-41.159-8.027-77.333 28.172-69.314 69.32 0 0 2.123 13.39 16.115 16.117zm50.33-70.715c2.168.423 3.842 2.097 4.265 4.265 5.985 30.711-20.997 57.718-51.725 51.729-2.168-.423-3.842-2.096-4.265-4.265v.001c-5.985-30.722 21.007-57.718 51.725-51.73z"/><path d="m204.482 167.387c-4.665 6.923-4.665 15.871 0 22.794 23.434 34.787 74.605 34.762 98.023 0 4.665-6.923 4.665-15.871 0-22.793-23.427-34.775-74.598-34.771-98.023-.001zm85.586 14.414c-17.494 25.965-55.666 25.948-73.149 0-1.234-1.833-1.234-4.2 0-6.032v-.001c17.491-25.964 55.668-25.949 73.149.001 1.234 1.832 1.234 4.199 0 6.032z"/><path d="m508.475 364.049c-23.434-34.787-74.605-34.762-98.023 0-4.665 6.923-4.665 15.871 0 22.793 23.427 34.775 74.598 34.772 98.023.001 4.665-6.923 4.665-15.87 0-22.794zm-12.437 14.413c-17.491 25.964-55.668 25.949-73.149-.001-1.234-1.832-1.234-4.199 0-6.032 17.494-25.965 55.666-25.948 73.149 0 1.234 1.833 1.234 4.2 0 6.033z"/><path d="m405.369 425.437c-8.194 1.597-14.52 7.923-16.116 16.118-8.002 41.055 28.067 77.366 69.314 69.319 8.193-1.597 14.519-7.923 16.116-16.117 8.023-41.167-28.169-77.337-69.314-69.32zm54.594 66.45c-.423 2.169-2.097 3.842-4.266 4.265-30.731 5.984-57.709-21.018-51.724-51.729.423-2.168 2.097-3.842 4.265-4.265 30.729-5.988 57.709 21.019 51.725 51.729z"/><path d="m100.125 366.044c-41.153-8.027-77.334 28.168-69.314 69.32 0 0 2.123 13.39 16.115 16.117 41.168 8.028 77.334-28.181 69.314-69.318-1.595-8.195-7.92-14.521-16.115-16.119zm-50.329 70.715c-2.168-.423-3.842-2.096-4.265-4.265v.001c-5.986-30.723 21.005-57.715 51.725-51.729 2.168.423 3.841 2.096 4.264 4.266 5.988 30.719-21.001 57.713-51.724 51.727z"/><path d="m206.899 46.075c-8.194 1.597-14.52 7.923-16.116 16.118-7.986 40.976 27.977 77.373 69.314 69.319 8.194-1.597 14.52-7.923 16.116-16.118 8.004-41.072-28.085-77.353-69.314-69.319zm54.593 66.449c-.423 2.168-2.097 3.842-4.265 4.265-30.727 5.988-57.71-21.018-51.725-51.729.423-2.168 2.097-3.842 4.265-4.265 30.728-5.987 57.711 21.019 51.725 51.729z"/><path d="m90.919 247.5c41.282 8.05 77.311-28.299 69.314-69.318-1.595-8.195-7.92-14.521-16.115-16.119-41.158-8.028-77.333 28.172-69.314 69.32-.001 0 2.122 13.39 16.115 16.117zm50.329-70.715c2.168.423 3.841 2.096 4.264 4.266 5.988 30.721-21.004 57.713-51.724 51.728-2.168-.423-3.842-2.096-4.265-4.265v.001c-5.986-30.725 21.01-57.718 51.725-51.73z"/><path d="m164.113 157.508c8.194-1.597 14.52-7.923 16.116-16.118 8.023-41.166-28.168-77.334-69.314-69.319-8.194 1.597-14.52 7.923-16.116 16.118-3.77 19.342 2.288 39.197 16.203 53.115 13.942 13.942 33.801 19.967 53.111 16.204zm-54.593-66.449c.423-2.168 2.097-3.842 4.265-4.265 30.726-5.99 57.71 21.018 51.725 51.729-.423 2.168-2.097 3.842-4.265 4.265-30.723 5.99-57.711-21.018-51.725-51.729z"/><path d="m387.987 484.932c-2.162-3.534-6.778-4.644-10.31-2.483-3.533 2.161-4.645 6.778-2.483 10.311.817 1.336 1.495 2.761 1.999 4.212l-242.401.025c1.764-5.012 5.272-9.259 9.878-11.957 11.626-6.812 18.847-19.165 18.847-32.241 0-24.979 1.086-41.404-6.437-66.027-33.153-108.506-31.392-101.407-31.392-106.087-.001-5.948 2.431-11.772 6.672-15.98 2.94-2.918 2.958-7.665.042-10.605-2.917-2.941-7.666-2.96-10.605-.042-7.059 7.005-11.107 16.711-11.106 26.628 0 7.031 1.136 9.302 8.122 32.165-18.921 6.062-38.746-10.466-36.943-33.038.42-5.264-4.596-9.3-9.644-7.777-26.165 7.908-46.619-24.202-31.687-48.161 2.62-4.204.509-9.768-4.258-11.164-28.341-8.296-28.257-52.15 0-60.42 4.772-1.397 6.874-6.965 4.258-11.164-14.964-24.01 5.576-56.054 31.687-48.161 5.052 1.527 10.063-2.518 9.644-7.777-2.094-26.203 24.423-43.399 44.624-29.186 4.427 3.111 10.606.646 11.668-4.665 4.76-23.817 32.243-33.74 48.861-15.612 3.705 4.041 10.345 2.856 12.447-2.178 9.368-22.431 37.439-25.013 50.205-4.952 2.946 4.628 9.711 4.621 12.652 0 12.784-20.085 40.843-17.462 50.205 4.952 2.109 5.051 8.752 6.204 12.447 2.178 16.601-18.114 44.096-8.232 48.861 15.612 1.061 5.309 7.238 7.776 11.668 4.665 20.221-14.231 46.715 3.017 44.624 29.186-.42 5.263 4.596 9.302 9.644 7.777 26.208-7.92 46.594 24.243 31.687 48.161-2.62 4.204-.509 9.768 4.258 11.164 28.341 8.296 28.257 52.15 0 60.42-4.772 1.397-6.874 6.965-4.258 11.164 14.94 23.97-5.54 56.064-31.687 48.161-5.055-1.526-10.063 2.52-9.644 7.777 1.809 22.645-18.076 39.084-36.943 33.038l6.476-21.197c7.384-24.175-10.643-48.461-35.867-48.461-16.59 0-30.995 10.669-35.847 26.547-23.071 75.508-21.435 70.219-21.957 71.722-12.11 12.438-32.994 11.716-43.668-5.057-2.947-4.63-9.712-4.619-12.652 0-10.607 16.668-31.467 17.59-43.668 5.057-.521-1.501 1.142 3.879-21.957-71.722-3.935-12.879-14.549-22.707-27.702-25.649-4.041-.902-8.05 1.64-8.954 5.682s1.639 8.051 5.682 8.955c7.898 1.766 14.271 7.665 16.632 15.394l21.316 69.766c19.555 63.998 110.407 63.983 129.955 0l21.316-69.766c3.701-12.112 16.33-18.535 28.088-14.941 12.113 3.7 18.533 16.331 14.94 28.09-39.21 128.332-36.838 110.406-36.838 165.527 0 6.767 1.896 13.419 5.482 19.235 1.418 2.298 3.874 3.563 6.389 3.563 5.826 0 9.464-6.429 6.376-11.437-4.11-6.662-3.25-10.019-3.25-34.289 0-13.131 1.946-26.157 5.783-38.716l19.54-63.954c25.919 8.239 52.946-10.629 56.13-39.05 31.989 2.212 55.811-32.798 43.23-64.358 31.759-16.637 31.801-65.933 0-82.583 12.593-31.591-11.292-66.59-43.214-64.358-3.299-30.287-33.286-48.61-59.317-37.932-10.937-25.848-41.592-35.626-64.079-20.014-15.441-22.433-46.584-25.369-65.554-6.296-18.959-19.064-50.107-16.147-65.555 6.295-22.531-15.644-53.171-5.769-64.078 20.013-26.585-10.903-56.084 8.241-59.318 37.933-32.034-2.227-55.767 32.867-43.214 64.359-31.759 16.637-31.801 65.933 0 82.583-12.579 31.555 11.226 66.558 43.23 64.357 3.201 28.576 30.368 47.245 56.132 39.054 27.228 89.114 25.322 75.453 25.322 125.595 0 7.891-4.273 15.106-11.431 19.3-11.145 6.529-17.297 18.252-17.297 24.888 0 8.262 6.736 14.983 15.015 14.983h242.386c10.263 0 17.612-10.147 14.161-19.953-.867-2.468-1.999-4.851-3.366-7.084zm-165.849-120.119c12.971 1.143 25.047-3.613 33.862-12.443 8.861 8.876 20.933 13.576 33.871 12.436-19.368 16.111-48.064 16.362-67.733.007z"/></svg>