<svg id="Layer_1" enable-background="new 0 0 512 512" height="512" viewBox="0 0 512 512" width="512" xmlns="http://www.w3.org/2000/svg"><path d="m476.858 204.109c2.238-29.521-26.502-51.54-54.425-41.634-9.388-15.706-27.296-22.652-43.852-19.026 29.43-16.61 26.968-62.586-7.258-74.335 2.239-29.521-26.502-51.541-54.425-41.634-12.86-21.515-41.712-26.616-61.168-10.579-61.51 24.193-101.953 83.559-101.953 149.655v170.119c18.893 12.631 45.559 7.518 57.874-13.153 16.728 5.901 33.864.263 44.351-11.608 10.463 11.931 27.61 17.619 44.427 11.667 12.938 21.727 42.085 26.401 61.145 10.676 18.955 15.611 48.101 11.159 61.145-10.735 27.818 9.813 56.793-12.258 54.376-41.903 36.648-12.816 36.51-64.894-.237-77.51z" fill="#ffdbe0"/><path d="m255.731 16.901c-19.304-15.906-48.301-10.937-61.154 10.749-27.938-9.817-56.73 12.327-54.281 41.943-33.916 11.867-36.194 57.596-6.773 74.046-16.695-3.894-34.989 2.991-44.48 19.006-27.938-9.817-56.73 12.326-54.281 41.943-36.405 12.738-36.365 64.497.21 77.176-2.327 29.574 26.501 51.687 54.39 41.816 12.938 21.727 42.085 26.401 61.145 10.676 1.059.872 2.153 1.671 3.271 2.418l39.303-75.029c7.5-14.318 11.418-30.24 11.418-46.403v-93.182c.001-41.065 18.895-79.847 51.232-105.159z" fill="#ffb5c0"/><path d="m443.14 246.846c-7.77-14.633-25.93-20.196-40.565-12.429l-32.29 17.145-17.145-32.291c-7.77-14.634-25.933-20.196-40.565-12.429-14.634 7.771-20.198 25.932-12.429 40.565l27.076 50.995-13.404 43.749c-7.769 25.354-31.233 42.673-57.817 42.673-4.488 0-8.884-.505-13.134-1.447h-29.868v121.123h164.216c5.159 0 8.804-5.085 7.091-9.938-2.373-6.723-7.086-12.345-13.164-15.896-9.234-5.395-15.142-15.031-15.142-25.703v-22.868c0-13.827 2.06-27.577 6.111-40.801l23.953-78.179 44.647-23.704c14.634-7.769 20.198-25.932 12.429-40.565z" fill="#ce857a"/><path d="m242.866 504.368c-6.318-6.301-9.868-14.847-9.868-23.758v-73.474c0-8.911 3.55-17.458 9.868-23.758-20.77-4.609-38.181-20.006-44.683-41.226l-13.404-43.749 27.076-50.995c7.77-14.634 2.205-32.795-12.429-40.565-14.633-7.767-32.795-2.206-40.565 12.429l-17.145 32.291-32.29-17.145c-14.635-7.771-32.797-2.204-40.565 12.429-7.77 14.634-2.205 32.796 12.429 40.565l44.647 23.704 23.953 78.179c4.052 13.224 6.111 26.974 6.111 40.801v22.868c0 10.672-5.908 20.308-15.142 25.703-6.078 3.551-10.791 9.173-13.164 15.896-1.713 4.854 1.931 9.938 7.091 9.938h108.213z" fill="#c77464"/><ellipse cx="187.593" cy="448.351" fill="#ff8e9e" rx="22.474" ry="17.897" transform="matrix(1 .003 -.003 1 1.406 -.586)"/><ellipse cx="324.407" cy="448.733" fill="#ff8e9e" rx="22.474" ry="17.897" transform="matrix(-1 -.003 .003 -1 647.408 898.48)"/><path d="m346.03 204.067c0-16.568-13.431-30-30-30s-30 13.432-30 30c-16.569 0-30 13.432-30 30s13.431 30 30 30c0 16.568 13.431 30 30 30s30-13.432 30-30c16.569 0 30-13.432 30-30s-13.431-30-30-30z" fill="#ffb5c0"/><circle cx="316.03" cy="234.067" fill="#fce3a0" r="11.47"/><path d="m228.981 92.018c0-11.046-8.954-20-20-20s-20 8.954-20 20c-11.046 0-20 8.954-20 20s8.954 20 20 20c0 11.046 8.954 20 20 20s20-8.954 20-20c11.046 0 20-8.954 20-20s-8.955-20-20-20z" fill="#ff8e9e"/><path d="m328.981 72.018c0-11.046-8.954-20-20-20s-20 8.954-20 20c-11.046 0-20 8.954-20 20s8.954 20 20 20c0 11.046 8.954 20 20 20s20-8.954 20-20c11.046 0 20-8.954 20-20s-8.955-20-20-20z" fill="#ffb5c0"/><path d="m212.144 189.869c-2.485-10.762-13.224-17.473-23.986-14.988s-17.473 13.224-14.988 23.986c-10.763 2.485-17.473 13.224-14.988 23.986s13.224 17.473 23.986 14.988c2.485 10.762 13.224 17.473 23.986 14.988 10.763-2.485 17.473-13.224 14.988-23.986 10.763-2.485 17.473-13.224 14.988-23.986s-13.224-17.473-23.986-14.988z" fill="#ffdbe0"/><path d="m89.24 390.796c0-11.046-8.954-20-20-20s-20 8.954-20 20c-11.046 0-20 8.954-20 20s8.954 20 20 20c0 11.046 8.954 20 20 20s20-8.954 20-20c11.046 0 20-8.954 20-20 0-11.045-8.954-20-20-20z" fill="#ffb5c0"/><path d="m466.649 444.5c0-11.046-8.954-20-20-20s-20 8.954-20 20c-11.046 0-20 8.954-20 20s8.954 20 20 20c0 11.046 8.954 20 20 20s20-8.954 20-20c11.046 0 20-8.954 20-20s-8.955-20-20-20z" fill="#ffb5c0"/><path d="m484.448 199.107c-.272-7.413-2.247-14.693-5.753-21.16-1.975-3.642-6.526-4.992-10.168-3.02-3.642 1.975-4.993 6.526-3.02 10.168 3.055 5.635 4.365 11.886 3.871 18.449-.257 3.402 1.815 6.55 5.043 7.658 30.046 10.315 30.105 52.878.2 63.337-3.22 1.126-5.274 4.281-5 7.682 1.961 24.268-21.588 42.276-44.405 34.228-3.374-1.19-7.11.164-8.939 3.234-6.145 10.317-17.241 16.737-29.986 16.292l6.034-19.693 41.903-22.247c18.382-9.761 25.209-32.488 15.535-50.707-9.761-18.383-32.486-25.202-50.707-15.535l-15.604 8.285c1.025-19.364-12.629-35.548-30.554-38.881-3.236-17.408-18.538-30.631-36.869-30.631s-33.633 13.223-36.869 30.631c-17.408 3.236-30.631 18.538-30.631 36.869s13.223 33.633 30.631 36.869c3.388 18.226 19.97 31.785 39.272 30.547l-7.327 23.914c-1.583-1.71-3.003-3.59-4.231-5.652-1.83-3.073-5.576-4.425-8.946-3.233-12.94 4.581-27.186.836-36.286-9.542-2.978-3.396-8.269-3.406-11.259-.021-9.119 10.319-23.345 14.049-36.236 9.5-3.368-1.188-7.109.163-8.938 3.234-1.251 2.099-2.696 4.008-4.306 5.742l-8.042-26.249 22.2-41.815c8.379-4.661 13.933-13.61 14.099-23.506 10.821-5.504 17.217-17.961 14.277-30.684-2.936-12.72-14.136-21.116-26.283-21.32-9.69-19.051-36.535-20.115-47.819-2.056-2.682 4.293-4.102 9.128-4.185 14.062-9.31 4.736-15.477 14.721-14.955 25.741l-11.587 21.823c-27.084-14.381-31.517-18.013-43.225-18.013-7.298 0-14.39 2.104-20.508 6.087-3.472 2.26-4.454 6.905-2.195 10.377s6.905 4.452 10.377 2.195c6.718-4.372 15.425-4.969 22.851-1.025 34.128 18.12 33.994 18.918 38.005 17.691 3.886-1.192 3.8-2.475 13.846-21.395 4.925 5.147 11.871 8.397 19.397 8.523 3.776 7.422 10.883 12.874 19.333 14.494l-18.333 34.531c-1.989 3.745-1.657 2.088 12.857 49.463 19.56 63.84 110.42 63.827 129.975.001 14.537-47.449 14.178-44.93 13.52-47.687 9.543-5.438 16.342-14.885 18.384-25.733 8.845-1.656 16.899-6.471 22.555-13.616l30.644-16.271c11.035-5.856 24.62-1.615 30.426 9.321 5.847 11.008 1.637 24.604-9.321 30.424-48.465 25.731-47.053 24.06-48.301 28.131-32.597 106.387-30.395 91.134-30.395 144.045 0 13.053 7.226 25.383 18.858 32.179 4.604 2.69 8.111 6.923 9.856 11.858-196.31 0-143.878-.015-242.447.058 1.763-4.993 5.27-9.226 9.874-11.916 11.633-6.796 18.858-19.126 18.858-32.179 0-53.265 2.044-38.174-30.394-144.045-1.249-4.074.179-2.392-48.301-28.131-7.31-3.881-11.891-11.439-11.954-19.727-.032-4.123-3.384-7.442-7.499-7.442-4.17 0-7.532 3.398-7.501 7.558.106 13.802 7.739 26.394 19.921 32.859l41.902 22.247 6.042 19.719c-12.556.418-23.711-5.848-29.91-16.258-1.83-3.07-5.572-4.425-8.946-3.232-22.977 8.13-46.314-10.086-44.411-34.156.269-3.403-1.795-6.558-5.021-7.676-29.855-10.351-29.907-52.614-.188-63.012 3.223-1.128 5.277-4.291 4.997-7.694-1.993-24.206 21.401-42.307 44.319-34.251 3.374 1.187 7.116-.176 8.938-3.253 7.689-12.975 22.467-18.758 36.326-15.524 8.413 1.955 12.907-9.633 5.362-13.851-10.423-5.828-16.646-16.663-16.646-28.982 0-11.438 5.841-25.703 22.235-31.438 3.227-1.129 5.281-4.295 4.998-7.701-2.011-24.156 21.375-42.31 44.319-34.245 3.374 1.183 7.113-.176 8.938-3.252 10.531-17.768 34.163-21.779 49.933-8.785 2.77 2.283 6.771 2.282 9.54-.001 6.102-5.03 13.45-7.688 21.251-7.688 11.865 0 22.597 6.104 28.708 16.328 1.833 3.067 5.577 4.416 8.944 3.221 22.877-8.109 46.258 9.81 44.439 34.002-.257 3.402 1.816 6.549 5.043 7.657 28.224 9.689 29.743 47.313 6.007 60.71-7.451 4.205-3.085 15.695 5.293 13.857 13.657-2.995 28.16 2.753 35.809 15.549 1.834 3.067 5.579 4.414 8.945 3.22 7.311-2.594 15.077-2.655 22.35-.047 3.898 1.396 8.193-.63 9.592-4.53 1.397-3.898-.631-8.192-4.53-9.591-8.399-3.011-17.63-3.685-26.786-1.605-7.002-9.085-16.821-15.271-27.884-17.661 16.298-23.039 9.877-58.485-18.769-71.997-1.086-29.999-29.259-52.064-58.882-45.337-9.129-11.856-23.055-18.778-38.275-18.778-9.206 0-18.258 2.685-26.025 7.646-7.725-4.918-16.742-7.579-25.93-7.579-15.298 0-29.265 6.963-38.385 18.888-29.665-6.629-57.86 15.588-58.741 45.687-16.65 7.997-27.134 24.518-27.134 43.47 0 10.378 3.082 20.045 8.661 27.992-11.263 2.343-21.249 8.604-28.32 17.847-29.637-6.623-57.854 15.56-58.739 45.686-17.913 8.601-27.14 25.856-27.14 42.963 0 17.642 8.938 35.377 27.368 44.143 1.003 30.107 29.254 52.217 58.852 45.539 10.371 13.477 26.895 20.404 43.997 18.408 19.392 63.293 18.283 54.593 18.283 102.272 0 7.86-4.271 15.048-11.425 19.228-11.088 6.478-17.308 18.147-17.308 24.846 0 8.251 6.737 14.964 15.018 14.964h242.43c10.26 0 17.614-10.123 14.162-19.935-2.943-8.338-8.785-15.396-16.452-19.875-7.153-4.18-11.425-11.367-11.425-19.228 0-47.581-1.165-38.797 18.292-102.303 16.897 1.991 33.537-4.734 44.076-18.442 29.683 6.654 57.924-15.581 58.848-45.642 16.743-8.023 27.284-24.62 27.284-43.661 0-19.179-10.645-35.832-27.552-43.807zm-294.973 37.048c-.787-3.409-3.823-5.813-7.308-5.813-1.832 0-6.027 1.796-11.123-1.387-9.335-5.832-7.1-20.261 3.812-22.78 4.036-.932 6.553-4.958 5.621-8.994-1.554-6.731 2.634-13.438 9.367-14.992 6.747-1.552 13.44 2.645 14.992 9.367.932 4.036 4.961 6.548 8.994 5.621 6.729-1.555 13.438 2.634 14.992 9.368 1.557 6.745-2.649 13.44-9.367 14.991-4.036.932-6.553 4.958-5.621 8.994 2.513 10.889-9.445 19.265-18.804 13.413-2.831-1.769-4.804-4.535-5.555-7.788zm16.281 105.02c3.379-2.571 6.428-5.581 9.039-8.963 14.558 3.241 29.688-.419 41.19-9.884 11.508 9.54 26.688 13.226 41.309 9.948 2.587 3.344 5.607 6.325 8.958 8.877-15.974 48.112-84.489 48.162-100.496.022zm140.274-84.609c-4.143 0-7.5 3.357-7.5 7.5 0 9.986-6.7 18.879-16.295 21.626-14.431 4.135-28.705-6.766-28.705-21.626 0-4.143-3.357-7.5-7.5-7.5-12.406 0-22.5-10.094-22.5-22.5s10.094-22.5 22.5-22.5c4.143 0 7.5-3.357 7.5-7.5 0-12.406 10.094-22.5 22.5-22.5s22.5 10.094 22.5 22.5c0 4.143 3.357 7.5 7.5 7.5 18.284 0 28.883 20.749 18.325 35.546-4.225 5.92-11.076 9.454-18.325 9.454z"/><path d="m235.66 85.338c-2.992-11.946-13.818-20.82-26.68-20.82s-23.688 8.874-26.68 20.82c-11.946 2.992-20.82 13.818-20.82 26.68s8.874 23.688 20.82 26.68c2.992 11.946 13.818 20.82 26.68 20.82s23.688-8.874 26.68-20.82c11.946-2.992 20.82-13.818 20.82-26.68s-8.874-23.688-20.82-26.68zm-6.68 39.18c-4.143 0-7.5 3.357-7.5 7.5 0 6.893-5.607 12.5-12.5 12.5s-12.5-5.607-12.5-12.5c0-4.143-3.357-7.5-7.5-7.5-6.893 0-12.5-5.607-12.5-12.5s5.607-12.5 12.5-12.5c4.143 0 7.5-3.357 7.5-7.5 0-6.893 5.607-12.5 12.5-12.5s12.5 5.607 12.5 12.5c0 4.143 3.357 7.5 7.5 7.5 6.893 0 12.5 5.607 12.5 12.5s-5.607 12.5-12.5 12.5z"/><path d="m335.66 65.338c-2.992-11.946-13.818-20.82-26.68-20.82s-23.688 8.874-26.68 20.82c-11.946 2.992-20.82 13.818-20.82 26.68s8.874 23.688 20.82 26.68c2.992 11.946 13.818 20.82 26.68 20.82s23.688-8.874 26.68-20.82c11.946-2.992 20.82-13.818 20.82-26.68s-8.874-23.688-20.82-26.68zm-6.68 39.18c-4.143 0-7.5 3.357-7.5 7.5 0 6.893-5.607 12.5-12.5 12.5s-12.5-5.607-12.5-12.5c0-4.143-3.357-7.5-7.5-7.5-6.893 0-12.5-5.607-12.5-12.5s5.607-12.5 12.5-12.5c4.143 0 7.5-3.357 7.5-7.5 0-6.893 5.607-12.5 12.5-12.5s12.5 5.607 12.5 12.5c0 4.143 3.357 7.5 7.5 7.5 6.893 0 12.5 5.607 12.5 12.5s-5.607 12.5-12.5 12.5z"/><path d="m95.92 384.116c-2.992-11.946-13.818-20.82-26.68-20.82s-23.688 8.874-26.68 20.82c-11.946 2.992-20.82 13.818-20.82 26.68s8.874 23.688 20.82 26.68c2.992 11.946 13.818 20.82 26.68 20.82s23.688-8.874 26.68-20.82c11.946-2.992 20.82-13.818 20.82-26.68s-8.874-23.688-20.82-26.68zm-6.68 39.18c-4.143 0-7.5 3.357-7.5 7.5 0 6.893-5.607 12.5-12.5 12.5s-12.5-5.607-12.5-12.5c0-4.143-3.357-7.5-7.5-7.5-6.893 0-12.5-5.607-12.5-12.5s5.607-12.5 12.5-12.5c4.143 0 7.5-3.357 7.5-7.5 0-6.893 5.607-12.5 12.5-12.5s12.5 5.607 12.5 12.5c0 4.143 3.357 7.5 7.5 7.5 6.893 0 12.5 5.607 12.5 12.5s-5.607 12.5-12.5 12.5z"/><path d="m473.328 437.82c-2.992-11.946-13.818-20.82-26.68-20.82s-23.688 8.874-26.68 20.82c-11.946 2.992-20.82 13.818-20.82 26.68s8.874 23.688 20.82 26.68c2.992 11.946 13.818 20.82 26.68 20.82s23.688-8.874 26.68-20.82c11.946-2.992 20.82-13.818 20.82-26.68s-8.874-23.687-20.82-26.68zm-6.68 39.18c-4.143 0-7.5 3.357-7.5 7.5 0 6.893-5.607 12.5-12.5 12.5s-12.5-5.607-12.5-12.5c0-4.143-3.357-7.5-7.5-7.5-6.893 0-12.5-5.607-12.5-12.5s5.607-12.5 12.5-12.5c4.143 0 7.5-3.357 7.5-7.5 0-6.893 5.607-12.5 12.5-12.5s12.5 5.607 12.5 12.5c0 4.143 3.357 7.5 7.5 7.5 6.893 0 12.5 5.607 12.5 12.5s-5.607 12.5-12.5 12.5z"/><path d="m315.294 220.375c-2.079 3.582-.861 8.172 2.721 10.252 1.243.722 1.985 2.008 1.985 3.44 0 4.061-5.41 5.482-7.422 1.963-2.057-3.598-6.642-4.846-10.233-2.788-9.485 5.423.373 19.795 13.686 19.795 10.46 0 18.97-8.51 18.97-18.97-.001-13.268-14.257-23.085-19.707-13.692z"/><circle cx="208.981" cy="112.018" r="7.5"/><circle cx="308.981" cy="92.018" r="7.5"/><circle cx="197.155" cy="213.855" r="7.5"/><circle cx="69.24" cy="410.796" r="7.5"/><circle cx="446.649" cy="464.5" r="7.5"/><path d="m199.5 428.249v-9.973c0-4.131-3.358-7.479-7.5-7.479s-7.5 3.349-7.5 7.479v9.973c0 4.131 3.358 7.479 7.5 7.479s7.5-3.348 7.5-7.479z"/><path d="m327.5 428.249v-9.973c0-4.131-3.358-7.479-7.5-7.479s-7.5 3.349-7.5 7.479v9.973c0 4.131 3.358 7.479 7.5 7.479s7.5-3.348 7.5-7.479z"/><path d="m279.266 434.467c1.787-3.727.206-8.192-3.531-9.974-3.737-1.784-8.215-.205-10.001 3.521-1.666 3.475-5.291 5.72-9.234 5.72s-7.568-2.245-9.234-5.72c-1.787-3.727-6.266-5.303-10.001-3.521-3.737 1.782-5.318 6.248-3.531 9.974 9.055 18.887 36.449 18.945 45.532 0z"/></svg>