<svg id="Layer_1" enable-background="new 0 0 512 512" height="512" viewBox="0 0 512 512" width="512" xmlns="http://www.w3.org/2000/svg"><path d="m7.5 160.946c.053 18.429 10.485 34.775 26.477 44.825-2.797 5.045-4.396 10.848-4.396 17.026 0 11.467 5.491 21.65 13.985 28.07-5.558 4.394-9.13 11.188-9.13 18.823 0 13.252 10.743 23.995 23.994 23.995 13.184 0 23.88-10.634 23.989-23.792 11.594 4.446 24.919 5.939 38.637 3.396 11.698 21.12 36.403 32.67 61.249 31.252l50.687-296.178c-117.589 7.634-225.492 65.624-225.492 152.583z" fill="#d4d4d5"/><path d="m455.212 69.193c-58.029-47.974-142.355-66.013-222.214-60.83-.002 0-.004 0-.006 0-.249.085-86.099 29.529-86.099 97.637v68.206l35.412 130.334c9.834-.563 19.528-3.157 28.299-7.741 25.494 22.96 66.969 22.02 91.102-.016 31.288 16.281 72.963 6.323 89.483-23.601 13.649 2.521 26.875 1.054 38.391-3.332.087 13.177 10.792 23.834 23.99 23.834 13.252 0 23.994-10.743 23.994-23.995 0-7.635-3.571-14.431-9.129-18.824 8.493-6.42 13.983-16.603 13.983-28.069 0-6.227-1.625-12.071-4.464-17.145 15.913-9.995 26.349-26.273 26.534-44.707h.011c.001-35.782-19.786-67.362-49.287-91.751z" fill="#efedee"/><path d="m443.14 246.846c-7.77-14.633-25.93-20.196-40.565-12.429l-32.29 17.145-17.145-32.291c-7.77-14.634-25.933-20.196-40.565-12.429-14.634 7.771-20.198 25.932-12.429 40.565l27.076 50.995-13.404 43.749c-7.769 25.354-31.233 42.673-57.817 42.673-4.488 0-8.884-.505-13.134-1.447h-29.868v121.123h164.216c5.159 0 8.804-5.085 7.091-9.938-2.373-6.723-7.086-12.345-13.164-15.896-9.234-5.395-15.142-15.031-15.142-25.703v-22.868c0-13.827 2.06-27.577 6.111-40.801l23.953-78.179 44.647-23.704c14.634-7.769 20.198-25.932 12.429-40.565z" fill="#ce857a"/><path d="m242.866 504.368c-6.318-6.301-9.868-14.847-9.868-23.758v-73.474c0-8.911 3.55-17.458 9.868-23.758-20.77-4.609-38.181-20.006-44.683-41.226l-13.404-43.749 27.076-50.995c7.77-14.634 2.205-32.795-12.429-40.565-14.633-7.767-32.795-2.206-40.565 12.429l-17.145 32.291-32.29-17.145c-14.635-7.771-32.797-2.204-40.565 12.429-7.77 14.634-2.205 32.796 12.429 40.565l44.647 23.704 23.953 78.179c4.052 13.224 6.111 26.974 6.111 40.801v22.868c0 10.672-5.908 20.308-15.142 25.703-6.078 3.551-10.791 9.173-13.164 15.896-1.713 4.854 1.931 9.938 7.091 9.938h108.213z" fill="#c77464"/><g fill="#d4d4d5"><path d="m256 399.824c-10.78 0-21.243-2.257-31.099-6.709-7.55-3.41-10.905-12.295-7.495-19.845 3.409-7.55 12.293-10.906 19.845-7.495 5.948 2.687 12.256 4.049 18.749 4.049 6.511 0 12.817-1.358 18.746-4.038 7.549-3.41 16.436-.059 19.847 7.491 3.412 7.549.058 16.435-7.491 19.847-9.838 4.446-20.302 6.7-31.102 6.7z"/><circle cx="41.74" cy="367.133" r="15"/><circle cx="112.74" cy="417.133" r="15"/><circle cx="41.74" cy="457.133" r="15"/><circle cx="421.741" cy="437.133" r="15"/><circle cx="471.741" cy="357.133" r="15"/></g><ellipse cx="187.593" cy="453.351" fill="#ff8e9e" rx="22.474" ry="17.897" transform="matrix(1 .003 -.003 1 1.421 -.586)"/><ellipse cx="324.407" cy="453.733" fill="#ff8e9e" rx="22.474" ry="17.897" transform="matrix(-1 -.003 .003 -1 647.392 908.48)"/><path d="m266.5 464c4.142 0 7.5-3.358 7.5-7.5s-3.358-7.5-7.5-7.5h-20c-4.142 0-7.5 3.358-7.5 7.5s3.358 7.5 7.5 7.5z"/><path d="m202 446c17.506 0 30.395-18.931 19.235-24.266-3.737-1.789-8.215-.206-10.001 3.531-3.644 7.62-14.817 7.635-18.468 0-1.787-3.737-6.266-5.317-10.001-3.531-3.737 1.787-5.318 6.265-3.531 10.001 4.143 8.666 13.079 14.265 22.766 14.265z"/><path d="m310 446c17.506 0 30.395-18.931 19.235-24.266-3.737-1.789-8.215-.206-10.001 3.531-3.644 7.62-14.817 7.635-18.468 0-1.787-3.737-6.266-5.317-10.001-3.531-3.737 1.787-5.318 6.265-3.531 10.001 4.143 8.666 13.079 14.265 22.766 14.265z"/><circle cx="414.149" cy="117.628" r="7.5"/><circle cx="374.149" cy="77.628" r="7.5"/><circle cx="354.149" cy="137.628" r="7.5"/><circle cx="234.148" cy="157.628" r="7.5"/><circle cx="254.148" cy="77.628" r="7.5"/><circle cx="204.148" cy="107.628" r="7.5"/><circle cx="114.148" cy="147.628" r="7.5"/><circle cx="64.148" cy="117.628" r="7.5"/><circle cx="144.148" cy="67.628" r="7.5"/><circle cx="284.148" cy="187.628" r="7.5"/><circle cx="264.148" cy="277.628" r="7.5"/><circle cx="464.149" cy="157.628" r="7.5"/><path d="m462.111 65.191c-3.153-2.685-7.888-2.305-10.572.85-2.686 3.154-2.305 7.888.85 10.572 25.473 21.682 44.912 50.952 44.601 84.257-.151 15.105-8.759 29.473-23.023 38.431-3.383 2.125-4.507 6.528-2.556 10.014 6.48 11.579 3.992 26.882-7.498 35.569-3.912 2.959-3.976 8.822-.128 11.866 3.991 3.155 6.28 7.872 6.28 12.94 0 12.259-13.04 20.374-24.098 14.613 19.468-24.384 2.166-60.895-29.349-60.895-11.716 0-16.159 3.64-43.226 18.011-14.857-27.982-14.623-28.004-17.617-31.703-11.444-14.141-31.087-17.795-46.718-9.499-18.38 9.76-25.211 32.487-15.535 50.706l23.23 43.753c-4.035-1.127-7.912-2.637-11.583-4.547-2.793-1.454-6.195-1.009-8.52 1.115-21.802 19.907-58.908 19.899-81.024-.02-2.33-2.097-5.718-2.526-8.493-1.073-3.801 1.986-7.808 3.545-11.972 4.694 24.887-46.874 27.705-49.456 27.705-61.481 0-13.922-7.634-26.624-19.923-33.148-18.189-9.652-40.93-2.872-50.705 15.537l-13.628 25.666c-27.842-14.782-28.527-15.538-34.477-16.974-4.027-.976-8.079 1.503-9.051 5.529-.973 4.026 1.503 8.079 5.529 9.051 3.7.893 2.402.477 37.588 19.159 3.656 1.942 8.201.55 10.142-3.107l17.145-32.29c10.915-20.555 42.38-12.879 42.38 10.577 0 7.419-.218 5.975-29.709 61.521-1.989 3.747-1.661 2.078 12.857 49.463 3.467 11.316 9.749 21.377 18.296 29.421-2.72 10.412 2.376 21.605 12.505 26.181 21.546 9.732 46.383 9.948 68.377.008 10.128-4.578 15.222-15.771 12.502-26.179 8.547-8.048 14.828-18.112 18.295-29.43 14.596-47.639 14.803-45.797 12.857-49.463-29.406-55.387-29.709-54.1-29.709-61.521 0-23.263 31.341-31.344 42.38-10.577 18.5 34.845 17.61 34.731 21.571 35.945 1.902.585 3.956.386 5.715-.547 35.124-18.649 35.601-19.776 42.815-19.776 23.466 0 31.125 31.466 10.577 42.378-48.465 25.731-47.053 24.06-48.301 28.131-4.768 15.561-8.867 28.731-12.161 39.314-19.405 62.343-18.232 58.867-18.232 104.73 0 13.053 7.226 25.383 18.858 32.179 4.604 2.69 8.111 6.923 9.856 11.858h-164.216l-78.23.058c1.763-4.993 5.27-9.226 9.874-11.916 11.633-6.796 18.858-19.126 18.858-32.179 0-53.354 2.003-38.313-30.394-144.045-.583-1.901-1.897-3.494-3.654-4.427l-44.646-23.704c-13.575-7.207-16.052-25.555-5.014-36.131 2.99-2.866 3.092-7.613.226-10.604-2.867-2.991-7.613-3.091-10.604-.226-13.969 13.39-15.495 35.309-3.376 50.482-10.997 5.733-24.102-2.304-24.102-14.618 0-5.067 2.289-9.784 6.281-12.939 3.849-3.04 3.787-8.908-.128-11.867-11.458-8.659-13.965-23.911-7.553-35.476 1.931-3.483.803-7.867-2.568-9.986-14.339-9.013-22.925-23.404-22.968-38.477 0-48.388 35.432-80.924 65.155-99.697 50.717-32.033 118.177-46.243 179.284-46.243 64.547 0 124.794 15.783 169.643 44.442 3.488 2.229 8.127 1.208 10.357-2.28 2.23-3.491 1.21-8.129-2.281-10.358-47.229-30.182-110.345-46.809-177.719-46.809-63.395 0-133.846 14.809-187.293 48.566-22.383 14.137-39.937 30.537-52.173 48.743-13.253 19.717-19.973 41.128-19.973 63.658.052 18.238 9.135 35.55 24.593 47.406-5.135 14.317-2.423 30.891 8.319 42.851-3.858 5.306-5.977 11.723-5.977 18.467 0 26.452 30.78 41.033 51.222 24.549l41.518 22.043c31.128 101.447 28.824 86.113 28.824 136.68 0 7.86-4.271 15.048-11.425 19.228-7.667 4.479-13.509 11.537-16.452 19.874-.567 1.608-.855 3.281-.855 4.972 0 8.251 6.737 14.964 15.018 14.964h242.43c8.28 0 15.018-6.713 15.018-14.965 0-1.685-.287-3.354-.855-4.97-2.943-8.338-8.785-15.396-16.452-19.875-7.153-4.18-11.425-11.367-11.425-19.228 0-44.185-1.555-38.879 17.555-100.272 3.087-9.918 6.88-22.104 11.27-36.407l41.527-22.048c20.497 16.492 51.213 1.87 51.213-24.545 0-6.745-2.118-13.162-5.976-18.468 10.692-11.906 13.514-28.524 8.269-42.983 15.233-11.695 24.305-28.755 24.625-46.788.012-.168.018-.337.018-.506-.002-34.864-17.253-67.975-49.891-95.755zm-178.098 321.099c-17.611 7.959-37.957 8.152-56.024-.01-3.575-1.615-5.265-5.702-3.978-9.335.681-.733 1.208-1.527 1.592-2.622.775-.83 1.73-1.481 2.823-1.895 6.288-2.374 9.351 4.896 27.574 4.896 7.583 0 14.93-1.583 21.834-4.703 3.001-1.357 6.429-.563 8.564 1.716.364 1.036.894 1.882 1.601 2.638 1.269 3.6-.378 7.683-3.986 9.315zm10.066-25.075c-6.323-4.543-14.833-5.693-22.422-2.263-9.89 4.469-21.247 4.537-31.318-.012-7.277-3.286-15.726-2.542-22.417 2.268-10.859-11.171-11.973-19.314-21.723-51.138 4.584-1.072 9.029-2.547 13.3-4.424 26.967 20.949 67.225 20.456 93.35-.012 4.168 1.817 8.511 3.251 12.995 4.304-9.541 31.136-10.712 39.9-21.765 51.277z"/><path d="m41.74 344.633c-12.406 0-22.5 10.094-22.5 22.5s10.094 22.5 22.5 22.5 22.5-10.094 22.5-22.5-10.094-22.5-22.5-22.5zm0 30c-4.136 0-7.5-3.364-7.5-7.5s3.364-7.5 7.5-7.5 7.5 3.364 7.5 7.5-3.364 7.5-7.5 7.5z"/><path d="m135.24 417.133c0-12.406-10.094-22.5-22.5-22.5s-22.5 10.094-22.5 22.5 10.094 22.5 22.5 22.5 22.5-10.094 22.5-22.5zm-22.5 7.5c-4.136 0-7.5-3.364-7.5-7.5s3.364-7.5 7.5-7.5 7.5 3.364 7.5 7.5-3.364 7.5-7.5 7.5z"/><path d="m41.74 434.633c-12.406 0-22.5 10.094-22.5 22.5s10.094 22.5 22.5 22.5 22.5-10.094 22.5-22.5-10.094-22.5-22.5-22.5zm0 30c-4.136 0-7.5-3.364-7.5-7.5s3.364-7.5 7.5-7.5 7.5 3.364 7.5 7.5-3.364 7.5-7.5 7.5z"/><path d="m421.74 414.633c-12.406 0-22.5 10.094-22.5 22.5s10.094 22.5 22.5 22.5 22.5-10.094 22.5-22.5-10.094-22.5-22.5-22.5zm0 30c-4.136 0-7.5-3.364-7.5-7.5s3.364-7.5 7.5-7.5 7.5 3.364 7.5 7.5-3.364 7.5-7.5 7.5z"/><path d="m471.74 334.633c-12.406 0-22.5 10.094-22.5 22.5s10.094 22.5 22.5 22.5 22.5-10.094 22.5-22.5-10.094-22.5-22.5-22.5zm0 30c-4.136 0-7.5-3.364-7.5-7.5s3.364-7.5 7.5-7.5 7.5 3.364 7.5 7.5-3.364 7.5-7.5 7.5z"/></svg>