<svg id="Layer_1" enable-background="new 0 0 512 512" height="512" viewBox="0 0 512 512" width="512" xmlns="http://www.w3.org/2000/svg"><path d="m456.771 258.729c-8.284 0-15 6.716-15 15 0-135.673-61.937-247.476-167.292-265.925-12.261-2.147-23.479 7.344-23.479 19.791v20.812c0 7.946-6.179 14.493-14.108 15.018-109.827 7.257-196.662 98.639-196.663 210.304 0 116.749 94.022 210.771 210.771 210.771 116.406 0 220.771-94.365 220.771-210.771 0-8.284-6.716-15-15-15z" fill="#ffb357"/><path d="m423.077 306.749c3.827-16.911-8.968-33.019-26.307-33.019 0-59.071-13.356-113.612-37.607-153.575-10.084-16.616-25.303-35.923-46.949-50.039-7.931-5.173-18.604-2.487-22.984 5.908-9.425 18.066-27.795 30.876-49.37 32.303-41.878 2.767-80.833 21.204-109.691 51.913-28.979 30.839-44.939 71.144-44.939 113.489 0 9.994.87 19.848 2.573 29.474 6.398 36.161 37.918 62.464 74.64 62.464h186.723c35.121 0 65.869-24.069 73.768-58.29.048-.21.096-.419.143-.628z" fill="#fce3a0"/><path d="m250.594 152.879c-28.618.103-53.194 15.914-63.828 38.387-3.439.598-6.857 1.438-10.221 2.517-17.543 5.623-31.633 17.104-39.699 32.376-7.927 15.072-8.674 31.607-3.483 46.396-11.25 11.571-17.383 26.274-17.362 41.794 0 15.545 6.139 30.232 17.381 41.783-5.392 15.392-4.141 31.806 3.578 46.418 2.011 3.813 4.401 7.391 7.13 10.7 11.537 13.993 28.318 21.664 45.703 21.628l55.757-.114 5.322-281.886c-.093.001-.186.001-.278.001z" fill="#d34459"/><path d="m386 313.981c-.021-15.994-6.62-30.615-17.461-41.751 5.176-14.821 4.392-31.384-3.599-46.46-9.991-18.863-29.015-31.186-50.11-34.768-10.74-22.422-35.384-38.123-63.96-38.123-75.699 78.367-77.401 201.493-5.322 281.886l67.034-.137c17.353-.035 34.078-7.745 45.563-21.74 2.72-3.314 5.101-6.896 7.102-10.711 7.911-15.093 8.632-31.635 3.42-46.422 10.805-11.16 17.354-25.788 17.333-41.774z" fill="#ea5b70"/><path d="m308.571 491.583c-4.617-2.697-7.571-7.516-7.571-12.852v-71.434c0-6.913 1.03-13.788 3.055-20.398l7.196-23.487c2.573-8.397-2.588-17.197-11.172-19.051-7.616-1.645-15.223 2.815-17.505 10.265l-2.665 8.7c-3.884 12.677-15.616 21.336-28.908 21.337-2.244 0-4.442-.253-6.567-.724h-14.934v120.561h82.108c2.529 0 4.405-2.476 3.581-4.867-1.175-3.406-3.549-6.257-6.618-8.05z" fill="#ffb5c0"/><path d="m244.433 504.434c-3.159-3.151-4.934-7.424-4.934-11.879v-96.737c0-4.456 1.775-8.729 4.934-11.879-10.385-2.304-19.091-10.003-22.342-20.613l-6.702-21.875 13.538-25.498c3.885-7.317 1.103-16.397-6.214-20.283-7.316-3.883-16.397-1.103-20.283 6.214l-8.572 16.145-16.145-8.572c-7.317-3.885-16.398-1.102-20.283 6.214-3.885 7.317-1.103 16.398 6.214 20.283l22.323 11.852 11.977 39.089c2.026 6.612 3.056 13.487 3.056 20.4v71.434c0 5.336-2.954 10.154-7.571 12.851-3.039 1.776-5.395 4.587-6.582 7.948-.857 2.427.966 4.969 3.545 4.969h54.106z" fill="#ff8e9e"/><path d="m448.785 252.694c-2.848-61.1-18.169-115.991-44.74-159.776-31.112-51.267-75.469-83.253-128.272-92.5-16.814-2.947-32.273 10.045-32.273 27.178v20.811c0 3.961-3.12 7.27-7.102 7.534-55.184 3.647-106.498 27.921-144.488 68.348-38.163 40.611-59.18 93.683-59.181 149.44-.002 101.911 68.462 184.585 158.626 210.052-1.678 1.691-8.413 4.28-11.576 13.244-2.602 7.339 2.897 14.976 10.613 14.976h121.215c7.675 0 13.174-7.521 10.671-14.812-3.111-9.023-9.942-11.763-11.509-13.282 45.154-12.345 86.387-38.368 116.821-73.904 33.326-38.913 51.68-87.308 51.68-136.271.001-15.711-15.802-26.635-30.485-21.038zm-249.924 244.306c5.99-4.219 9.639-11.055 9.639-18.268 0-77.514.995-79.742-3.385-94.032-12.915-42.152-11.9-41.534-15.63-43.515-24.405-12.957-24.381-12.339-25.732-15.594-1.587-3.826-5.975-5.645-9.802-4.052-3.825 1.587-5.64 5.976-4.052 9.802 3.933 9.475 10.153 11.199 29.808 21.635 15.803 51.578 13.793 39.779 13.793 74.396l-3.724.008c-35.623 0-60.858-35.828-49.317-68.765.94-2.685.281-5.671-1.703-7.71-20.327-20.888-20.35-52.202-.016-73.12 1.983-2.04 2.642-5.026 1.699-7.711-11.212-31.94 11.246-65.09 47.612-71.418 2.401-.418 4.45-1.978 5.493-4.181 9.544-20.17 31.677-34.094 57.326-34.094 24.892 0 47.343 13.292 57.196 33.862 1.052 2.197 3.106 3.746 5.508 4.154 36.169 6.141 59.128 39.168 47.884 71.361-.938 2.684-.277 5.667 1.706 7.704 20.402 20.957 20.441 52.079.114 73.076-1.978 2.043-2.63 5.028-1.685 7.71 11.806 33.494-14.052 68.809-49.028 68.88l-4.154.009c-.015-33.433-.624-26.82 10.008-61.525 4.447-14.478-6.514-29.091-21.52-29.091-9.944 0-18.584 6.394-21.498 15.908l-2.666 8.7c-6.538 21.336-36.939 21.33-43.475 0l-5.792-18.904c12.87-24.239 14.712-26.161 14.712-33.291 0-23.443-31.471-31.112-42.377-10.565l-5.056 9.521c-10.017-5.319-12.938-7.457-19.298-7.672-4.099-.149-7.608 3.104-7.748 7.244-.139 4.14 3.104 7.608 7.244 7.748 1.135.038 2.228.332 3.247.873 25.509 13.545 21.317 14.825 34.858-10.682 1.932-3.639 6.459-5.061 10.142-3.106 3.638 1.931 5.066 6.454 3.108 10.141-14.542 27.389-15.299 27.251-14.085 31.213l6.702 21.875c10.863 35.446 61.3 35.441 72.158 0l2.666-8.701c1.095-3.576 4.829-5.978 8.751-5.13 4.147.895 6.909 5.203 5.584 9.522-12.898 42.1-10.58 22.641-10.58 117.443 0 7.268 3.498 14.048 9.634 18.342zm109.634-28.019c-.011-11.219-.035-19.448-.053-26.844l4.156-.009c43.883-.088 76.128-42.747 64.515-84.515 21.907-25.65 21.835-61.688-.135-87.263 10.55-38.373-15.365-76.928-57.146-86.015-28.614-52.035-109.712-51.898-138.098.284-42.58 9.435-67.192 48.538-56.814 86.066-21.886 25.535-21.913 61.757.021 87.327-11.308 41.04 20.148 84.368 64.867 84.368l3.692-.008v26.428c-86.301-25.16-145.771-104.039-145.771-195.07.001-106.704 83.309-195.793 189.659-202.821 11.839-.783 21.112-10.667 21.112-22.501v-20.812c0-7.795 7.031-13.749 14.685-12.402 96.351 16.872 161.086 120.77 161.086 258.536 0 4.143 3.357 7.5 7.5 7.5s7.5-3.357 7.5-7.5c0-4.136 3.364-7.5 7.5-7.5s7.5 3.364 7.5 7.5c0 89.075-64.964 169.772-155.776 195.251z"/><path d="m399.92 216.041c-.648-4.117-4.494-6.874-8.561-6.25-6.307.986-8.615 8.967-3.71 13.12 5.243 4.467 13.341.024 12.28-6.86-.009 0-.009-.01-.009-.01z"/><path d="m391.18 176.091c0-.01 0-.01-.01-.021-12.752-44.235-36.339-87.098-74.86-112.239-11.557-7.547-27.277-3.667-33.729 8.729-8.48 16.25-25.04 27.09-43.21 28.28-90.662 5.984-161.661 81.495-161.641 172.889 0 4.13 3.36 7.5 7.5 7.5 4.13 0 7.5-3.37 7.5-7.5.022-83.54 64.866-152.432 147.62-157.919 23.527-1.564 44.598-15.346 55.53-36.319 2.316-4.444 7.962-5.862 12.24-3.091 35.563 23.164 57.04 63.566 68.64 103.83 1.101 3.82 5.138 6.289 9.28 5.13 3.97-1.149 6.27-5.299 5.14-9.269z"/><path d="m222 411.391c-4.143.001-7.499 3.358-7.5 7.501v10c0 4.142 3.358 7.499 7.5 7.5 4.145-.002 7.499-3.359 7.5-7.501v-10c0-4.143-3.358-7.5-7.5-7.5z"/><path d="m281 411.391c-4.143.001-7.5 3.358-7.5 7.5v10c.001 6.705 8.122 9.986 12.804 5.304 2.757-2.758 2.197-4.806 2.197-15.303-.001-4.143-3.358-7.501-7.501-7.501z"/><path d="m251.498 426.153c-15.18 0-25.673 16.728-15.234 21.72 3.736 1.791 8.215.207 10.002-3.529 2.019-4.22 8.44-4.244 10.468-.002 1.788 3.737 6.266 5.317 10.001 3.531 3.737-1.787 5.318-6.265 3.532-10.002-6.35-13.281-21.548-11.718-18.769-11.718z"/></svg>