<svg id="Layer_1" enable-background="new 0 0 512 512" height="512" viewBox="0 0 512 512" width="512" xmlns="http://www.w3.org/2000/svg"><path d="m226 396.242h60v108.258h-60z" fill="#5fd9b3"/><path d="m320.46 423.9c-13.088 23.848-38.101 38.66-65.281 38.66-27.182 0-52.197-14.815-65.28-38.661v-27.656h130.561z" fill="#00ce8e"/><path d="m260.681 8.002c-1.543-.328-3.111-.502-4.681-.502-3.627 0-7.253.875-10.555 2.626-44.221 23.465-71.693 69.104-71.693 119.108 0 28.641 9.028 55.837 25.041 78.265h68.45z" fill="#ff8e9e"/><path d="m266.555 10.127c-1.873-.993-3.851-1.695-5.874-2.125-17.299 27.961-26.928 60.623-26.928 94.824 0 38.305 12.074 74.679 33.49 104.674h45.972c16.008-22.429 25.033-49.627 25.033-78.265-.001-50.004-27.472-95.643-71.693-119.108z" fill="#ffb5c0"/><path d="m45.439 135.246c-.007.002-.014.003-.021.005-7.988 2.449-15.732 5.664-23.111 9.573-17.473 9.256-20.024 33.232-4.753 45.792l7.484 6.156c1.84 32.031 15.242 62.832 38.732 86.321 34.886 34.886 85.892 47.561 133.113 33.08 3.525-1.081 6.666-3 9.196-5.53s4.45-5.671 5.531-9.196c14.481-47.222 1.806-98.228-33.08-133.113-34.879-34.882-85.876-47.559-133.091-33.088z" fill="#ff8e9e"/><path d="m489.693 144.824c-7.379-3.909-15.123-7.124-23.111-9.573-.007-.001-.013-.003-.021-.005-47.216-14.471-98.212-1.794-133.093 33.087-34.886 34.886-47.56 85.892-33.08 133.113 1.081 3.525 3.001 6.666 5.531 9.196s5.671 4.449 9.196 5.53c47.222 14.481 98.227 1.807 133.113-33.08 23.49-23.489 36.891-54.291 38.732-86.321l7.484-6.156c15.272-12.559 12.721-36.535-4.751-45.791z" fill="#ffb5c0"/><path d="m256 341c-46.869 0-85-38.131-85-85s38.131-85 85-85 85 38.131 85 85-38.131 85-85 85z" fill="#fce3a0"/><path d="m217.121 256c0-38.88 26.24-71.744 61.94-81.82-7.337-2.07-15.071-3.18-23.061-3.18-46.869 0-85 38.131-85 85s38.131 85 85 85c7.99 0 15.724-1.11 23.06-3.18-35.699-10.076-61.939-42.94-61.939-81.82z" fill="#ffce71"/><path d="m144.97 260.749c-10.391.284-20.923 1.955-31.362 5.154-.006.001-.012.003-.018.004-18.208 5.582-34.974 15.675-48.483 29.184-7.654 7.654-7.654 20.063 0 27.717s20.063 7.654 27.717 0c.908-.908 1.846-1.77 2.787-2.626 1.624 28.258 13.447 55.431 34.17 76.154 30.776 30.776 75.774 41.958 117.434 29.183 3.279-1.005 6.327-2.875 8.786-5.594z" fill="#ffb5c0"/><path d="m446.893 295.091c-13.509-13.509-30.275-23.602-48.483-29.184-.006-.001-.012-.003-.018-.004-58.047-17.791-119.059 11.451-142.392 66.123-19.126-44.814-63.599-72.572-111.03-71.278-6.634 35.852 1.369 72.868 22.224 102.778 20.864 29.924 52.851 50.237 88.806 56.398 2.454 2.713 5.499 4.586 8.786 5.594 41.659 12.775 86.657 1.593 117.434-29.183 20.723-20.723 32.546-47.896 34.17-76.154.941.857 1.879 1.719 2.787 2.626 7.654 7.654 20.063 7.654 27.717 0 7.653-7.653 7.653-20.062-.001-27.716z" fill="#ffdbe0"/><ellipse cx="205.121" cy="248.222" fill="#ff8e9e" rx="22.474" ry="17.897" transform="matrix(1 .003 -.003 1 .779 -.641)"/><ellipse cx="306.879" cy="248.603" fill="#ff8e9e" rx="22.474" ry="17.897" transform="matrix(-1 -.003 .003 -1 612.978 498.166)"/><path d="m212 211.037c-4.142 0-7.5 3.358-7.5 7.5v10c0 4.142 3.358 7.5 7.5 7.5s7.5-3.358 7.5-7.5v-10c0-4.142-3.358-7.5-7.5-7.5z"/><path d="m300 236.037c4.142 0 7.5-3.358 7.5-7.5v-10c0-4.142-3.358-7.5-7.5-7.5s-7.5 3.358-7.5 7.5v10c0 4.142 3.358 7.5 7.5 7.5z"/><path d="m247.266 233.301c-1.787-3.737-6.266-5.317-10.001-3.531-3.737 1.787-5.318 6.265-3.531 10.001 4.144 8.666 13.08 14.265 22.766 14.265s18.623-5.599 22.766-14.265c1.787-3.737.206-8.215-3.531-10.001-3.737-1.789-8.215-.206-10.001 3.531-1.666 3.484-5.291 5.735-9.234 5.735s-7.568-2.251-9.234-5.735z"/><path d="m493.203 138.197c-47.042-24.926-104.972-21.314-148.873 10.924 8.414-59.671-21.367-117.552-74.26-145.619-4.318-2.291-9.183-3.502-14.07-3.502-4.889 0-9.754 1.211-14.07 3.502-52.824 28.03-82.692 85.879-74.258 145.635-35.471-26.112-81.514-34.235-124.432-21.057h-.02c-8.39 2.569-16.61 5.97-24.42 10.12-11.745 6.202-18.842 18.301-18.8 31.2-.052 18.102 12.308 26.615 17.78 31.11 1.329 16.38 5.479 32.25 12.329 47.18 7.241 15.749 17.285 29.964 29.734 42.058-.013.013-.027.026-.041.04-10.565 10.566-10.565 27.758 0 38.324 8.038 8.036 19.912 9.962 29.787 5.768 8.65 52.602 49.551 92.275 99.052 102.034 7.866 10.961 18.142 19.644 29.858 25.507v43.08c0 4.143 3.357 7.5 7.5 7.5h60c4.143 0 7.5-3.357 7.5-7.5v-43.939c10.907-5.773 20.5-14.019 27.958-24.292 49.758-9.004 92.091-48.514 100.95-102.376 9.636 4.107 21.56 2.447 29.789-5.782 10.565-10.566 10.565-27.758-.001-38.324-.013-.013-.027-.026-.041-.039.463-.45.926-.9 1.377-1.352 23.624-23.624 37.995-54.724 40.686-87.884 4.633-3.81 17.781-13.839 17.781-34.681.002-11.059-8.323-22.089-18.795-27.635zm-460.673 58.143c-.12-2.08-1.11-4.04-2.73-5.36l-7.48-6.16c-11.138-9.196-9.259-26.593 3.5-33.369 49.563-26.276 110.351-16.181 148.87 23.649 5.756 5.956 15.544-.514 12.281-8.167-17.979-58.028 7.38-121.202 61.992-150.18 2.157-1.147 4.592-1.753 7.037-1.753 2.41 0 4.91.622 7.039 1.752 54.138 28.728 79.72 91.222 62.291 149.168-4.808 5.098-9.275 10.6-13.349 16.486-13.683-10.43-30.352-17.137-48.481-18.599v-39.808c0-4.143-3.357-7.5-7.5-7.5s-7.5 3.357-7.5 7.5v39.831c-30.324 2.513-58.265 20.058-73.479 47.513-19.727-16.854-41.956-30.333-66.215-40.109-3.845-1.551-8.212.312-9.76 4.152-1.549 3.842.311 8.212 4.152 9.76 24.133 9.726 46.123 23.351 65.436 40.521-3.238 9.315-4.909 18.796-5.085 28.572-33.112-4.164-66.34 5.087-92.44 25.538-22.432-21.393-36.721-51.008-38.579-83.437zm300.925 60.75c-17.034 4.264-33.084 12.059-46.76 22.77-12.517 9.803-22.807 21.676-30.719 35.424-16.837-28.946-44.676-49.992-77.432-58.232-.253-17.226 5.145-33.577 15.161-47.083 14.611-19.705 37.896-31.469 62.295-31.469 42.984 0 78.124 35.226 77.455 78.59zm-54.955 239.91h-45v-29.85c14.744 4.031 30.319 3.878 45-.472zm-67.716-58.781c14.43.206 36.272-2.879 45.216-8.568 9.25 5.884 31.239 8.594 43.55 8.585-25.028 22.202-63.21 22.685-88.766-.017zm230.806-120.714c-4.729 4.729-12.382 4.73-17.11-.001-1.04-1.039-2.074-1.988-3.044-2.87-4.657-4.236-12.175-1.171-12.534 5.117-1.943 33.826-19.062 64.361-46.964 83.776-43.654 30.376-91.797 17.833-98.438 13.062v-54.56c0-4.14-3.36-7.5-7.5-7.5-4.13 0-7.5 3.36-7.5 7.5v54.56c-5.379 3.866-53.441 18.247-98.404-13.04-27.923-19.43-45.053-49.974-46.997-83.799-.361-6.307-7.898-9.335-12.534-5.117-.97.882-2.004 1.831-3.044 2.87-4.717 4.721-12.394 4.719-17.11 0-4.718-4.717-4.718-12.393-.001-17.109 56.086-56.069 148.802-35.467 178.692 34.576 2.636 6.092 11.202 6.01 13.797 0 31.249-73.223 125.174-88.087 178.691-34.576 4.718 4.717 4.718 12.393 0 17.111zm48.092-132.682-7.484 6.155c-1.616 1.329-2.604 3.273-2.724 5.363-1.765 30.719-14.744 59.645-36.546 81.447-.665.664-1.349 1.327-2.042 1.987-26.058-20.396-59.273-29.624-92.427-25.487-.173-10.009-1.964-19.626-5.092-28.625 19.313-17.169 41.303-30.793 65.435-40.519 3.842-1.548 5.701-5.918 4.152-9.76-1.548-3.841-5.915-5.699-9.76-4.152-24.263 9.778-46.495 23.259-66.224 40.117-3.787-6.845-8.399-13.174-13.734-18.821 36.248-54.093 106.923-70.758 162.945-41.077 12.817 6.79 14.614 24.231 3.501 33.372z"/></svg>