<svg id="Layer_1" enable-background="new 0 0 512 512" height="512" viewBox="0 0 512 512" width="512" xmlns="http://www.w3.org/2000/svg"><path d="m274.541 221.996c30.211-83.004-12.527-174.604-95.502-204.805-23.341-8.496-47.362-11.218-70.508-8.901-3.333.333-6.193 2.515-7.339 5.663-1.485 4.08.263 8.667 4.132 10.64 57.051 29.084 84.74 96.731 62.266 158.477-4.415 12.13-10.455 23.171-17.772 32.988l75.351 75.351c21.697-17.596 39.079-41.135 49.372-69.413z" fill="#fce3a0"/><path d="m229.283 205.523c12.871-35.362 11.21-73.597-4.676-107.659-15.885-34.059-44.104-59.903-79.46-72.771v-.001c-13.565-4.937-27.703-7.76-42.022-8.391l-2.443-.107c-.127 3.271 1.597 6.445 4.643 7.999 57.051 29.084 84.74 96.731 62.266 158.477-22.556 61.972-87.385 95.696-149.565 81.374-3.089-.711-6.549.374-8.699 3.144 0 .001-.001.001-.002.002-.541.698-.989 1.482-1.304 2.349l-.001.004c-1.146 3.147-.357 6.657 1.982 9.056 16.242 16.651 36.392 30.006 59.734 38.502 54.584 19.867 113.193 8.164 155.434-26.091l-31.536-31.536c15.789-14.87 28.004-33.347 35.649-54.351z" fill="#ffce71"/><path d="m326.446 225.071c-11.192-2.839-22.909-4.351-34.972-4.351-61.774 0-114.317 39.481-133.8 94.583v.006c-50.772.673-93.174 42.149-93.174 94.597 0 52.242 42.351 94.593 94.593 94.593h201.281z" fill="#d4d4d5"/><path d="m433.344 362.607c-.004-66.44-45.554-121.977-106.898-137.535-61.429 15.597-106.874 71.26-106.874 137.541 0 78.002 62.939 141.295 140.802 141.888h73.181c39.182 0 70.945-31.763 70.945-70.945 0-39.697-32.442-71.157-71.156-70.949z" fill="#efedee"/><ellipse cx="215.831" cy="398.263" fill="#ff8e9e" rx="29.212" ry="23.263" transform="matrix(1 .003 -.003 1 1.249 -.674)"/><ellipse cx="374.169" cy="398.759" fill="#ff8e9e" rx="29.212" ry="23.263" transform="matrix(-1 -.003 .003 -1 747.088 798.688)"/><path d="m440.672 355.412c-3.772-79.042-69.252-142.191-149.198-142.191-61.037 0-116.597 37.51-139.083 94.789-14.135.901-27.74 4.723-40.12 11.141-35.481-2.868-70.285-18.112-96.901-45.391-.318-.332-.456-.774-.31-1.25.01 0 .01 0 .01-.01.13-.438.634-.848 1.27-.75 68.098 15.689 137.972-23.155 159.91-90.551 4.4-13.52 6.64-27.619 6.63-41.88.02-49.795-27.18-97.44-74.15-121.409-.275-.153-.318-.216-.4-.341-.265-.414-.105-1.343.23-1.56.685-.759 14.359-1.01 15.79-1.01 93.259 0 164.334 83.423 150.72 174.63-.61 4.09 2.22 7.92 6.31 8.53.37.06.75.079 1.12.079 3.68 0 6.86-2.739 7.41-6.39 6.248-41.878-3.731-84.593-27.76-119.49-32.403-47.042-85.074-72.358-137.8-72.358-5.51 0-11.09.279-16.57.83-8.203.738-14.568 7.551-14.59 16.149 0 6.075 3.324 11.568 8.73 14.3 40.67 20.721 65.94 62.12 65.96 108.04-.031 77.872-72.955 135.193-148.17 117.811-6.651-1.489-12.917 1.39-16.31 5.859.001 0-1.483 1.788-2.43 4.381v.029c-.65 1.761-.97 3.611-.97 5.481 0 4.25 1.64 8.28 4.63 11.35 23.894 24.508 54.846 41.1 88.821 47.505-23.199 19.549-36.451 47.713-36.451 78.172 0 56.294 45.799 102.093 102.093 102.093h274.461c12.368 0 24.205-2.798 35.183-8.315 3.701-1.86 5.193-6.368 3.333-10.069-1.861-3.701-6.37-5.192-10.069-3.333-8.868 4.458-18.438 6.718-28.446 6.718h-274.462c-48.023-.001-87.093-39.07-87.093-87.094 0-47.399 38.478-86.472 85.774-87.099.021 0 .041-.006.063-.006h12.112c9.395 0 10.983-15-1.209-15 21.451-48.012 69.494-79.582 122.734-79.582 74.088 0 134.366 60.285 134.37 134.386v8.894c0 9.514 15 10.767 15-.982 31.55 3.561 56.156 30.466 56.156 63.037 0 14.562-5.055 28.784-14.233 40.048-2.616 3.211-2.135 7.935 1.076 10.552 3.214 2.617 7.937 2.133 10.553-1.076 11.352-13.933 17.604-31.52 17.604-49.524 0-40.91-31.409-74.607-71.328-78.143z"/><path d="m223 363.5v10c0 4.143 3.358 7.5 7.5 7.5s7.5-3.357 7.5-7.5v-10c0-4.142-3.358-7.5-7.5-7.5s-7.5 3.358-7.5 7.5z"/><path d="m351 363.5v10c0 4.143 3.358 7.5 7.5 7.5s7.5-3.357 7.5-7.5v-10c0-4.142-3.358-7.5-7.5-7.5s-7.5 3.358-7.5 7.5z"/><path d="m304.234 373.265c-1.666 3.484-5.291 5.735-9.234 5.735s-7.568-2.251-9.234-5.735c-1.787-3.737-6.266-5.317-10.001-3.53-3.737 1.786-5.318 6.265-3.531 10.001 4.143 8.665 13.079 14.264 22.766 14.264s18.623-5.599 22.766-14.265c1.787-3.736.206-8.215-3.531-10.001-3.737-1.789-8.214-.206-10.001 3.531z"/><path d="m190 174.391c-4.143.001-7.499 3.358-7.5 7.501v10c0 4.142 3.358 7.499 7.5 7.5 2.071-.001 3.946-.84 5.303-2.197s2.196-3.232 2.197-5.304v-10c0-4.143-3.358-7.5-7.5-7.5z"/><path d="m250.5 181.891v10c0 4.143 3.358 7.5 7.5 7.501 2.071-.001 3.946-.84 5.304-2.197 1.357-1.357 2.196-3.232 2.197-5.303v-10c0-4.143-3.358-7.501-7.5-7.501-4.143.001-7.501 3.358-7.501 7.5z"/><path d="m229.735 186.419c-.913 1.908-3.016 3.19-5.234 3.19 0 0 0 0-.001 0-2.218 0-4.321-1.281-5.233-3.188-1.788-3.737-6.266-5.317-10.001-3.531-3.737 1.787-5.318 6.265-3.532 10.002 3.403 7.118 10.77 11.718 18.765 11.718h.004c7.994 0 15.359-4.6 18.764-11.718 1.788-3.736.208-8.215-3.529-10.002-3.737-1.791-8.217-.207-10.003 3.529z"/></svg>