<svg id="Layer_1" enable-background="new 0 0 512 512" height="512" viewBox="0 0 512 512" width="512" xmlns="http://www.w3.org/2000/svg"><g fill="#ffb5c0"><path d=""/><rect height="0" width="0" x="217.141" y="44.786"/><path d="m217.141 44.786-11.3-11.3c-7.793-7.793-20.435-8.166-28.466-.618-11.267 10.59-18.304 25.627-18.304 42.31 0 9.252 2.167 20.335 6.017 31.421-6.363-6.584-13.089-12.068-19.494-15.766-14.448-8.342-30.988-9.766-45.793-5.303-10.552 3.181-16.551 14.316-13.698 24.96l4.136 15.437-15.437 4.136c-10.645 2.852-17.288 13.615-14.767 24.343 3.538 15.051 13.041 28.665 27.489 37.006 12.03 6.946 30.071 11.727 47.962 12.663-11.368 5.275-21.505 11.955-28.454 18.903-11.796 11.797-17.453 27.405-16.974 42.86.341 11.016 9.544 19.692 20.564 19.692h15.981v15.981c0 11.021 8.676 20.223 19.692 20.565 15.455.478 31.063-5.178 42.86-16.974 12.442-12.442 24.029-35.098 28.211-56.76z"/></g><path d="m361.198 130.064-15.436-4.136 4.136-15.437c2.852-10.644-3.147-21.779-13.698-24.96-14.804-4.463-31.345-3.039-45.793 5.303-7.352 4.245-15.127 10.838-22.289 18.753 4.521-12.068 7.092-24.325 7.092-34.409 0-16.683-7.037-31.72-18.304-42.31-8.03-7.548-20.673-7.175-28.465.618l-11.3 11.3c-49.949 58.692-49.853 144.976.226 203.557 4.182 21.662 15.769 44.319 28.211 56.76 11.797 11.797 27.405 17.453 42.86 16.974 11.015-.341 19.691-9.544 19.691-20.565v-15.981h15.981c11.021 0 20.223-8.676 20.564-19.692.479-15.455-5.177-31.063-16.974-42.86-6.925-6.925-17.016-13.582-28.337-18.849 18.266-.787 36.825-5.623 49.112-12.718 14.448-8.341 23.951-21.954 27.489-37.006 2.523-10.727-4.121-21.49-14.766-24.342z" fill="#ffdbe0"/><circle cx="216.5" cy="168.871" fill="#ff8e9e" r="44.457"/><path d="m391.249 309.886c-4.387.105-8.622 2.458-10.963 6.515l-5.042 8.732-8.732-5.042c-6.021-3.476-13.787-1.639-17.448 4.272-5.137 8.293-6.97 18.606-4.245 28.772 2.268 8.465 8.184 18.647 15.748 27.046-7.425-2.718-14.927-4.26-21.127-4.261-10.526.001-20.012 4.44-26.693 11.549-4.762 5.066-4.527 13.042.389 17.959l7.13 7.13-7.13 7.129c-4.917 4.917-5.151 12.893-.389 17.959 6.681 7.108 16.168 11.548 26.693 11.548 11.101 0 26.378-4.938 37.908-12.737-7.798 11.53-12.737 26.807-12.737 37.908 0 10.526 4.44 20.012 11.548 26.694 5.066 4.762 13.042 4.527 17.959-.39l7.13-7.129 7.129 7.129c4.917 4.917 12.893 5.151 17.959.389 4.779-4.491 8.343-10.254 10.172-16.745z" fill="#ffb5c0"/><path d="m502.995 416.84c-4.614-8.596-12.628-15.339-22.795-18.064-5.173-1.386-11.583-1.913-18.31-1.577 7.4-3.367 14.016-7.688 18.515-12.187 7.443-7.443 11.011-17.291 10.709-27.042-.215-6.95-6.021-12.423-12.975-12.423h-10.083v-10.083c0-6.953-5.474-12.76-12.424-12.975-9.751-.302-19.598 3.267-27.041 10.71-4.128 4.127-8.105 10.039-11.334 16.702.099-5.776-.456-11.223-1.664-15.73-2.724-10.167-9.468-18.181-18.063-22.795-1.999-1.073-4.158-1.542-6.283-1.491-16.258 62.058.878 128.106 45.259 174.43.891-3.164 1.376-6.499 1.377-9.948 0-6.178-1.532-13.65-4.233-21.05 8.5 7.798 18.937 13.92 27.584 16.236 10.167 2.725 20.479.891 28.772-4.246 5.911-3.662 7.749-11.427 4.272-17.448l-5.041-8.732 8.732-5.042c6.023-3.475 8.315-11.118 5.026-17.245z" fill="#ffdbe0"/><path d="m498.225 49.595-6.33-1.696 1.696-6.331c1.17-4.365-1.29-8.931-5.618-10.236-6.071-1.83-12.854-1.246-18.779 2.175-3.015 1.741-6.203 4.444-9.14 7.69 1.854-4.949 2.908-9.975 2.908-14.111 0-6.841-2.886-13.008-7.506-17.351-3.293-3.095-8.478-2.942-11.674.253l-4.634 4.634-4.634-4.634c-3.196-3.196-8.38-3.349-11.674-.253-4.62 4.343-7.506 10.51-7.506 17.351 0 3.794.889 8.339 2.467 12.886-2.609-2.7-5.368-4.949-7.995-6.465-5.925-3.421-12.708-4.005-18.779-2.175-4.327 1.304-6.787 5.871-5.618 10.236l1.696 6.331-6.331 1.696c-4.365 1.17-7.09 5.584-6.056 9.983 1.451 6.172 5.348 11.755 11.273 15.176 4.933 2.848 12.332 4.809 19.669 5.193-4.662 2.163-8.819 4.903-11.669 7.752-4.838 4.838-7.157 11.239-6.961 17.577.14 4.517 3.914 8.075 8.433 8.075h6.554v6.554c0 4.519 3.558 8.294 8.076 8.434 6.338.196 12.739-2.123 17.577-6.961 5.102-5.102 9.854-14.394 11.569-23.277 1.715 8.884 6.467 18.175 11.569 23.277 4.838 4.838 11.239 7.157 17.577 6.961 4.517-.14 8.075-3.914 8.075-8.434v-6.554h6.554c4.52 0 8.293-3.558 8.433-8.075.196-6.338-2.123-12.739-6.961-17.577-2.84-2.84-6.978-5.57-11.621-7.729 7.491-.323 15.102-2.306 20.141-5.216 5.925-3.42 9.822-9.003 11.273-15.176 1.036-4.4-1.689-8.813-6.054-9.983z" fill="#ffdbe0"/><circle cx="439.5" cy="65.925" fill="#ff8e9e" r="15"/><path d="m131.225 358.069-6.33-1.696 1.696-6.331c1.17-4.365-1.29-8.931-5.618-10.236-6.071-1.83-12.854-1.246-18.779 2.175-3.015 1.74-6.203 4.444-9.14 7.69 1.854-4.949 2.909-9.975 2.909-14.111 0-6.841-2.886-13.008-7.506-17.351-3.293-3.095-8.478-2.942-11.674.253l-4.634 4.634-4.634-4.634c-3.196-3.196-8.38-3.349-11.674-.253-4.62 4.343-7.506 10.51-7.506 17.351 0 3.794.889 8.339 2.467 12.886-2.609-2.7-5.368-4.949-7.995-6.465-5.925-3.421-12.708-4.005-18.779-2.175-4.327 1.304-6.787 5.871-5.618 10.236l1.696 6.331-6.331 1.696c-4.365 1.17-7.09 5.584-6.056 9.983 1.451 6.172 5.348 11.755 11.273 15.176 4.933 2.848 12.332 4.809 19.669 5.193-4.662 2.163-8.819 4.903-11.669 7.752-4.838 4.838-7.157 11.239-6.961 17.577.14 4.517 3.914 8.075 8.433 8.075h6.554v6.554c0 4.519 3.558 8.294 8.076 8.434 6.338.196 12.739-2.123 17.577-6.961 5.102-5.102 9.854-14.393 11.569-23.277 1.715 8.884 6.467 18.175 11.569 23.277 4.838 4.838 11.239 7.157 17.577 6.961 4.517-.14 8.075-3.914 8.075-8.434v-6.554h6.554c4.52 0 8.293-3.558 8.433-8.075.196-6.338-2.123-12.739-6.961-17.577-2.84-2.84-6.978-5.57-11.621-7.729 7.491-.323 15.102-2.306 20.141-5.216 5.925-3.42 9.822-9.003 11.273-15.176 1.035-4.399-1.69-8.813-6.055-9.983z" fill="#ffb5c0"/><circle cx="72.5" cy="374.399" fill="#ffdbe0" r="15"/><path d="m315.63 301.513v-8.481h8.48c14.446 0 28.093-10.822 28.093-29.004 0-20.942-9.276-40.578-29.881-55.275 11.31-2.398 21.754-6.138 29.904-10.844 15.602-9.007 26.915-24.236 31.04-41.785 3.453-14.699-5.57-29.402-20.127-33.303l-8.192-2.195 2.196-8.196c3.985-14.897-4.81-29.869-18.78-34.078-2.351-.709-4.766-1.291-7.178-1.732-4.078-.748-7.982 1.955-8.727 6.03-.744 4.074 1.955 7.98 6.029 8.726 1.864.341 3.73.791 5.547 1.338 6.408 1.931 10.479 8.881 8.619 15.837l-3.445 12.855-14.592 10.51c-3.361 2.421-4.124 7.108-1.703 10.469 2.425 3.367 7.113 4.121 10.469 1.703l13.875-9.993 11.999 3.216c5.736 1.537 9.743 6.681 9.743 12.507 0 5.086-5.293 24.145-24.273 35.103-11.257 6.5-28.763 10.99-45.686 11.72-7.82.338-9.931 10.994-2.84 14.294 23.409 10.886 41.002 26.904 41.002 53.096 0 9.148-6.547 14.004-13.093 14.004h-12.678l-12.9-14.095c-2.795-3.057-7.54-3.267-10.596-.469-3.056 2.796-3.266 7.54-.469 10.596l13.162 14.381v13.068c0 6.994-5.573 12.856-12.411 13.067-14.059.407-27.417-4.86-37.337-14.78-11.501-11.5-22.138-32.886-26.016-52.217v-27.437c4.505-.733 8.814-2.051 12.854-3.867 9.141 10.458 10.153 12.705 14.513 12.705 6.37 0 9.904-7.563 5.644-12.436l-7.377-8.439c9.816-8.517 16.419-20.638 17.716-34.29l18.926-8.563c3.773-1.707 5.449-6.15 3.741-9.925-1.706-3.772-6.15-5.452-9.925-3.741l-13.703 6.199c-4.57-20.949-21.806-37.212-43.255-40.328v-21.464c0-4.143-3.357-7.5-7.5-7.5s-7.498 3.357-7.498 7.5c0 30.184-.14 28.414-.14 28.414 0 3.975 3.139 7.5 7.64 7.5 20.378 0 36.957 16.579 36.957 36.957s-16.579 36.957-36.957 36.957c-34.816 0-50.192-43.975-23.168-65.752 3.226-2.6 3.732-7.321 1.134-10.546s-7.319-3.733-10.546-1.134c-9.203 7.417-15.469 17.531-18.05 28.763l-10.242-5.376c-3.666-1.922-8.201-.514-10.127 3.154-1.925 3.668-.513 8.202 3.154 10.127l16.107 8.455c1.17 13.132 7.243 24.869 16.375 33.369l-9.46 9.226c-4.825 4.705-1.436 12.869 5.237 12.869 3.945 0 4.552-1.464 16.814-13.423 4.985 2.441 10.418 4.097 16.137 4.83v27.202c-3.88 19.33-14.516 40.71-26.015 52.208-9.881 9.882-23.172 15.203-37.324 14.781-6.851-.212-12.424-6.074-12.424-13.068v-12.639l15.909-14.296c3.081-2.769 3.334-7.51.565-10.591-2.767-3.081-7.509-3.336-10.591-.565l-16.258 14.609h-13.106c-6.994 0-12.856-5.573-13.068-12.422-.793-26.755 16.713-43.421 41.088-54.729 7.063-3.279 5.02-13.885-2.765-14.294-16.546-.865-33.638-5.336-44.604-11.668-18.487-10.674-24.272-29.469-24.272-35.102 0-5.827 4.006-10.971 9.743-12.508l12.604-3.378c14.354 7.535 14.233 7.773 16.646 7.773 7.788 0 10.42-10.505 3.493-14.143l-12.854-6.748c-3.596-13.422-3.739-13.443-3.739-15.688 0-5.698 3.73-10.803 9.073-12.413 22.684-6.842 41.503 2.312 57.729 19.1 5.541 5.733 15.11-.091 12.478-7.672-8.484-24.432-8.764-47.851 10.34-65.808 2.342-2.201 5.427-3.414 8.686-3.414 6.848 0 9.248 3.781 18.442 12.976v18.031c0 4.143 3.357 7.5 7.5 7.5s7.5-3.357 7.5-7.5v-18.031c9.194-9.193 11.596-12.974 18.442-12.974 3.26 0 6.345 1.213 8.687 3.414 19.87 18.675 18.744 43.479 9.325 68.623-2.888 7.711 7.063 13.768 12.585 7.663 11.687-12.917 21.404-18.551 29.068-21.242 3.908-1.372 5.964-5.652 4.592-9.561-1.371-3.908-5.65-5.964-9.561-4.592-5.863 2.057-11.043 4.794-16.057 8.235 3.793-25.101-4.674-45.953-19.68-60.057-5.135-4.826-11.868-7.484-18.96-7.484-13.259 0-19.464 7.783-25.942 14.261-6.493-6.494-12.679-14.262-25.942-14.262-7.093 0-13.826 2.658-18.96 7.485-14.919 14.024-23.195 34.544-19.874 58.784-17.038-11.014-36.941-13.202-54.729-7.837-11.624 3.504-19.742 14.514-19.742 26.774 0 4.578.841 6.843 3.159 15.5l-8.191 2.195c-14.587 3.907-23.573 18.63-20.128 33.304 4.125 17.548 15.438 32.777 31.04 41.784 7.887 4.554 17.989 8.218 28.941 10.628-20.926 14.817-30.856 35.151-30.152 57.536.468 15.117 12.793 26.959 28.061 26.959h8.48v8.481c0 14.505 10.877 28.092 28.998 28.092 34.416 0 56.188-23.74 69.266-55.58 13.479 32.823 36.058 56.599 71.302 55.549 15.118-.466 26.961-12.791 26.961-28.058z"/><path d="m512 422.787c0-13.536-15.198-27.221-29.487-31.187 2.221-6.911-5.781-12.692-11.637-8.303-3.425 2.566-7.605 5.002-12.09 7.042-7.529 3.426-4.689 14.772 3.479 14.317 14.564-.727 27.139 2.688 34.12 15.693 1.385 2.588.331 5.768-2.165 7.208l-6.044 3.491-8.241-2.2c-4.003-1.07-8.112 1.309-9.181 5.312-1.068 4.002 1.31 8.112 5.312 9.181l8.234 2.198 3.487 6.04c1.443 2.494.758 5.782-1.728 7.321-15.954 9.884-33.593 1.468-47.336-11.142-5.768-5.29-14.797.752-12.115 8.099 5.343 14.639 6.06 28.931-5.408 39.706-2.076 1.95-5.425 1.868-7.519-.228l-7.129-7.129c-2.929-2.927-7.678-2.929-10.606 0-7.43 7.428-8.094 8.761-11.065 8.761-1.349 0-2.622-.498-3.585-1.403-5.923-5.567-9.185-13.107-9.185-21.229 0-9.647 4.496-23.082 10.985-32.99l8.748-7.856c3.082-2.768 3.337-7.509.569-10.591-2.767-3.081-7.508-3.337-10.591-.569l-9.051 8.128c-9.937 6.609-23.573 11.207-33.332 11.208-8.122 0-15.661-3.262-21.227-9.183-1.968-2.097-1.85-5.448.226-7.521l4.934-4.934h6.009c4.143 0 7.5-3.357 7.5-7.5s-3.357-7.5-7.5-7.5h-6.009l-4.935-4.935c-2.088-2.086-2.18-5.44-.227-7.518 10.75-11.438 24.966-10.804 39.777-5.382 7.31 2.677 13.367-6.268 8.151-12.063-12.318-13.676-20.468-31.082-10.702-46.848.961-1.55 2.661-2.476 4.546-2.476 1.916 0 2.415.537 8.9 4.281l2.415 8.308c.953 3.279 3.947 5.409 7.198 5.409 4.998 0 8.6-4.801 7.206-9.595l-2.363-8.131c3.294-5.707 4.226-8.637 8.089-8.728.904 0 1.691.136 2.558.602 12.237 6.569 16.015 18.027 15.774 31.782-.142 7.995 10.752 10.617 14.248 3.405 6.651-13.725 16.069-23.631 31.395-23.187 2.843.088 5.155 2.546 5.155 5.479v7.378l-8.186 9.872c-4.069 4.908-.517 12.287 5.77 12.287 4.529 0 5.732-2.659 13.44-11.954h6.559c2.739 0 5.493 1.913 5.493 6.062 0 1.437-.106 2.882-.315 4.296-.606 4.098 2.223 7.911 6.32 8.518 4.09.608 7.91-2.223 8.518-6.32 2.776-18.704-8.66-27.555-20.016-27.555h-2.583c0-30.888-36.085-27.777-53.614-8.748-7.713-22.36-34.845-39.694-49.445-14.412-25.864-14.926-41.498 15.664-34.924 40.189 1.146 4.278 3.072 8.883 5.592 13.492-14.193-1.083-27.088 4.405-35.885 13.765-3.53 3.756-5.474 8.678-5.474 13.86 0 7.447 3.258 11.775 7.851 16.365-2.361 2.36-7.851 7.161-7.851 16.365 0 5.18 1.943 10.101 5.474 13.86 14.307 15.221 33.496 16.828 53.792 9.948-2.532 7.473-3.963 15.014-3.963 21.634 0 24.828 22.705 51.203 44.138 29.782 4.389 4.392 8.652 7.851 16.365 7.851 5.181 0 10.103-1.944 13.858-5.474 9.484-8.911 14.783-21.698 13.785-35.614 18.339 10.205 35.005 9.255 48.699.772 9.555-5.915 12.221-18.228 6.819-27.575l-1.291-2.236 2.235-1.291c6.344-3.657 10.282-10.463 10.282-17.76z"/><path d="m399.729 367.56c-2.93-2.928-7.677-2.928-10.607.001l-7.071 7.071c-2.928 2.929-2.928 7.677 0 10.607 2.932 2.929 7.677 2.927 10.607 0l7.071-7.072c2.929-2.93 2.928-7.678 0-10.607z"/><path d="m440.74 433.322 7.072-7.071c2.929-2.93 2.929-7.678.001-10.607-2.93-2.928-7.678-2.928-10.607 0l-7.072 7.07c-2.929 2.93-2.929 7.678-.001 10.607 2.938 2.935 7.683 2.923 10.607.001z"/><path d="m428.888 408.739c-1.375-3.908-5.663-5.956-9.568-4.577-1.995.704-4.388.124-5.957-1.445-1.569-1.569-2.15-3.962-1.446-5.955 1.379-3.907-.67-8.19-4.575-9.569-10.907-3.85-15.326 15.392-4.587 26.13 10.742 10.741 29.982 6.321 26.133-4.584z"/><path d="m387.539 83.748c-5.291 5.953-8.157 13.796-7.909 21.794.258 8.296 6.774 14.858 15.009 15.316 1.055 18.968 29.95 22.062 44.696-2.32 14.829 24.519 43.651 21.158 44.696 2.32 8.234-.458 14.751-7.021 15.009-15.317.246-7.93-2.569-15.707-7.776-21.642 22.55-8.573 28.02-35.294 9.88-41.253 1.69-8.073-2.963-16.066-10.912-18.462-6.494-1.958-13.459-1.727-19.766.565-.595-7.747-4.085-15.095-9.779-20.446-6.048-5.685-15.296-5.719-21.444-.219-6.148-5.499-15.397-5.465-21.444.219-5.636 5.297-9.111 12.548-9.759 20.206-6.126-2.064-12.822-2.211-19.082-.325-7.948 2.396-12.602 10.39-10.911 18.462-18.011 5.916-12.58 32.491 9.492 41.102zm1.603-28.572c4.001-1.072 6.375-5.185 5.303-9.186-1.666-6.217-2.19-7.132-1.158-7.444 7.693-2.316 13.723.987 19.216 6.671 5.543 5.736 15.11-.091 12.479-7.672-2.891-8.326-3.358-16.25 3.091-22.312.32-.301.885-.258 1.233.092l4.634 4.634c2.93 2.927 7.679 2.929 10.606 0l4.636-4.634c.349-.351.913-.393 1.233-.092 6.706 6.304 5.939 14.75 2.71 23.365-2.888 7.711 7.062 13.77 12.585 7.664 5.665-6.262 12.059-10.169 20.193-7.717 1.015.307.529 1.152-1.157 7.444-1.072 4.001 1.302 8.113 5.303 9.186 6.214 1.665 7.272 1.669 7.026 2.72-2.497 10.628-13.53 14.144-24.435 14.613-7.818.336-9.933 10.995-2.842 14.293 8.242 3.834 14.53 9.222 14.25 18.273-.033 1.058-.972.809-7.491.809-4.143 0-7.5 3.357-7.5 7.5 0 6.435.269 7.458-.809 7.491-4.535.134-8.825-1.553-12.04-4.769-4.206-4.206-8.116-12.182-9.509-19.396-1.558-8.066-13.17-8.066-14.729 0-1.393 7.214-5.303 15.189-9.509 19.396-3.215 3.216-7.483 4.908-12.041 4.769-1.059-.033-.808-.981-.808-7.491 0-4.143-3.357-7.5-7.5-7.5-6.453 0-7.458.263-7.491-.808-.281-9.09 6.074-14.482 14.29-18.293 7.063-3.279 5.02-13.885-2.765-14.294-10.8-.564-21.566-4.103-24.032-14.592-.241-1.028.715-1.028 7.028-2.72z"/><path d="m439.5 88.425c12.406 0 22.5-10.094 22.5-22.5s-10.094-22.5-22.5-22.5-22.5 10.094-22.5 22.5 10.094 22.5 22.5 22.5zm0-30c4.136 0 7.5 3.364 7.5 7.5s-3.364 7.5-7.5 7.5-7.5-3.364-7.5-7.5 3.364-7.5 7.5-7.5z"/><path d="m133.891 351.088c1.69-8.075-2.964-16.068-10.912-18.462-6.493-1.958-13.459-1.727-19.766.565-.595-7.747-4.084-15.094-9.779-20.447-6.051-5.686-15.299-5.717-21.444-.218-6.146-5.5-15.395-5.469-21.445.219-5.635 5.298-9.11 12.549-9.758 20.206-6.123-2.063-12.82-2.213-19.081-.326-7.948 2.396-12.603 10.389-10.912 18.463-18.007 5.914-12.563 32.511 9.494 41.101-5.292 5.954-8.158 13.797-7.91 21.795.258 8.296 6.774 14.858 15.009 15.316 1.058 19.031 29.995 21.987 44.696-2.32 14.829 24.519 43.651 21.158 44.696 2.32 8.234-.458 14.751-7.021 15.009-15.317.246-7.93-2.57-15.708-7.776-21.642 22.548-8.577 28.019-35.295 9.879-41.253zm-4.069 15.249c-2.496 10.625-13.527 14.144-24.435 14.613-7.818.336-9.933 10.995-2.842 14.293 8.248 3.838 14.53 9.222 14.25 18.273-.033 1.058-.972.809-7.491.809-4.143 0-7.5 3.357-7.5 7.5 0 6.435.269 7.458-.809 7.491-4.528.125-8.825-1.553-12.04-4.769-4.206-4.206-8.116-12.182-9.509-19.396-1.558-8.066-13.17-8.066-14.729 0-1.393 7.214-5.303 15.189-9.509 19.396-3.216 3.216-7.476 4.899-12.041 4.769-1.059-.033-.808-.981-.808-7.491 0-4.143-3.357-7.5-7.5-7.5-6.453 0-7.458.263-7.491-.808-.281-9.09 6.074-14.482 14.29-18.293 7.063-3.279 5.02-13.885-2.765-14.294-10.795-.564-21.566-4.102-24.032-14.592-.242-1.03.713-1.03 7.026-2.722 4.001-1.072 6.375-5.185 5.303-9.186-1.667-6.222-2.189-7.133-1.158-7.444 7.691-2.317 13.721.985 19.216 6.671 5.556 5.747 15.106-.103 12.479-7.671-2.891-8.333-3.357-16.252 3.09-22.313.319-.298.885-.259 1.234.093l4.634 4.634c2.929 2.927 7.678 2.929 10.606 0l4.636-4.635c.349-.35.915-.393 1.232-.092 6.706 6.305 5.941 14.748 2.711 23.365-2.889 7.714 7.06 13.767 12.584 7.665 5.696-6.291 12.085-10.165 20.196-7.716 1.025.308.512 1.205-1.159 7.443-1.072 4.001 1.302 8.113 5.303 9.186 6.216 1.666 7.273 1.67 7.028 2.721z"/><path d="m72.5 351.899c-12.406 0-22.5 10.094-22.5 22.5s10.094 22.5 22.5 22.5 22.5-10.094 22.5-22.5-10.094-22.5-22.5-22.5zm0 30c-4.136 0-7.5-3.364-7.5-7.5s3.364-7.5 7.5-7.5 7.5 3.364 7.5 7.5-3.364 7.5-7.5 7.5z"/><path d="m200 153.652c-4.143.001-7.499 3.358-7.5 7.501v10c0 4.142 3.358 7.499 7.5 7.5 4.145-.002 7.499-3.359 7.5-7.501v-10c0-4.142-3.358-7.5-7.5-7.5z"/><path d="m239.5 171.153v-10c0-4.143-3.358-7.501-7.5-7.501-4.143.001-7.5 3.358-7.5 7.5v10c0 4.143 3.358 7.5 7.5 7.501 4.149-.002 7.499-3.363 7.5-7.5z"/></svg>