<svg id="Layer_1" enable-background="new 0 0 512 512" height="512" viewBox="0 0 512 512" width="512" xmlns="http://www.w3.org/2000/svg"><path d="m279.77 18.855c-.899-.901-1.797-1.801-2.688-2.688l-.118-.119c-11.644-11.442-30.465-11.395-42.042.119-71.625 71.233-170.854 197.071-170.854 297.624v.008h.118c0 108.353 86.324 190.701 191.81 190.701 29.498.002 57.431-6.62 82.391-18.438z" fill="#7ce3ff"/><path d="m447.814 313.795h.118c0-101.406-95.708-222.266-168.162-294.939-46.163 66.306-95.702 156.099-95.702 237.248h.154c0 106.371 63.877 193.489 154.166 229.958 64.717-30.645 109.426-96.269 109.426-172.267z" fill="#b9f0ff"/><ellipse cx="176.831" cy="391.805" fill="#ff8e9e" rx="29.212" ry="23.263" transform="matrix(1 .003 -.003 1 1.228 -.552)"/><ellipse cx="335.169" cy="392.302" fill="#ff8e9e" rx="29.212" ry="23.263" transform="matrix(-1 -.003 .003 -1 669.108 785.651)"/><path d="m255.996 512c-50.341 0-98.232-18.233-134.854-51.342-3.072-2.778-3.311-7.521-.533-10.594 2.778-3.071 7.521-3.309 10.594-.533 33.858 30.611 78.176 47.469 124.793 47.469 101.634 0 184.318-82.186 184.318-183.205 0-101.369-97.649-220.988-168.676-292.465-8.524-8.375-22.654-8.571-31.428.155-69.806 69.424-168.524 193.685-168.524 292.314 0 42.673 13.756 82.371 39.781 114.804 2.593 3.231 2.075 7.951-1.155 10.544-3.231 2.592-7.952 2.074-10.544-1.155-29.193-36.381-43.2-80.213-43.2-124.192 0-103.189 100.084-230.365 173.065-302.949 7.035-6.998 16.4-10.851 26.368-10.851 10.3 0 19.694 4.14 26.406 10.887 74.657 74.15 173.025 198.062 173.025 302.908.001 108.733-89.14 198.205-199.436 198.205z"/><path d="m192 349.542c-4.142 0-7.5 3.358-7.5 7.5v10c0 4.142 3.358 7.5 7.5 7.5s7.5-3.358 7.5-7.5v-10c0-4.142-3.358-7.5-7.5-7.5z"/><path d="m320 349.542c-4.142 0-7.5 3.358-7.5 7.5v10c0 4.142 3.358 7.5 7.5 7.5s7.5-3.358 7.5-7.5v-10c0-4.142-3.358-7.5-7.5-7.5z"/><path d="m275.735 363.276c-3.737-1.789-8.215-.206-10.001 3.531-1.666 3.484-5.291 5.735-9.234 5.735s-7.568-2.251-9.234-5.735c-1.787-3.737-6.266-5.317-10.001-3.531-3.737 1.787-5.318 6.265-3.531 10.001 4.144 8.666 13.08 14.265 22.766 14.265s18.623-5.599 22.766-14.265c1.787-3.736.206-8.214-3.531-10.001z"/></svg>