<svg id="Layer_1" enable-background="new 0 0 512 512" height="512" viewBox="0 0 512 512" width="512" xmlns="http://www.w3.org/2000/svg"><g fill="#7ce3ff"><path d="m129.142 356.458c-.187-.188-.374-.375-.56-.56l-.025-.025c-2.427-2.385-6.349-2.375-8.762.025-14.927 14.845-35.607 41.07-35.607 62.026v.002h.025c0 22.581 17.99 39.743 39.974 39.743 6.148 0 11.969-1.379 17.171-3.843 13.488-6.386 22.805-20.063 22.805-35.901h.025c.001-21.133-19.946-46.321-35.046-61.467z"/><path d="m379.51 403.289c-.187-.188-.374-.375-.56-.56l-.025-.025c-2.427-2.385-6.349-2.375-8.762.025-14.927 14.845-35.607 41.07-35.607 62.026v.002h.024c0 22.581 17.991 39.743 39.975 39.743 6.147 0 11.969-1.38 17.171-3.843 13.488-6.387 22.805-20.063 22.805-35.901h.025c0-21.134-19.946-46.322-35.046-61.467z"/><path d="m235.475 47.525c-.094-.094-.187-.188-.28-.28l-.012-.012c-1.213-1.192-3.175-1.188-4.381.012-7.464 7.423-17.804 20.535-17.804 31.013v.001h.012c0 11.291 8.995 19.872 19.987 19.872 3.074 0 5.984-.69 8.585-1.921 6.744-3.193 11.403-10.031 11.403-17.951h.012c.001-10.567-9.972-23.161-17.522-30.734z"/><path d="m29.977 285.275c-.094-.094-.187-.188-.28-.28l-.012-.012c-1.213-1.192-3.175-1.188-4.381.012-7.464 7.423-17.804 20.535-17.804 31.013v.001h.012c0 11.291 8.995 19.872 19.987 19.872 3.074 0 5.984-.69 8.585-1.921 6.744-3.193 11.403-10.031 11.403-17.951h.013c0-10.567-9.973-23.161-17.523-30.734z"/><path d="m486.977 172.858c-.094-.094-.187-.188-.28-.28l-.012-.012c-1.213-1.192-3.175-1.188-4.381.012-7.464 7.422-17.804 20.535-17.804 31.013v.001h.012c0 11.291 8.995 19.872 19.987 19.872 3.074 0 5.984-.69 8.585-1.921 6.744-3.193 11.403-10.031 11.403-17.951h.012c.001-10.568-9.972-23.162-17.522-30.734z"/><path d="m411.615 10.458c-.234-.235-.468-.469-.7-.7l-.031-.031c-3.033-2.981-7.936-2.968-10.952.031-18.659 18.557-44.509 51.338-44.509 77.533v.002h.031c0 28.227 22.488 49.679 49.968 49.679 7.684.001 14.961-1.724 21.464-4.803z"/></g><path d="m411.615 10.458c-.178.255-.356.517-.534.774-.005.007-.009.013-.014.02-.921 1.335-1.64 2.803-2.111 4.355-11.987 39.452-5.484 82.353 17.93 116.562 16.86-7.983 28.507-25.079 28.507-44.877h.031c-.001-26.417-24.934-57.902-43.809-76.834z" fill="#b9f0ff"/><path d="m135.247 82.405c-.328-.329-.655-.657-.98-.98l-.043-.043c-4.247-4.173-11.111-4.156-15.333.043-26.122 25.979-62.313 71.874-62.313 108.547v.003h.043c0 39.518 31.483 69.551 69.955 69.551 10.758.001 20.946-2.414 30.049-6.725z" fill="#7ce3ff"/><path d="m135.247 82.405c-31.742 52.998-22.893 127.309 21.378 170.396 23.604-11.177 39.909-35.11 39.909-62.828h.043c.001-36.984-34.905-81.063-61.33-107.568z" fill="#b9f0ff"/><path d="m317.419 140.707c-.468-.47-.936-.938-1.401-1.4l-.062-.062c-6.067-5.962-15.873-5.937-21.904.062-37.318 37.113-89.018 102.677-89.018 155.067v.004h.062c0 56.454 44.976 99.359 99.936 99.359 15.369.001 29.922-3.449 42.927-9.607z" fill="#7ce3ff"/><path d="m404.972 294.376h.062c0-52.834-49.865-115.804-87.615-153.668-24.052 34.546-49.863 81.33-49.863 123.61h.08c0 55.421 33.281 100.811 80.323 119.812 33.72-15.967 57.013-50.158 57.013-89.754z" fill="#b9f0ff"/><path d="m82 181.037c-4.142 0-7.5 3.358-7.5 7.5v10c0 4.142 3.358 7.5 7.5 7.5s7.5-3.358 7.5-7.5v-10c0-4.142-3.358-7.5-7.5-7.5z"/><path d="m177.5 198.537v-10c0-4.142-3.358-7.5-7.5-7.5s-7.5 3.358-7.5 7.5v10c0 4.142 3.358 7.5 7.5 7.5s7.5-3.358 7.5-7.5z"/><path d="m126.5 216.037c9.687 0 18.623-5.599 22.766-14.265 1.787-3.737.206-8.215-3.531-10.001-3.737-1.789-8.215-.206-10.001 3.531-1.666 3.484-5.291 5.735-9.234 5.735s-7.568-2.251-9.234-5.735c-1.787-3.737-6.266-5.317-10.001-3.531-3.737 1.787-5.318 6.265-3.531 10.001 4.143 8.666 13.079 14.265 22.766 14.265z"/><path d="m234.5 297.042v10c0 4.142 3.358 7.5 7.5 7.5s7.5-3.358 7.5-7.5v-10c0-4.142-3.358-7.5-7.5-7.5s-7.5 3.358-7.5 7.5z"/><path d="m377.5 307.042v-10c0-4.142-3.358-7.5-7.5-7.5s-7.5 3.358-7.5 7.5v10c0 4.142 3.358 7.5 7.5 7.5s7.5-3.358 7.5-7.5z"/><path d="m315.734 306.807c-1.666 3.484-5.291 5.735-9.234 5.735s-7.568-2.251-9.234-5.735c-1.787-3.737-6.266-5.317-10.001-3.531-3.737 1.787-5.318 6.265-3.531 10.001 4.144 8.666 13.08 14.265 22.766 14.265s18.623-5.599 22.766-14.265c1.787-3.737.206-8.215-3.531-10.001-3.737-1.789-8.214-.206-10.001 3.531z"/><path d="m353.938 381.368c-1.739-3.761-6.197-5.397-9.955-3.66-12.238 5.659-25.343 8.528-38.951 8.528-51.834 0-92.437-40.349-92.437-91.858 0-50.401 50.793-113.998 86.745-149.753 3.068-3.052 8.161-3.174 11.38-.01 36.019 36.019 86.211 97.981 86.808 148.839-.259 2.166 1.997 39.821-30.468 69.033-3.079 2.771-3.329 7.513-.559 10.592s7.512 3.328 10.592.559c23.316-20.979 35.44-50.441 35.44-79.262 0-56.311-51.511-120.671-91.32-160.48-8.991-8.833-23.483-8.824-32.451.094-13.195 13.123-38.478 40.069-59.537 73.089-21.029 32.972-31.691 62.342-31.691 87.3 0 59.491 47.365 106.858 107.498 106.858 15.798 0 31.021-3.335 45.246-9.913 3.76-1.739 5.399-6.197 3.66-9.956z"/><path d="m133.815 350.524c-5.35-5.259-13.969-5.255-19.309.057-8.872 8.823-37.818 39.757-37.818 67.346 0 .222.01.441.028.658.343 26.177 21.07 46.585 47.471 46.585 25.955 0 47.112-20.835 47.472-46.58.02-.219.029-.44.029-.664 0-23.555-21.12-51.058-37.873-67.402zm22.849 67.402c0 17.779-14.569 32.244-32.477 32.244-18.21 0-32.475-14.163-32.475-32.243 0-.179-.007-.356-.019-.533.354-16.96 17.454-40.089 32.494-55.279 8.028 8.104 32.087 34.146 32.495 55.271-.011.177-.018.358-.018.54z"/><path d="m384.184 397.354c-5.35-5.259-13.97-5.255-19.31.057-8.871 8.823-37.817 39.756-37.817 67.346 0 26.358 20.778 47.243 47.499 47.243 26.372 0 47.501-21.426 47.501-47.244 0-23.836-20.996-50.524-37.873-67.402zm22.847 67.402c0 17.779-14.568 32.244-32.476 32.244-18.21 0-32.475-14.163-32.475-32.243 0-18.304 19.503-42.712 32.475-55.813 13.197 13.32 32.476 36.958 32.476 55.812z"/><path d="m204.078 189.973c0-39.859-36.201-85.755-64.598-113.939-7.168-7.047-18.729-7.041-25.88.074-31.192 31.022-64.523 77.226-64.523 113.867 0 19.642 7.329 39.1 21.732 53.835 2.896 2.964 7.646 3.017 10.605.121 2.963-2.896 3.017-7.644.121-10.605-18.366-18.79-17.117-40.82-17.453-44.105.5-32.001 32.587-75.119 60.097-102.479 1.323-1.317 3.495-1.279 4.762-.034 24.882 24.857 60.093 68.09 60.093 103.266 0 43.27-43.84 73.689-85.293 57.89-3.867-1.474-8.204.464-9.679 4.337-1.476 3.87.466 8.204 4.337 9.679 51.502 19.632 105.679-18.477 105.679-71.907z"/><path d="m462.923 87.293c0-38.5-45.337-81.139-46.004-82.139-3.202-3.197-6.639-5.154-11.496-5.154-4.071 0-7.899 1.576-10.78 4.439-10.96 10.9-46.721 49.089-46.721 82.854 0 .247.012.491.036.732.381 31.713 25.484 56.447 57.464 56.447 31.982 0 57.059-25.807 57.465-56.438.023-.244.036-.491.036-.741zm-15.031 0c0 22.654-18.47 42.18-42.47 42.18-23.814 0-42.469-18.527-42.469-42.18 0-.208-.009-.414-.025-.619.551-29.564 41.102-71.63 42.667-71.63 17.14 17.14 41.902 47.265 42.322 71.622-.017.207-.025.416-.025.627z"/><path d="m232.998 105.631c15.301 0 27.5-12.444 27.5-27.372 0-13.23-10.716-27.009-20.06-36.377-4.139-4.064-10.789-4.063-14.926.045-8.999 8.95-20.836 24.754-19.997 36.844.264 15.103 12.241 26.86 27.483 26.86zm.006-49.832c4.952 5.436 12.482 15.34 12.482 22.46 0 6.822-5.603 12.372-12.488 12.372-6.01 0-12.096-4.019-12.494-12.692.193-5.333 5.15-14.014 12.5-22.14z"/><path d="m35.001 279.691c-.017-.016-.045-.044-.061-.06-4.142-4.067-10.798-4.061-14.926.045-4.695 4.671-20.014 21.091-20.014 36.334 0 15.325 12.079 27.371 27.5 27.371 14.983 0 27.205-11.999 27.482-26.855.012-.171.018-.343.018-.517 0-14.148-12.351-28.646-19.72-36.037zm4.986 36.318c0 6.822-5.602 12.372-12.487 12.372-7.002 0-12.487-5.434-12.487-12.371 0-.107-.002-.215-.007-.321.193-5.332 5.148-14.012 12.5-22.139 7.527 8.264 12.303 16.655 12.488 22.131-.005.108-.007.217-.007.328z"/><path d="m492.28 167.554c-4.81-4.789-11.413-4.132-15.265-.294-4.695 4.669-20.015 21.088-20.015 36.332 0 15.183 11.942 27.371 27.5 27.371 15.187 0 27.5-12.327 27.5-27.371 0-17.61-19.053-35.038-19.72-36.038zm-20.274 35.729c.186-5.331 5.142-14.017 12.5-22.151 7.528 8.264 12.303 16.655 12.488 22.132-.76 16.882-24.342 16.975-24.988.019z"/></svg>