<svg id="Layer_1" enable-background="new 0 0 512 512" height="512" viewBox="0 0 512 512" width="512" xmlns="http://www.w3.org/2000/svg"><path d="m7.5 211.225v209.551c0 33.137 26.863 60 60 60h377c33.137 0 60-26.863 60-60v-209.551l-248.5-60z" fill="#efedee"/><path d="m127.5 420.775v-209.55h-120v209.551c0 33.137 26.863 60 60 60h120c-33.137-.001-60-26.864-60-60.001z" fill="#d4d4d5"/><path d="m444.5 91.225h-377c-33.137 0-60 26.863-60 60v60h497v-60c0-33.137-26.863-60-60-60z" fill="#ff8e9e"/><path d="m67.5 91.225c-33.137 0-60 26.863-60 60v60h120c0-66.274 53.726-120 120-120-7.011 0-175.409 0-180 0z" fill="#ea5b70"/><path d="m265.061 245.1 13.664 12.357 18.012-3.87c7.531-1.618 15.063 2.731 17.427 10.061l5.654 17.534 17.534 5.654c7.331 2.364 11.679 9.896 10.061 17.427l-3.87 18.012 12.357 13.664c5.167 5.713 5.167 14.41 0 20.123l-12.357 13.664 3.87 18.012c1.618 7.531-2.731 15.063-10.061 17.427l-17.534 5.654-5.654 17.534c-2.364 7.331-9.896 11.679-17.427 10.061l-18.012-3.87-13.664 12.357c-5.713 5.167-14.41 5.167-20.123 0l-13.664-12.357-18.012 3.87c-7.531 1.618-15.063-2.731-17.427-10.061l-5.654-17.534-17.534-5.654c-7.331-2.364-11.679-9.896-10.061-17.427l3.87-18.012-12.356-13.665c-5.167-5.713-5.167-14.41 0-20.123l12.357-13.664-3.87-18.012c-1.618-7.531 2.731-15.063 10.061-17.427l17.534-5.654 5.654-17.534c2.364-7.331 9.896-11.679 17.427-10.061l18.012 3.87 13.664-12.357c5.712-5.166 14.41-5.166 20.122.001z" fill="#ffb357"/><circle cx="255" cy="346" fill="#ffce71" r="69"/><path d="m157.5 31.225c-16.568 0-30 13.432-30 30v90c0 7.37 2.659 14.113 7.068 19.335l52.932-63.277v-46.058c0-16.569-13.432-30-30-30z" fill="#d4d4d5"/><path d="m134.568 170.56c5.503 6.519 13.734 10.665 22.932 10.665 16.568 0 30-13.432 30-30v-43.942c-24.34 14.08-43.275 36.462-52.932 63.277z" fill="#efedee"/><path d="m354.5 181.225c-16.568 0-30-13.432-30-30v-90c0-16.568 13.432-30 30-30s30 13.432 30 30v90c0 16.568-13.432 30-30 30z" fill="#d4d4d5"/><path d="m361.463 330.907-9.78-10.813 3.063-14.256c2.437-11.342-4.052-22.58-15.093-26.141l-13.876-4.476-4.476-13.876c-3.561-11.042-14.805-17.533-26.141-15.093l-14.256 3.063-10.813-9.78c-8.604-7.781-21.58-7.781-30.186 0l-10.813 9.78-14.256-3.063c-11.341-2.438-22.58 4.051-26.141 15.093l-4.476 13.876-13.876 4.476c-11.041 3.561-17.529 14.799-15.093 26.141l3.063 14.256-9.78 10.813c-7.782 8.604-7.782 21.581 0 30.186l9.78 10.813-3.063 14.256c-2.437 11.342 4.052 22.58 15.093 26.141l13.876 4.476 4.476 13.876c3.56 11.04 14.8 17.528 26.141 15.093l14.256-3.063 10.813 9.78c4.303 3.892 9.697 5.837 15.093 5.836 5.395 0 10.791-1.945 15.093-5.836l10.813-9.78 14.256 3.063c11.341 2.435 22.58-4.052 26.141-15.093l4.476-13.876 13.876-4.476c11.041-3.561 17.529-14.799 15.093-26.141l-3.063-14.256 9.78-10.813c7.782-8.605 7.782-21.581 0-30.186zm-11.125 20.123-12.357 13.663c-1.618 1.79-2.277 4.248-1.771 6.606l3.87 18.012c.813 3.781-1.35 7.527-5.03 8.715l-17.533 5.654c-2.296.74-4.096 2.54-4.836 4.836l-5.654 17.533c-1.188 3.681-4.929 5.849-8.715 5.03l-18.012-3.87c-2.357-.506-4.816.153-6.606 1.771l-13.663 12.357c-2.867 2.594-7.193 2.594-10.061 0l-13.663-12.357c-1.842-1.666-4.32-2.262-6.606-1.771l-18.012 3.87c-3.782.818-7.527-1.351-8.715-5.03l-5.654-17.533c-.74-2.296-2.54-4.096-4.836-4.836l-17.533-5.654c-3.681-1.188-5.843-4.934-5.03-8.715l3.87-18.012c.507-2.358-.152-4.816-1.771-6.606l-12.357-13.663c-2.594-2.867-2.594-7.193 0-10.061l12.357-13.663c1.618-1.79 2.277-4.248 1.771-6.606l-3.87-18.012c-.813-3.781 1.35-7.527 5.03-8.715l17.533-5.654c2.296-.74 4.096-2.54 4.836-4.836l5.654-17.533c1.188-3.681 4.933-5.847 8.715-5.03l18.012 3.87c2.355.506 4.817-.153 6.606-1.771l13.663-12.357c2.867-2.594 7.193-2.594 10.061 0l13.663 12.357c1.79 1.619 4.25 2.277 6.606 1.771l18.012-3.87c3.786-.816 7.527 1.351 8.715 5.03l5.654 17.533c.74 2.296 2.54 4.096 4.836 4.836l17.533 5.654c3.681 1.188 5.843 4.934 5.03 8.715l-3.87 18.012c-.507 2.358.152 4.816 1.771 6.606l12.357 13.663c2.594 2.868 2.594 7.194 0 10.061z"/><path d="m255 269.5c-15.18 0-29.851 4.438-42.427 12.835-3.445 2.3-4.373 6.957-2.073 10.401 2.298 3.444 6.956 4.372 10.401 2.073 10.104-6.744 21.895-10.31 34.099-10.31 33.911 0 61.5 27.589 61.5 61.5s-27.589 61.5-61.5 61.5-61.5-27.589-61.5-61.501c-.001-11.35 3.113-22.436 9.007-32.061 2.163-3.532 1.053-8.149-2.48-10.313-3.529-2.16-8.148-1.054-10.313 2.48-7.337 11.986-11.215 25.781-11.214 39.896 0 42.183 34.317 76.5 76.5 76.5s76.5-34.317 76.5-76.5-34.317-76.5-76.5-76.5z"/><path d="m221 355.892c2.071-.001 3.946-.84 5.303-2.197s2.197-3.232 2.197-5.304v-10c0-4.143-3.358-7.5-7.5-7.5-4.143.001-7.499 3.358-7.5 7.501v10c0 4.141 3.358 7.499 7.5 7.5z"/><path d="m294.303 353.694c1.357-1.357 2.197-3.232 2.197-5.303v-10c0-4.143-3.358-7.501-7.5-7.501-4.143.001-7.5 3.358-7.5 7.5v10c0 4.143 3.358 7.5 7.5 7.501 2.071 0 3.946-.839 5.303-2.197z"/><path d="m255.499 361.109h.004c7.994 0 15.359-4.6 18.764-11.718 1.788-3.736.208-8.215-3.529-10.002-3.736-1.791-8.215-.207-10.002 3.529-.913 1.908-3.016 3.19-5.234 3.19 0 0 0 0-.001 0-2.218 0-4.321-1.281-5.233-3.188-1.788-3.737-6.266-5.317-10.001-3.531-3.737 1.787-5.318 6.265-3.532 10.002 3.402 7.119 10.768 11.718 18.764 11.718z"/><path d="m444.5 83.725h-52.5v-22.5c0-20.678-16.822-37.5-37.5-37.5s-37.5 16.822-37.5 37.5v22.5h-122v-22.5c0-20.678-16.822-37.5-37.5-37.5s-37.5 16.822-37.5 37.5v22.5h-52.5c-37.22 0-67.5 30.28-67.5 67.5v269.551c0 37.22 30.28 67.5 67.5 67.5h377c11.492 0 22.843-2.941 32.825-8.507 3.617-2.017 4.915-6.585 2.898-10.203-2.017-3.617-6.584-4.917-10.203-2.898-7.754 4.323-16.579 6.608-25.521 6.608h-377c-28.948 0-52.5-23.552-52.5-52.5v-202.051h48.593c4.143 0 7.5-3.357 7.5-7.5s-3.357-7.5-7.5-7.5h-48.592v-52.5c0-28.948 23.552-52.5 52.5-52.5h52.5v52.5c0 20.678 16.822 37.5 37.5 37.5s37.5-16.822 37.5-37.5v-52.5h122v52.5c0 20.678 16.822 37.5 37.5 37.5s37.5-16.822 37.5-37.5v-52.5h52.5c28.948 0 52.5 23.552 52.5 52.5v52.5h-403.296c-4.143 0-7.5 3.357-7.5 7.5s3.357 7.5 7.5 7.5h403.296v202.051c0 9.964-2.802 19.657-8.102 28.031-2.215 3.5-1.173 8.133 2.327 10.349 3.499 2.214 8.133 1.174 10.349-2.327 6.82-10.777 10.426-23.244 10.426-36.053 0-6.945 0-262.325 0-269.551 0-37.22-30.28-67.5-67.5-67.5zm-264.5 67.5c0 12.406-10.094 22.5-22.5 22.5s-22.5-10.094-22.5-22.5v-90c0-12.406 10.094-22.5 22.5-22.5s22.5 10.094 22.5 22.5zm197 0c0 12.406-10.094 22.5-22.5 22.5s-22.5-10.094-22.5-22.5v-90c0-12.406 10.094-22.5 22.5-22.5s22.5 10.094 22.5 22.5z"/></svg>