<svg id="Layer_1" enable-background="new 0 0 512 512" height="512" viewBox="0 0 512 512" width="512" xmlns="http://www.w3.org/2000/svg"><path d="m255.156 7.512c-16.34.448-29.156 14.266-29.156 30.612v451.376c0 8.284 6.716 15 15 15h30c8.284 0 15-6.716 15-15v-452c0-16.849-13.89-30.454-30.844-29.988z" fill="#d4d4d5"/><path d="m7.522 280.053c-.48 7.353 6.959 12.657 13.78 9.867 41.366-16.919 87.463-17.925 129.397-3.035 13.988 4.967 29.824 5.255 44.57.023 19.624-6.963 40.177-10.443 60.731-10.443v-228.965c-131.995 0-240.004 102.7-248.478 232.553z" fill="#ea5b70"/><path d="m256 47.5v228.965c20.553 0 41.107 3.48 60.731 10.443 13.761 4.882 29.611 5.288 44.57-.023 41.934-14.89 88.031-13.884 129.397 3.035 6.821 2.79 14.26-2.515 13.78-9.867-8.474-129.853-116.483-232.553-248.478-232.553z" fill="#ff8e9e"/><path d="m173.02 290.715c7.447.003 14.98-1.228 22.249-3.807 39.248-13.925 82.214-13.925 121.462 0 7.006 2.485 14.553 3.803 22.249 3.805-1.028-134.847-37.784-243.213-82.98-243.213s-81.953 108.368-82.98 243.215z" fill="#efedee"/><ellipse cx="155.543" cy="150.909" fill="#d34459" rx="25" ry="19.909" transform="matrix(1 .003 -.003 1 .474 -.487)"/><ellipse cx="356.457" cy="151.405" fill="#ea5b70" rx="25" ry="19.909" transform="matrix(-1 -.003 .003 -1 712.438 303.925)"/><path d="m511.958 279.564c-4.235-64.898-32.741-125.253-80.265-169.946-38.529-36.234-86.61-59.319-138.196-66.881v-5.237c0-10.211-4.031-19.757-11.351-26.879-7.533-7.331-17.216-10.621-26.147-10.621-19.428 0-37.5 15.337-37.5 38.124v4.613c-51.585 7.562-99.667 30.646-138.196 66.881-47.523 44.694-76.029 105.048-80.264 169.951-.841 12.868 12.145 22.191 24.103 17.292 39.915-16.325 84.056-17.109 124.047-2.909 15.952 5.665 33.563 5.708 49.586.024 6.802-2.413 13.72-4.389 20.723-5.934v201.458c0 12.406 10.094 22.5 22.5 22.5h30c12.406 0 22.5-10.094 22.5-22.5v-201.457c7.004 1.545 13.922 3.521 20.724 5.934 15.914 5.645 33.505 5.686 49.585-.024 14.43-5.123 29.489-8.321 44.76-9.506 4.13-.32 7.218-3.928 6.897-8.058s-3.932-7.235-8.058-6.897c-16.588 1.286-32.946 4.761-48.62 10.326-12.564 4.461-26.616 4.611-39.551.022-20.339-7.216-41.617-10.875-63.242-10.875-21.62 0-42.895 3.659-63.234 10.875-3.94 1.397-8 2.364-12.134 2.896 1.114-61.489 9.721-118.679 24.412-161.776 6.858-20.166 20.039-51.059 38.339-62.12 8.16-4.919 16.095-5.114 24.25-.57 25.91 14.305 42.256 68.068 48.99 96.78 7.359 31.39 12.22 68.05 14.04 106.03.199 4.119 3.71 7.33 7.85 7.13 4.126-.208 7.338-3.703 7.13-7.851-2.815-58.29-16.185-159.748-55.712-202.96 111.341 15.798 199.559 108.137 207.066 223.169.125 1.716-1.693 3.129-3.459 2.41-17.549-7.178-36.027-11.661-54.921-13.324-4.144-.381-7.766 2.686-8.129 6.813s2.686 7.766 6.812 8.129c17.394 1.532 34.405 5.658 50.559 12.266 12.075 4.938 24.975-4.566 24.106-17.298zm-278.459 5.854c7.433-.966 14.941-1.453 22.496-1.453 7.558 0 15.069.488 22.504 1.453v204.082c0 4.136-3.364 7.5-7.5 7.5h-30c-4.136 0-7.5-3.364-7.5-7.5zm-26.56-206.488c-30.096 54.079-40.191 141.679-41.316 203.827-4.233-.529-8.387-1.51-12.414-2.939-43.379-15.403-91.331-14.597-134.745 3.161-1.72.701-3.575-.63-3.456-2.438 7.505-115 95.712-207.332 207.043-223.139-5.258 5.743-10.268 12.879-15.112 21.528zm71.559-37.938c-15.038-1.311-29.699-1.333-44.999 0v-2.868c0-12.415 9.807-22.784 21.861-23.115 6.147-.172 11.937 2.092 16.327 6.363 4.393 4.273 6.811 10.001 6.811 16.128z"/><path d="m172 138c4.142 0 7.5-3.358 7.5-7.5v-10c0-4.143-3.358-7.5-7.5-7.5s-7.5 3.357-7.5 7.5v10c0 4.142 3.358 7.5 7.5 7.5z"/><path d="m332.5 120.5v10c0 4.142 3.358 7.5 7.5 7.5s7.5-3.358 7.5-7.5v-10c0-4.143-3.358-7.5-7.5-7.5s-7.5 3.357-7.5 7.5z"/><path d="m265.734 130.265c-1.666 3.483-5.291 5.735-9.234 5.735s-7.568-2.252-9.234-5.735c-1.787-3.737-6.266-5.317-10.001-3.531-3.737 1.787-5.318 6.265-3.531 10.002 4.143 8.664 13.079 14.264 22.766 14.264s18.623-5.6 22.766-14.265c1.787-3.737.206-8.215-3.531-10.002-3.737-1.788-8.214-.205-10.001 3.532z"/></svg>