<svg id="Layer_1" enable-background="new 0 0 512 512" height="512" viewBox="0 0 512 512" width="512" xmlns="http://www.w3.org/2000/svg"><path d="m474.5 48.24c-7.957 0-15.587 3.161-21.213 8.787l-283.279 283.279 42.426 42.426 283.279-283.279c5.626-5.626 8.787-13.257 8.787-21.213 0-16.569-13.431-30-30-30z" fill="#d4d4d5"/><path d="m92.277 109.786c-5.527 4.85-4.021 13.842 2.761 16.686 41.129 17.251 74.366 49.07 93.45 89.167 6.365 13.375 17.337 24.754 31.434 31.467l211.793-126.083c-93.141-93.141-241.828-96.887-339.438-11.237z" fill="#676f72"/><path d="m431.716 121.024-126.083 211.793c6.265 13.155 17.164 24.627 31.467 31.434 40.097 19.084 71.916 52.322 89.167 93.45 2.844 6.782 11.836 8.288 16.687 2.761 85.65-97.609 81.904-246.296-11.238-339.438z" fill="#9ea2a3"/><path d="m201.537 234.094c5.253 5.257 11.437 9.704 18.386 13.014 37.522 17.869 67.841 48.188 85.71 85.71 3.19 6.697 7.586 12.953 13.015 18.385 94.43-95.88 144.961-198.286 113.069-230.178-31.893-31.893-134.3 18.639-230.18 113.069z" fill="#82888b"/><path d="m175.008 335.305c-5.858-5.858-15.355-5.858-21.213 0l-30.812 30.812c-4.855 4.855-10.735 5.531-16.267 3.237-6.612-2.739-9.261-8.308-9.241-13.634h-.007v94.149l27.082 10.081c23.299-2.644 45.005-13.127 62.071-30.193l30.813-30.813c5.858-5.858 5.858-15.355 0-21.213z" fill="#676f72"/><path d="m97.468 355.72h.007c.005-1.337.17-2.659.493-3.916 4.015-15.67-.44-32.354-11.627-43.542-8.519-8.519-19.797-13.21-31.758-13.21-20.393 0-38.291 13.683-43.525 33.272-2.36 8.832-3.558 17.996-3.558 27.238 0 21.361 6.22 41.787 17.987 59.069 11.474 16.851 27.652 29.946 46.786 37.872 13.004 5.386 26.645 8.117 40.543 8.117 3.946 0 7.861-.23 11.733-.67-17.34-17.34-27.082-40.858-27.082-65.38v-38.85z" fill="#4c5659"/><ellipse cx="285.131" cy="125.541" fill="#ff8e9e" rx="25" ry="19.909" transform="matrix(.705 .709 -.709 .705 173.194 -165.2)"/><ellipse cx="426.848" cy="267.959" fill="#ff8e9e" rx="25" ry="19.909" transform="matrix(-.705 -.709 .709 -.705 537.661 759.612)"/><path d="m461.52 144.175 39.417-39.418c7.083-7.082 10.984-16.499 10.984-26.517 0-20.678-16.822-37.5-37.5-37.5-10.017 0-19.434 3.9-26.517 10.983l-39.418 39.418c-96.396-71.74-230.435-66.668-321.235 13.007-9.698 8.512-7.077 24.255 4.807 29.24 39.35 16.505 71.132 46.804 89.512 85.331 4.824 11.34 14.602 22.007 24.293 28.856 5.437 3.837 16.058 8.263 29.459 16.731l-61.314 61.313c-8.472-4.051-18.717-2.497-25.594 4.382-33.639 33.637-32.101 33.091-35.987 33.091-4.057 0-8.752-3.667-7.271-9.427 8.74-34.12-16.879-66.114-50.65-66.114-23.783 0-44.661 15.97-50.771 38.836-2.531 9.466-3.735 19.281-3.735 29.176 0 22.874 6.592 44.759 19.21 63.29 21.006 30.85 55.88 49.268 93.288 49.268 29.849 0 58.028-11.741 79.349-33.06l30.813-30.813c6.871-6.871 8.436-17.112 4.381-25.594l61.287-61.287c12.098 19.069 12.012 26.21 24.937 39.136 0 0 .001.002.002.002 6.006 6.008 12.914 10.892 20.532 14.518 38.593 18.368 68.948 50.182 85.475 89.579 4.98 11.877 20.722 14.512 29.24 4.807 79.676-90.801 84.746-224.839 13.006-321.234zm-3.007-81.845c4.249-4.25 9.899-6.59 15.909-6.59 12.406 0 22.5 10.093 22.5 22.5 0 6.01-2.341 11.66-6.591 15.91l-38.181 38.18c-4.829-5.75-9.918-11.318-15.209-16.609-5.292-5.292-10.86-10.382-16.61-15.21zm-360.652 57.226c-1.692-.709-2.069-2.944-.716-4.133 85.846-75.325 212.742-79.818 303.564-11.369-23.667 1.045-54.762 12.768-90.265 34.078-35.433 21.268-72.902 50.668-108.74 85.263-4.269-5.261-5.918-9.704-6.521-10.978-19.955-41.928-54.519-74.907-97.322-92.861zm119.495 247.569-6.063-6.063c-2.929-2.929-7.678-2.929-10.606 0-2.93 2.929-2.93 7.677-.001 10.606l11.366 11.366c2.93 2.933 2.932 7.675 0 10.607l-30.812 30.813c-18.487 18.486-42.9 28.667-68.742 28.667-32.44 0-62.68-15.966-80.89-42.71-10.916-16.032-16.687-34.998-16.687-54.848 0-8.587 1.111-17.1 3.304-25.302 4.358-16.314 19.277-27.708 36.279-27.708 23.951 0 42.443 22.71 36.121 47.386-5.793 22.521 21.571 37.494 37.581 21.482l30.813-30.812c2.931-2.931 7.674-2.931 10.606 0l9.847 9.846c2.928 2.93 7.677 2.929 10.606 0s2.929-7.678-.001-10.606l-4.542-4.543 62.315-62.314c10.338 7.859 21.34 18.124 31.778 31.859zm219.883 88.391c-1.188 1.353-3.424.977-4.134-.715-17.954-42.804-50.933-77.367-92.861-97.322-3.845-1.83-7.463-4.067-10.818-6.679 10.016-10.385 19.691-21.003 28.824-31.651 2.696-3.144 2.333-7.879-.811-10.576-3.147-2.698-7.881-2.333-10.576.81-8.88 10.354-18.282 20.684-28.023 30.792-2.414-3.131-4.505-6.494-6.245-10.052-34.299-70.321-87.739-86.757-100.11-96.301 71.534-68.946 147.906-114.854 191.641-114.854 9.854 0 17.327 2.476 22.209 7.358 4.883 4.882 7.358 12.355 7.358 22.21-.001 31.848-25.432 83.4-68.028 137.903-2.551 3.263-1.973 7.977 1.291 10.527 3.263 2.55 7.978 1.973 10.527-1.291 43.826-56.076 69.551-108.144 71.132-143.715 68.442 90.823 63.947 217.715-11.376 303.556z"/><path d="m316.502 128.05 7.071-7.071c2.929-2.929 2.929-7.678 0-10.607s-7.678-2.929-10.606 0l-7.071 7.071c-2.929 2.929-2.929 7.678 0 10.607 2.929 2.928 7.678 2.928 10.606 0z"/><path d="m442.368 229.166c-2.929-2.929-7.678-2.929-10.606 0l-7.071 7.071c-2.929 2.929-2.929 7.678 0 10.607s7.678 2.929 10.606 0l7.071-7.071c2.928-2.93 2.928-7.678 0-10.607z"/><path d="m382.639 203.004c3.906-1.379 5.955-5.663 4.576-9.569-1.378-3.907-5.664-5.954-9.569-4.576-3.642 1.285-7.796.315-10.585-2.474-2.788-2.788-3.759-6.943-2.474-10.585 1.379-3.906-.67-8.19-4.575-9.569-3.906-1.379-8.19.669-9.569 4.576-3.198 9.057-.838 19.335 6.011 26.185 6.85 6.85 17.128 9.209 26.185 6.012z"/></svg>