<svg id="Layer_1" enable-background="new 0 0 512 512" height="512" viewBox="0 0 512 512" width="512" xmlns="http://www.w3.org/2000/svg"><path d="m251 260.749c-3.978 0-7.794 1.58-10.607 4.393l-151.639 151.64 21.213 21.213 151.64-151.639c2.813-2.813 4.393-6.628 4.393-10.607 0-8.284-6.716-15-15-15z" fill="#d4d4d5"/><path d="m91.254 414.282c-2.929-2.929-7.678-2.929-10.607 0l-15.406 15.406c-2.428 2.428-5.367 2.765-8.133 1.619-3.306-1.37-4.63-4.154-4.62-6.817h-.003v47.075l13.541 5.041c11.65-1.322 22.503-6.564 31.036-15.097l15.406-15.406c2.929-2.929 2.929-7.678 0-10.607z" fill="#676f72"/><path d="m52.484 424.489h.003c.003-.668.085-1.329.246-1.958 2.007-7.835-.22-16.177-5.813-21.771-4.259-4.26-9.898-6.605-15.879-6.605-10.196 0-19.146 6.841-21.763 16.636-1.18 4.416-1.779 8.998-1.779 13.619 0 10.681 3.11 20.894 8.994 29.534 5.737 8.425 13.826 14.973 23.393 18.936 6.502 2.693 13.322 4.059 20.271 4.059 1.973 0 3.931-.115 5.867-.335-8.67-8.67-13.541-20.429-13.541-32.69v-19.425z" fill="#4c5659"/><path d="m496.153 305.318c11.799-8.371 10.941-26.34-1.635-33.491-25.516-14.511-46.075-36.555-58.759-63.206-5.054-10.62-13.767-19.655-24.96-24.986l-168.172 100.115c69.033 69.032 176.49 76.222 253.526 21.568z" fill="#676f72"/><path d="m242.627 283.75 100.115-168.172c-4.975-10.446-13.629-19.555-24.986-24.96-26.651-12.684-48.696-33.242-63.206-58.759-7.152-12.576-25.12-13.434-33.491-1.635-54.654 77.036-47.465 184.493 21.568 253.526z" fill="#9ea2a3"/><path d="m425.399 193.968c-4.171-4.174-9.082-7.705-14.599-10.333-29.794-14.189-53.868-38.263-68.057-68.057-2.533-5.318-6.024-10.285-10.334-14.598-74.981 76.133-115.105 157.447-89.781 182.771 25.323 25.323 106.638-14.802 182.771-89.783z" fill="#82888b"/><path d="m511.965 287.709c-.47-9.402-5.605-17.776-13.739-22.401-15.508-8.819-34.88-27.682-50.558-49.229-2.438-3.35-7.128-4.089-10.478-1.652-3.349 2.437-4.089 7.127-1.651 10.477 16.851 23.16 38.03 43.638 55.271 53.443 3.707 2.108 5.957 5.793 6.173 10.111.218 4.342-1.667 8.258-5.171 10.744-66.636 47.275-155.054 46.331-220.368-.757 37.698-3.994 95.722-38.819 150.811-91.012 3.497-3.313 5.503-7.974 5.503-12.786 0-9.373-5.861-14.034-13.733-17.784-28.546-13.595-50.339-35.476-64.775-65.041-5.883-12.028-15.839-22.063-28.271-27.977-25.328-12.055-46.044-31.313-59.909-55.695-9.897-17.401-34.59-18.526-46.128-2.267-24.601 34.676-37.604 75.612-37.604 118.382 0 46.729 15.983 91.975 45.124 128.202l-132.637 132.637c-5.275-1.403-10.713.104-14.48 3.874l-15.321 15.32c4.924-19.461-9.753-37.643-28.982-37.643-13.587 0-25.515 9.129-29.007 22.199-1.35 5.048-2.035 10.281-2.035 15.556 0 12.194 3.56 23.867 10.295 33.756 20.529 30.151 64.634 36.08 92.069 8.645l15.405-15.405c3.757-3.756 5.281-9.185 3.875-14.481l132.679-132.679c71.586 57.225 172.303 59.592 246.169 7.189 7.655-5.43 11.945-14.3 11.473-23.726zm-269.044 6.726-130.454 130.453-10.606-10.606 130.44-130.44c3.433 3.686 6.775 7.033 10.62 10.593zm-15.745-259.871c5.203-7.336 16.411-6.81 20.854 1.002 26.675 46.907 65.151 59.972 73.431 65.924-19.283 20.098-36.393 40.679-50.913 61.272-2.388 3.385-1.578 8.064 1.807 10.452 3.387 2.388 8.066 1.577 10.451-1.807 14.029-19.896 30.568-39.809 49.233-59.285 1.225 1.714 2.509 3.783 3.733 6.287 26.284 53.831 66.813 68.65 75.891 74.22 1.367.838 1.456 2.796.275 3.916-77.901 73.805-169.398 115.869-169.398 65.358.001-16.068 8.61-39.451 24.243-65.843 2.11-3.564.933-8.165-2.631-10.275-3.562-2.109-8.164-.934-10.275 2.631-15.195 25.654-24.062 48.441-25.947 66.492-23.052-32.082-35.593-70.78-35.593-110.641 0-39.644 12.047-77.578 34.839-109.703zm-135.419 421.64c-32.23 32.23-87.204 1.279-75.231-43.477 1.741-6.519 7.711-11.072 14.516-11.072 8.235 0 14.936 6.753 14.936 15.055 0 3.481-1.003 4.393-1.003 7.835 0 13.128 16.072 19.943 25.571 10.445l15.398-15.412s21.138 21.138 21.22 21.22z"/><path d="m128.398 217.514c-2.929 2.929-2.929 7.677 0 10.607 2.929 2.929 7.678 2.929 10.606 0 4.081-4.081 10.721-4.08 14.801 0s4.081 10.72 0 14.801l-45.938 45.938c-2.929 2.929-2.93 7.677 0 10.607 2.929 2.929 7.678 2.929 10.606 0l45.938-45.938c9.929-9.929 9.929-26.085 0-36.014s-26.083-9.931-36.013-.001z"/><path d="m216.669 410.682-.304.305c-2.929 2.929-2.929 7.677 0 10.607 2.929 2.929 7.678 2.929 10.606 0l.305-.305c2.929-2.929 2.929-7.677 0-10.607-2.929-2.929-7.678-2.929-10.607 0z"/><path d="m289.831 388.335c-2.929 2.929-2.929 7.677 0 10.607 2.93 2.929 7.678 2.929 10.607 0 9.929-9.929 9.929-26.085 0-36.014-9.93-9.929-26.085-9.929-36.015 0l-26.542 26.541c-2.929 2.929-2.929 7.677 0 10.607s7.678 2.929 10.607 0l26.541-26.541c4.081-4.081 10.721-4.081 14.801 0 4.082 4.079 4.082 10.719.001 14.8z"/><path d="m43.633 374.306c2.928-2.927 2.927-7.693.007-10.614-2.927-2.927-7.686-2.921-10.613.007-2.92 2.92-2.92 7.672.007 10.6 2.919 2.921 7.679 2.927 10.599.007z"/><path d="m64.853 353.086 30.992-30.992c2.92-2.921 2.913-7.679-.007-10.6-2.927-2.927-7.679-2.928-10.6-.007l-30.992 30.992c-2.927 2.927-2.927 7.679 0 10.607 2.921 2.92 7.68 2.927 10.607 0z"/><path d="m59.79 106.667c4.135 0 7.5-3.361 7.5-7.5 0-6.608-8.039-10.049-12.811-5.31-4.723 4.756-1.317 12.81 5.311 12.81z"/><path d="m86.3 83.257 28.79-28.79c2.942-2.942 2.932-7.678 0-10.61-2.948-2.927-7.672-2.918-10.61 0l-28.78 28.79c-2.931 2.92-2.931 7.68 0 10.61 2.89 2.891 7.652 2.947 10.6 0z"/><path d="m92.029 181.167c-2.92 2.92-2.92 7.68 0 10.61 2.949 2.926 7.671 2.919 10.61 0 2.92-2.93 2.92-7.69 0-10.61-2.892-2.894-7.632-2.977-10.61 0z"/><path d="m123.85 170.556 18.79-18.78c2.92-2.93 2.92-7.69 0-10.61-1.42-1.42-3.3-2.2-5.31-2.2-2 0-3.88.78-5.301 2.2l-18.789 18.79c-2.921 2.92-2.921 7.68 0 10.6 2.927 2.928 7.665 2.946 10.61 0z"/><path d="m41.24 207.636c4.185 0 7.5-3.405 7.5-7.5 0-4.148-3.35-7.5-7.5-7.5-4.109 0-7.5 3.314-7.5 7.5 0 4.139 3.362 7.5 7.5 7.5z"/><path d="m57.149 184.227c2.931 2.909 7.654 2.935 10.61 0l88.54-88.55c2.933-2.913 2.938-7.682 0-10.6-2.898-2.918-7.672-2.95-10.6 0l-88.551 88.54c-2.967 2.967-2.9 7.708.001 10.61z"/><path d="m265.939 484.826c-2.92 2.93-2.92 7.69 0 10.61 2.978 2.978 7.72 2.891 10.61 0 2.92-2.92 2.92-7.68 0-10.61-2.923-2.902-7.647-2.941-10.61 0z"/><path d="m375.7 375.076-88.551 88.54c-1.42 1.42-2.199 3.3-2.199 5.31 0 2 .779 3.88 2.199 5.3 1.42 1.41 3.301 2.19 5.301 2.19 2.01 0 3.89-.78 5.31-2.19l88.54-88.55c2.933-2.913 2.938-7.682 0-10.6-2.898-2.918-7.672-2.95-10.6 0z"/><path d="m455.7 375.076-38.79 38.78c-2.928 2.928-2.944 7.666 0 10.61 2.941 2.941 7.677 2.932 10.609 0l38.78-38.79c2.933-2.913 2.938-7.682 0-10.6-2.897-2.918-7.671-2.95-10.599 0z"/><path d="m401 432.877c-4.139 0-7.5 3.353-7.5 7.5 0 4.123 3.338 7.5 7.5 7.5 4.129 0 7.5-3.344 7.5-7.5 0-4.121-3.336-7.5-7.5-7.5z"/></svg>