<svg id="Layer_1" enable-background="new 0 0 512 512" height="512" viewBox="0 0 512 512" width="512" xmlns="http://www.w3.org/2000/svg"><path d="m372.176 37-20.227-20.227c-14.04-14.04-36.923-13.637-50.46.889l-176.659 189.562c-10.216 11.013-16.388 25.813-16.19 42.02.409 33.525 27.918 60.37 61.443 59.961h59.175l-127.43 156.822c-7.322 9.01-7.715 22.148-.21 31.006 8.477 10.005 23.219 11.251 33.219 3.159l141.971-114.886 66.152-324.446c2.831-13.885 15.044-23.86 29.216-23.86z" fill="#ffce71"/><path d="m360.085 188.974h-37.007c15.038-14.014 50.626-47.18 77.509-72.233 14.525-13.537 14.919-36.411.879-50.451l-29.29-29.29h-15.601c-15.913 0-31.174 6.321-42.426 17.573l-16.093 16.093c-26.216 26.216-40.944 61.773-40.944 98.849v144.247c0 25.399 6.915 50.085 19.698 71.544l118.093-95.564c12.476-10.203 20.721-25.811 20.933-43.188.38-31.17-24.58-57.199-55.751-57.58z" fill="#fce3a0"/><ellipse cx="186.97" cy="274.885" fill="#ff8e9e" rx="25.471" ry="20.283" transform="matrix(1 .003 -.003 1 .862 -.584)"/><ellipse cx="325.029" cy="275.317" fill="#ff8e9e" rx="25.471" ry="20.283" transform="matrix(-1 -.003 .003 -1 649.195 551.651)"/><path d="m192 235.542c-4.142 0-7.5 3.358-7.5 7.5v10c0 4.142 3.358 7.5 7.5 7.5s7.5-3.358 7.5-7.5v-10c0-4.142-3.358-7.5-7.5-7.5z"/><path d="m320 235.542c-4.142 0-7.5 3.358-7.5 7.5v10c0 4.142 3.358 7.5 7.5 7.5s7.5-3.358 7.5-7.5v-10c0-4.142-3.358-7.5-7.5-7.5z"/><path d="m256.5 273.542c9.687 0 18.623-5.599 22.766-14.265 1.787-3.737.206-8.215-3.531-10.001-3.737-1.789-8.215-.206-10.001 3.531-1.666 3.484-5.291 5.735-9.234 5.735s-7.568-2.251-9.234-5.735c-1.787-3.737-6.266-5.317-10.001-3.531-3.737 1.787-5.318 6.265-3.531 10.001 4.143 8.666 13.079 14.265 22.766 14.265z"/><path d="m208.99 228.17c2.071-3.587.842-8.174-2.745-10.245l-12.99-7.5c-3.587-2.072-8.174-.843-10.245 2.745-2.071 3.587-.842 8.174 2.745 10.245l12.99 7.5c1.181.682 2.471 1.006 3.743 1.006 2.592 0 5.113-1.345 6.502-3.751z"/><path d="m328.99 213.17c-2.071-3.588-6.658-4.817-10.245-2.745l-12.99 7.5c-3.587 2.071-4.816 6.658-2.745 10.245 1.389 2.406 3.91 3.751 6.502 3.751 1.272 0 2.562-.324 3.743-1.006l12.99-7.5c3.587-2.071 4.816-6.658 2.745-10.245z"/><path d="m417.585 220.783c-.003-.008-.007-.017-.011-.025-9.966-23.392-32.66-38.707-57.906-39.015h-17.81l63.263-58.957c8.579-7.995 13.499-19.306 13.499-31.033 0-11.332-4.416-21.988-12.434-30.005l-49.319-49.32c-8.015-8.014-18.669-12.428-30-12.428-11.733 0-23.05 4.922-31.047 13.504l-72.004 77.263c-2.824 3.03-2.657 7.776.373 10.6 3.032 2.824 7.777 2.657 10.6-.374l72.005-77.263c5.246-5.63 12.375-8.73 20.073-8.73 7.325 0 14.212 2.854 19.394 8.035l49.319 49.32c5.185 5.184 8.04 12.073 8.04 19.398 0 7.692-3.099 14.816-8.726 20.06l-77.198 71.944c-2.255 2.101-2.994 5.367-1.865 8.234 1.129 2.868 3.896 4.752 6.979 4.752h36.767c19.204.235 36.546 11.958 44.188 29.87.003.008.007.017.011.025 2.604 6.111 3.924 12.589 3.924 19.252l-.004.61c-.178 14.444-6.773 28.04-18.067 37.276l-259.024 209.606c-2.926 2.366-6.457 3.617-10.214 3.617-4.789 0-9.32-2.107-12.434-5.781-2.393-2.823-3.657-6.35-3.657-10.199 0-4.013 1.408-7.957 3.966-11.104l126.92-156.194c1.825-2.245 2.195-5.34.952-7.953-1.244-2.613-3.879-4.277-6.772-4.277h-59.026l-.665.004c-28.842 0-52.592-23.469-52.944-52.313l-.004-.667c0-13.392 5.018-26.176 14.115-35.984l83.494-89.593c2.824-3.03 2.657-7.776-.373-10.6-3.029-2.824-7.776-2.656-10.6.374l-83.506 89.605c-11.692 12.604-18.131 29.01-18.131 46.198l.006.845c.451 37.018 30.931 67.134 67.942 67.134l43.934-.004-116.982 143.966c-4.724 5.813-7.325 13.116-7.325 20.563 0 7.342 2.562 14.408 7.213 19.896 5.969 7.044 14.672 11.084 23.878 11.084 7.126 0 14.104-2.47 19.648-6.956l259.054-209.631c14.767-12.076 23.369-29.837 23.6-48.727l.006-.795c-.001-8.687-1.722-17.133-5.115-25.107z"/></svg>