<svg id="Layer_1" enable-background="new 0 0 512 512" height="512" viewBox="0 0 512 512" width="512" xmlns="http://www.w3.org/2000/svg"><path d="m460.989 137.574c0-35.322-18.438-68.245-51.92-92.704-32.987-24.099-76.698-37.37-123.08-37.37-56.961 0-110.662 16.219-151.21 45.67-41.136 29.878-63.79 70.058-63.79 113.137 0 67.011 19.235 132.14 55.626 188.347 35.344 54.589 85.068 98.034 143.798 125.638l48.49 22.791c2.002.94 4.126 1.417 6.313 1.417h.003c5.815 0 11.157-3.436 13.61-8.754 1.188-2.577.9-5.486.398-9.039-2.002-14.138-3.018-29.026-3.018-44.252 0-81.135 28.435-157.384 45.384-195.614 7.537-17.001 6.471-14.632 7.229-16.206 36.834-15.794 72.167-46.761 72.167-93.061z" fill="#efedee"/><path d="m285.989 7.5c-116.56 0-215 68.852-215 158.808 0 68.025 19.713 132.877 55.626 188.347 35.344 54.589 85.068 98.034 143.798 125.638l48.487 22.789c2.049.963 4.201 1.419 6.321 1.418 5.652 0 11.065-3.241 13.608-8.755 1.988-4.311 1.788-9.081-.13-13.045-76.772-52.204-111.025-138.061-124.713-185.169-6.002-20.655-17.9-39.068-33.959-53.377-34.614-30.843-51.55-64.83-51.55-64.83-18.03-30.879-11.893-70.073 13.837-93.897 36.754-31.224 92.463-47.641 143.675-47.641 81.93 0 145 46.671 145 99.789 0 40.469-48.843 76.803-113 76.803-49.836 0-87.4-27.992-87.4-58.414 0-23.689 30.646-43.702 66.92-43.702 27.394 0 50.536 14.624 50.536 31.933 0 10.651-15.371 22.519-37.429 22.519-8.526 0-16.483-2.434-21.831-6.677-6.511-5.167-15.941-4.028-21.063 2.547-5.119 6.575-3.989 16.095 2.523 21.263 10.688 8.481 25.025 13.152 40.37 13.152 37.548 0 67.429-23.384 67.429-52.804 0-34.778-35.908-62.219-80.536-62.219-52.38 0-96.92 31.663-96.92 73.988 0 71.103 101.199 111.946 188.638 74.574 42.507-18.168 71.763-52.278 71.763-92.963 0-73.779-80.118-130.075-175-130.075z" fill="#b9bbbc"/><ellipse cx="176.989" cy="330.73" fill="#ff8e9e" rx="22" ry="17.52" transform="matrix(1 .003 -.003 1 1.037 -.553)"/><ellipse cx="324.489" cy="329.968" fill="#ff8e9e" rx="20.5" ry="16.325" transform="matrix(-1 -.003 .003 -1 647.944 660.951)"/><path d="m297.768 74.476c-4.143 0-7.5 3.358-7.5 7.5s3.357 7.5 7.5 7.5c40.177 0 73.036 24.086 73.036 54.719 0 4.142 3.357 7.5 7.5 7.5s7.5-3.358 7.5-7.5c0-19.167-9.396-36.957-26.457-50.094-16.436-12.656-38.305-19.625-61.579-19.625z"/><path d="m318.248 237.163c-59.185 0-109.9-34.909-109.9-81.199 0-4.142-3.357-7.5-7.5-7.5s-7.5 3.358-7.5 7.5c0 55.759 58.266 96.199 124.9 96.199 4.143 0 7.5-3.358 7.5-7.5s-3.357-7.5-7.5-7.5z"/><path d="m420.982 119.489c1.221 3.959 5.421 6.176 9.376 4.958 3.958-1.22 6.179-5.418 4.958-9.376-7.289-23.65-26.02-45.17-52.741-60.596-27.414-15.825-60.723-24.19-96.327-24.19-53.224 0-106.722 16.762-143.105 44.839-33.936 26.189-41.43 72.793-20.883 107.981 1.395 2.388 3.904 3.72 6.483 3.72 5.748 0 9.396-6.273 6.47-11.283-16.869-28.895-10.662-67.123 17.094-88.542 33.849-26.12 83.92-41.714 133.941-41.714 64.818-.001 121.482 31.207 134.734 74.203z"/><path d="m431.755 139.501c-4.072-.755-7.986 1.933-8.742 6.006-6.039 32.551-48.896 61.371-104.765 61.371-47.794 0-79.9-26.326-79.9-50.914 0-19.286 27.767-36.203 59.42-36.203 24.631 0 43.036 12.9 43.036 24.434 0 5.097-10.563 15.019-29.929 15.019-6.764 0-13.183-1.889-17.169-5.052-3.245-2.575-7.963-2.032-10.537 1.213-2.575 3.245-2.031 7.962 1.213 10.537 23.184 18.395 71.422 4.065 71.422-21.717 0-21.744-26.035-39.434-58.036-39.434-40.263 0-74.42 22.81-74.42 51.203 0 17.32 10.295 34.373 28.246 46.784 60.931 42.13 174.037 10.866 186.167-54.504.756-4.073-1.933-7.988-6.006-8.743z"/><path d="m413.753 38.814c-34.262-25.03-79.544-38.814-127.505-38.814-58.532 0-113.798 16.728-155.617 47.102-43.13 31.326-66.883 73.661-66.883 119.206 0 4.077.075 8.147.213 12.209-35.066 31.103-23.672 70.961 17.861 99.596 5.714 17.17 12.762 33.909 21.088 50.087-19.918 10.966-29.15 22.351-27.451 33.896 1.988 13.504 18.168 20.837 37.96 24.702 8.446 26.073 47.386 41.484 73.863 48.345 12.383 10.641 25.5 20.423 39.267 29.276-9.438 5.307-13.781 10.555-13.781 16.386 0 .714.071 1.43.216 2.149 1.177 5.775 6.463 9.511 15.711 11.101.431.074.858.11 1.28.109 3.584 0 6.755-2.578 7.383-6.23.702-4.082-2.038-7.96-6.12-8.663-.062-.01-.123-.021-.183-.032 2.144-1.424 5.503-3.313 10.689-5.58 4.411 2.533 8.88 4.976 13.408 7.322-5.434 4.444-2.299 13.31 4.734 13.31 1 0 9.24-.812 18.282-2.188l37.8 17.766c3.008 1.413 6.206 2.129 9.505 2.129h.005c8.73 0 16.745-5.147 20.419-13.114 2.856-6.194 1-11.256-.335-24.392 11.106-4.56 28.372-12.538 25.976-24.396-2.042-10.029-15.966-11.889-27.54-12.121.048-3.619.159-7.226.317-10.821 34.176-17.856 35.554-46.115 8.785-67.573.529-2.527 1.076-5.032 1.637-7.515 23.677-11.817 34.728-24.153 32.874-36.749-1.132-7.687-6.911-13.911-17.185-18.57.166-.485.331-.971.496-1.453 24.937-14.495 42.764-36.987 35.787-64.895 85.13-46.806 78.275-139.548 7.044-191.585zm-348.481 160.351c1.672 18.055 4.725 35.89 9.107 53.37-15.985-16.124-22.208-35.088-9.107-53.37zm63.295 171.362c.902 1.278 1.805 2.555 2.723 3.82-1.345-.142-2.665-.293-3.96-.454.276-1.129.689-2.251 1.237-3.366zm-38.267-10.616c-.412-2.803 3.524-9.588 19.749-18.521 3.01 5.287 6.166 10.504 9.457 15.652-3.626 4.482-5.969 9.273-7 14.322-16.669-3.799-21.833-8.92-22.206-11.453zm41.331 29.473c3.984.389 7.985.682 11.932.897 5.619 6.89 11.486 13.554 17.587 19.984-13.862-6.312-24.008-13.605-29.519-20.881zm200.647 103.22c-1.231 2.67-3.899 4.396-6.8 4.396-2.195.001-1.466.076-22.185-9.662 9.858-2.233 19.267-4.801 27.761-7.563.955 8.374 1.72 11.755 1.224 12.829zm12.092-33.958c-.093-1.877-.168-3.763-.229-5.656 4.237.113 7.272.45 9.378.829-2.143 1.392-5.203 3.038-9.149 4.827zm1.208-49.825c1.008-10.831 2.45-21.48 4.219-31.853 10.373 11.478 9.057 22.08-4.219 31.853zm27.194-91.318c.351 2.381-2.517 7.639-13.087 14.545 1.945-7.251 3.981-14.244 6.062-20.929 4.722 2.377 6.78 4.714 7.025 6.384zm7.778-48.21c5.026-12.634 9.505-22.58 12.57-29.065.698 11.278-4.594 21-12.57 29.065zm-14.849-38.403c-3.995 1.094-6.347 5.22-5.252 9.215 1.092 3.99 5.214 6.348 9.215 5.252 1.79-.49 3.566-1.012 5.333-1.557-4.543 10.247-10.352 24.272-16.302 41.077-5.516 2.894-11.623 5.573-18.295 7.989-3.895 1.41-5.908 5.711-4.498 9.605 1.411 3.898 5.717 5.908 9.605 4.498 2.274-.824 4.488-1.677 6.648-2.555-3.642 11.548-7.178 24.019-10.349 37.182-31.023 14.006-71.752 23.276-105.69 28.366-4.097.614-6.919 4.433-6.305 8.529.615 4.102 4.439 6.919 8.529 6.305 37.556-5.633 72.564-14.527 99.469-25.222-3.859 18.912-6.649 38.578-7.959 57.758-5.192 2.123-11.027 4.02-17.423 5.623-4.019 1.007-6.459 5.081-5.452 9.098 1.008 4.019 5.082 6.459 9.099 5.452 4.596-1.152 8.931-2.445 13.011-3.86-.262 10.547-.029 21.112.597 30.76-15.537 5.342-33.366 9.507-49.307 12.16-10.839-5.095-33.473-15.285-61.034-35.217 21.128 2.806 43.396 3.459 64.627 1.487 4.125-.383 7.157-4.037 6.774-8.162-.384-4.125-4.054-7.164-8.161-6.774-28.777 2.671-60.729.267-88.148-6.404-10.887-9.55-21.159-19.805-30.765-30.699 9.434-.007 17.563-.336 22.993-.635 4.136-.228 7.304-3.765 7.076-7.9-.227-4.136-3.773-7.312-7.9-7.077-12.25.673-23.966.826-34.761.479-20.661-26.356-37.022-55.152-48.951-85.547 24.486 12.485 53.807 20.467 56.554 20.467 8.724 0 10.37-12.552 1.884-14.76-26.009-6.768-48.571-16.147-66.116-27.403-10.362-32.823-15.698-67.206-15.698-102.112-.001-86.843 96.974-151.308 207.499-151.308 44.804 0 86.943 12.759 118.657 35.926 31.497 23.009 48.843 53.782 48.843 86.648 0 51.076-47.431 82.191-88.047 93.316z"/><path d="m186.248 294.563c-4.142 0-7.5 3.39-7.5 7.571v10.095c0 4.181 3.358 7.571 7.5 7.571 4.143 0 7.5-3.39 7.5-7.571v-10.095c0-4.182-3.357-7.571-7.5-7.571z"/><path d="m314.248 294.563c-4.142 0-7.5 3.39-7.5 7.571v10.095c0 4.181 3.358 7.571 7.5 7.571 4.143 0 7.5-3.39 7.5-7.571v-10.095c0-4.182-3.357-7.571-7.5-7.571z"/><path d="m269.983 308.427c-3.737-1.806-8.215-.208-10.001 3.564-3.643 7.69-14.816 7.71-18.468 0-1.787-3.773-6.266-5.368-10.002-3.564s-5.317 6.324-3.53 10.097c9.055 19.117 36.449 19.177 45.532 0 1.788-3.773.207-8.294-3.531-10.097z"/><path d="m200.493 276.778-12.99-7.571c-3.587-2.092-8.174-.851-10.245 2.771-2.071 3.621-.842 8.252 2.745 10.343 14.171 8.26 14.136 8.587 16.733 8.587 7.618-.001 10.404-10.257 3.757-14.13z"/><path d="m312.993 269.207-12.99 7.571c-6.641 3.87-3.865 14.13 3.757 14.13 2.62 0 2.648-.378 16.733-8.587 3.588-2.091 4.816-6.721 2.745-10.343s-6.657-4.863-10.245-2.771z"/></svg>