<svg id="Layer_1" enable-background="new 0 0 512 512" height="512" viewBox="0 0 512 512" width="512" xmlns="http://www.w3.org/2000/svg"><path d="m247.451 351.951c-46.619-4.101-83.705-41.401-87.466-88.116-.208-2.585-.318-5.197-.318-7.835 0-.139.005-.277.005-.415-29.354-41.085-37.637-94.041-21.541-142.565 17.78-53.599 62.638-93.757 117.869-105.52-2.123 0-4.24.027-6.35.081-134.101 3.38-242.15 113.519-242.15 248.419 0 137.023 111.477 248.5 248.5 248.5 41.664 0 80.956-10.322 115.48-28.519 1.307-.689 2.605-1.39 3.898-2.102l-121.596-121.596c-2.126-.051-4.24-.148-6.331-.332z" fill="#ea5b70"/><path d="m504.5 256c0-137.023-111.477-248.5-248.5-248.5-55.231 11.763-100.089 51.921-117.869 105.52-16.096 48.524-7.813 101.48 21.541 142.565.224-53.012 43.264-95.918 96.328-95.918 53.203 0 96.333 43.13 96.333 96.333s-43.13 96.333-96.333 96.333c-.743 0-1.479-.033-2.218-.051l121.596 121.596c76.891-42.296 129.122-124.095 129.122-217.878z" fill="#ff8e9e"/><path d="m159.667 256c0-.139.005-.277.005-.415-29.354-41.085-37.637-94.041-21.541-142.565 6.862-20.686 17.771-39.356 31.738-55.178-76.408 33.339-129.956 109.607-129.956 198.158 0 119.151 96.936 216.087 216.087 216.087 34.212 0 66.586-8.005 95.366-22.22l-97.561-97.561c-52.189-1.168-94.138-43.837-94.138-96.306z" fill="#976bcf"/><path d="m472.087 256c0-119.151-96.936-216.087-216.087-216.087-30.6 0-59.727 6.407-86.13 17.928-13.968 15.822-24.876 34.493-31.738 55.178-16.096 48.524-7.813 101.48 21.541 142.565.224-53.012 43.264-95.918 96.328-95.918 53.203 0 96.333 43.13 96.333 96.333s-43.13 96.333-96.333 96.333c-.734 0-1.465-.011-2.195-.028l97.561 97.561c71.452-35.29 120.72-108.927 120.72-193.865z" fill="#b28ae4"/><path d="m159.667 256c0-.139.005-.277.005-.415-28.742-40.229-37.262-91.837-22.493-139.526-39.65 33.717-64.853 83.938-64.853 139.941 0 101.278 82.396 183.674 183.674 183.674 25.127 0 49.09-5.077 70.922-14.251l-73.117-73.117c-52.189-1.168-94.138-43.837-94.138-96.306z" fill="#2ed0fc"/><path d="m439.674 256c0-101.278-82.396-183.674-183.674-183.674-45.275 0-86.768 16.475-118.821 43.733-14.769 47.688-6.249 99.296 22.493 139.526.224-53.012 43.264-95.918 96.328-95.918 53.203 0 96.333 43.13 96.333 96.333s-43.13 96.333-96.333 96.333c-.734 0-1.465-.011-2.195-.028l73.117 73.117c66.167-27.801 112.752-93.271 112.752-169.422z" fill="#7ce3ff"/><path d="m256 159.667c53.203 0 96.333 43.13 96.333 96.333s-43.13 96.333-96.333 96.333c-.734 0-1.465-.011-2.195-.028l47.894 47.894c61.137-19.419 105.562-76.715 105.562-144.199 0-83.406-67.855-151.261-151.261-151.261-52.326 0-98.526 26.71-125.696 67.208 1.662 29.811 11.68 58.88 29.368 83.637.224-53.011 43.264-95.917 96.328-95.917z" fill="#5fd9b3"/><path d="m253.805 352.305c-52.189-1.167-94.138-43.836-94.138-96.305 0-.139.005-.277.005-.415-17.688-24.757-27.706-53.826-29.368-83.637-16.138 24.055-25.565 52.972-25.565 84.052 0 83.406 67.855 151.261 151.261 151.261 15.922 0 31.274-2.48 45.699-7.062z" fill="#00c084"/><path d="m242.953 341.454c-37.29-5.646-66.76-35.116-72.407-72.407l-.981-.981c-11.885-13.541-21.183-28.773-27.775-44.974-3.017 10.455-4.638 21.495-4.638 32.908 0 65.533 53.315 118.848 118.848 118.848 6.413 0 12.707-.518 18.847-1.5z" fill="#ffb357"/><path d="m170.546 269.047c-.644-4.255-.981-8.612-.981-13.047 0-47.737 38.698-86.435 86.435-86.435s86.435 38.698 86.435 86.435-38.698 86.435-86.435 86.435c-4.435 0-8.792-.337-13.047-.981l31.894 31.894c56.608-9.059 100.001-58.228 100.001-117.348 0-65.533-53.315-118.848-118.848-118.848-54.12 0-99.903 36.364-114.21 85.94 6.592 16.2 15.89 31.432 27.775 44.974z" fill="#ffce71"/><path d="m67.064 385.723c.004-65.838 53.398-118.771 118.758-118.771 42.548 0 79.849 22.386 100.822 56.01 16.36-11.633 36.354-18.461 57.891-18.461 43.536 0 80.567 27.825 94.298 66.659v.004c35.783.474 65.667 29.706 65.667 66.67 0 36.819-29.848 66.667-66.667 66.667-6.393 0-360.844 0-370.946 0-32.798-.001-59.387-26.59-59.387-59.388 0-33.229 27.157-59.564 59.564-59.39z" fill="#efedee"/><path d="m185.822 266.951c-65.359 0-118.754 52.934-118.758 118.771-32.352-.172-59.471 26.072-59.564 59.22-.091 32.759 27.532 59.558 60.291 59.558h79.096c-32.785-32.785-32.746-85.951.087-118.687l.09-.09c.003-51.711 32.946-95.455 78.75-111.849-12.497-4.473-25.956-6.923-39.992-6.923z" fill="#d4d4d5"/><ellipse cx="186.971" cy="411.765" fill="#ff8e9e" rx="25.471" ry="20.283" transform="matrix(1 .003 -.003 1 1.291 -.584)"/><ellipse cx="325.029" cy="412.198" fill="#ff8e9e" rx="25.471" ry="20.283" transform="matrix(-1 -.003 .003 -1 648.766 825.412)"/><path d="m192 372.423c-4.142 0-7.5 3.358-7.5 7.5v10c0 4.142 3.358 7.5 7.5 7.5s7.5-3.358 7.5-7.5v-10c0-4.142-3.358-7.5-7.5-7.5z"/><path d="m320 372.423c-4.142 0-7.5 3.358-7.5 7.5v10c0 4.142 3.358 7.5 7.5 7.5s7.5-3.358 7.5-7.5v-10c0-4.142-3.358-7.5-7.5-7.5z"/><path d="m275.735 386.157c-3.737-1.789-8.215-.206-10.001 3.531-3.644 7.62-14.816 7.635-18.468 0-1.787-3.737-6.266-5.317-10.001-3.531-11.086 5.3 1.649 24.266 19.235 24.266 17.506 0 30.395-18.931 19.235-24.266z"/><path d="m481.148 377.731c20.2-37.235 30.852-79.165 30.852-121.731 0-55.85-17.738-108.955-51.297-153.575-2.489-3.31-7.191-3.975-10.502-1.486-3.311 2.49-3.976 7.192-1.486 10.502 58.945 78.372 62.112 179.778 19.463 258.743-5.347-2.42-11.022-4.229-16.942-5.317 37.53-67.053 38.135-150.154.142-217.829-53.736-95.716-174.761-143.958-284.508-96.071-124.031 54.12-169.442 202.46-105.809 314.777-.631 4.212-1.085 8.49-1.312 12.841-3.414.357-6.769.988-10.051 1.856-97.796-161.52 22.033-365.441 206.332-365.441 66.15 0 127.89 26.382 173.845 74.289 2.867 2.99 7.616 3.088 10.604.221 2.989-2.868 3.089-7.615.221-10.604-47.677-49.702-113.79-78.906-185.393-78.906-2.118 0-3.893.034-5.846.083-138.389 3.489-249.461 116.99-249.461 255.917 0 45.914 12.263 90.668 35.535 129.996-20.792 11.091-35.535 33.058-35.535 59.117 0 36.882 30.005 66.887 66.887 66.887h370.947c40.895 0 74.166-33.271 74.166-74.167 0-24.615-12.201-46.579-30.852-60.102zm-308.28-313.016c64.398-28.101 138.146-21.763 197.278 16.951 92.46 60.535 119.833 179.648 69.642 272.884-3.128-6.018-6.793-11.674-10.941-16.916 59.863-126.051-32.669-272.808-172.847-272.808-43.807 0-86.648 15.265-120.636 42.983-3.21 2.618-3.689 7.342-1.072 10.552 2.618 3.209 7.341 3.691 10.553 1.072 31.317-25.54 70.793-39.607 111.155-39.607 126.602 0 211.9 130.355 161.802 245.862-4.412-4.084-9.18-7.795-14.262-11.099 41.499-103.958-35.717-217.35-147.54-217.35-101.249 0-177.528 94.266-154.795 194.189-5.158 4.527-9.901 9.451-14.186 14.74-16.592-56.138-4.64-119.704 37.088-166.823 2.747-3.101 2.459-7.841-.642-10.587-3.102-2.746-7.842-2.458-10.587.642-47.922 54.112-59.831 128.557-36.535 192.286-3.964 6.852-7.273 14.126-9.877 21.753-48.341-104.736-2.109-231.375 106.402-278.724zm194.714 132.045c-1.947-3.653-6.488-5.04-10.146-3.091-3.655 1.948-5.039 6.49-3.092 10.146 14.938 28.028 17.661 62.737 4.769 94.187-6.208-.874-12.432-1.203-18.611-.989 30.296-62.142-15.296-134.948-84.501-134.948-27.167 0-52.989 11.761-70.847 32.267-16.292 18.71-24.444 43.025-22.888 67.633-6.649 1.266-11.777 2.68-17.114 4.456-6.123-65.709 45.746-121.769 110.848-121.769 31.128 0 61.072 13.22 82.155 36.27 2.795 3.056 7.539 3.267 10.596.472 3.057-2.796 3.269-7.54.473-10.596-23.918-26.148-57.896-41.146-93.224-41.146-75.616 0-135.05 66.517-125.311 142.541-5.69 2.668-11.111 5.696-16.221 9.078-15.709-88.848 52.886-169.032 141.532-169.032 100.958 0 170.147 101.656 134.311 195.022-5.495-2.562-10.893-4.542-16.32-6.097 13.461-34.952 10.195-73.244-6.409-104.404zm-45.607 102.548c-11.596 2.49-22.81 6.932-33.213 13.279-26.205-37.221-67.336-55.879-111.585-52.588-1.022-20.332 5.825-40.354 19.289-55.815 15.007-17.234 36.707-27.118 59.534-27.118 62.81-.001 100.298 70.134 65.975 122.242zm115.859 197.692h-370.947c-28.611 0-51.887-23.276-51.887-51.887 0-22.888 14.673-41.658 34.057-48.761 9.59-3.661 17.489-3.129 27.026-3.129 9.368 0 11.028-15-1.265-15 6.479-104.224 141.987-141.963 201.828-56.743l-1.509 1.243c-3.197 2.633-3.655 7.359-1.022 10.557 2.636 3.2 7.364 3.653 10.558 1.022 53.657-44.186 126.688-18.34 147.014 39.142.018.057.048.108.067.165.024.068.04.138.065.205l.016-.006c1.06 2.801 3.73 4.814 6.899 4.856 32.128.426 58.267 26.97 58.267 59.17-.001 32.624-26.543 59.166-59.167 59.166z"/></svg>