<svg id="Layer_1" enable-background="new 0 0 512 512" height="512" viewBox="0 0 512 512" width="512" xmlns="http://www.w3.org/2000/svg"><path d="m182.865 13.417 20.865 18.871 27.505-5.91c11.5-2.471 23.002 4.17 26.612 15.365l8.635 26.775 26.775 8.635c11.195 3.61 17.835 15.112 15.365 26.612l-5.91 27.505 18.871 20.865c7.89 8.724 7.89 22.005 0 30.729l-18.871 20.865 5.91 27.505c2.471 11.5-4.17 23.002-15.365 26.612l-26.775 8.635-8.635 26.775c-3.61 11.195-15.112 17.835-26.612 15.365l-27.505-5.91-20.865 18.871c-8.724 7.89-22.005 7.89-30.729 0l-20.865-18.871-27.505 5.91c-11.5 2.471-23.002-4.17-26.612-15.365l-8.635-26.775-26.775-8.635c-11.195-3.61-17.835-15.112-15.365-26.612l5.91-27.505-18.871-20.865c-7.89-8.724-7.89-22.005 0-30.729l18.871-20.865-5.91-27.505c-2.471-11.5 4.17-23.002 15.365-26.612l26.775-8.635 8.635-26.775c3.61-11.195 15.112-17.835 26.612-15.365l27.505 5.91 20.865-18.871c8.723-7.889 22.005-7.889 30.729 0z" fill="#ffb357"/><path d="m167.5 288.537c-66.74 0-121.037-54.297-121.037-121.037s54.297-121.037 121.037-121.037 121.037 54.297 121.037 121.037-54.297 121.037-121.037 121.037z" fill="#fce3a0"/><path d="m112.137 167.5c0-55.363 37.365-102.161 88.2-116.508-10.446-2.948-21.46-4.529-32.837-4.529-66.74 0-121.037 54.297-121.037 121.037s54.297 121.037 121.037 121.037c11.377 0 22.391-1.581 32.837-4.529-50.835-14.347-88.2-61.145-88.2-116.508z" fill="#ffce71"/><ellipse cx="106.593" cy="159.721" fill="#ff8e9e" rx="22.474" ry="17.897" transform="matrix(1 .003 -.003 1 .501 -.333)"/><ellipse cx="228.407" cy="160.103" fill="#ff8e9e" rx="22.474" ry="17.897" transform="matrix(-1 -.003 .003 -1 456.312 320.921)"/><g fill="#00ce8e"><path d="m340.104 414.574c.053-.035.104-.073.158-.107-.076.048-.124.082-.158.107z"/><path d="m352.769 381.706c.033 0 .064.006.098.006-.008-.004-.032-.006-.098-.006z"/><path d="m271.692 333.543c-.114 1.677-.201 3.361-.263 5.051.384-1.628.494-3.334.263-5.051z"/></g><path d="m344.5 504.5c-88.224 0-160-71.776-160-160s71.776-160 160-160 160 71.776 160 160-71.776 160-160 160z" fill="#b9f0ff"/><path d="m271.315 344.5c0-73.185 49.393-135.048 116.592-154.013-13.809-3.897-28.369-5.987-43.408-5.987-88.224 0-160 71.776-160 160s71.776 160 160 160c15.039 0 29.599-2.089 43.408-5.987-67.199-18.965-116.592-80.828-116.592-154.013z" fill="#7ce3ff"/><path d="m339.179 475.233c-3.701 2.823-5.958 7.182-6.075 11.884-.154 6.166-.731 11.677.771 17.022 3.513.231 7.054.361 10.624.361 15.035 0 29.587-2.095 43.393-5.991z" fill="#00ce8e"/><path d="m262.051 365.22c-2.208-6.281.793-13.382 7.012-15.76.769-.294 1.543-.48 2.317-.613l116.5-158.352c-13.801-3.896-28.348-5.995-43.38-5.995-70.544 0-130.565 45.894-151.792 109.39h12.959c12.886 0 23.332 10.446 23.332 23.332v31.763c0 7.67 1.442 15.271 4.252 22.408l11.475 29.143c2.688 6.828 10.184 10.431 17.195 8.266 4.945-1.527 8.406-5.532 9.507-10.208.062-1.69.149-3.374.263-5.051-.125-.936-.346-1.873-.672-2.8z" fill="#00ce8e"/><path d="m387.88 190.495c-67.186 18.975-116.565 80.83-116.565 154.005 0 1.454.026 2.902.065 4.347 3.304-.57 6.582.248 9.162 2.098 2.463 1.766 4.291 4.447 4.886 7.709l5.779 31.699c3.14 17.219 13.348 32.337 28.146 41.684 16.792 10.605 33.666 9.759 33.513 9.675-.033 0-.064-.006-.098-.006.066 0 .091.003.098.006 4.893.066 8.237 4.998 6.454 9.576-6.448 16.554-20.105 23.96-19.216 23.286-.319.208-.625.43-.925.659 14.626 10.338 31.053 18.29 48.713 23.276 24.387-6.882 46.432-19.406 64.621-36.079 2.266-11.198-1.063-23.302-10-31.826-6.557-6.254-15.415-9.515-24.476-9.515h-73.537v-23.895c0-9.389-7.611-17-17-17l18.682-18.682c6.65-6.65 1.94-18.02-7.464-18.02 0-12.582 10.2-22.781 22.781-22.781h20.776c3.606 0 7.064 1.432 9.614 3.982l13.52 13.519c.221.221.448.433.681.636 7.215 6.301 18.547.774 18.547-8.805v-20.741c0-8.646 7.009-15.656 15.656-15.656.074-.007.148-.013.222-.02 11.646-1.091 20.456-11.049 20.456-22.746v-35.93c-19.631-20.86-44.781-36.462-73.091-44.455z" fill="#5fd9b3"/><ellipse cx="283.593" cy="289.722" fill="#ff8e9e" rx="22.474" ry="17.897" transform="matrix(1 .003 -.003 1 .909 -.887)"/><ellipse cx="405.407" cy="290.103" fill="#ff8e9e" rx="22.474" ry="17.897" transform="matrix(-1 -.003 .003 -1 809.904 581.474)"/><path d="m466.435 229.801c-.071-.076-.154-.136-.229-.208-34.771-36.827-82.668-55.559-132.847-52.129 3.542-10.193 1.479-21.839-6.202-30.334l-16.293-18.014 5.103-23.748c3.293-15.326-5.475-30.512-20.394-35.324l-23.117-7.455-7.456-23.118c-4.811-14.921-20.007-23.689-35.323-20.394l-23.747 5.103-18.014-16.293c-11.627-10.516-29.162-10.516-40.787 0l-18.016 16.293-23.748-5.103c-15.323-3.291-30.512 5.475-35.323 20.394l-7.456 23.118-23.116 7.455c-14.919 4.811-23.687 19.997-20.394 35.324l5.103 23.748-16.293 18.015c-10.515 11.627-10.515 29.162 0 40.789l16.293 18.014-5.103 23.749c-3.293 15.326 5.475 30.512 20.394 35.323l23.117 7.456 7.456 23.117c4.81 14.92 20.006 23.68 35.323 20.395l23.748-5.103 18.015 16.293c8.322 7.526 19.871 9.811 30.266 6.225-2.133 32.297 5.167 63.483 19.403 90.029 1.352 2.523 3.94 3.958 6.616 3.958 5.617 0 9.292-6.03 6.602-11.045-18.602-34.689-23.23-76.158-11.778-114.927h7.452c8.709.021 15.809 7.129 15.829 15.839 0 51.017-2.215 39.188 16.249 86.055 5.317 13.669 21.872 17.499 32.897 9.419 6.254-4.567 8.222-11.61 8.27-13.839.368-9.492 1.583-3.667-9.789-36.128-1.626-4.673 3.232-8.322 7.04-5.7 1.03.76 1.649 1.729 1.88 2.97.025.138 3.945 21.599 3.96 21.739v.01c1.993 10.885 4.698 38.54 33.338 56.626 11.605 7.286 25.007 10.879 36.698 10.879-2.71 6.62-6.81 11.39-9.77 14.23-3.815 3.666-5.399 4.213-6.399 4.88-6.24 4.139-10.079 11.07-10.27 18.558-.07 2.35-.259 6.038-.236 8.849-38.832-4.922-74.737-24.882-99.586-55.669-2.6-3.223-7.323-3.729-10.545-1.126-3.223 2.601-3.727 7.323-1.126 10.545 29.381 36.404 72.852 59.035 119.266 62.092.047.003.094.002.142.005.009 0 .017.003.025.003 3.61.24 7.309.36 10.99.36l.02-.05v.049c41.877 0 81.985-15.619 112.943-43.967.004-.003.007-.008.01-.011.02-.018.042-.033.062-.052 34.578-31.7 54.412-76.697 54.412-123.453 0-42.763-16.183-83.504-45.565-114.716zm-288.58 86.238c-5.892 5.328-14.774 5.328-20.667 0l-20.865-18.87c-1.788-1.619-4.248-2.276-6.605-1.77l-27.503 5.91c-7.771 1.672-15.46-2.774-17.898-10.333l-8.634-26.774c-.74-2.296-2.54-4.095-4.836-4.836l-26.774-8.634c-7.559-2.438-12.001-10.132-10.332-17.898l5.91-27.505c.507-2.358-.152-4.816-1.77-6.606l-18.87-20.864c-5.328-5.89-5.328-14.775 0-20.667l18.87-20.864c1.618-1.79 2.277-4.248 1.77-6.606l-5.91-27.504c-1.669-7.766 2.773-15.46 10.332-17.898l26.774-8.634c2.296-.741 4.095-2.54 4.836-4.836l8.634-26.774c2.438-7.559 10.13-12.002 17.898-10.333l27.503 5.91c2.356.506 4.817-.152 6.605-1.77l20.866-18.87c5.89-5.328 14.773-5.328 20.666 0l20.865 18.87c1.789 1.618 4.251 2.277 6.605 1.77l27.503-5.91c7.772-1.668 15.46 2.774 17.898 10.333l8.634 26.774c.74 2.296 2.54 4.095 4.836 4.836l26.774 8.634c7.559 2.438 12.001 10.132 10.332 17.898l-5.91 27.505c-.507 2.358.152 4.816 1.77 6.606l18.87 20.863c5.328 5.892 5.328 14.777 0 20.668-.529.584-.947 1.23-1.258 1.911-6.7 1.209-13.336 2.814-19.875 4.825 10.342-77.352-50.083-145.6-127.378-145.6-29.288 0-56.893 9.635-79.832 27.862-3.243 2.577-3.783 7.294-1.206 10.537 2.578 3.242 7.293 3.782 10.537 1.206 82.063-65.211 203.26 7.447 181.677 111.923-39.987 16.918-71.192 47.967-88.232 88.192-103.585 21.345-176.142-97.804-113.12-180.087 2.518-3.288 1.894-7.996-1.393-10.514-3.289-2.519-7.996-1.894-10.514 1.393-68.648 89.626 4.74 220.64 119.09 205.405-2.033 6.541-3.654 13.19-4.863 19.917-.644.307-1.255.707-1.81 1.209zm281.435 128.725c-2.015-7.562-5.991-14.229-11.597-19.569-1.399-1.34-3.239-2.08-5.179-2.08-6.666 0-10.104 8.234-5.17 12.93 6.424 6.424 9.099 14.187 8.189 22.598-29.201 25.856-66.935 39.406-105.133 38.297-.471-11.554.779-13.83 3.4-15.789 10.207-5.341 23.561-22.793 23.508-32.407 0-7.73-6.076-14.142-13.829-14.499-1-.108-15.294.895-30.108-8.54-24.222-15.291-24.741-36.494-30.548-68.386-.91-4.979-3.78-9.519-7.899-12.459-13.022-9.399-31.168.209-31.139 15.959 0 4.29.703 5.578 6.43 21.649 4.801 13.37 3.98 10.972 3.779 14.969-1.817 5.664-9.949 6.176-12.269.37-17.573-44.619-15.209-31.079-15.209-80.565 0-15.27-11.29-30.828-33.009-30.828 41.238-100.845 173.309-126.936 249.965-48.427v32.908c0 7.839-5.96 14.539-13.559 15.279-12.622.206-22.769 10.461-22.769 23.148v20.739c-.053 3.123-3.645 5.233-6.12 3.16 0 0 .473.481-13.829-13.81-3.979-3.989-9.279-6.179-14.919-6.179h-20.768c-28.696 0-38.763 37.778-22.779 37.778 2.762.049 4.083 3.191 2.16 5.219l-18.679 18.678c-4.712 4.691-1.386 12.8 5.299 12.8 5.229.01 9.489 4.269 9.499 9.499 0 25.386-.715 26.285 2.2 29.197 1.506 1.518 1.454 2.2 10.52 2.2h65.214c4.14 0 7.5-3.37 7.5-7.5s-3.352-7.5-7.5-7.5h-62.932v-16.398c0-8.09-3.99-15.649-10.669-20.219 10.106-10.117 15.536-13.867 15.459-22.848-.016-6.921-3.902-13.056-9.579-16.039 2.24-5.9 7.979-9.86 14.289-9.869 22.379 0 22.737-.571 25.088 1.78 14.542 14.542 13.817 13.854 14.559 14.499 11.925 10.505 31.018 1.608 30.988-14.449v-20.739c.01-4.49 3.66-8.149 8.16-8.16 15.449-.825 28.168-14.009 28.168-30.268v-15.07c41.284 57.483 37.337 135.624-9.183 188.941z"/><path d="m113.525 147.563c4.142 0 7.5-3.358 7.5-7.5v-10c0-4.142-3.358-7.5-7.5-7.5s-7.5 3.358-7.5 7.5v10c.001 4.142 3.358 7.5 7.5 7.5z"/><path d="m221.518 147.563c4.142 0 7.5-3.358 7.5-7.5v-10c0-4.142-3.358-7.5-7.5-7.5s-7.5 3.358-7.5 7.5v10c.001 4.142 3.358 7.5 7.5 7.5z"/><path d="m168.022 165.562c9.686 0 18.621-5.599 22.765-14.264 1.787-3.737.206-8.214-3.531-10.001-3.737-1.788-8.214-.206-10.001 3.531-1.666 3.484-5.29 5.735-9.233 5.735s-7.567-2.251-9.233-5.735c-1.787-3.737-6.265-5.317-10.001-3.531-3.737 1.786-5.318 6.264-3.531 10.001 4.143 8.665 13.079 14.264 22.765 14.264z"/><path d="m290.514 252.558c-4.142 0-7.5 3.358-7.5 7.5v9.999c0 4.142 3.358 7.5 7.5 7.5s7.5-3.358 7.5-7.5v-9.999c-.001-4.142-3.358-7.5-7.5-7.5z"/><path d="m398.507 277.557c4.142 0 7.5-3.358 7.5-7.5v-9.999c0-4.142-3.358-7.5-7.5-7.5s-7.5 3.358-7.5 7.5v9.999c.001 4.142 3.358 7.5 7.5 7.5z"/><path d="m367.775 281.292c1.787-3.737.206-8.215-3.531-10.001-3.737-1.788-8.214-.206-10.001 3.531-3.643 7.619-14.816 7.635-18.467 0-1.787-3.737-6.265-5.317-10.001-3.531-3.737 1.787-5.318 6.264-3.531 10.001 9.057 18.938 36.449 18.995 45.531 0z"/></svg>