<svg id="Layer_1" enable-background="new 0 0 512 512" height="512" viewBox="0 0 512 512" width="512" xmlns="http://www.w3.org/2000/svg"><path d="m306.638 247.778c33.842-92.981-14.033-195.591-106.981-229.421-26.146-9.517-53.054-12.566-78.982-9.971-3.734.373-6.938 2.817-8.221 6.344-1.664 4.57.295 9.709 4.629 11.918 63.909 32.58 94.925 108.358 69.75 177.525-4.945 13.588-11.712 25.956-19.908 36.953l84.408 84.407c24.304-19.71 43.776-46.078 55.305-77.755z" fill="#fce3a0"/><path d="m250.703 108.726c-17.794-38.152-49.405-67.103-89.011-81.518v-.001c-15.195-5.53-31.033-8.692-47.073-9.399l-2.737-.12c-.142 3.665 1.789 7.22 5.201 8.96 63.908 32.58 94.925 108.358 69.75 177.525-25.266 69.42-97.888 107.199-167.542 91.155-3.46-.797-7.337.419-9.744 3.521-.001.001-.001.001-.002.002-.605.782-1.107 1.661-1.461 2.631l-.001.004c-1.283 3.526-.4 7.457 2.22 10.144 18.194 18.653 40.767 33.612 66.914 43.13 61.145 22.255 126.798 9.145 174.117-29.227l14.216-8.817v-143.862c-.002-21.378-4.508-41.958-14.847-64.128z" fill="#ffce71"/><path d="m344.5 504.5c-88.224 0-160-71.776-160-160s71.776-160 160-160 160 71.776 160 160-71.776 160-160 160z" fill="#b9f0ff"/><path d="m271.316 344.5c0-73.185 49.393-135.048 116.592-154.013-13.809-3.897-28.369-5.987-43.408-5.987-88.224 0-160 71.776-160 160s71.776 160 160 160c15.039 0 29.599-2.089 43.408-5.987-67.2-18.965-116.592-80.828-116.592-154.013z" fill="#7ce3ff"/><path d="m339.179 475.233c-3.701 2.823-5.958 7.182-6.075 11.884-.154 6.166-.731 11.677.771 17.022 3.513.231 7.054.361 10.624.361 15.035 0 29.587-2.095 43.393-5.991z" fill="#00ce8e"/><path d="m262.052 365.22c-2.208-6.281.793-13.382 7.012-15.76.769-.294 1.543-.48 2.317-.613l116.5-158.352c-13.801-3.896-28.348-5.995-43.38-5.995-70.544 0-130.565 45.894-151.792 109.39h12.959c12.886 0 23.332 10.446 23.332 23.332v31.763c0 7.67 1.442 15.271 4.252 22.408l11.475 29.143c2.688 6.828 10.184 10.431 17.195 8.266 4.945-1.527 8.406-5.532 9.507-10.208.062-1.69.149-3.374.263-5.051-.125-.936-.346-1.873-.672-2.8z" fill="#00ce8e"/><path d="m387.881 190.495c-67.186 18.975-116.565 80.83-116.565 154.005 0 1.454.026 2.902.065 4.347 3.304-.57 6.582.248 9.162 2.098 2.463 1.766 4.291 4.447 4.886 7.709l5.779 31.699c3.14 17.219 13.348 32.337 28.146 41.684 16.792 10.605 33.666 9.759 33.513 9.675-.033 0-.064-.006-.098-.006.066 0 .091.003.098.006 4.893.066 8.237 4.998 6.454 9.576-6.448 16.554-20.105 23.96-19.216 23.286-.319.208-.625.43-.925.659 14.626 10.338 31.053 18.29 48.713 23.276 24.387-6.882 46.432-19.406 64.621-36.079 2.266-11.198-1.063-23.302-10-31.826-6.557-6.254-15.415-9.515-24.476-9.515h-73.538v-23.895c0-9.389-7.611-17-17-17l18.682-18.682c6.65-6.65 1.94-18.02-7.464-18.02 0-12.582 10.2-22.781 22.781-22.781h20.776c3.606 0 7.064 1.432 9.614 3.982l13.52 13.519c.221.221.448.433.681.636 7.215 6.301 18.547.774 18.547-8.805v-20.741c0-8.646 7.009-15.656 15.656-15.656.074-.007.148-.013.222-.02 11.646-1.091 20.456-11.049 20.456-22.746v-35.93c-19.63-20.86-44.78-36.462-73.09-44.455z" fill="#5fd9b3"/><ellipse cx="283.593" cy="289.722" fill="#ff8e9e" rx="22.474" ry="17.897" transform="matrix(1 .003 -.003 1 .909 -.887)"/><ellipse cx="405.408" cy="290.103" fill="#ff8e9e" rx="22.474" ry="17.897" transform="matrix(-1 -.003 .003 -1 809.905 581.474)"/><path d="m219.941 143.391c-4.143.001-7.501 3.358-7.502 7.501v10c0 4.142 3.359 7.499 7.502 7.5 4.146-.002 7.501-3.359 7.502-7.501v-10c0-4.142-3.359-7.5-7.502-7.5z"/><path d="m295.456 160.892v-10c0-4.143-3.359-7.501-7.502-7.501-4.143.001-7.501 3.358-7.502 7.5v10c0 4.143 3.359 7.5 7.501 7.501 4.152-.002 7.502-3.363 7.503-7.5z"/><path d="m254.448 158.61c-2.219 0-4.322-1.281-5.234-3.188-1.788-3.737-6.267-5.317-10.003-3.531-3.738 1.787-5.319 6.265-3.532 10.002 3.404 7.118 10.772 11.718 18.768 11.718h.004c7.995 0 15.362-4.6 18.767-11.718 1.788-3.736.208-8.215-3.53-10.002-3.737-1.791-8.217-.207-10.004 3.529-.913 1.908-3.016 3.19-5.236 3.19.001 0 .001 0 0 0z"/><path d="m324.647 178.259c-1.986-42.833-18.315-83.55-46.471-115.456-2.74-3.107-7.48-3.402-10.588-.662-3.107 2.74-3.403 7.479-.662 10.586 26.277 29.778 41.343 67.923 42.797 107.997-5.024 1.062-10.008 2.349-14.937 3.867-74.341 22.899-121.767 92.908-117.59 169.022-59.014 13.748-120.151-4.872-161.389-46.977-1.736-1.771-.439-4.486 1.699-3.999 74.692 17.201 150.355-24.537 176.31-95.898 15.964-43.846 10.788-91.53-12.819-130.464-14.598-24.075-35.549-43.546-60.585-56.307-1.814-.926-1.391-3.888.932-4.119 46.266-4.643 91.329 10.185 124.838 37.079 3.231 2.592 7.953 2.076 10.546-1.153 2.593-3.23 2.077-7.951-1.154-10.544-31.78-25.507-73.422-41.231-117.256-41.231-6.148 0-12.362.311-18.47.923-17.06 1.705-21.44 24.663-6.253 32.407 62.017 31.609 89.603 103.798 66.121 168.279-23.256 63.942-91.185 101.991-158.838 86.411-10.509-2.427-20.878 5.498-20.878 16.603 0 4.715 1.806 9.156 5.087 12.506 44.132 45.058 109.577 65.729 173.618 51.505 2.795 19.14 8.874 37.747 18.009 54.778 1.961 3.658 6.514 5.021 10.155 3.065 3.651-1.957 5.024-6.503 3.066-10.153-18.653-34.778-23.208-76.249-11.783-114.925h7.456c8.712.011 15.813 7.11 15.833 15.83 0 5.351-.03 10.04-.05 14.181-.08 13.128-.128 20.584.77 27.439.66 5.11 1.951 9.98 4.051 15.3l11.483 29.141c5.341 13.729 21.924 17.466 32.906 9.42 5.845-4.253 8.212-11.081 8.272-13.84.29-7.48 1.205-5.169-4.651-21.62-1.33-3.74-2.991-8.38-5.141-14.51-1.385-3.923 1.729-6.601 4.371-6.601h.029c2.098.044 4.089 1.563 4.521 3.87 6.049 33.17 6.488 43.314 16.643 58.34 13.564 20.093 36.106 30.814 56.931 30.92.16 0 .301 0 .441-.01-2.711 6.63-6.811 11.4-9.772 14.24-3.773 3.624-5.27 4.137-6.271 4.8h-.01c-6.312 4.13-10.202 11.1-10.393 18.64-.08 2.744-.249 5.733-.236 8.849-38.842-4.922-74.756-24.883-99.612-55.672-2.601-3.224-7.325-3.729-10.548-1.126-3.224 2.602-3.728 7.323-1.126 10.546 29.384 36.401 72.858 59.032 119.276 62.094.023.002.045.008.068.01 45.75 2.986 90.33-12.651 124.176-43.67 0-.001.001-.001.002-.002 34.59-31.702 54.429-76.702 54.429-123.461 0-98.396-85.922-178.419-187.353-166.248zm134.63 266.501c-.489-1.836-1.096-3.646-1.837-5.42-2.25-5.36-5.531-10.12-9.763-14.16-2.951-2.804-7.68-2.805-10.602.26-2.862 2.987-2.768 7.73.25 10.601 0 0 0 .01.01.01 5.371 5.14 8.342 12.07 8.352 19.52 0 1.02-.061 2.061-.171 3.07-29.074 25.738-66.802 39.42-105.161 38.3-.076-1.868.009-4.033.101-6.239.118-3.304-.273-6.88 3.3-9.551 7.15-3.818 17.294-13.878 22.524-27.13 4.142-10.726-5.21-20.928-14.453-19.75-24.695 0-48.41-18.536-53.29-45.25l-5.772-31.7c-1.726-9.459-10.11-16.18-19.204-16.18h-.08c-13.148.025-23.388 13.015-18.554 26.57 2.201 6.28 3.891 11 5.241 14.8 3.283 9.154 6.098 14.63 1.54 18.11-2.859 2.123-8.159 1.881-10.052-2.82l-11.483-29.15c-3.901-9.934-3.917-15.53-3.791-37.05.03-4.189.061-8.93.061-14.37 0-17.032-13.786-30.83-30.836-30.83h-2.18c41.229-100.811 173.3-127 250.03-48.43v32.92c.01 7.82-5.951 14.52-13.553 15.26-6.102.101-11.832 2.551-16.123 6.91-4.301 4.351-6.661 10.12-6.661 16.25v20.74c-.054 3.224-3.874 5.439-6.441 2.85l-13.513-13.5c-3.98-3.989-9.281-6.18-14.913-6.18h-20.783c-8.091 0-15.694 3.15-21.414 8.87-5.721 5.71-8.872 13.32-8.872 21.41 0 4.138 3.36 7.5 7.502 7.5 2.67.047 4.153 3.119 2.161 5.22l-18.683 18.68c-4.757 4.734-1.329 12.801 5.301 12.801 5.231.01 9.492 4.27 9.502 9.5v23.898c0 4.084 3.324 7.5 7.502 7.5h70.454c4.141 0 7.501-3.37 7.501-7.5s-3.35-7.49-7.481-7.5c-.01 0-.01 0-.021 0h-62.952v-16.4c0-8.091-3.991-15.65-10.672-20.221l10.162-10.16c8.844-8.764 6.061-23.33-4.281-28.729 2.241-5.9 7.981-9.86 14.293-9.88h20.784c1.62 0 3.161.64 4.311 1.79l13.522 13.52c11.67 11.993 32.089 3.12 32.027-13.47v-20.74c.02-4.49 3.68-8.149 8.172-8.16 7.428-.391 14.955-3.825 20.405-9.909 5.011-5.601 7.771-12.83 7.771-20.351v-15.081c18.51 25.767 28.536 56.606 28.536 88.698-.003 36.9-13.587 72.595-37.723 100.253z"/><path d="m290.455 252.542c-4.143 0-7.502 3.358-7.502 7.5v10c0 4.142 3.359 7.5 7.502 7.5s7.502-3.358 7.502-7.5v-10c0-4.142-3.359-7.5-7.502-7.5z"/><path d="m398.477 277.543c4.143 0 7.501-3.358 7.501-7.5v-10c0-4.142-3.359-7.5-7.501-7.5-4.143 0-7.502 3.358-7.502 7.5v10c.001 4.142 3.359 7.5 7.502 7.5z"/><path d="m344.966 295.543c9.688 0 18.626-5.599 22.771-14.265 1.787-3.737.206-8.215-3.531-10.002-3.738-1.789-8.217-.206-10.004 3.531-1.666 3.484-5.292 5.735-9.236 5.735s-7.569-2.251-9.236-5.735c-1.787-3.738-6.267-5.318-10.003-3.531-3.738 1.787-5.319 6.265-3.531 10.002 4.144 8.666 13.082 14.265 22.77 14.265z"/></svg>