<svg id="Layer_1" enable-background="new 0 0 512 512" height="512" viewBox="0 0 512 512" width="512" xmlns="http://www.w3.org/2000/svg"><path d="m329.818 62.99c-13.612-4.374-23.152 13.32-12.066 22.35 3.263 2.658 6.42 5.424 9.481 8.28-8.875-4.055-18.024-7.612-27.415-10.63-13.612-4.374-23.152 13.32-12.066 22.35 3.263 2.658 6.42 5.424 9.481 8.28-8.874-4.055-18.023-7.612-27.415-10.63-13.612-4.374-23.152 13.32-12.066 22.35 49.407 40.244 76.114 103.925 68.172 168.938v6.233c-10.96-1.567-21.012-6.641-29.342-15.121-22.8-23.209-60.027-22.892-82.895.25-22.591 22.863-59.733 23.082-82.585-.229-1.161-1.179-2.369-2.281-3.602-3.34v222.428h317c33.137 0 60-26.863 60-60 0-6.092 0-137.404 0-141.744 0-112.163-73.34-207.198-174.682-239.765z" fill="#7ce3ff"/><path d="m127.5 444.5v-16.15-54.227c0-27.467 10.911-53.809 30.333-73.231-9.79-2.548-19.046-7.678-26.67-15.417l-.061-.062c-1.161-1.179-2.369-2.281-3.602-3.34-22.905-19.659-57.514-18.556-79.087 3.34l-.061.062c-11.242 11.41-26.028 17.168-40.852 17.293v61.197 64.384 16.15c0 33.137 26.863 60 60 60h120c-33.137.001-60-26.862-60-59.999z" fill="#55dafe"/><path d="m502.501 365.412-.061.062c-22.734 23.075-59.956 23.075-82.689 0l-.061-.062c-22.734-23.075-59.956-23.075-82.689 0l-.061.062c-22.734 23.075-59.955 23.075-82.689 0l-.061-.062c-22.734-23.075-59.955-23.075-82.689 0l-.061.062c-12.023 12.203-28.098 17.948-43.939 17.244l-27 28.92 27 32.726c22.817-22.004 59.224-21.666 81.603 1.048l.061.062c22.734 23.075 59.955 23.075 82.689 0l.061-.062c22.734-23.075 59.956-23.075 82.689 0l.061.062c22.734 23.075 59.956 23.075 82.689 0l.061-.062c12.82-13.013 30.248-18.684 47.086-17.02v-64.908c-.678.625-1.346 1.265-2 1.928z" fill="#b9f0ff"/><path d="m88.75 365.474-.061-.062c-22.243-22.577-58.348-23.049-81.189-1.447v64.384c13.196 1.189 26.062 6.872 36.102 17.063l.061.062c22.734 23.075 59.956 23.075 82.689 0l.061-.062c.355-.361.725-.699 1.087-1.048v-61.646c-14.112-.628-28.039-6.372-38.75-17.244z" fill="#7ce3ff"/><path d="m387.26 235.784c-.667-3.309-1.891-6.529-3.596-9.553-4.254-7.548-11.192-12.982-19.514-15.294-8.333-2.328-17.079-1.267-24.62 2.985-1.419.8-2.762 1.694-4.024 2.675-1.274-.982-2.627-1.877-4.057-2.676-7.557-4.224-16.305-5.252-24.616-2.892-8.331 2.351-15.245 7.809-19.47 15.368-1.707 3.056-2.892 6.307-3.542 9.646-6.965.98-13.389 4.187-18.429 9.271-6.089 6.145-9.426 14.294-9.392 22.943.033 8.655 3.438 16.779 9.588 22.875 5.057 5.014 11.471 8.161 18.42 9.098 2.322 11.584 10.915 21.504 23.061 24.91 2.853.795 5.788 1.197 8.722 1.197 7.38 0 14.336-2.536 19.899-6.879 5.56 4.332 12.511 6.866 19.885 6.866 2.977 0 5.943-.414 8.78-1.218 12.138-3.409 20.721-13.344 23.016-24.968 15.757-2.183 27.928-15.737 27.928-32.08v-.434c-.148-16.298-12.334-29.725-28.039-31.84z" fill="#b9f0ff"/><g fill="#7ce3ff"><path d="m200.124 76.405c.129-.129.258-.257.385-.385l.017-.017c1.64-1.668 1.633-4.365-.017-6.024-10.206-10.262-28.236-24.48-42.643-24.48h-.001v.017c-15.524 0-27.323 12.368-27.323 27.482 0 4.227.948 8.229 2.642 11.805 4.391 9.273 13.793 15.679 24.682 15.679v.017c14.528.001 31.845-13.713 42.258-24.094z"/><path d="m232.158 50.986h.396.018c1.701-.015 3.084-1.405 3.089-3.107.029-10.526-1.932-27.11-9.341-34.519l-.001-.001-.009.009c-7.984-7.984-20.412-7.691-28.184.082-2.174 2.173-3.744 4.719-4.712 7.429-2.511 7.027-.97 15.156 4.63 20.756l-.009.009c7.472 7.472 23.429 9.326 34.123 9.342z"/><path d="m222.174 102.916c0-.091 0-.183 0-.273v-.012c-.01-1.174-.969-2.128-2.143-2.131-7.262-.02-18.702 1.333-23.814 6.444l.006.006c-5.508 5.508-5.306 14.082.056 19.444 1.499 1.5 3.256 2.583 5.125 3.251 4.847 1.732 10.456.669 14.319-3.194l.006.006c5.156-5.155 6.434-16.164 6.445-23.541z"/></g><path d="m371.281 139.212c-4.131.317-7.218 3.928-6.897 8.057.164 2.109-1.016 4.271-2.938 5.38-1.921 1.109-4.383 1.051-6.126-.145-3.417-2.343-8.085-1.472-10.427 1.943-2.343 3.416-1.474 8.084 1.942 10.428 6.506 4.463 15.186 4.763 22.109.766.001-.001.002-.001.003-.002 6.923-3.997 11.001-11.663 10.391-19.53-.319-4.129-3.927-7.218-8.057-6.897z"/><path d="m461.189 148.56c-32.585-43.987-77.219-76.046-129.076-92.71-9.476-3.043-19.416.934-24.165 9.683-1.979 3.646-2.776 7.598-2.476 11.423-1.138-.383-2.277-.758-3.416-1.123-9.631-3.094-19.33.786-24.14 9.652-1.984 3.657-2.779 7.623-2.471 11.462-1.11-.374-2.222-.739-3.332-1.097-9.52-3.059-19.5.938-24.265 9.722-4.737 8.736-2.656 19.222 5.062 25.498 23.631 19.22 41.963 44.095 53.464 72.344-12.727 3.04-23.942 12.239-28.611 26.236-14.441 3.956-25.851 16.043-28.612 31.297-15.417 1.443-29.707 8.197-40.798 19.423-20.02 20.261-52.554 19.526-71.834-.146-25.456-25.968-67.585-26.327-93.509-.014-9.455 9.596-22.089 14.943-35.573 15.057-4.118.036-7.437 3.383-7.437 7.501v141.732c0 37.22 30.28 67.5 67.5 67.5h377c37.22 0 67.5-30.28 67.5-67.5 0-6.812 0-136.982 0-141.744 0-56.005-17.57-109.325-50.811-154.196zm35.811 295.94c0 28.948-23.552 52.5-52.5 52.5h-377c-28.948 0-52.5-23.552-52.5-52.5v-7.247c8.771 2.288 16.846 6.913 23.32 13.485 25.474 25.859 67.445 26.32 93.439-.066 20.49-20.832 53.889-19.317 72.061.066 25.386 25.769 67.361 26.406 93.436-.063 19.772-20.071 52.127-20.177 72.065.063 25.38 25.759 67.353 26.412 93.436-.063 9.16-9.298 21.264-14.584 34.243-15.023zm0-84.196c-19.713 19.906-51.985 20.125-71.968-.156-25.794-26.18-67.922-25.965-93.436.063-20.735 21.046-54.098 19.102-72.064-.063-7.147-7.255-15.615-12.611-25.169-15.922-4.095-1.417-8.577.915-9.71 5.181-1.004 3.784 1.214 7.742 4.911 9.032 7.654 2.67 13.8 6.757 19.343 12.299 25.669 26.055 67.688 26.073 93.388-.014 19.553-19.945 52.018-20.382 72.114.014 22.689 23.026 57.466 25.373 82.591 8.843v41.071c-17.028.444-32.929 7.316-44.99 19.559-19.729 20.026-52.084 20.218-72.064-.063-25.377-25.758-67.354-26.413-93.436.063-19.065 19.353-51.089 20.913-72.064-.063-25.937-26.324-67.992-25.8-93.436.063-19.774 20.072-52.127 20.177-72.065-.063-9.251-9.388-21.115-15.728-33.945-18.272v-54.534c19.056-15.922 48.524-16.487 68.407 3.396 25.407 25.787 67.386 26.38 93.436-.063 7.24-7.349 16.395-12.242 26.496-14.165 3.929-.748 6.871-4.246 6.444-8.223-.471-4.39-4.554-7.375-8.812-6.594-13.281 2.436-25.319 8.817-34.874 18.517-19.281 19.572-51.331 20.671-72.064-.063-21.529-21.851-54.13-25.17-79.032-11.003v-39.354c14.657-1.771 28.196-8.397 38.756-19.114 19.973-20.274 52.458-19.937 72.051.048 25.805 26.333 67.896 25.816 93.216.189 8.271-8.37 18.856-13.512 30.258-14.881 2.985 14.93 14.346 26.776 28.695 30.623 7.991 23.81 35.814 34.445 57.712 21.826 2.595 1.499 5.346 2.699 8.227 3.586 3.71 1.143 7.836-.568 9.349-4.144 1.772-4.189-.511-8.866-4.746-10.134-2.98-.893-5.745-2.321-8.217-4.247-2.713-2.114-6.515-2.112-9.224.004-14.564 11.367-36.121 3.506-39.735-14.891-.612-3.115-3.185-5.434-6.331-5.858-11.14-1.503-21.073-10.594-21.513-24.672 0-12.617 9.341-22.904 21.249-24.638 3.2-.466 5.814-2.8 6.428-5.974 3.53-18.257 25.02-26.342 39.752-14.976 2.705 2.085 6.481 2.078 9.181-.019 14.713-11.429 36.249-3.32 39.823 14.866.611 3.111 3.187 5.409 6.329 5.832 12.167 1.639 21.427 12.16 21.539 24.407v.434c0 12.367-9.237 22.971-21.483 24.654-3.187.438-5.682 2.836-6.307 5.992-1.205 6.077-4.578 11.452-9.506 15.151-3.403 2.555-4.137 7.569-1.44 10.861 2.521 3.077 7.04 3.663 10.269 1.267 6.62-4.913 11.509-11.697 14.092-19.447 17.06-4.675 29.376-20.4 29.376-38.478v-.502c-.159-17.456-11.808-32.665-28.01-37.751-4.241-9.313-8.109-13.506-16.378-20.314-12.652-8.891-29.508-9.658-42.919-1.9-4.208-2.427-8.687-3.979-13.229-4.737-12.266-32.686-32.884-61.459-59.889-83.421-3.118-2.536-1.977-5.538-1.341-6.711.508-.934 2.474-3.881 6.489-2.591 5.409 1.738 10.831 3.695 16.12 5.819 4.152 1.667 9.036.339 11.505-3.392 2.674-4.041 1.86-9.312-1.831-12.353l-.829-.679c-3.298-2.688-1.896-5.952-1.388-6.888.634-1.171 2.53-3.757 6.369-2.525 5.42 1.741 10.849 3.699 16.141 5.823 4.154 1.667 9.041.343 11.515-3.387 2.68-4.039 1.868-9.315-1.823-12.358l-.813-.667c-3.261-2.656-1.863-5.905-1.357-6.838.5-.92 2.435-3.826 6.393-2.556 101.367 32.577 169.474 126.061 169.474 232.627z"/><path d="m393.094 125.465c-2.072-3.587-6.659-4.817-10.246-2.746-3.587 2.072-4.816 6.658-2.746 10.245l5 8.661c2.072 3.587 6.658 4.816 10.246 2.746 3.592-2.076 4.813-6.663 2.746-10.245z"/><path d="m334.204 159.465c-2.071-3.587-6.659-4.816-10.246-2.745-3.587 2.072-4.815 6.658-2.745 10.246l5 8.66c2.071 3.586 6.658 4.815 10.245 2.745 3.589-2.074 4.815-6.659 2.745-10.246z"/><path d="m157.282 107.978c.192.015.387.022.583.022 19.124 0 39.627-18.381 47.554-26.283 5.348-5.332 4.7-12.711.408-17.026-11.708-11.771-32.823-27.827-48.525-26.67-19.257.293-34.261 15.552-34.261 34.978-.002 19.13 15.256 34.669 34.241 34.979zm.582-54.961c11.229 0 26.843 12.232 35.007 19.985-8.35 7.964-23.45 19.98-35.006 19.98-10.953 0-19.824-8.932-19.824-19.983 0-11.205 8.707-19.982 19.823-19.982z"/><path d="m232.263 58.498c6.5 0 10.882-5.007 10.897-10.586.018-6.622-.762-29.066-11.538-39.844-.121-.12-.244-.235-.37-.346-11.019-10.638-27.904-10.088-38.429.437-10.806 10.804-10.711 28.097-.092 38.802 10.371 10.369 30.857 11.537 39.532 11.537zm-11.028-39.594c3.635 3.906 6.27 13.553 6.819 24.5-7.307-.334-19.629-1.981-24.707-7.06-2.333-2.332-3.611-5.441-3.601-8.754.033-9.974 12.05-17.409 21.489-8.686z"/><path d="m206.057 137.949c5.503 0 10.679-2.078 14.635-5.867.117-.104.231-.211.343-.322 7.568-7.569 8.663-21.485 8.641-29.121.002-5.206-4.222-9.626-9.622-9.639-50.098-.349-39.98 44.949-13.997 44.949zm4.363-16.802c-5.508 5.508-14.937-2.504-8.736-9.056 2.021-1.834 6.94-3.266 12.74-3.83-.343 3.621-1.421 10.303-4.004 12.886z"/></svg>