<svg id="Layer_1" enable-background="new 0 0 512 512" height="512" viewBox="0 0 512 512" width="512" xmlns="http://www.w3.org/2000/svg"><path d="m109.893 10.54c-11.063 3.615-20.968 9.822-28.988 17.91l-32.308 45-22.939 30c-1.391 3.845-2.158 7.998-2.158 12.346 0 20.037 16.243 36.279 36.279 36.279h86.765z" fill="#d4d4d5"/><path d="m248.5 103.703c0-26.82-21.683-48.03-47.646-48.374v-.003c-9.963-28.176-36.831-48.366-68.42-48.366-7.862 0-15.439 1.259-22.541 3.58-11.256 15.621-17.892 34.793-17.892 55.517 0 38.009 22.308 70.803 54.543 86.017h53.584c26.715.001 48.372-21.656 48.372-48.371z" fill="#efedee"/><path d="m195.261 312.547-113.575 58.601v37.748l-59.04 59.04c-9.698 9.697-15.146 22.85-15.146 36.564h306.415z" fill="#676f72"/><path d="m475.212 407.546-16.426-16.427c-6.716-6.715-10.489-15.824-10.489-25.321s-3.773-18.606-10.489-25.321l-28.826-28.827h-211.982l-1.739.897c-7.953 15.859-12.16 33.471-12.16 51.729v6.871c0 4.833 2.285 9.132 5.834 11.875 5.621 4.345 9.166 10.836 9.166 17.94v7.933l-59.04 59.04c-9.698 9.697-15.146 22.85-15.146 36.564h380.585v-26.246c0-26.519-10.535-51.954-29.288-70.707z" fill="#82888b"/><path d="m238.423 140.883-10.573-10.573c-13.987-13.989-34.032-17.975-52.31-10.405-18.277 7.57-29.632 24.563-29.632 44.347v72.931l-45.372 45.373c-21.829 21.829-33.851 50.852-33.851 81.722v6.871c0 8.284 6.716 15 15 15h87.373c7.049 0 13.959-.889 20.613-2.594l72.652-106.372v-90.304c-2.977-17.338-11.207-33.305-23.9-45.996z" fill="#7ce3ff"/><path d="m264.456 346.633h96.284c22.23 0 43.13-8.657 58.85-24.377 2.813-2.813 4.394-6.628 4.394-10.606s-1.581-7.794-4.394-10.607l-11.353-11.351c-9.596-9.598-22.355-14.883-35.928-14.883h-14.816c-9.349 0-18.138-3.641-24.747-10.25-.439-.439-.691-1.046-.691-1.666 0-39.857-30.724-72.675-69.731-76.015v50.304l-45.372 45.373c-21.829 21.829-33.851 50.852-33.851 81.722v6.871c0 5.159 2.605 9.707 6.571 12.406 14.137-3.623 27.104-10.967 37.693-21.557 9.907-9.908 23.08-15.364 37.091-15.364z" fill="#b9f0ff"/><path d="m328.461 207.087c.002-31.71 21.742-58.216 51.019-65.642 5.342-1.355 10.934-2.076 16.691-2.076 29.483 0 54.56 18.843 63.859 45.142v.003c24.232.321 44.47 20.117 44.47 45.149 0 24.934-20.213 45.146-45.147 45.146h-96.066-34.927c-18.701 0-33.86-15.159-33.86-33.86 0-18.946 15.484-33.961 33.961-33.862z" fill="#efedee"/><path d="m419.26 42.624c-4.739-23.506-32.635-34.051-51.754-19.187-19.213-14.818-47.088-4.175-51.685 19.446-6.965.98-13.389 4.187-18.429 9.271-19.711 19.89-6.662 54.939 22.966 54.912l94.6-.084c18.888-.017 32.342-14.947 32.342-32.084v-.434c-.149-16.298-12.335-29.726-28.04-31.84z" fill="#efedee"/><ellipse cx="205.093" cy="449.722" fill="#ff8e9e" rx="22.474" ry="17.897" transform="matrix(1 .003 -.003 1 1.41 -.64)"/><ellipse cx="326.907" cy="450.103" fill="#ff8e9e" rx="22.474" ry="17.897" transform="matrix(-1 -.003 .003 -1 652.404 901.228)"/><path d="m485.526 407.716c-2.724-3.12-7.462-3.444-10.582-.723-3.137 2.732-3.449 7.497-.684 10.615 14.807 16.696 22.74 38.376 22.74 60.681v18.726h-481.37c1.521-8.948 5.765-17.188 12.319-23.736l59.04-58.978c1.406-1.406 2.196-3.311 2.196-5.298v-15.232h16.293c4.107 0 7.688-3.162 7.811-7.263.127-4.243-3.278-7.721-7.497-7.721h-24.106c-4.142 0-7.5-3.354-7.5-7.492v-6.864c0-28.837 11.241-55.947 31.654-76.338l45.372-45.326c1.406-1.405 2.196-3.31 2.196-5.297v-72.28c0-16.449 9.673-31.551 24.865-37.895 5.178-2.162 10.543-3.258 15.942-3.258 10.543 0 20.604 4.251 28.331 11.972l10.574 10.562c11.535 11.522 19.077 26.017 21.812 41.917.577 3.36 3.353 5.906 6.752 6.197 14.323 1.225 27.767 6.91 38.64 16.183-8.267 7.632-13.426 18.588-13.322 30.728.196 22.799 19.274 40.954 42.098 40.954h43.21c11.569 0 22.445 4.5 30.625 12.673l11.166 11.153c1.346 1.344 2.251 3.108 2.369 5.005.134 2.179-.653 4.249-2.182 5.776-14.305 14.289-33.321 22.157-53.547 22.157h-96.284c-16.015 0-31.07 6.23-42.396 17.542-9.516 9.507-21.359 16.275-34.25 19.574-6.109 1.564-12.418 2.357-18.752 2.357h-32.952c-4.107 0-7.688 3.162-7.811 7.262-.127 4.243 3.278 7.722 7.497 7.722h33.266c7.589 0 15.15-.951 22.475-2.825 15.579-3.987 29.873-12.179 41.321-23.681 8.342-8.381 19.77-12.967 31.602-12.967h96.284c21.714 0 42.251-7.591 58.618-21.479l13.149 13.136c5.272 5.265 8.208 12.243 8.289 19.679.138 12.592 5.309 22.08 9.128 27.05 1.638 2.131 3.587 3.99 5.17 5.348 4.681 4.012 12.145.529 11.649-5.613-.017-.207-.042-.416-.077-.626-.237-1.447-2.905-6.116-3.942-7.306-4.481-5.142-6.926-11.651-6.926-18.535 0-11.557-4.505-22.423-12.685-30.592l-13.838-13.824c1.43-2.986 2.208-6.267 2.208-9.676 0-6.002-2.34-11.647-6.591-15.894l-11.352-11.338c-.715-.714-1.446-1.406-2.191-2.078h47.172c27.834 0 51.485-21.27 53.357-49.012 1.92-28.449-19.257-52.784-46.608-55.85-11.797-27.365-38.96-45.419-69.099-45.419-6.268 0-12.504.776-18.535 2.304-31.117 7.883-53.484 34.465-56.361 65.936-2.666.458-5.24 1.181-7.707 2.127-12.43-11.864-28.074-19.601-44.976-22.207-3.804-16.196-11.876-30.966-23.556-43.1 7.105-9.561 10.963-21.106 10.963-33.196 0-28.639-21.95-52.534-49.9-55.508-12.491-29.282-41.486-48.625-73.666-48.625-6.67 0-13.308.825-19.728 2.452-16.928 4.289-31.413 13.783-41.948 26.506h-62.944c-4.106 0-7.688 3.161-7.811 7.261-.127 4.243 3.278 7.723 7.497 7.723h53.449c-2.399 4.755-4.327 9.772-5.745 14.984h-32.39c-4.106 0-7.688 3.161-7.811 7.261-.127 4.243 3.278 7.723 7.497 7.723h26.097c-9.192 2.418-17.205 7.77-22.989 14.984h-13.108c-4.142 0-7.5 3.354-7.5 7.492s3.358 7.492 7.5 7.492h5.272c-1.182 4.018-1.805 8.274-1.771 12.678.187 24.142 20.362 43.388 44.53 43.388h78.069c-.123 1.541-.191 3.098-.191 4.672v69.751l-43.176 43.13c-23.245 23.222-36.047 54.095-36.047 86.934v6.864c0 9.767 6.271 18.095 15 21.188v13.418l-56.844 56.783c-11.156 11.145-17.313 25.955-17.342 41.712-.002 1.037.172 2.081.584 3.033 1.241 2.863 3.99 4.571 6.916 4.571h497c4.142 0 7.5-3.354 7.5-7.492v-26.218c0-25.952-9.402-51.015-26.474-70.574zm-170.082-189.444c.149-.079.297-.158.442-.248 3.702-1.992 7.932-3.126 12.424-3.126.021 0 .13.001.15.001 4.142 0 7.5-3.354 7.5-7.492.002-27.566 18.656-51.543 45.364-58.311 4.827-1.223 9.822-1.844 14.847-1.844 25.408 0 48.176 16.029 56.719 39.906.962 2.979 3.741 5.147 7.04 5.19 20.44.27 37.069 17.142 37.069 37.61 0 20.737-16.888 37.607-37.646 37.607h-130.993c-14.535 0-26.36-11.813-26.36-26.332 0-9.846 5.425-18.443 13.444-22.961zm-255.666-73.311c-15.868 0-28.778-12.897-28.778-28.748 0-15.853 12.872-28.751 28.773-28.751 2.005.054 3.944-.744 5.376-2.153s2.237-3.331 2.237-5.338c.002-29.779 20.154-55.684 49.008-62.994 5.216-1.322 10.612-1.992 16.039-1.992 27.458 0 52.062 17.327 61.284 43.136.965 2.973 3.741 5.136 7.037 5.18 22.192.294 40.246 18.611 40.246 40.832 0 8.072-2.348 15.811-6.708 22.419l-1.139-1.138c-10.561-10.55-24.389-16.361-38.938-16.361-7.331 0-14.579 1.46-21.545 4.342-14.734 6.096-25.569 17.485-30.785 31.565h-82.107z"/><path d="m320.365 114.982 94.6-.084c22.337-.02 39.835-17.389 39.835-39.542v-.501c-.164-17.973-12.536-33.562-29.519-38.152-5.442-15.973-20.668-27.109-37.955-27.109-7.027 0-13.791 1.834-19.836 5.346-6.027-3.474-12.76-5.288-19.745-5.288-17.385 0-32.624 11.231-37.985 27.338-6.672 1.826-12.716 5.357-17.694 10.373-7.459 7.518-11.566 17.423-11.566 27.89-.001 19.529 14.908 39.729 39.865 39.729zm-17.646-57.071c3.87-3.899 8.762-6.36 14.147-7.117 3.169-.445 5.706-2.85 6.317-5.988 2.58-13.243 14.309-20.171 24.562-20.171 5.476 0 10.726 1.814 15.181 5.247 2.709 2.086 6.485 2.08 9.185-.018 4.454-3.459 9.716-5.287 15.216-5.287 10.208 0 21.93 6.877 24.582 20.02.633 3.131 3.183 5.518 6.352 5.944 12.168 1.638 21.428 12.148 21.54 24.382v.433c0 13.759-10.915 24.545-24.849 24.558l-94.593.084c-16.146 0-24.859-12.75-24.859-24.746-.001-4.591 1.252-11.326 7.219-17.341z"/><path d="m204.5 420.133v9.99c0 4.138 3.358 7.492 7.5 7.492s7.5-3.354 7.5-7.492v-9.99c0-4.138-3.358-7.492-7.5-7.492s-7.5 3.355-7.5 7.492z"/><path d="m312.5 420.133v9.99c0 4.138 3.358 7.492 7.5 7.492s7.5-3.354 7.5-7.492v-9.99c0-4.138-3.358-7.492-7.5-7.492s-7.5 3.355-7.5 7.492z"/><path d="m275.734 434.882c-1.666 3.48-5.291 5.729-9.234 5.729s-7.568-2.249-9.234-5.729c-1.787-3.733-6.266-5.312-10.001-3.527-3.737 1.785-5.318 6.258-3.531 9.991 4.144 8.656 13.08 14.25 22.766 14.25s18.623-5.593 22.766-14.25c1.787-3.733.206-8.206-3.531-9.991-3.737-1.786-8.214-.205-10.001 3.527z"/></svg>