<svg id="Layer_1" enable-background="new 0 0 512 512" height="512" viewBox="0 0 512 512" width="512" xmlns="http://www.w3.org/2000/svg"><path d="m252.249 291.431v-223.931c0-33.137-26.863-60-60-60s-60 26.863-60 60v223.931c-32.965 20.243-55 56.63-55 98.069 0 63.411 51.589 115 115 115s115-51.589 115-115c0-41.439-22.035-77.826-55-98.069z" fill="#b9f0ff"/><path d="m222.249 67.5c0-16.542-13.458-30-30-30s-30 13.458-30 30v163.931h60z" fill="#7ce3ff"/><path d="m162.249 231.431h60v106.782h-60z" fill="#64b3fb"/><path d="m192.249 474.5c-46.869 0-85-38.131-85-85s38.131-85 85-85 85 38.131 85 85-38.131 85-85 85z" fill="#88c5fd"/><path d="m153.369 389.5c0-1.199.026-2.392.075-3.579 0-.026.003-.052.003-.078.707-16.611 6.21-31.997 15.148-44.82 12.418-16.822 31.501-28.518 53.633-31.048-2.271-.859-4.575-1.634-6.933-2.3-27.181-7.679-57.487-1.473-79.849 18.655l-.024.009-.008.019c-17.28 15.569-28.165 38.105-28.165 63.141 0 46.869 38.131 85 85 85 7.99 0 15.724-1.11 23.06-3.181-35.7-10.074-61.94-42.939-61.94-81.818z" fill="#64b3fb"/><path d="m429.14 230.991-4.569-3.668 4.569-3.67c6.46-5.187 7.492-14.628 2.306-21.087-5.185-6.46-14.628-7.494-21.087-2.306l-13.945.912c6.46-5.187 7.492-14.628 2.307-21.088-5.188-6.459-14.625-7.492-21.088-2.307l-2.883 2.314v-4.591c0-8.284-6.716-15-15-15s-15 6.716-15 15v4.592l-2.882-2.313c-6.46-5.185-15.901-4.152-21.088 2.307-5.186 6.46-4.153 15.901 2.307 21.088l-13.946-.913c-6.461-5.186-15.901-4.152-21.087 2.307-5.187 6.46-4.154 15.901 2.306 21.087l4.57 3.67-4.57 3.668c-6.46 5.187-7.492 14.628-2.307 21.088 2.963 3.69 7.315 5.61 11.707 5.61 3.294 0 6.611-1.081 9.381-3.304l-1.711 4.384c-8.284 0-15 6.716-15 15s6.716 15 15 15h12.067v6.73c0 8.284 6.716 15 15 15s15-6.716 15-15v-15.951l10.253-11.33 10.254 11.331v15.95c0 8.284 6.716 15 15 15s15-6.716 15-15v-6.73h12.067c8.284 0 15-6.716 15-15s-6.716-15-15-15l-1.712-4.384c2.77 2.223 6.086 3.304 9.381 3.304 4.392 0 8.744-1.92 11.707-5.61 5.185-6.462 4.153-15.903-2.307-21.09z" fill="#64b3fb"/><path d="m442.116 214.402c.653-5.975-1.059-11.846-4.82-16.53-3.763-4.688-9.125-7.629-15.1-8.282-4.487-.49-8.916.354-12.828 2.398.646-5.749-.901-11.742-4.8-16.599-5.817-7.243-15.24-9.931-23.666-7.563-3.144-8.64-11.439-14.826-21.152-14.826-9.712 0-18.007 6.186-21.151 14.824-8.424-2.366-17.85.321-23.667 7.565-3.901 4.86-5.447 10.859-4.797 16.612-9.321-4.854-21.104-2.631-27.93 5.87-3.763 4.687-5.475 10.558-4.821 16.532.535 4.9 2.61 9.39 5.926 12.921-7.52 8.037-8.191 20.623-1.105 29.45 1.712 2.133 3.764 3.896 6.042 5.253-2.102 3.421-3.316 7.442-3.316 11.742 0 12.406 10.094 22.5 22.5 22.5h4.58c.407 12.052 10.338 21.73 22.487 21.73 12.406 0 22.5-10.094 22.5-22.5v-13.062l2.753-3.042 2.754 3.043v13.062c0 12.406 10.094 22.5 22.5 22.5 12.149 0 22.08-9.679 22.487-21.73h4.58c12.406 0 22.5-10.094 22.5-22.5 0-4.3-1.215-8.322-3.316-11.743 2.278-1.357 4.329-3.12 6.041-5.252 7.086-8.828 6.415-21.413-1.105-29.45 3.313-3.533 5.388-8.022 5.924-12.923zm-30.045 66.868h-12.067c-4.143 0-7.5 3.357-7.5 7.5v6.73c0 4.136-3.364 7.5-7.5 7.5s-7.5-3.364-7.5-7.5v-15.95c0-1.859-.691-3.653-1.939-5.032l-10.253-11.331c-1.422-1.571-3.442-2.468-5.562-2.468s-4.14.896-5.562 2.468l-10.253 11.33c-1.247 1.379-1.938 3.173-1.938 5.032v15.951c0 4.136-3.364 7.5-7.5 7.5s-7.5-3.364-7.5-7.5v-6.73c0-4.143-3.357-7.5-7.5-7.5h-12.067c-4.136 0-7.5-3.364-7.5-7.5s3.364-7.5 7.5-7.5c3.936 0 7.157-3.033 7.469-6.889l7.291-5.853 9.553 4.335c3.773 1.711 8.219.04 9.93-3.73 1.711-3.772.041-8.218-3.73-9.93l-13.752-6.24c-2.575-1.166-5.588-.789-7.795.981l-11.948 9.592c-1.702 1.366-3.488 1.653-4.687 1.653-2.292 0-4.427-1.022-5.858-2.806-2.589-3.225-2.071-7.955 1.152-10.543l4.57-3.668c1.773-1.424 2.806-3.574 2.806-5.849s-1.031-4.425-2.804-5.849l-4.571-3.671c-1.563-1.254-2.542-3.041-2.76-5.032s.353-3.948 1.607-5.511c2.588-3.224 7.317-3.741 10.544-1.153 3.23 2.594 7.95 2.074 10.543-1.154.19-.237.358-.484.515-.735.868.999 1.82 1.945 2.887 2.803l18.858 15.14v.425c0 4.143 3.357 7.5 7.5 7.5s7.5-3.357 7.5-7.5v-4.021c0-2.273-1.031-4.425-2.805-5.849l-21.663-17.392c-3.225-2.589-3.742-7.319-1.154-10.543 2.589-3.226 7.319-3.744 10.545-1.154l2.882 2.313c2.25 1.807 5.337 2.162 7.938.914s4.257-3.877 4.257-6.763v-4.591c0-4.136 3.364-7.5 7.5-7.5s7.5 3.364 7.5 7.5v4.593c0 2.886 1.655 5.515 4.257 6.763 2.601 1.247 5.688.892 7.938-.914l2.881-2.313c3.228-2.589 7.957-2.07 10.546 1.152 2.589 3.225 2.071 7.955-1.153 10.544l-21.664 17.392c-1.773 1.424-2.805 3.575-2.805 5.849v4.021c0 4.143 3.357 7.5 7.5 7.5s7.5-3.357 7.5-7.5v-.425l18.859-15.14c1.067-.857 2.018-1.803 2.886-2.802.158.253.327.5.518.738 2.594 3.228 7.315 3.746 10.544 1.149 1.56-1.254 3.512-1.82 5.509-1.606 1.991.218 3.778 1.198 5.033 2.762 1.254 1.562 1.824 3.518 1.606 5.509-.218 1.992-1.197 3.779-2.761 5.034l-4.569 3.67c-1.772 1.424-2.804 3.575-2.804 5.849s1.032 4.425 2.805 5.848l4.569 3.668c3.225 2.589 3.742 7.319 1.153 10.544-1.432 1.783-3.566 2.806-5.858 2.806-1.198 0-2.984-.287-4.686-1.652l-11.948-9.593c-2.206-1.771-5.218-2.148-7.795-.981l-13.752 6.24c-3.771 1.712-5.441 6.157-3.73 9.93 1.713 3.772 6.155 5.442 9.93 3.73l9.553-4.335 7.291 5.854c.313 3.855 3.534 6.888 7.469 6.888 4.136 0 7.5 3.364 7.5 7.5s-3.366 7.498-7.501 7.498z"/><path d="m259.748 287.321v-219.821c0-37.22-30.28-67.5-67.5-67.5s-67.5 30.28-67.5 67.5v219.821c-33.809 22.414-55 60.401-55 102.179 0 67.547 54.953 122.5 122.5 122.5 23.452 0 46.261-6.678 65.959-19.311 3.486-2.236 4.501-6.876 2.265-10.362s-6.876-4.501-10.362-2.265c-17.278 11.082-37.286 16.938-57.862 16.938-59.275 0-107.5-48.225-107.5-107.5 0-37.632 19.225-71.904 51.425-91.678 2.222-1.364 3.575-3.784 3.575-6.392v-223.93c0-28.948 23.552-52.5 52.5-52.5s52.5 23.552 52.5 52.5v223.931c0 2.607 1.354 5.027 3.575 6.392 32.2 19.772 51.425 54.045 51.425 91.678 0 26.902-10.029 52.666-28.239 72.544-2.798 3.055-2.59 7.799.464 10.597 3.055 2.8 7.799 2.591 10.597-.464 20.751-22.651 32.179-52.014 32.179-82.677-.001-41.863-21.261-79.813-55.001-102.18z"/><path d="m99.749 389.5c0 51.005 41.495 92.5 92.5 92.5s92.5-41.495 92.5-92.5c0-36.455-21.897-69.786-55-84.535v-73.534c0-.044-.006-.087-.007-.131-.063-3.622-2.69-6.613-6.146-7.241-.438-.081-.887-.128-1.347-.128-.006 0-.013.001-.019.001h-52.481v-15h12.499c4.143 0 7.5-3.357 7.5-7.5s-3.357-7.5-7.5-7.5h-12.499v-15h12.499c4.143 0 7.5-3.357 7.5-7.5s-3.357-7.5-7.5-7.5h-12.499v-15h12.499c4.143 0 7.5-3.357 7.5-7.5s-3.357-7.5-7.5-7.5h-12.499v-15h12.499c4.143 0 7.5-3.357 7.5-7.5s-3.357-7.5-7.5-7.5h-12.499v-15h12.499c4.143 0 7.5-3.357 7.5-7.5s-3.357-7.5-7.5-7.5h-12.499v-6.432c0-12.308 10.007-22.5 22.5-22.5 12.402 0 22.5 10.104 22.5 22.5v133.93c0 4.14 3.359 7.5 7.5 7.5 4.13 0 7.5-3.36 7.5-7.5v-133.93c-.022-20.695-16.744-37.48-37.5-37.5-20.803.02-37.5 16.869-37.5 37.5v237.465c-33.102 14.749-55 48.08-55 84.535zm119.845-72.501c29.999 11.355 50.155 40.492 50.155 72.501 0 42.733-34.767 77.5-77.5 77.5s-77.5-34.767-77.5-77.5c0-32.01 20.156-61.146 50.155-72.501 2.916-1.104 4.845-3.896 4.845-7.015v-41.054h12.499c4.143 0 7.5-3.357 7.5-7.5s-3.357-7.5-7.5-7.5h-12.499v-15h45v71.054c0 3.119 1.929 5.911 4.845 7.015z"/><path d="m148.249 368c-4.142 0-7.5 3.358-7.5 7.5v10c0 4.142 3.358 7.5 7.5 7.5s7.5-3.358 7.5-7.5v-10c0-4.142-3.358-7.5-7.5-7.5z"/><path d="m236.249 393c4.142 0 7.5-3.358 7.5-7.5v-10c0-4.142-3.358-7.5-7.5-7.5s-7.5 3.358-7.5 7.5v10c0 4.142 3.358 7.5 7.5 7.5z"/><path d="m211.984 386.734c-3.737-1.789-8.215-.206-10.001 3.531-1.666 3.484-5.291 5.735-9.234 5.735s-7.568-2.251-9.234-5.735c-1.787-3.737-6.266-5.317-10.001-3.531-3.737 1.787-5.318 6.265-3.531 10.001 4.144 8.666 13.08 14.265 22.766 14.265s18.623-5.599 22.766-14.265c1.787-3.736.206-8.214-3.531-10.001z"/></svg>