<svg id="Layer_1" enable-background="new 0 0 512 512" height="512" viewBox="0 0 512 512" width="512" xmlns="http://www.w3.org/2000/svg"><path d="m256.967 291.431v-223.931c0-33.137-26.863-60-60-60s-60 26.863-60 60v223.931c-32.965 20.243-55 56.63-55 98.069 0 63.411 51.589 115 115 115s115-51.589 115-115c0-41.439-22.035-77.826-55-98.069z" fill="#b9f0ff"/><path d="m226.967 67.5c0-16.542-13.458-30-30-30s-30 13.458-30 30v43.931h60z" fill="#7ce3ff"/><path d="m166.967 111.431h60v226.782h-60z" fill="#ea5b70"/><path d="m196.967 474.5c-46.869 0-85-38.131-85-85s38.131-85 85-85 85 38.131 85 85-38.131 85-85 85z" fill="#ff8e9e"/><path d="m158.088 389.5c0-1.199.026-2.392.075-3.579 0-.026.003-.052.003-.078.707-16.611 6.21-31.997 15.148-44.82 12.418-16.822 31.501-28.518 53.633-31.048-2.271-.859-4.575-1.634-6.933-2.3-27.181-7.679-57.487-1.473-79.849 18.655l-.024.009-.008.019c-17.28 15.569-28.165 38.105-28.165 63.141 0 46.869 38.131 85 85 85 7.99 0 15.724-1.11 23.06-3.181-35.7-10.074-61.94-42.939-61.94-81.818z" fill="#ea5b70"/><path d="m430.033 235.225c0-15.891-14.998-34.83-26.352-46.219-.141-.141-.281-.282-.421-.421l-.019-.019c-1.811-1.811-4.741-1.817-6.558-.011-1.604 1.594-3.299 3.37-5.023 5.278-7.113-11.741-16.615-22.757-24.732-30.898-.189-.19-.378-.379-.566-.566l-.025-.025c-2.406-2.432-6.334-2.469-8.761-.058-11.401 11.323-26.159 29.258-32.678 46.497-.993-1.073-1.973-2.093-2.919-3.042-.11-.111-.22-.221-.328-.329l-.014-.014c-1.423-1.399-3.724-1.393-5.14.014l-9.969 17.37c-12.147 21.166-10.062 48.747 8.263 67.478 12.641 12.921 29.947 20.215 48.023 20.239 37.69-.051 67.979-31.065 67.204-68.695l-.004-6.58h.019z" fill="#ffb357"/><path d="m366.221 210.917c-.129-.129-.257-.258-.385-.385l-.017-.017c-1.668-1.64-4.365-1.633-6.024.017-10.262 10.206-24.48 28.236-24.48 42.643v.001h.017c0 15.524 12.368 27.323 27.482 27.323 4.227 0 8.229-.948 11.805-2.642 9.273-4.391 15.679-13.793 15.679-24.682h.017c0-14.528-13.713-31.845-24.094-42.258z" fill="#fce3a0"/><path d="m437.533 235.226c0-18.452-15.942-38.915-28.987-51.96-4.263-4.264-10.946-4.688-15.688-1.271-6.211-8.815-13.574-17.31-21.189-24.926-5.326-5.382-13.999-5.444-19.378-.104-5.14 5.104-20.829 21.496-30.426 40.25-5.115-1.307-10.025 1.241-11.873 4.464l-9.969 17.37c-14.46 25.198-10.68 55.923 9.407 76.456 28.747 29.384 76.872 30.546 106.759-.004 14.152-14.466 21.726-33.562 21.329-53.775-.004-6.731.015-6.5.015-6.5zm-32.065 49.787c-23.889 24.418-62.326 23.502-85.314.003-15.34-15.68-18.201-39.189-7.12-58.499l6.934-12.082c3.938 3.435 10.1 1.883 11.946-2.998 6.98-18.455 23.705-36.508 30.016-42.893 5.561 5.607 15.688 16.581 23.316 29.176 2.58 4.257 8.582 4.904 11.979 1.144.913-1.011 1.827-1.993 2.734-2.939 8.99 9.325 22.556 26.283 22.556 39.307.006 10.722 1.305 31.02-17.047 49.781z"/><path d="m354.506 205.215c-11.656 11.592-27.893 32.862-26.669 48.528.199 12.496 7.013 23.913 17.883 29.897 1.147.632 2.388.932 3.61.931 7.729 0 10.396-10.341 3.624-14.071-6.338-3.489-10.122-9.965-10.122-17.323 0-11.234 12.245-26.856 19.987-35.009 8.039 8.414 19.979 23.425 19.979 35.008 0 6.694-3.371 12.891-9.017 16.576-3.469 2.264-4.445 6.911-2.181 10.38 2.265 3.47 6.914 4.445 10.38 2.181 10.197-6.657 15.835-17.76 15.835-29.137 0-19.356-18.668-39.991-26.65-47.922-4.483-4.525-11.985-4.696-16.659-.039z"/><path d="m264.467 287.321v-219.821c0-37.22-30.28-67.5-67.5-67.5s-67.5 30.28-67.5 67.5v219.821c-33.81 22.414-55 60.401-55 102.179 0 67.547 54.953 122.5 122.5 122.5 23.452 0 46.261-6.678 65.959-19.311 3.486-2.236 4.501-6.876 2.265-10.362s-6.876-4.501-10.362-2.265c-17.278 11.082-37.286 16.938-57.862 16.938-59.275 0-107.5-48.225-107.5-107.5 0-37.632 19.225-71.904 51.425-91.678 2.222-1.364 3.575-3.784 3.575-6.392v-223.93c0-28.948 23.552-52.5 52.5-52.5s52.5 23.552 52.5 52.5v223.931c0 2.607 1.354 5.027 3.575 6.392 32.2 19.772 51.425 54.045 51.425 91.678 0 26.902-10.029 52.666-28.239 72.544-2.798 3.055-2.59 7.799.464 10.597 3.055 2.8 7.799 2.591 10.597-.464 20.751-22.651 32.179-52.014 32.179-82.677-.001-41.862-21.262-79.813-55.001-102.18z"/><path d="m234.468 304.965c0-10.351 0-183.391 0-193.535 0-.045-.006-.086-.007-.131-.071-4.07-3.389-7.368-7.512-7.368h-39.982-12.499v-15h12.499c4.143 0 7.5-3.357 7.5-7.5s-3.357-7.5-7.5-7.5h-12.499v-6.431c0-12.308 10.007-22.5 22.5-22.5 12.402 0 22.5 10.104 22.5 22.5v13.93c0 4.14 3.359 7.5 7.5 7.5 4.13 0 7.5-3.36 7.5-7.5v-13.93c-.022-20.695-16.744-37.479-37.5-37.5-20.803.021-37.5 16.869-37.5 37.5v237.465c-33.103 14.749-55 48.08-55 84.535 0 51.005 41.495 92.5 92.5 92.5s92.5-41.495 92.5-92.5c0-36.455-21.898-69.786-55-84.535zm-37.5 162.035c-42.733 0-77.5-34.767-77.5-77.5 0-32.01 20.156-61.146 50.155-72.501 2.916-1.104 4.845-3.896 4.845-7.015v-41.054h12.499c4.143 0 7.5-3.357 7.5-7.5s-3.357-7.5-7.5-7.5h-12.499v-15h12.499c4.143 0 7.5-3.357 7.5-7.5s-3.357-7.5-7.5-7.5h-12.499v-15h12.499c4.143 0 7.5-3.357 7.5-7.5s-3.357-7.5-7.5-7.5h-12.499v-15h12.499c4.143 0 7.5-3.357 7.5-7.5s-3.357-7.5-7.5-7.5h-12.499v-15h12.499c4.143 0 7.5-3.357 7.5-7.5s-3.357-7.5-7.5-7.5h-12.499v-15h12.499 32.501v191.054c0 3.118 1.929 5.91 4.845 7.015 29.999 11.355 50.155 40.492 50.155 72.501 0 42.733-34.767 77.5-77.5 77.5z"/><path d="m152.967 368c-4.142 0-7.5 3.358-7.5 7.5v10c0 4.142 3.358 7.5 7.5 7.5s7.5-3.358 7.5-7.5v-10c0-4.142-3.358-7.5-7.5-7.5z"/><path d="m240.967 393c4.142 0 7.5-3.358 7.5-7.5v-10c0-4.142-3.358-7.5-7.5-7.5s-7.5 3.358-7.5 7.5v10c0 4.142 3.358 7.5 7.5 7.5z"/><path d="m188.233 390.265c-1.787-3.737-6.266-5.317-10.001-3.531-3.737 1.787-5.318 6.265-3.531 10.001 4.144 8.666 13.08 14.265 22.766 14.265s18.623-5.599 22.766-14.265c1.787-3.737.206-8.215-3.531-10.001-3.737-1.789-8.215-.206-10.001 3.531-1.666 3.484-5.291 5.735-9.234 5.735s-7.568-2.251-9.234-5.735z"/></svg>