<svg id="Layer_1" enable-background="new 0 0 512 512" height="512" viewBox="0 0 512 512" width="512" xmlns="http://www.w3.org/2000/svg"><path d="m182.5 291.431v-223.931c0-33.137-26.863-60-60-60s-60 26.863-60 60v223.931c-32.965 20.243-55 56.63-55 98.069 0 63.411 51.589 115 115 115s115-51.589 115-115c0-41.439-22.035-77.826-55-98.069z" fill="#b9f0ff"/><path d="m152.5 67.5c0-16.542-13.458-30-30-30s-30 13.458-30 30v163.931h60z" fill="#7ce3ff"/><path d="m92.5 231.431h60v106.782h-60z" fill="#64b3fb"/><path d="m122.5 474.5c-46.869 0-85-38.131-85-85s38.131-85 85-85 85 38.131 85 85-38.131 85-85 85z" fill="#88c5fd"/><path d="m83.621 389.5c0-1.199.026-2.392.075-3.579 0-.026.003-.052.003-.078.707-16.611 6.21-31.997 15.148-44.82 12.418-16.822 31.501-28.518 53.633-31.048-2.271-.859-4.575-1.634-6.933-2.3-27.181-7.679-57.487-1.473-79.849 18.655l-.024.009-.008.019c-17.281 15.571-28.166 38.107-28.166 63.142 0 46.869 38.131 85 85 85 7.99 0 15.724-1.11 23.06-3.181-35.7-10.075-61.939-42.94-61.939-81.819z" fill="#64b3fb"/><path d="m449.5 291.431v-223.931c0-33.137-26.863-60-60-60s-60 26.863-60 60v223.931c-32.965 20.243-55 56.63-55 98.069 0 63.411 51.589 115 115 115s115-51.589 115-115c0-41.439-22.035-77.826-55-98.069z" fill="#b9f0ff"/><path d="m419.5 67.5c0-16.542-13.458-30-30-30s-30 13.458-30 30v43.931h60z" fill="#7ce3ff"/><path d="m359.5 111.431h60v226.782h-60z" fill="#ea5b70"/><path d="m389.5 474.5c-46.869 0-85-38.131-85-85s38.131-85 85-85 85 38.131 85 85-38.131 85-85 85z" fill="#ff8e9e"/><path d="m350.621 389.5c0-1.199.026-2.392.075-3.579 0-.026.003-.052.003-.078.707-16.611 6.21-31.997 15.148-44.82 12.418-16.822 31.501-28.518 53.633-31.048-2.271-.859-4.575-1.634-6.933-2.3-27.181-7.679-57.487-1.473-79.849 18.655l-.024.009-.008.019c-17.28 15.569-28.165 38.105-28.165 63.141 0 46.869 38.131 85 85 85 7.99 0 15.724-1.11 23.06-3.181-35.701-10.074-61.94-42.939-61.94-81.818z" fill="#ea5b70"/><path d="m245.512 222.793c2.931 2.932 7.687 2.933 10.618-.001 2.932-2.933 2.932-7.686 0-10.617-11.709-11.71-30.764-11.711-42.473.001-11.711 11.711-11.711 30.765 0 42.474 5.854 5.854 13.546 8.781 21.235 8.781 7.691 0 15.383-2.927 21.237-8.782 2.932-2.932 2.932-7.686 0-10.618-2.931-2.933-7.687-2.933-10.618-.001-5.854 5.856-15.381 5.854-21.235.001-5.854-5.856-5.854-15.382 0-21.237 5.854-5.856 15.381-5.856 21.236-.001z"/><circle cx="261.664" cy="197.431" r="7.5"/><path d="m261.672 143.964c4.146 0 7.509-3.36 7.509-7.509v-15.017h9.51c4.147 0 7.508-3.36 7.508-7.508s-3.36-7.508-7.508-7.508h-9.51v-7.509h15.517c4.146 0 7.508-3.36 7.508-7.509 0-4.146-3.361-7.508-7.508-7.508h-23.025c-4.146 0-7.508 3.361-7.508 7.508v45.05c-.001 4.15 3.36 7.51 7.507 7.51z"/><circle cx="301.664" cy="76.431" r="7.5"/><path d="m190 287.321v-219.821c0-37.22-30.28-67.5-67.5-67.5s-67.5 30.28-67.5 67.5v219.821c-33.809 22.414-55 60.401-55 102.179 0 67.547 54.953 122.5 122.5 122.5 23.452 0 46.261-6.678 65.959-19.311 3.486-2.236 4.501-6.876 2.265-10.362s-6.877-4.501-10.362-2.265c-17.278 11.082-37.286 16.938-57.862 16.938-59.275 0-107.5-48.225-107.5-107.5 0-37.632 19.225-71.904 51.425-91.678 2.222-1.364 3.575-3.784 3.575-6.392v-223.93c0-28.948 23.552-52.5 52.5-52.5s52.5 23.552 52.5 52.5v223.931c0 2.607 1.354 5.027 3.575 6.392 32.2 19.773 51.425 54.045 51.425 91.677 0 26.902-10.029 52.666-28.239 72.544-2.798 3.055-2.59 7.799.464 10.597 3.055 2.799 7.799 2.591 10.597-.464 20.75-22.652 32.178-52.014 32.178-82.677 0-21.3-5.578-42.293-16.131-60.712-9.523-16.622-22.907-30.885-38.869-41.467z"/><path d="m85 304.965c-33.103 14.749-55 48.08-55 84.535 0 51.005 41.495 92.5 92.5 92.5s92.5-41.495 92.5-92.5c0-36.455-21.897-69.786-55-84.535v-73.534c0-.077-.009-.151-.012-.228-.122-4.034-3.43-7.271-7.507-7.271h-52.481v-15h12.5c4.143 0 7.5-3.357 7.5-7.5s-3.357-7.5-7.5-7.5h-12.5v-15h12.5c4.143 0 7.5-3.357 7.5-7.5s-3.357-7.5-7.5-7.5h-12.5v-15h12.5c4.143 0 7.5-3.357 7.5-7.5s-3.357-7.5-7.5-7.5h-12.5v-15h12.5c4.143 0 7.5-3.357 7.5-7.5s-3.357-7.5-7.5-7.5h-12.5v-15h12.5c4.143 0 7.5-3.357 7.5-7.5s-3.357-7.5-7.5-7.5h-12.5v-6.432c0-12.504 10.205-22.5 22.5-22.5 12.327 0 22.5 10.028 22.5 22.5v133.93c0 4.14 3.359 7.5 7.5 7.5 4.14 0 7.5-3.36 7.5-7.5v-133.93c-.022-20.733-16.784-37.48-37.5-37.5-20.733.02-37.48 16.784-37.5 37.5v163.93zm64.845 12.034c29.999 11.355 50.155 40.492 50.155 72.501 0 42.733-34.767 77.5-77.5 77.5s-77.5-34.767-77.5-77.5c0-32.009 20.156-61.146 50.155-72.501 2.916-1.104 4.845-3.896 4.845-7.015v-41.054h12.5c4.143 0 7.5-3.357 7.5-7.5s-3.357-7.5-7.5-7.5h-12.5v-15h45v71.054c0 3.119 1.929 5.911 4.845 7.015z"/><path d="m78.5 368c-4.142 0-7.5 3.358-7.5 7.5v10c0 4.142 3.358 7.5 7.5 7.5s7.5-3.358 7.5-7.5v-10c0-4.142-3.358-7.5-7.5-7.5z"/><path d="m166.5 393c4.142 0 7.5-3.358 7.5-7.5v-10c0-4.142-3.358-7.5-7.5-7.5s-7.5 3.358-7.5 7.5v10c0 4.142 3.358 7.5 7.5 7.5z"/><path d="m142.235 386.734c-3.737-1.789-8.215-.206-10.001 3.531-1.666 3.484-5.291 5.735-9.234 5.735s-7.568-2.251-9.234-5.735c-1.787-3.737-6.266-5.317-10.001-3.531-3.737 1.787-5.318 6.265-3.531 10.001 4.143 8.666 13.079 14.265 22.766 14.265s18.623-5.599 22.766-14.265c1.787-3.736.206-8.214-3.531-10.001z"/><path d="m457 287.321v-219.821c0-37.22-30.28-67.5-67.5-67.5s-67.5 30.28-67.5 67.5v219.821c-5.785 3.836-11.263 8.173-16.327 12.931-3.019 2.836-3.167 7.582-.33 10.602 2.837 3.019 7.583 3.167 10.602.33 5.355-5.031 11.237-9.527 17.48-13.362 2.222-1.364 3.575-3.784 3.575-6.391v-223.931c0-28.948 23.552-52.5 52.5-52.5s52.5 23.552 52.5 52.5v223.931c0 2.607 1.354 5.027 3.575 6.392 32.2 19.773 51.425 54.045 51.425 91.677 0 59.275-48.225 107.5-107.5 107.5s-107.5-48.225-107.5-107.5c0-20.087 5.602-39.689 16.199-56.689 2.191-3.515 1.118-8.141-2.396-10.332-3.515-2.192-8.141-1.119-10.332 2.396-12.084 19.383-18.471 41.729-18.471 64.625 0 67.547 54.953 122.5 122.5 122.5s122.5-54.953 122.5-122.5c0-41.78-21.192-79.766-55-102.179z"/><path d="m352 304.965c-33.103 14.749-55 48.08-55 84.535 0 51.005 41.495 92.5 92.5 92.5s92.5-41.495 92.5-92.5c0-36.455-21.897-69.786-55-84.535v-193.534c0-.077-.009-.151-.012-.228-.123-4.09-3.496-7.272-7.488-7.272-.006 0-.013.001-.019.001-9.5 0-41.408 0-52.481 0v-15h12.5c4.143 0 7.5-3.357 7.5-7.5s-3.357-7.5-7.5-7.5h-12.5v-6.432c0-12.504 10.205-22.5 22.5-22.5 12.499 0 22.5 10.201 22.5 22.5v13.93c0 4.14 3.37 7.5 7.5 7.5 4.14 0 7.5-3.36 7.5-7.5 0-.01 0-.01 0-.02v-13.91c-.022-20.733-16.784-37.48-37.5-37.5-20.733.02-37.48 16.784-37.5 37.5zm60-186.034v191.054c0 3.118 1.929 5.91 4.845 7.015 29.999 11.354 50.155 40.491 50.155 72.5 0 42.733-34.767 77.5-77.5 77.5s-77.5-34.767-77.5-77.5c0-32.009 20.156-61.146 50.155-72.501 2.916-1.104 4.845-3.896 4.845-7.015v-41.054h12.5c4.143 0 7.5-3.357 7.5-7.5s-3.357-7.5-7.5-7.5h-12.5v-15h12.5c4.143 0 7.5-3.357 7.5-7.5s-3.357-7.5-7.5-7.5h-12.5v-15h12.5c4.143 0 7.5-3.357 7.5-7.5s-3.357-7.5-7.5-7.5h-12.5v-15h12.5c4.143 0 7.5-3.357 7.5-7.5s-3.357-7.5-7.5-7.5h-12.5v-15h12.5c4.143 0 7.5-3.357 7.5-7.5s-3.357-7.5-7.5-7.5h-12.5v-15c17.417.001 30.414.001 45 .001z"/><path d="m345.5 368c-4.142 0-7.5 3.358-7.5 7.5v10c0 4.142 3.358 7.5 7.5 7.5s7.5-3.358 7.5-7.5v-10c0-4.142-3.358-7.5-7.5-7.5z"/><path d="m433.5 393c4.142 0 7.5-3.358 7.5-7.5v-10c0-4.142-3.358-7.5-7.5-7.5s-7.5 3.358-7.5 7.5v10c0 4.142 3.358 7.5 7.5 7.5z"/><path d="m380.766 390.265c-1.787-3.737-6.266-5.317-10.001-3.531-3.737 1.787-5.318 6.265-3.531 10.001 4.143 8.666 13.079 14.265 22.766 14.265s18.623-5.599 22.766-14.265c1.787-3.737.206-8.215-3.531-10.001-3.737-1.789-8.215-.206-10.001 3.531-1.666 3.484-5.291 5.735-9.234 5.735s-7.568-2.251-9.234-5.735z"/></svg>