<svg id="Layer_1" enable-background="new 0 0 512 512" height="512" viewBox="0 0 512 512" width="512" xmlns="http://www.w3.org/2000/svg"><path d="m255.999 364.74c-77.062 0-139.757 62.696-139.757 139.76h279.517c0-77.064-62.696-139.76-139.76-139.76z" fill="#db9e82"/><path d="m283.766 367.515c-8.977-1.817-18.262-2.775-27.767-2.775-77.062 0-139.757 62.696-139.757 139.76h55.533c0-67.559 48.184-124.072 111.991-136.985z" fill="#c8866a"/><path d="m302.963 372.862v.005c0 43.946-21.026 79.571-46.964 79.571-25.937 0-46.964-35.625-46.964-79.57-13.494 4.831-26.037 11.676-37.261 20.178v111.454h82.814 1.404 82.814v-112.513c-10.859-8.014-22.914-14.496-35.843-19.125z" fill="#efedee"/><path d="m171.778 393.044c-.001.001-.002.001-.003.002v111.454c0-38.72 15.832-73.807 41.357-99.141-2.623-9.919-4.094-20.902-4.096-32.474-13.113 4.69-25.695 11.4-37.258 20.159z" fill="#d4d4d5"/><circle cx="88.475" cy="212.027" fill="#c8866a" r="41.65"/><circle cx="423.525" cy="212.027" fill="#c8866a" r="41.65"/><path d="m302.963 372.867c69.66-20.306 120.562-84.625 120.562-160.841 0-92.523-75.004-167.527-167.527-167.527-92.519 0-167.524 75.004-167.524 167.527 0 76.215 50.902 140.535 120.561 160.841 14.902 4.344 30.659 6.683 46.963 6.683 16.306 0 32.063-2.339 46.965-6.683z" fill="#db9e82"/><path d="m144.008 212.027c0-83.062 60.454-151.992 139.758-165.223-9.033-1.507-18.306-2.304-27.767-2.304-92.519 0-167.524 75.004-167.524 167.527 0 92.52 75.005 167.524 167.524 167.524 9.461 0 18.734-.797 27.767-2.304-79.304-13.231-139.758-82.161-139.758-165.22z" fill="#c8866a"/><ellipse cx="171.043" cy="264.909" fill="#ff8e9e" rx="25" ry="19.909" transform="matrix(1 .003 -.003 1 .831 -.535)"/><ellipse cx="340.957" cy="265.405" fill="#ff8e9e" rx="25" ry="19.909" transform="matrix(-1 -.003 .003 -1 681.082 531.876)"/><path d="m301.146 14.014-147.916 65.713-4.128 91.16c16.855-3.213 32.911-9.444 47.403-18.288 18.264 18.269 40.66 32.447 65.805 41.045 52.693 18.02 110.854 9.345 155.994-23.267.001-74.081-49.461-136.602-117.158-156.363z" fill="#676f72"/><path d="m255.428 7.5h-29.971c-39.89 0-72.227 32.337-72.227 72.227-32.924 0-59.614 26.69-59.614 59.614v31.036c18.793 3.927 37.59 3.92 55.486.51 10.768-42.641 39.436-76.445 74.294-101.341 77.75-55.531 77.75-55.531 77.75-55.531-14.506-4.235-29.845-6.515-45.718-6.515z" fill="#4c5659"/><path d="m383.271 108.909c-.187-.188-.374-.375-.56-.56l-.025-.025c-2.427-2.385-6.349-2.375-8.762.025-14.886 14.804-35.607 41.046-35.607 62.028h.024c0 22.581 17.991 39.743 39.975 39.743 22.064 0 39.989-17.778 39.989-39.744 0-21.133-19.934-46.321-35.034-61.467z" fill="#7ce3ff"/><path d="m275.234 254.733c-3.731-1.786-8.213-.206-10.001 3.532-1.665 3.483-5.29 5.734-9.233 5.734s-7.568-2.251-9.233-5.734c-1.788-3.738-6.267-5.317-10.001-3.532-3.737 1.786-5.318 6.265-3.532 10.001 4.142 8.666 13.078 14.266 22.766 14.266 9.687 0 18.624-5.6 22.767-14.266 1.786-3.736.205-8.214-3.533-10.001z"/><path d="m191.5 226c-9.649 0-17.5 7.851-17.5 17.5 0 4.143 3.357 7.5 7.5 7.5s7.5-3.357 7.5-7.5c0-1.379 1.121-2.5 2.5-2.5s2.5 1.121 2.5 2.5c0 4.143 3.357 7.5 7.5 7.5s7.5-3.357 7.5-7.5c0-9.649-7.851-17.5-17.5-17.5z"/><path d="m319.5 226c-9.649 0-17.5 7.851-17.5 17.5 0 4.143 3.357 7.5 7.5 7.5s7.5-3.357 7.5-7.5c0-1.379 1.121-2.5 2.5-2.5s2.5 1.121 2.5 2.5c0 4.143 3.357 7.5 7.5 7.5s7.5-3.357 7.5-7.5c0-9.649-7.851-17.5-17.5-17.5z"/><path d="m425.643 162.931c-3.881-91.403-79.49-162.931-170.215-162.931h-29.971c-41.563 0-75.799 31.969-79.412 72.608-33.643 3.596-59.929 32.151-59.929 66.732v23.596c-26.009 1.235-46.791 22.779-46.791 49.089 0 26.937 21.783 48.871 48.657 49.138 14.805 50.719 52.002 92.134 100.647 112.433-47.995 24.778-79.888 74.594-79.888 130.903 0 4.143 3.357 7.5 7.5 7.5h279.518c4.143 0 7.5-3.357 7.5-7.5 0-18.838-3.526-37.197-10.48-54.566-1.541-3.845-5.907-5.713-9.751-4.175-3.845 1.54-5.714 5.905-4.175 9.751 5.315 13.275 8.399 27.2 9.197 41.49h-41.744v-89.008c7.215 6.75 13.67 14.268 19.25 22.5 2.322 3.424 6.983 4.326 10.417 1.999 3.428-2.324 4.323-6.988 1.999-10.417-15.045-22.19-33.457-37.547-54.911-48.353 48.614-20.175 86.05-61.521 100.957-112.556 26.874-.266 48.657-22.201 48.657-49.138 0-26.391-20.911-47.981-47.032-49.095zm-324.527-23.59c0-28.736 23.378-52.114 52.114-52.114 4.143 0 7.5-3.357 7.5-7.5 0-35.69 29.036-64.727 64.727-64.727h29.971c66.472 0 124.136 41.974 146.193 103.049-4.513-5.521-8.991-10.387-13.678-15.073-5.338-5.248-14-5.224-19.309.056-8.871 8.823-37.817 39.754-37.817 67.347 0 8.251 2.124 16.549 6.325 23.838-49.767 5.9-99.581-11.159-135.334-46.92-2.448-2.45-6.255-2.903-9.211-1.1-27.549 16.812-59.813 23.098-91.481 17.946v-24.802zm309.689 31.036c0 17.779-14.574 32.244-32.488 32.244-18.21 0-32.475-14.163-32.475-32.243 0-18.311 19.511-42.72 32.476-55.813 8.093 8.171 32.487 34.581 32.487 55.812zm-246.531 326.623h-40.326c1.861-33.558 16.188-64.551 40.326-87.701zm167.032-101.035v101.035h-152.032v-100.16c6.856-4.909 14.478-9.344 22.668-13.03 3.271 43.478 25.84 76.129 54.057 76.129 28.152 0 50.683-32.498 54.033-75.825 8.772 3.998 14.235 7.151 21.274 11.851zm-114.381-13.33c12.777 2.916 25.878 4.415 39.085 4.415 13.184 0 26.281-1.499 39.063-4.415-2.704 34.644-19.493 62.304-39.074 62.304-19.58-.001-36.37-27.659-39.074-62.304zm210.812-136.727c1.247-6.356 2.147-12.792 2.683-19.288.34-4.12-2.73-7.75-6.851-8.091-4.116-.355-7.76 2.727-8.09 6.851-6.615 80.248-74.19 146.67-159.47 146.67-89.875 0-160.052-73.72-160.04-160.021 0-3.84.14-7.72.41-11.529.149-2-.5-3.931-1.811-5.45-4.344-5.008-12.67-2.285-13.149 4.38-.29 4.17-.44 8.41-.44 12.6 0 11.45 1.109 22.777 3.288 33.879-16.851-2.081-29.942-16.476-29.942-33.882 0-18.83 15.319-34.149 34.149-34.149 1 0 2.737-.342 4.874.163 10.86 2.566 55.839 9.701 102.026-16.097 40.979 38.43 97.609 55.528 153.478 45.721 28.037 21.805 70.537 6.082 76.341-29.745 18.059.873 32.482 15.836 32.482 34.107 0 17.404-13.089 31.798-29.938 33.881z"/></svg>