<svg id="Layer_1" enable-background="new 0 0 512 512" height="512" viewBox="0 0 512 512" width="512" xmlns="http://www.w3.org/2000/svg"><path d="m80.589 185.716c-52.636 86.21-34.823 197.89 42.02 263.449 38.422 32.779 85.906 49.169 133.39 49.169v-312.616z" fill="#ff6f4d"/><path d="m431.412 185.719-175.413-.001v312.616c47.483 0 94.967-16.389 133.389-49.167 76.844-65.557 94.659-177.237 42.024-263.448z" fill="#ff8f71"/><path d="m255.999 394.5c-52.383 0-94.999 42.99-94.999 95.833v14.167h190v-14.167c0-52.843-42.617-95.833-95.001-95.833z" fill="#82888b"/><path d="m255.999 394.5c-35.176 0-65.948 19.387-82.368 48.125-8.032 14.057-12.631 30.351-12.631 47.708v14.167h37.748v-14.167c0-10.839 1.794-21.264 5.097-30.988l.019.01c10.812-31.833 37.781-56.166 71.002-62.951-6.1-1.245-12.408-1.904-18.867-1.904z" fill="#676f72"/><circle cx="427" cy="230.502" fill="#ffbd86" r="45"/><circle cx="85" cy="230.502" fill="#ffbd86" r="45"/><path d="m306.74 404.279c75.264-21.939 130.26-91.432 130.26-173.777 0-99.965-81.037-181.002-181.002-181.002-99.96 0-180.998 81.037-180.998 181.002 0 82.346 54.996 151.838 130.258 173.778 16.101 4.694 33.125 7.221 50.741 7.221 17.616-.001 34.64-2.528 50.741-7.222z" fill="#fed2a4"/><path d="m135 230.502c0-89.743 65.317-164.217 150.999-178.512-9.76-1.628-19.779-2.489-30.001-2.489-99.96-.001-180.998 81.036-180.998 181.001 0 99.961 81.038 180.998 180.998 180.998 10.222 0 20.241-.861 30.001-2.489-85.682-14.295-150.999-88.769-150.999-178.509z" fill="#ffbd86"/><path d="m248.874 457.68c-5.858 5.858-5.858 15.355 0 21.213l21.213 21.213c5.858 5.858 15.355 5.858 21.213 0l24.7-24.699v-42.427h-42.426z" fill="#d6948c"/><path d="m383.126 457.68-45.913-45.913h-42.426l-21.213 21.213 67.126 67.126c5.858 5.858 15.355 5.858 21.213 0l21.213-21.213c5.857-5.857 5.858-15.355 0-21.213z" fill="#e8b5b1"/><path d="m181.547 383.361c-12-3.227-24.344 3.885-27.571 15.885l-3.896 14.485c-3.227 12 3.885 24.344 15.885 27.571-.744-.2 16.722 5.536 41.815 8.49l26.702-58.312c-25.28-.201-42.566-5.331-52.935-8.119z" fill="#e8b5b1"/><path d="m361.917 413.731-3.896-14.485c-3.227-12-15.571-19.112-27.571-15.885 1-.269-24.315 8.139-54.452 8.139h-40c-.516 0-1.007-.015-1.517-.019-18.658 12.421-28.972 35.967-26.702 58.312 8.646 1.018 18.192 1.708 28.219 1.708h40c29.58 0 49.807-4.758 70.034-10.198 12.001-3.228 19.113-15.572 15.885-27.572z" fill="#f2d4d3"/><path d="m255.998 49.5c-84.503 0-155.478 57.914-175.41 136.216 17.317 11.323 36.083 19.591 55.53 24.754l150.427-158.4c-9.929-1.689-20.135-2.57-30.547-2.57z" fill="#ff6f4d"/><path d="m431.412 185.719c-17.395-68.343-73.804-121.494-144.866-133.649-79.003 13.387-141.439 77.949-150.427 158.4 61.891 16.431 129.374.959 178.218-43.856 34.052 22.691 76.675 30.041 117.075 19.105z" fill="#ff8f71"/><path d="m109.075 106h124.932l21.156-98.492c-60.156.357-113.376 39.109-146.088 98.492z" fill="#ce857a"/><path d="m255.998 7.5c-.279 0-.557.007-.835.008-13.641 16.183-21.156 37.593-21.156 58.756v39.736h168.918c-32.864-59.658-86.425-98.5-146.927-98.5z" fill="#d6948c"/><path d="m99.001 103.236c-30.655 15.634-39.52 55.303-18.413 82.48 23.865-18.531 49.935-32.768 77.186-42.73l76.232-76.722c-46.462 2.955-92.457 15.273-135.005 36.972z" fill="#e8b5b1"/><path d="m412.997 103.235c-55.96-28.538-117.881-40.856-178.99-36.97-37.18 8.941-66.668 39.391-76.232 76.722 90.604-33.119 194.291-18.88 273.637 42.733 21.107-27.18 12.241-66.851-18.415-82.485z" fill="#f2d4d3"/><ellipse cx="178.043" cy="288.909" fill="#ff8e9e" rx="25" ry="19.909" transform="matrix(1 .003 -.003 1 .906 -.556)"/><ellipse cx="333.957" cy="289.405" fill="#ff8e9e" rx="25" ry="19.909" transform="matrix(-1 -.003 .003 -1 667.006 579.854)"/><path d="m479.5 230.502c0-23.181-14.841-42.929-35.978-49.854 15.54-29.935 4.308-68.069-27.118-84.096-4.772-2.434-9.604-4.754-14.485-6.964-35.955-56.959-89.016-89.588-145.921-89.588l-.88.008c-56.548.335-109.284 32.957-145.028 89.571-4.885 2.215-9.719 4.54-14.497 6.976-31.397 16.012-42.672 54.133-27.115 84.093-21.137 6.923-35.978 26.672-35.978 49.854 0 12.936 4.627 24.8 12.384 33.969-11.585 86.654 30.79 172.612 109.158 215.383-.349 3.479-.542 6.984-.542 10.479v14.167c0 4.143 3.357 7.5 7.5 7.5s7.5-3.357 7.5-7.5v-14.167c0-4.533.346-9.09 1.027-13.543 1.317-8.608 3.896-16.895 7.645-24.721 22.062 5.122 41.745 6.931 61.841 6.931-3.749 8.289-2.246 18.393 4.558 25.196l21.213 21.212c4.249 4.25 9.899 6.591 15.91 6.591s11.661-2.341 15.909-6.59l19.397-19.395 19.396 19.397c4.123 4.121 9.61 6.455 15.451 6.572.158.004.316.005.475.005 6.012 0 11.64-2.325 15.893-6.578l21.215-21.214c7.399-7.4 8.531-18.704 3.447-27.33 56.461-46.64 84.994-119.419 75.239-192.395 7.756-9.168 12.384-21.033 12.384-33.969zm-15 0c0 15.565-9.41 29.086-23.241 34.714 2.132-11.404 3.241-23.024 3.241-34.714 0-11.67-1.079-23.293-3.201-34.697 13.756 5.616 23.201 19.064 23.201 34.697zm-116.398 147.017c-7.598-3.266-15.966-2.821-20.33-1.163-2.095.668-24.736 7.645-51.773 7.645h-40c-23.496 0-39.705-4.405-50.431-7.32-7.618-2.062-13.953-2.477-21.67.839-50.306-31.602-81.398-87.54-81.398-147.018 0-11.065 1.055-22.083 3.124-32.878 30.962 17.959 65.327 26.794 99.544 26.794 46.599 0 92.917-16.391 129.92-48.427 33.132 20.282 72.792 27.001 110.71 18.809 2.446 11.695 3.702 23.669 3.702 35.702 0 59.479-31.093 115.417-81.398 147.017zm-254.14-192.408c47.03-33.599 104.155-51.996 162.079-51.996 55.941 0 111.16 17.192 157.261 48.688-32.97 4.748-66.762-2.743-94.805-21.431-2.874-1.914-6.686-1.619-9.229.715-59.216 54.33-146.293 63.585-215.306 24.024zm8.446-75.193c23.938-12.208 49.35-21.539 75.527-27.736 4.03-.953 6.524-4.994 5.57-9.025-.954-4.03-4.992-6.522-9.025-5.571-13.121 3.106-26.054 6.974-38.724 11.558 32.007-40.776 74.513-63.869 119.433-64.135l.809-.009c45.265 0 88.077 23.115 120.286 64.185-54.245-19.58-113.122-25.953-171.709-17.356-4.099.602-6.933 4.411-6.332 8.51.603 4.099 4.415 6.927 8.51 6.332 71.696-10.52 142.744 2.6 202.838 33.246 24.331 12.408 32.653 42.204 19.986 65.02-50.498-37.062-111.126-56.82-173.535-56.82-61.591 0-122.475 19.287-173.617 56.818-12.652-22.784-4.375-52.595 19.983-65.017zm-31.709 85.888c-2.122 11.403-3.199 23.026-3.199 34.696 0 11.688 1.109 23.309 3.242 34.714-13.533-5.505-23.242-18.833-23.242-34.714 0-15.632 9.444-29.08 23.199-34.696zm-12.024 80.184c4.871 2.806 10.253 4.858 16.004 5.993 12.736 44.954 40.935 81.428 76.849 105.39-2.15 2.929-3.81 6.264-4.794 9.924-4.088 15.197-4.932 17.207-4.932 22.289 0 12.991 8.43 24.462 20.675 28.473-2.334 5.223-4.206 10.622-5.64 16.152-65.925-38.191-104.871-110.602-98.162-188.221zm227.322 218.813c-2.93 2.93-7.674 2.931-10.606-.001l-21.213-21.213c-2.925-2.924-2.925-7.682 0-10.605l3.974-3.974c18.662.009 24.224.018 30.544-.302l16.698 16.699zm91.826-21.213-21.215 21.213c-2.862 2.864-7.645 2.961-10.605 0l-37.856-37.856c3.887-.512 7.769-1.102 11.681-1.82 4.074-.748 6.771-4.656 6.023-8.73-.749-4.075-4.664-6.77-8.73-6.023-8.659 1.589-17.151 2.626-25.961 3.171-9.598.593-12.101.456-55.162.456-38.357 0-69.201-10.247-68.175-9.964-6.493-1.79-11.021-7.718-11.021-14.449 0-2.584.164-2.588 4.417-18.394 2.129-7.922 10.307-12.764 18.38-10.589 11.082 3.001 29.626 8.396 56.398 8.396h40c15.926 0 30.449-2.286 39.828-4.203 15.968-3.265 16.018-4.714 20.481-4.714 6.762 0 12.713 4.568 14.472 11.111 4.206 15.637 4.416 15.794 4.416 18.388 0 6.184-3.904 11.998-10.031 14.146-3.909 1.369-5.969 5.648-4.599 9.558 1.368 3.909 5.644 5.967 9.558 4.599 2.973-1.042 5.724-2.535 8.191-4.409 6.813 6.814 17.481 17.482 19.508 19.507 2.925 2.923 2.925 7.682.002 10.606zm3.968-27.851c-4.506-4.506-10.234-10.234-14.145-14.145 5.123-11.719 1.536-19.731-2.381-34.295-.984-3.66-2.644-6.996-4.794-9.925 36.407-24.293 64.277-60.998 76.853-105.391 5.75-1.135 11.131-3.187 16.001-5.992 5.78 66.886-22.242 129.276-71.534 169.748z"/><path d="m192 251c-4.142 0-7.5 3.358-7.5 7.5v10c0 4.142 3.358 7.5 7.5 7.5s7.5-3.358 7.5-7.5v-10c0-4.142-3.358-7.5-7.5-7.5z"/><path d="m320 251c-4.142 0-7.5 3.358-7.5 7.5v10c0 4.142 3.358 7.5 7.5 7.5s7.5-3.358 7.5-7.5v-10c0-4.142-3.358-7.5-7.5-7.5z"/><path d="m275.735 279.734c-3.737-1.788-8.215-.206-10.001 3.531-1.666 3.484-5.291 5.735-9.234 5.735s-7.568-2.251-9.234-5.735c-1.787-3.737-6.266-5.318-10.001-3.531-3.737 1.787-5.318 6.265-3.531 10.001 4.143 8.666 13.079 14.265 22.766 14.265s18.623-5.599 22.766-14.265c1.787-3.736.206-8.214-3.531-10.001z"/></svg>