<svg id="Layer_1" enable-background="new 0 0 512 512" height="512" viewBox="0 0 512 512" width="512" xmlns="http://www.w3.org/2000/svg"><path d="m255.999 377.132c-60.654 0-109.999 49.778-109.999 110.964v16.404h53.65l83.174-124.025c-8.589-2.18-17.574-3.343-26.825-3.343z" fill="#9ea2a3"/><path d="m282.824 380.475c-47.73 12.112-83.174 55.767-83.174 107.621v16.404h166.35v-16.404c0-51.854-35.444-95.51-83.176-107.621z" fill="#b9bbbc"/><path d="m370.21 465.827c8.319-2.652 12.558-11.796 9.353-19.918-19.433-49.246-67.495-84.18-123.564-84.18-56.067 0-104.128 34.935-123.561 84.18-3.205 8.122 1.034 17.266 9.353 19.918l66.803 21.299c15.42 4.917 31.413 7.375 47.407 7.375 15.993 0 31.987-2.458 47.407-7.375z" fill="#ffce71"/><path d="m255.999 375.798v-14.07c-56.067 0-104.128 34.935-123.561 84.181-3.205 8.122 1.034 17.266 9.353 19.918l43.87 13.987.449-6.771c2.813-42.41 32.637-78.617 69.889-97.245z" fill="#ffb357"/><path d="m278.683 10.224-119.605 47.817-101.794 168.609 198.716 106.391-.001 52.757c15.49 0 30.459-2.222 44.616-6.349 66.177-19.291 154.101-80.394 154.101-152.798 0-80.474-92.888-197.268-176.033-216.427z" fill="#ffce71"/><path d="m256 333.041-106.392-106.391c6.696-86.436 56.757-168.585 129.076-216.426-7.671-1.767-15.26-2.724-22.684-2.724-87.893 0-198.716 131.253-198.716 219.15 0 72.404 87.924 133.508 154.1 152.798 14.157 4.127 29.126 6.349 44.615 6.349 8.39-15.625 9.284-35.063.001-52.756z" fill="#ffb357"/><path d="m119.659 176c-11.9 15.061-18.659 32.313-18.659 50.65 0 58.854 69.564 106.391 154.999 106.391h.001v-157.041z" fill="#ffbd86"/><path d="m392.341 176c-1.819 0-178.787 0-233.801 0-4.569 16.56-7.606 33.52-8.933 50.65 0 58.854 47.749 106.391 106.391 106.391h.001c85.452 0 155-47.548 155-106.391.001-18.337-6.758-35.589-18.658-50.65z" fill="#ffddcf"/><path d="m392.341 176c-1.408 0-99.095 0-166.674 0 57.183 29.579 120.687 44.85 185.066 44.5-1.333-16.043-7.832-31.136-18.392-44.5z" fill="#c77464"/><ellipse cx="179.043" cy="258.909" fill="#ff8e9e" rx="25" ry="19.909" transform="matrix(1 .003 -.003 1 .812 -.56)"/><ellipse cx="334.957" cy="259.405" fill="#ff8e9e" rx="25" ry="19.909" transform="matrix(-1 -.003 .003 -1 669.1 519.858)"/><g fill="#b9f0ff"><path d="m75 66.461c12.781 0 23.164-10.297 23.164-23.022 0-11.841-10.389-25.079-18.836-34.066-1.133-1.205-2.713-1.878-4.367-1.873-1.623.005-3.174.66-4.295 1.833-8.4 8.79-18.83 22.772-18.83 34.106 0 13.08 10.429 23.022 23.164 23.022z"/><path d="m296.698 66.461c-1.623.005-3.174.66-4.295 1.833-8.4 8.79-18.83 22.772-18.83 34.106 0 13.08 10.429 23.022 23.163 23.022 12.781 0 23.164-10.297 23.164-23.022 0-11.841-10.389-25.079-18.836-34.066-1.132-1.205-2.712-1.878-4.366-1.873z"/><path d="m446.737 85.422c12.781 0 23.164-10.297 23.164-23.022 0-11.841-10.389-25.079-18.836-34.066-1.133-1.205-2.713-1.878-4.367-1.873-1.623.005-3.174.66-4.295 1.833-8.4 8.79-18.83 22.772-18.83 34.106.001 13.08 10.429 23.022 23.164 23.022z"/><path d="m491.901 322.4c0-11.841-10.389-25.079-18.836-34.066-1.133-1.205-2.713-1.878-4.367-1.873-1.623.005-3.174.66-4.295 1.833-8.4 8.79-18.83 22.772-18.83 34.106 0 13.08 10.429 23.022 23.163 23.022 12.782 0 23.165-10.297 23.165-23.022z"/><path d="m418.607 368.553c-1.623.005-3.174.66-4.295 1.833-8.4 8.79-18.83 22.772-18.83 34.106 0 13.08 10.429 23.022 23.163 23.022 12.781 0 23.164-10.297 23.164-23.022 0-11.841-10.389-25.079-18.836-34.066-1.132-1.205-2.713-1.878-4.366-1.873z"/><path d="m104.119 358.553c-1.623.005-3.174.66-4.295 1.833-8.4 8.79-18.83 22.772-18.83 34.106 0 13.08 10.429 23.021 23.163 23.021 12.781 0 23.164-10.297 23.164-23.021 0-11.842-10.389-25.079-18.836-34.066-1.132-1.205-2.712-1.878-4.366-1.873z"/><path d="m54.119 418.553c-1.623.005-3.174.66-4.295 1.833-8.4 8.79-18.83 22.772-18.83 34.106 0 13.08 10.429 23.022 23.163 23.022 12.781 0 23.164-10.297 23.164-23.022 0-11.841-10.389-25.079-18.836-34.066-1.132-1.205-2.712-1.878-4.366-1.873z"/><path d="m53.828 121.361c0-11.841-10.389-25.079-18.836-34.066-1.133-1.205-2.713-1.878-4.367-1.873-1.623.005-3.174.66-4.295 1.833-8.4 8.79-18.83 22.772-18.83 34.106 0 13.08 10.429 23.022 23.163 23.022 12.781 0 23.165-10.298 23.165-23.022z"/><path d="m485.664 447.412c-1.133-1.205-2.713-1.878-4.366-1.873-1.623.005-3.174.66-4.295 1.833-8.4 8.79-18.83 22.772-18.83 34.106 0 13.08 10.429 23.022 23.163 23.022 12.781 0 23.164-10.297 23.164-23.022 0-11.841-10.389-25.079-18.836-34.066z"/></g><path d="m256 340.541c87.398 0 162.5-49.021 162.5-113.891 0-14.853-4.127-29.543-12.012-43.15h9.512c4.143 0 7.5-3.357 7.5-7.5s-3.357-7.5-7.5-7.5c-6.928 0-312.793 0-320 0-4.143 0-7.5 3.357-7.5 7.5s3.357 7.5 7.5 7.5h9.512c-7.885 13.608-12.012 28.299-12.012 43.15 0 64.473 74.479 113.891 162.5 113.891zm-.001-15c-81.331 0-147.499-44.362-147.499-98.891 0-15.14 5.006-29.64 14.881-43.15h100.492c55.447 28.356 117.344 43.669 179.602 44.467-1.057 53.924-66.801 97.574-147.476 97.574zm146.084-112.595c-48.773-.825-97.288-10.896-142.376-29.446h128.913c6.853 9.377 11.347 19.232 13.463 29.446z"/><path d="m192 220.5c-4.142 0-7.5 3.357-7.5 7.5v10c0 4.143 3.358 7.5 7.5 7.5s7.5-3.357 7.5-7.5v-10c0-4.143-3.358-7.5-7.5-7.5z"/><path d="m320 220.5c-4.142 0-7.5 3.357-7.5 7.5v10c0 4.143 3.358 7.5 7.5 7.5s7.5-3.357 7.5-7.5v-10c0-4.143-3.358-7.5-7.5-7.5z"/><path d="m275.735 249.234c-3.737-1.789-8.215-.206-10.001 3.53-1.666 3.483-5.291 5.735-9.234 5.735s-7.568-2.252-9.234-5.735c-1.787-3.737-6.266-5.317-10.001-3.53-3.737 1.786-5.318 6.264-3.531 10.001 4.144 8.665 13.08 14.265 22.766 14.265s18.623-5.6 22.766-14.265c1.787-3.737.206-8.214-3.531-10.001z"/><path d="m374.572 419.627c-2.218-3.499-6.85-4.536-10.35-2.32-3.498 2.217-4.538 6.851-2.32 10.35 4.212 6.647 7.807 13.715 10.685 21.008 1.639 4.15-.53 8.702-4.655 10.017-70.621 22.516-82.605 28.318-111.932 28.318-29.102 0-41.052-5.712-111.932-28.319-4.139-1.32-6.287-5.881-4.654-10.02 11.172-28.312 32.098-51.442 59.113-65.44 14.079 4.855 27.271 8.08 42.872 9.442.222.02.442.028.661.028 3.847 0 7.122-2.943 7.463-6.848.36-4.126-2.692-7.764-6.819-8.124-68.029-5.943-177.919-74.499-177.919-151.069-.001-84.1 107.788-211.65 191.215-211.65 83.127 0 191.216 127.312 191.216 211.65 0 76.694-109.515 144.22-175.959 150.887-4.121.414-7.127 4.09-6.714 8.212.414 4.12 4.068 7.119 8.212 6.714 14.723-1.478 27.241-4.592 40.671-9.238 11.319 5.864 21.667 13.379 30.771 22.411 2.94 2.917 7.687 2.899 10.606-.042 2.917-2.939 2.898-7.688-.042-10.606-7.148-7.093-14.987-13.346-23.401-18.723 61.55-26.445 130.856-82.123 130.856-149.614 0-91.06-113.115-226.651-206.216-226.651-92.147 0-206.216 134.708-206.216 226.65 0 67.091 69.168 123.154 130.802 149.616-24.896 15.884-44.186 39.167-55.124 66.888-4.769 12.075 1.479 25.78 14.008 29.803-.64 5.021-.97 10.089-.97 15.139v16.404c0 4.143 3.357 7.5 7.5 7.5h220c4.143 0 7.5-3.357 7.5-7.5v-16.404c0-5.053-.33-10.121-.969-15.14 12.549-4.029 18.77-17.751 14.008-29.801-3.224-8.168-7.25-16.084-11.967-23.528zm-221.072 68.469c0-3.493.194-6.994.544-10.479 29.687 9.537 47.584 15.626 62.281 19.383h-62.825zm205 8.904h-62.764c14.718-3.766 32.718-9.902 62.221-19.384.35 3.483.543 6.984.543 10.479z"/><path d="m75 73.961c16.908 0 30.664-13.691 30.664-30.521 0-11.28-7.022-24.471-20.871-39.203-2.532-2.695-6.107-4.237-9.815-4.237-.013 0-.026 0-.039 0-3.649.011-7.184 1.523-9.695 4.151-6.286 6.579-20.907 23.576-20.907 39.288-.001 17.116 13.469 30.522 30.663 30.522zm-.029-58.259c10.133 11.041 15.693 20.854 15.693 27.737 0 8.559-7.027 15.521-15.664 15.521-8.783 0-15.664-6.817-15.664-15.521 0-6.665 6.097-17.439 15.635-27.737z"/><path d="m327.401 102.4c0-11.278-7.022-24.469-20.871-39.203-2.532-2.694-6.107-4.236-9.814-4.236-.013 0-.026 0-.04 0-3.649.011-7.184 1.523-9.695 4.151-6.286 6.579-20.907 23.576-20.907 39.288 0 17.115 13.469 30.521 30.663 30.521 16.909.001 30.664-13.691 30.664-30.521zm-46.328 0c0-6.665 6.097-17.439 15.635-27.737 10.133 11.042 15.693 20.855 15.693 27.737 0 8.559-7.027 15.521-15.665 15.521-8.783.001-15.663-6.817-15.663-15.521z"/><path d="m446.736 92.922c16.909 0 30.665-13.691 30.665-30.521 0-11.28-7.022-24.471-20.871-39.203-2.532-2.694-6.107-4.236-9.815-4.236-.013 0-.026 0-.039 0-3.647.011-7.18 1.523-9.695 4.151-6.286 6.579-20.907 23.576-20.907 39.288-.001 17.115 13.468 30.521 30.662 30.521zm-.028-58.259c10.133 11.041 15.693 20.854 15.693 27.737 0 8.559-7.027 15.521-15.665 15.521-8.783 0-15.663-6.817-15.663-15.521 0-6.665 6.098-17.44 15.635-27.737z"/><path d="m458.98 283.112c-6.286 6.579-20.907 23.576-20.907 39.288 0 17.115 13.469 30.521 30.663 30.521 16.909 0 30.665-13.691 30.665-30.521 0-11.278-7.022-24.469-20.871-39.203-5.281-5.619-14.226-5.646-19.55-.085zm25.421 39.288c0 8.559-7.027 15.521-15.665 15.521-8.783 0-15.663-6.817-15.663-15.521 0-6.665 6.098-17.44 15.635-27.737 10.133 11.042 15.693 20.856 15.693 27.737z"/><path d="m408.89 365.205c-6.287 6.578-20.908 23.574-20.908 39.287 0 17.115 13.469 30.521 30.663 30.521 16.909 0 30.665-13.691 30.665-30.521 0-11.277-7.021-24.467-20.871-39.203-5.3-5.637-14.255-5.628-19.549-.084zm9.755 54.809c-8.783 0-15.663-6.817-15.663-15.521 0-6.665 6.097-17.438 15.636-27.736 10.131 11.042 15.692 20.855 15.692 27.736 0 8.558-7.028 15.521-15.665 15.521z"/><path d="m134.822 394.492c0-11.277-7.021-24.467-20.871-39.203-5.298-5.638-14.252-5.628-19.55-.085-6.286 6.579-20.907 23.576-20.907 39.288 0 17.115 13.469 30.521 30.663 30.521 16.909.001 30.665-13.691 30.665-30.521zm-30.665 15.522c-8.783 0-15.663-6.817-15.663-15.521 0-6.665 6.097-17.439 15.635-27.737 10.133 11.044 15.693 20.856 15.693 27.737 0 8.558-7.027 15.521-15.665 15.521z"/><path d="m44.402 415.205c-6.287 6.578-20.908 23.574-20.908 39.287 0 17.115 13.469 30.521 30.663 30.521 16.909 0 30.665-13.691 30.665-30.521 0-11.277-7.021-24.467-20.871-39.203-5.299-5.637-14.254-5.628-19.549-.084zm9.755 54.809c-8.783 0-15.663-6.817-15.663-15.521 0-6.665 6.097-17.438 15.636-27.736 10.131 11.042 15.692 20.855 15.692 27.736 0 8.558-7.027 15.521-15.665 15.521z"/><path d="m61.327 121.361c0-11.28-7.022-24.471-20.869-39.201-2.531-2.695-6.106-4.238-9.816-4.238-.013 0-.026 0-.039 0-3.649.011-7.184 1.523-9.694 4.151-6.288 6.578-20.909 23.574-20.909 39.288 0 17.115 13.469 30.521 30.663 30.521 16.908.001 30.664-13.691 30.664-30.521zm-46.327 0c0-6.666 6.098-17.44 15.635-27.736 10.133 11.04 15.692 20.853 15.692 27.736 0 8.559-7.027 15.521-15.664 15.521-8.783.001-15.663-6.817-15.663-15.521z"/><path d="m491.129 442.275c-5.316-5.66-14.267-5.604-19.55-.085-6.285 6.578-20.906 23.575-20.906 39.288 0 17.115 13.469 30.521 30.663 30.521 16.908.001 30.664-13.69 30.664-30.52 0-11.281-7.022-24.471-20.871-39.204zm-9.793 54.725c-8.783 0-15.663-6.817-15.663-15.521 0-6.666 6.098-17.441 15.634-27.737 10.132 11.04 15.693 20.853 15.693 27.737 0 8.558-7.027 15.521-15.664 15.521z"/></svg>