<svg id="Layer_1" enable-background="new 0 0 512 512" height="512" viewBox="0 0 512 512" width="512" xmlns="http://www.w3.org/2000/svg"><path d="m303.38 12.414c-12.642-3.206-25.876-4.914-39.502-4.914-69.776 0-129.126 44.596-151.133 106.835v.007c-57.35.76-105.245 47.61-105.245 106.853 0 59.01 47.837 106.847 106.847 106.847h227.356z" fill="#b9bbbc"/><path d="m424.126 167.767c-.004-75.047-51.455-137.779-120.746-155.353-69.387 17.617-120.719 80.491-120.719 155.359 0 88.107 71.092 159.6 159.042 160.269h82.662c44.258 0 80.135-35.878 80.135-80.136 0-44.837-36.644-80.373-80.374-80.139z" fill="#d4d4d5"/><path d="m294.3 413.472.014.014c12.177-12.177 15.084-38.354 15.037-55.565v-.028c-.024-2.738-2.262-4.965-5.001-4.972-16.944-.046-43.639 3.109-55.565 15.036l-.001.001.014.014c-12.852 12.852-12.38 32.857.132 45.369 12.569 12.57 32.879 12.621 45.37.131z" fill="#7ce3ff"/><path d="m176.808 406.719.008.008c6.958-6.958 8.619-21.917 8.592-31.752v-.016c-.014-1.565-1.292-2.837-2.857-2.841-9.682-.027-24.936 1.777-31.752 8.592h-.001l.008.008c-7.344 7.344-7.074 18.776.075 25.925 7.183 7.184 18.789 7.213 25.927.076z" fill="#b9f0ff"/><g fill="#7ce3ff"><path d="m385.497 404.884.011.011c9.352-9.352 11.585-29.458 11.549-42.677v-.022c-.018-2.103-1.737-3.813-3.841-3.819-13.014-.036-33.517 2.388-42.677 11.548l-.001.001.011.011c-9.871 9.871-9.508 25.236.101 34.846 9.654 9.655 25.254 9.694 34.847.101z"/><path d="m217.069 440.073c-13.014-.036-33.517 2.388-42.677 11.548l-.001.001.011.011c-9.871 9.871-9.508 25.236.101 34.846 9.654 9.655 25.253 9.695 34.847.101l.011.011c9.352-9.352 11.585-29.458 11.549-42.677v-.022c-.018-2.103-1.737-3.813-3.841-3.819z"/><path d="m128.203 434.616c-16.944-.046-43.639 3.109-55.565 15.036l-.001.001.014.014c-12.852 12.852-12.38 32.857.132 45.369 12.569 12.571 32.88 12.623 45.37.132l.014.014c12.177-12.177 15.084-38.355 15.037-55.565v-.028c-.024-2.739-2.262-4.966-5.001-4.973z"/></g><path d="m321.012 450.826c-13.014-.036-33.517 2.388-42.677 11.548l-.001.001.011.011c-9.871 9.871-9.508 25.236.101 34.846 9.654 9.655 25.253 9.695 34.847.101l.011.011c9.352-9.352 11.585-29.458 11.549-42.677v-.022c-.019-2.103-1.738-3.814-3.841-3.819z" fill="#b9f0ff"/><path d="m412.175 453.814c-9.682-.027-24.936 1.777-31.752 8.592h-.001l.008.008c-7.344 7.344-7.074 18.776.075 25.925 7.183 7.184 18.789 7.213 25.926.075l.008.008c6.958-6.958 8.619-21.917 8.592-31.752v-.016c-.013-1.564-1.291-2.836-2.856-2.84z" fill="#7ce3ff"/><ellipse cx="206.971" cy="198.885" fill="#ff8e9e" rx="25.471" ry="20.283" transform="matrix(1 .003 -.003 1 .624 -.648)"/><ellipse cx="345.029" cy="199.317" fill="#ff8e9e" rx="25.471" ry="20.283" transform="matrix(-1 -.003 .003 -1 689.433 399.714)"/><path d="m431.472 160.537c-3.804-89.166-77.525-160.537-167.595-160.537-69.259 0-131.477 42.802-156.421 107.029-58.917 3.438-107.456 52.368-107.456 114.166 0 45.752 27.16 87 69.193 105.084 3.805 1.638 8.216-.12 9.854-3.926 1.637-3.805-.121-8.216-3.926-9.854-36.522-15.712-60.121-51.551-60.121-91.304 0-64.643 61.757-113.095 125.336-95.916.655.177 1.313.262 1.961.262 3.305 0 6.333-2.202 7.236-5.545 1.081-3.999-1.285-8.116-5.284-9.197-6.744-1.822-13.664-3.005-20.661-3.566 23.989-55.568 79.119-92.233 140.289-92.233 81.832 0 148.836 64.699 152.576 145.639-1.624.145-3.244.321-4.846.555-4.099.598-6.937 4.406-6.338 8.504.599 4.107 4.415 6.937 8.504 6.338 44.419-6.481 83.227 28.018 83.227 71.87 0 40.051-32.584 72.636-72.636 72.636h-310.016c-4.153 0-8.331-.259-12.417-.768-4.112-.506-7.858 2.405-8.37 6.516-.512 4.11 2.405 7.857 6.516 8.369 4.698.585 9.499.882 14.27.883h310.017c48.322 0 87.636-39.313 87.636-87.636 0-45.992-35.531-83.823-80.528-87.369z"/><path d="m212 159.542c-4.142 0-7.5 3.358-7.5 7.5v10c0 4.142 3.358 7.5 7.5 7.5s7.5-3.358 7.5-7.5v-10c0-4.142-3.358-7.5-7.5-7.5z"/><path d="m340 159.542c-4.142 0-7.5 3.358-7.5 7.5v10c0 4.142 3.358 7.5 7.5 7.5s7.5-3.358 7.5-7.5v-10c0-4.142-3.358-7.5-7.5-7.5z"/><path d="m276.5 197.542c9.687 0 18.623-5.599 22.766-14.265 1.787-3.737.206-8.215-3.531-10.001-3.737-1.789-8.215-.206-10.001 3.531-1.666 3.484-5.291 5.735-9.234 5.735s-7.568-2.251-9.234-5.735c-1.787-3.737-6.266-5.317-10.001-3.531-3.737 1.787-5.318 6.265-3.531 10.001 4.143 8.666 13.079 14.265 22.766 14.265z"/><path d="m228.99 152.17c2.071-3.587.842-8.174-2.745-10.245l-12.99-7.5c-3.587-2.072-8.174-.843-10.245 2.745-2.071 3.587-.842 8.174 2.745 10.245l12.99 7.5c1.181.682 2.471 1.006 3.743 1.006 2.592 0 5.113-1.345 6.502-3.751z"/><path d="m348.99 137.17c-2.071-3.588-6.658-4.817-10.245-2.745l-12.99 7.5c-3.587 2.071-4.816 6.658-2.745 10.245 1.389 2.406 3.91 3.751 6.502 3.751 1.272 0 2.562-.324 3.743-1.006l12.99-7.5c3.588-2.071 4.817-6.658 2.745-10.245z"/><path d="m299.167 419.205c.154-.131.305-.27.451-.416 15.555-15.554 17.234-47.463 17.234-60.46l-.001-.501c-.06-6.822-5.657-12.388-12.47-12.407h-.397c-10.15 0-44.51 1.243-60.502 17.234-.142.142-.278.29-.408.442-15.253 15.701-14.866 40.128.553 55.547 15.388 15.39 40.103 15.536 55.54.561zm-45.066-45.931c.111-.111.218-.224.32-.34 9.277-8.843 30.769-12.23 47.415-12.497-.253 17.305-3.643 38.137-12.498 47.411-.117.103-.23.209-.341.32-4.601 4.602-10.731 7.136-17.26 7.136-21.261 0-33.63-26.036-17.636-42.03z"/><path d="m182.119 412.03c9.387-9.387 10.789-27.099 10.789-36.821v-.315c-.049-5.65-4.686-10.26-10.357-10.276h-.209c-7.834 0-27.108 1.051-36.846 10.789-10.226 10.269-10.042 26.417.083 36.54 4.904 4.905 11.416 7.606 18.334 7.606 7.114-.001 13.543-2.86 18.206-7.523zm-26.009-26.009c4.312-4.282 15.368-5.9 21.676-6.271-.344 6.329-1.831 17.213-6.282 21.665-2.022 2.022-4.718 3.136-7.591 3.136-9.444.001-14.818-11.514-7.803-18.53z"/><path d="m390.409 410.572c.138-.119.271-.244.402-.374 12.405-12.406 13.745-37.467 13.745-47.666v-.402c-.055-6.188-5.133-11.236-11.302-11.253h-.321c-7.965 0-34.944.991-47.698 13.747-.13.129-.253.262-.371.399-12.31 12.714-12.045 32.533.482 45.063 12.479 12.479 32.52 12.616 45.063.486zm-34.556-35.331c.093-.093.183-.187.27-.283 6.104-5.752 20.53-8.593 33.383-9.023-.382 12.528-2.904 26.913-9.029 33.378-.096.086-.189.176-.282.268-3.205 3.206-7.478 4.971-12.028 4.971-15.014 0-23.349-18.277-12.314-29.311z"/><path d="m217.09 432.573h-.303c-7.965 0-34.944.991-47.699 13.747-.13.129-.254.263-.372.399-12.309 12.715-12.045 32.533.483 45.063 12.476 12.479 32.519 12.617 45.063.487.137-.119.271-.243.402-.374 12.407-12.406 13.746-37.469 13.746-47.669v-.398c-.055-6.19-5.133-11.238-11.32-11.255zm-13.043 48.703c-3.206 3.206-7.477 4.971-12.028 4.971-14.818 0-23.475-18.149-12.313-29.311.09-.09.178-.183.263-.276 6.101-5.756 20.533-8.599 33.389-9.029-.306 10.032-2.247 26.582-9.311 33.645z"/><path d="m128.233 427.116c-.003 0-.005 0-.008 0h-.389c-10.15 0-44.511 1.243-60.502 17.234-15.349 15.296-15.706 40.137.145 55.989 7.519 7.519 17.502 11.661 28.11 11.661 10.331 0 20.048-3.937 27.431-11.099.155-.131.305-.27.451-.416 15.555-15.554 17.234-47.46 17.234-60.456l-.001-.506c-.06-6.819-5.654-12.383-12.471-12.407zm-15.384 62.748c-9.545 9.546-25.091 9.542-34.763-.132-9.741-9.741-9.903-24.991-.132-34.763 9.875-9.875 33.673-12.611 47.734-12.837-.207 14.189-2.794 37.688-12.839 47.732z"/><path d="m321.033 443.326h-.303c-7.965 0-34.944.991-47.699 13.746-.13.129-.254.263-.372.399-5.853 6.046-9.069 13.912-9.069 22.211 0 17.483 14.285 32.317 32.371 32.317 8.729 0 16.804-3.489 22.646-9.353 12.406-12.406 13.746-37.467 13.746-47.666v-.401c-.054-6.187-5.131-11.236-11.32-11.253zm-12.76 48.433c-.097.087-.191.177-.284.269-6.619 6.619-17.46 6.681-24.24-.101-6.77-6.771-6.959-17.382-.101-24.239.09-.09.178-.183.263-.276 6.101-5.755 20.534-8.598 33.389-9.029-.381 12.527-2.903 26.911-9.027 33.376z"/><path d="m412.196 446.313c-.008 0-.015 0-.021 0h-.209c-7.834 0-27.107 1.051-36.846 10.789-.117.117-.229.236-.336.358-4.681 4.854-7.252 11.163-7.252 17.823 0 14.052 11.473 25.964 26.006 25.964 6.718 0 13.037-2.549 17.851-7.189.121-.106.239-.217.354-.333 9.388-9.388 10.789-27.102 10.789-36.825v-.311c-.05-5.65-4.686-10.259-10.336-10.276zm-10.854 36.593c-.072.067-.144.136-.214.206-2.021 2.022-4.717 3.135-7.59 3.135-9.309 0-14.915-11.419-7.804-18.53.07-.07.14-.142.206-.215 3.419-3.164 11.831-5.488 21.47-6.055-.535 9.83-2.793 17.949-6.068 21.459z"/></svg>