<svg id="Layer_1" enable-background="new 0 0 512 512" height="512" viewBox="0 0 512 512" width="512" xmlns="http://www.w3.org/2000/svg"><path d="m182.865 13.417 20.865 18.871 27.505-5.91c11.5-2.471 23.002 4.17 26.612 15.365l8.635 26.775 26.775 8.635c11.195 3.61 17.835 15.112 15.365 26.612l-5.91 27.505 18.871 20.865c7.89 8.724 7.89 22.005 0 30.729l-18.871 20.865 5.91 27.505c2.471 11.5-4.17 23.002-15.365 26.612l-26.775 8.635-8.635 26.775c-3.61 11.195-15.112 17.835-26.612 15.365l-27.505-5.91-20.865 18.871c-8.724 7.89-22.005 7.89-30.729 0l-20.865-18.871-27.505 5.91c-11.5 2.471-23.002-4.17-26.612-15.365l-8.635-26.775-26.775-8.635c-11.195-3.61-17.835-15.112-15.365-26.612l5.91-27.505-18.871-20.865c-7.89-8.724-7.89-22.005 0-30.729l18.871-20.865-5.91-27.505c-2.471-11.5 4.17-23.002 15.365-26.612l26.775-8.635 8.635-26.775c3.61-11.195 15.112-17.835 26.612-15.365l27.505 5.91 20.865-18.871c8.723-7.889 22.005-7.889 30.729 0z" fill="#ffb357"/><path d="m167.5 288.537c-66.74 0-121.037-54.297-121.037-121.037s54.297-121.037 121.037-121.037 121.037 54.297 121.037 121.037-54.297 121.037-121.037 121.037z" fill="#fce3a0"/><path d="m112.137 167.5c0-55.363 37.365-102.161 88.2-116.508-10.446-2.948-21.46-4.529-32.837-4.529-66.74 0-121.037 54.297-121.037 121.037s54.297 121.037 121.037 121.037c11.377 0 22.391-1.581 32.837-4.529-50.835-14.347-88.2-61.145-88.2-116.508z" fill="#ffce71"/><path d="m374.197 123.009c-8.191-2.077-16.765-3.184-25.593-3.184-45.207 0-83.659 28.893-97.917 69.217v.005c-37.156.492-68.187 30.846-68.187 69.228 0 38.232 30.993 69.225 69.225 69.225h147.301z" fill="#b9bbbc"/><path d="m452.427 223.66c-.003-48.622-33.337-89.265-78.23-100.651-44.955 11.414-78.212 52.149-78.212 100.655 0 57.084 46.06 103.403 103.041 103.836h53.555c28.674 0 51.919-23.245 51.919-51.919 0-29.05-23.741-52.073-52.073-51.921z" fill="#d4d4d5"/><path d="m294.3 413.472.014.014c12.177-12.176 15.084-38.354 15.037-55.565v-.028c-.024-2.738-2.262-4.965-5.001-4.972-16.944-.046-43.639 3.109-55.565 15.036l-.001.001.014.014c-12.852 12.852-12.38 32.857.132 45.369 12.569 12.57 32.879 12.621 45.37.131z" fill="#7ce3ff"/><path d="m176.808 406.719.008.008c6.958-6.958 8.619-21.917 8.592-31.752v-.016c-.014-1.565-1.292-2.837-2.857-2.841-9.682-.027-24.936 1.777-31.752 8.592h-.001l.008.008c-7.344 7.344-7.074 18.776.075 25.925 7.183 7.184 18.789 7.213 25.927.076z" fill="#b9f0ff"/><path d="m385.497 404.884.011.011c9.352-9.352 11.585-29.458 11.549-42.677v-.022c-.018-2.103-1.737-3.813-3.841-3.819-13.014-.036-33.517 2.388-42.677 11.548l-.001.001.011.011c-9.871 9.871-9.508 25.236.101 34.846 9.654 9.655 25.254 9.694 34.847.101z" fill="#7ce3ff"/><path d="m217.069 440.073c-13.014-.036-33.517 2.388-42.677 11.548l-.001.001.011.011c-9.871 9.871-9.508 25.236.101 34.846 9.654 9.655 25.253 9.695 34.847.101l.011.011c9.352-9.352 11.585-29.458 11.549-42.677v-.022c-.018-2.103-1.737-3.813-3.841-3.819z" fill="#7ce3ff"/><path d="m128.203 434.616c-16.944-.046-43.639 3.109-55.565 15.036l-.001.001.014.014c-12.852 12.852-12.38 32.857.132 45.369 12.569 12.571 32.88 12.623 45.37.132l.014.014c12.177-12.177 15.084-38.355 15.037-55.565v-.028c-.024-2.739-2.262-4.966-5.001-4.973z" fill="#7ce3ff"/><path d="m321.012 450.826c-13.014-.036-33.517 2.388-42.677 11.548l-.001.001.011.011c-9.871 9.871-9.508 25.236.101 34.846 9.654 9.655 25.253 9.695 34.847.101l.011.011c9.352-9.352 11.585-29.458 11.549-42.677v-.022c-.019-2.103-1.738-3.814-3.841-3.819z" fill="#b9f0ff"/><path d="m412.175 453.814c-9.682-.027-24.936 1.777-31.752 8.592h-.001l.008.008c-7.344 7.344-7.074 18.776.075 25.925 7.183 7.184 18.789 7.213 25.926.075l.008.008c6.958-6.958 8.619-21.917 8.592-31.752v-.016c-.013-1.564-1.291-2.836-2.856-2.84z" fill="#7ce3ff"/><g fill="#ff8e9e"><ellipse cx="106.593" cy="159.722" rx="22.474" ry="17.897" transform="matrix(1 .003 -.003 1 .501 -.333)"/><ellipse cx="228.407" cy="160.103" rx="22.474" ry="17.897" transform="matrix(-1 -.003 .003 -1 456.312 320.921)"/><ellipse cx="286.593" cy="249.722" rx="22.474" ry="17.897" transform="matrix(1 .003 -.003 1 .784 -.897)"/><ellipse cx="408.408" cy="250.103" rx="22.474" ry="17.897" transform="matrix(-1 -.003 .003 -1 816.03 501.484)"/></g><path d="m113.5 147.537c4.142 0 7.5-3.358 7.5-7.5v-10c0-4.142-3.358-7.5-7.5-7.5s-7.5 3.358-7.5 7.5v10c0 4.142 3.358 7.5 7.5 7.5z"/><path d="m221.5 147.537c4.142 0 7.5-3.358 7.5-7.5v-10c0-4.142-3.358-7.5-7.5-7.5s-7.5 3.358-7.5 7.5v10c0 4.142 3.358 7.5 7.5 7.5z"/><path d="m168 165.537c9.687 0 18.623-5.599 22.766-14.265 1.787-3.737.206-8.215-3.531-10.001-3.737-1.789-8.215-.206-10.001 3.531-1.666 3.484-5.291 5.735-9.234 5.735s-7.568-2.251-9.234-5.735c-1.787-3.737-6.266-5.317-10.001-3.531-3.737 1.787-5.318 6.265-3.531 10.001 4.143 8.666 13.08 14.265 22.766 14.265z"/><path d="m459.706 216.603c-4.567-72.35-76.878-121.857-146.489-98.435l2.749-12.796c3.293-15.327-5.475-30.514-20.394-35.326l-23.117-7.455-7.455-23.119c-4.812-14.92-19.999-23.691-35.324-20.395l-23.747 5.103-18.013-16.293c-11.627-10.516-29.162-10.516-40.788 0l-18.015 16.294-23.747-5.103c-15.325-3.295-30.512 5.475-35.323 20.396l-7.455 23.118-23.118 7.455c-14.919 4.812-23.686 19.999-20.394 35.326l5.103 23.749-16.292 18.015c-10.516 11.627-10.516 29.164 0 40.791l16.292 18.016-5.103 23.749c-3.293 15.327 5.475 30.514 20.394 35.326l23.117 7.455 7.455 23.119c4.812 14.92 20.002 23.691 35.324 20.395l23.747-5.103 18.015 16.294c11.625 10.514 29.161 10.516 40.788 0l12.835-11.609c13.566 12.094 31.43 19.464 50.99 19.464h200.843c12.517 0 24.492-3.849 34.629-11.13 3.364-2.417 4.133-7.103 1.717-10.467-2.417-3.366-7.104-4.132-10.466-1.717-7.572 5.439-16.521 8.314-25.879 8.314h-200.844c-34.033 0-61.721-27.69-61.721-61.725 0-33.593 27.267-61.285 60.782-61.729 3.287-.043 6.057-2.2 7.029-5.166 13.625-38.321 50.086-64.056 90.783-64.056 53.107 0 96.314 43.216 96.317 96.335 0 4.142 3.358 7.5 7.5 7.5h.277c24.423 0 44.293 19.928 44.293 44.423.001 5.561-1.012 10.98-3.009 16.109-1.503 3.859.408 8.207 4.267 9.71 3.86 1.503 8.207-.408 9.71-4.268 2.675-6.871 4.031-14.123 4.03-21.553.001-30.394-22.883-55.531-52.293-59.011zm-158.403-114.382-4.991 23.231c-2.097 1.118-4.158 2.3-6.178 3.548-16.822-53.255-66.361-90.005-122.612-90.005-28.987 0-57.43 9.968-80.089 28.069-3.236 2.585-3.764 7.304-1.18 10.541 2.586 3.237 7.305 3.765 10.541 1.179 20.302-16.217 44.759-24.789 70.728-24.789 51.182 0 96.588 35.193 109.703 84.316-13.751 11.482-24.804 26.3-31.79 43.512-39.275 3.191-70.414 36.469-70.414 76.484 0 7.73 1.161 15.193 3.297 22.235-67.151 6.377-124.326-46.663-124.326-113.01 0-25.021 8.014-48.767 23.177-68.668 2.51-3.295 1.874-8-1.42-10.511-3.294-2.509-8-1.875-10.51 1.42-17.169 22.536-26.245 49.425-26.245 77.759 0 77.286 68.154 137.585 145.37 127.434 1.833 3.355 3.914 6.555 6.209 9.585l-12.716 11.502c-5.891 5.327-14.776 5.327-20.667 0l-20.864-18.871c-1.789-1.618-4.247-2.276-6.606-1.77l-27.503 5.91c-7.766 1.667-15.46-2.774-17.898-10.334l-8.634-26.775c-.741-2.296-2.54-4.096-4.836-4.836l-26.773-8.635c-7.56-2.438-12.002-10.133-10.334-17.898l5.91-27.505c.507-2.359-.152-4.817-1.77-6.606l-18.87-20.866c-5.328-5.891-5.328-14.776 0-20.667l18.87-20.865c1.618-1.789 2.277-4.248 1.77-6.606l-5.91-27.505c-1.668-7.766 2.774-15.461 10.333-17.899l26.773-8.635c2.296-.741 4.095-2.54 4.836-4.836l8.634-26.774c2.437-7.56 10.132-12.002 17.897-10.334l27.504 5.91c2.359.505 4.817-.151 6.606-1.77l20.864-18.871c5.89-5.328 14.775-5.328 20.667 0l20.864 18.871c1.789 1.618 4.247 2.277 6.606 1.77l27.503-5.91c7.767-1.669 15.46 2.774 17.898 10.334l8.634 26.775c.741 2.296 2.54 4.096 4.836 4.836l26.773 8.635c7.559 2.435 12.001 10.13 10.333 17.895z"/><path d="m286 220.037v10c0 4.142 3.358 7.5 7.5 7.5s7.5-3.358 7.5-7.5v-10c0-4.142-3.358-7.5-7.5-7.5s-7.5 3.358-7.5 7.5z"/><path d="m394 220.037v10c0 4.142 3.358 7.5 7.5 7.5s7.5-3.358 7.5-7.5v-10c0-4.142-3.358-7.5-7.5-7.5s-7.5 3.358-7.5 7.5z"/><path d="m357.234 234.802c-1.666 3.484-5.291 5.735-9.234 5.735s-7.568-2.251-9.234-5.735c-1.787-3.737-6.266-5.317-10.001-3.531-3.737 1.787-5.318 6.265-3.531 10.001 4.144 8.666 13.08 14.265 22.766 14.265s18.623-5.599 22.766-14.265c1.787-3.737.206-8.215-3.531-10.001-3.737-1.789-8.214-.206-10.001 3.531z"/><path d="m299.167 419.205c.154-.131.305-.27.45-.416 15.661-15.66 17.269-47.798 17.233-60.962-.06-6.822-5.657-12.388-12.479-12.407-10.186-.032-44.788 1.132-60.89 17.234-.145.145-.282.293-.413.447-15.229 15.674-15.029 39.956.558 55.542 15.34 15.341 40.071 15.57 55.541.562zm-45.066-45.931c.111-.111.218-.225.32-.341 9.288-8.855 30.705-12.233 47.415-12.497-.251 17.365-3.636 38.132-12.498 47.411-.117.103-.23.21-.341.321-9.635 9.634-25.168 9.466-34.764-.132-9.784-9.783-9.841-25.052-.132-34.762z"/><path d="m181.759 412.367c.123-.107.243-.22.36-.337 9.45-9.45 10.816-27.285 10.789-37.136-.049-5.65-4.686-10.26-10.336-10.276-7.907-.001-27.274.987-37.076 10.789-.116.116-.228.235-.334.356-9.877 10.235-9.73 26.036.417 36.183 9.988 9.991 26.081 10.151 36.18.421zm-25.649-26.345c.07-.07.138-.141.205-.212 3.426-3.176 11.828-5.498 21.474-6.06-.342 6.333-1.821 17.203-6.284 21.667-4.189 4.191-11.041 4.203-15.319-.075-4.266-4.267-4.447-10.949-.076-15.32z"/><path d="m390.409 410.572c.138-.119.271-.244.401-.374 12.491-12.49 13.774-37.729 13.746-48.067-.055-6.188-5.133-11.236-11.32-11.253-8.036.005-35.161.905-48.001 13.746-.129.129-.253.262-.37.398-12.331 12.73-12.16 32.421.481 45.064 12.605 12.604 32.665 12.476 45.063.486zm-34.556-35.332c.093-.092.183-.187.27-.283 6.115-5.764 20.504-8.597 33.384-9.023-.379 12.566-2.898 26.911-9.031 33.38-.096.086-.189.175-.281.267-6.653 6.655-17.501 6.638-24.239-.101-6.826-6.825-6.871-17.472-.103-24.24z"/><path d="m217.09 432.573c-.088 0-.177 0-.269 0-8.336 0-35.032 1.045-47.733 13.747-.129.129-.253.262-.371.398-12.33 12.73-12.16 32.421.482 45.063 12.582 12.585 32.642 12.498 45.062.487.138-.119.272-.244.402-.375 12.49-12.489 13.774-37.729 13.746-48.067-.054-6.188-5.132-11.236-11.319-11.253zm-12.761 48.435c-.096.086-.19.176-.282.269-6.654 6.654-17.502 6.638-24.24-.102-6.824-6.824-6.869-17.471-.101-24.239.091-.09.178-.183.263-.277 6.112-5.768 20.505-8.603 33.39-9.03-.379 12.566-2.898 26.909-9.03 33.379z"/><path d="m128.225 427.116c-.099-.016-.229 0-.349 0-10.63 0-44.62 1.312-60.542 17.234-.142.142-.278.289-.406.439-15.234 15.674-15.038 39.961.551 55.55 7.489 7.491 17.432 11.632 27.998 11.662h.113c10.332 0 20.044-3.934 27.43-11.1.155-.131.305-.27.451-.416 15.662-15.662 17.27-47.799 17.233-60.962-.06-6.822-5.658-12.388-12.479-12.407zm-15.034 62.427c-.117.103-.23.21-.341.321-9.552 9.552-25.109 9.525-34.764-.132-9.783-9.784-9.841-25.053-.132-34.763.11-.11.216-.223.317-.337 9.286-8.857 30.705-12.236 47.417-12.5-.25 17.365-3.634 38.131-12.497 47.411z"/><path d="m321.033 443.326c-.088 0-.177 0-.269 0-8.336 0-35.032 1.045-47.733 13.746-.129.129-.253.262-.371.398-12.331 12.73-12.16 32.422.482 45.064 6.08 6.081 14.151 9.442 22.729 9.466h.092c8.374 0 16.247-3.183 22.241-8.979.139-.12.273-.245.403-.375 12.491-12.49 13.774-37.729 13.746-48.066-.054-6.188-5.131-11.237-11.32-11.254zm-13.043 48.703c-6.628 6.628-17.471 6.669-24.24-.101-6.824-6.824-6.869-17.472-.101-24.239.091-.09.178-.183.263-.277 6.112-5.768 20.505-8.603 33.39-9.029-.303 10.052-2.219 26.515-9.312 33.646z"/><path d="m412.196 446.314c-.001 0-.001 0 0 0-7.852.014-27.274.986-37.077 10.789-.116.116-.228.235-.335.357-9.962 10.329-9.514 26.25.418 36.182 10.01 10.012 26.104 10.132 36.186.417.121-.106.239-.218.355-.333 9.448-9.449 10.815-27.284 10.789-37.136-.05-5.651-4.686-10.26-10.336-10.276zm-10.853 36.591c-.072.067-.144.136-.214.206-4.207 4.207-11.062 4.183-15.319-.075-4.316-4.316-4.35-11.044-.075-15.318.07-.071.14-.143.207-.216 3.429-3.174 11.828-5.494 21.471-6.057-.532 9.831-2.787 17.941-6.07 21.46z"/></svg>