<svg id="Layer_1" enable-background="new 0 0 512 512" height="512" viewBox="0 0 512 512" width="512" xmlns="http://www.w3.org/2000/svg"><path d="m294.3 413.472.014.014c12.177-12.177 15.084-38.354 15.037-55.565v-.028c-.024-2.738-2.262-4.965-5.001-4.972-16.944-.046-43.639 3.109-55.565 15.036l-.001.001.014.014c-12.852 12.852-12.38 32.857.132 45.369 12.569 12.57 32.879 12.622 45.37.131z" fill="#7ce3ff"/><path d="m176.808 406.719.008.008c6.958-6.958 8.619-21.917 8.592-31.752v-.016c-.014-1.565-1.292-2.837-2.857-2.841-9.682-.027-24.936 1.777-31.752 8.592h-.001l.008.008c-7.344 7.344-7.074 18.776.075 25.925 7.183 7.184 18.789 7.213 25.927.076z" fill="#b9f0ff"/><g fill="#7ce3ff"><path d="m385.497 404.884.011.011c9.352-9.352 11.585-29.458 11.549-42.677v-.022c-.018-2.103-1.737-3.813-3.841-3.819-13.014-.036-33.517 2.388-42.677 11.548l-.001.001.011.011c-9.871 9.871-9.508 25.236.101 34.846 9.654 9.655 25.254 9.694 34.847.101z"/><path d="m217.069 440.073c-13.014-.036-33.517 2.388-42.677 11.548l-.001.001.011.011c-9.871 9.871-9.508 25.236.101 34.846 9.654 9.655 25.253 9.695 34.847.101l.011.011c9.352-9.352 11.585-29.458 11.549-42.677v-.022c-.018-2.103-1.737-3.813-3.841-3.819z"/><path d="m128.203 434.616c-16.944-.046-43.639 3.109-55.565 15.036l-.001.001.014.014c-12.852 12.852-12.38 32.857.132 45.369 12.569 12.571 32.88 12.623 45.37.132l.014.014c12.177-12.177 15.084-38.355 15.037-55.565v-.028c-.024-2.739-2.262-4.966-5.001-4.973z"/></g><path d="m321.012 450.826c-13.014-.036-33.517 2.388-42.677 11.548l-.001.001.011.011c-9.871 9.871-9.508 25.236.101 34.846 9.654 9.655 25.253 9.695 34.847.101l.011.011c9.352-9.352 11.585-29.458 11.549-42.677v-.022c-.019-2.103-1.737-3.814-3.841-3.819z" fill="#b9f0ff"/><path d="m412.175 453.814c-9.682-.027-24.936 1.777-31.752 8.592h-.001l.008.008c-7.344 7.344-7.074 18.776.075 25.925 7.183 7.184 18.789 7.213 25.926.075l.008.008c6.958-6.958 8.619-21.917 8.592-31.752v-.016c-.013-1.564-1.291-2.836-2.856-2.84z" fill="#7ce3ff"/><path d="m274.541 222.319c30.211-83.004-12.527-174.604-95.502-204.805-17.744-6.459-35.917-9.906-53.764-10.014-5.629-.034-11.194.557-16.744 1.112-3.333.333-6.193 2.515-7.339 5.663-1.485 4.08.263 8.667 4.132 10.64 57.051 29.084 84.74 96.731 62.266 158.477-4.415 12.13-10.455 23.171-17.772 32.988l75.351 75.351c21.697-17.595 39.079-41.134 49.372-69.412z" fill="#fce3a0"/><path d="m229.283 205.846c12.871-35.362 11.21-73.597-4.676-107.659-15.885-34.059-44.104-59.903-79.46-72.771v-.001c-13.565-4.937-27.703-7.76-42.022-8.391l-2.443-.107c-.127 3.271 1.597 6.445 4.643 7.999 57.051 29.084 84.74 96.731 62.266 158.477-22.556 61.972-87.385 95.696-149.565 81.374-3.089-.711-6.549.374-8.699 3.144 0 .001-.001.001-.002.002-.541.698-.989 1.482-1.304 2.349l-.001.004c-1.146 3.147-.357 6.657 1.982 9.056 16.242 16.651 36.392 30.006 59.734 38.502 54.584 19.867 113.193 8.164 155.434-26.091l-31.536-31.536c15.789-14.871 28.004-33.347 35.649-54.351z" fill="#ffce71"/><path d="m374.197 123.009c-8.191-2.077-16.765-3.184-25.593-3.184-45.207 0-83.659 28.893-97.917 69.217v.005c-37.156.492-68.187 30.846-68.187 69.228 0 38.232 30.993 69.225 69.225 69.225h147.301z" fill="#b9bbbc"/><path d="m452.427 223.66c-.003-48.622-33.337-89.265-78.23-100.651-44.955 11.414-78.212 52.149-78.212 100.655 0 57.084 46.06 103.403 103.041 103.836h53.555c28.674 0 51.919-23.245 51.919-51.919 0-29.05-23.741-52.073-52.073-51.921z" fill="#d4d4d5"/><ellipse cx="286.593" cy="249.722" fill="#ff8e9e" rx="22.474" ry="17.897" transform="matrix(1 .003 -.003 1 .784 -.897)"/><ellipse cx="408.408" cy="250.103" fill="#ff8e9e" rx="22.474" ry="17.897" transform="matrix(-1 -.003 .003 -1 816.03 501.484)"/><path d="m459.703 216.57c-3.668-58.103-52.098-104.245-111.1-104.245-45.371 0-86.251 27.745-103.185 69.466-39.277 3.191-70.418 36.47-70.418 76.484 0 17.455 5.87 33.559 15.725 46.465-60.233 29.098-130.724 15.116-175.355-30.66-.471-.472-.536-1.113.05-1.79.61-.281.698-.221.92-.221 9.98 2.301 20.22 3.471 30.43 3.471h.03c55.512 0 107.674-34.236 127.84-89.58 23.715-65.245-5.358-136.836-65.91-167.73-.921-.36-.741-2.021.55-2.149 66.837-6.855 133.54 32.117 158.15 99.229 1.433 3.903 5.801 5.889 9.62 4.46 3.912-1.435 5.887-5.731 4.46-9.62 0-.01 0-.01 0-.01-25.086-68.393-90.458-110.14-157.16-110.14-5.52 0-11.09.6-16.57 1.149-6.143.608-11.495 4.679-13.64 10.561-2.765 7.692.545 16.172 7.78 19.89 55.188 28.117 79.353 92.256 58.62 149.23-17.33 47.659-63.05 79.699-113.77 79.71-9.07 0-18.18-1.04-27.06-3.08-9.975-2.281-19.742 5.296-19.71 15.75 0 4.25 1.64 8.279 4.63 11.34 50.3 51.58 130.085 66.237 196.82 31.608 13.476 11.721 31.054 18.842 50.275 18.842h200.856c12.518 0 24.492-3.849 34.631-11.131 3.364-2.417 4.133-7.103 1.717-10.467-2.417-3.366-7.104-4.134-10.467-1.717-7.573 5.439-16.522 8.314-25.881 8.314h-200.856c-34.035.001-61.725-27.688-61.725-61.724 0-33.594 27.269-61.285 60.786-61.729 3.287-.043 6.057-2.199 7.029-5.164 13.626-38.321 50.089-64.057 90.789-64.057 53.11 0 96.32 43.216 96.323 96.335 0 3.898 3.038 7.522 7.779 7.499 24.424 0 44.294 19.928 44.294 44.423.001 5.561-1.012 10.98-3.008 16.108-1.504 3.859.407 8.207 4.267 9.71 3.86 1.505 8.207-.407 9.71-4.267 2.676-6.871 4.032-14.123 4.031-21.553 0-30.392-22.887-55.529-52.297-59.01z"/><path d="m286 220.037v10c0 4.142 3.358 7.5 7.5 7.5s7.5-3.358 7.5-7.5v-10c0-4.143-3.358-7.5-7.5-7.5s-7.5 3.358-7.5 7.5z"/><path d="m394 220.037v10c0 4.142 3.358 7.5 7.5 7.5s7.5-3.358 7.5-7.5v-10c0-4.143-3.358-7.5-7.5-7.5s-7.5 3.358-7.5 7.5z"/><path d="m357.234 234.802c-1.666 3.483-5.291 5.735-9.234 5.735s-7.568-2.252-9.234-5.735c-1.787-3.737-6.266-5.317-10.001-3.531-3.737 1.787-5.318 6.265-3.531 10.002 4.144 8.665 13.08 14.265 22.766 14.265s18.623-5.6 22.766-14.265c1.787-3.737.206-8.215-3.531-10.002-3.737-1.789-8.214-.206-10.001 3.531z"/><path d="m271.737 430.305c10.332 0 20.044-3.935 27.43-11.101.155-.131.305-.27.45-.414 15.661-15.661 17.269-47.799 17.233-60.963-.06-6.822-5.657-12.388-12.479-12.407-10.234.001-44.79 1.134-60.89 17.233-.141.142-.276.287-.404.438-15.237 15.674-15.041 39.961.549 55.551 7.49 7.49 17.433 11.632 27.998 11.661.038.002.075.002.113.002zm-17.636-57.031c.11-.11.216-.223.317-.338 9.285-8.857 30.706-12.235 47.417-12.5-.251 17.364-3.634 38.128-12.495 47.408-.118.104-.233.212-.345.324-4.603 4.604-10.729 7.136-17.26 7.136-.023 0-.047 0-.07 0-6.574-.019-12.765-2.6-17.433-7.268-9.783-9.783-9.84-25.053-.131-34.762z"/><path d="m163.915 419.552c6.714 0 13.029-2.546 17.844-7.185.123-.107.243-.22.36-.337 9.45-9.45 10.816-27.285 10.789-37.137-.049-5.651-4.687-10.262-10.336-10.275-.067 0-.137 0-.208 0-6.398 0-26.9.82-36.869 10.788-.115.115-.225.232-.33.353-9.882 10.234-9.736 26.039.413 36.188 4.884 4.885 11.37 7.586 18.263 7.605zm-7.805-33.531c.067-.067.134-.136.198-.206 3.422-3.179 11.828-5.503 21.479-6.065-.53 9.828-2.784 17.936-6.065 21.457-.074.067-.147.138-.219.21-2.023 2.022-4.717 3.136-7.59 3.136-.01 0-.021 0-.031 0-2.901-.008-5.635-1.148-7.698-3.212-4.315-4.317-4.347-11.046-.074-15.32z"/><path d="m368.169 419.552c8.373 0 16.247-3.184 22.24-8.98.138-.118.271-.243.402-.373 12.49-12.491 13.773-37.729 13.745-48.068-.055-6.188-5.133-11.235-11.32-11.253-.086 0-.175 0-.265 0-8.331 0-35.034 1.044-47.736 13.745-.129.13-.253.263-.37.398-12.331 12.731-12.16 32.423.481 45.064 6.08 6.08 14.151 9.442 22.729 9.467zm-12.315-44.312c.09-.091.178-.184.263-.277 6.112-5.767 20.506-8.602 33.39-9.029-.379 12.566-2.898 26.91-9.031 33.38-.096.087-.189.176-.281.268-3.206 3.206-7.476 4.971-12.026 4.971-.017 0-.032 0-.049 0-4.587-.014-8.906-1.814-12.164-5.073-6.826-6.826-6.871-17.472-.102-24.24z"/><path d="m217.09 432.573c-7.995.006-35.16.903-48.002 13.745-.13.13-.253.263-.372.399-5.93 6.124-9.146 14.094-9.068 22.505.078 8.466 3.47 16.478 9.551 22.559 6.08 6.08 14.151 9.442 22.729 9.466h.091c8.371 0 16.243-3.181 22.237-8.975.14-.121.276-.247.407-.378 12.49-12.49 13.774-37.729 13.746-48.069-.053-6.186-5.132-11.234-11.319-11.252zm-12.756 48.431c-.098.088-.194.179-.287.272-3.207 3.207-7.477 4.971-12.028 4.971-.016 0-.033 0-.049 0-4.586-.013-8.906-1.813-12.164-5.072-3.285-3.285-5.118-7.579-5.159-12.091-.042-4.53 1.754-8.845 5.058-12.147.09-.091.178-.184.263-.277 6.112-5.768 20.506-8.603 33.39-9.029-.378 12.561-2.896 26.899-9.024 33.373z"/><path d="m128.222 427.116c-.114 0-.229 0-.35 0-10.634 0-44.617 1.312-60.538 17.232-.145.145-.282.294-.412.447-15.229 15.674-15.03 39.956.557 55.543 7.489 7.49 17.432 11.632 27.998 11.661h.113c10.333 0 20.048-3.936 27.434-11.104.153-.13.302-.268.446-.411 15.662-15.663 17.27-47.8 17.233-60.963-.059-6.823-5.658-12.388-12.481-12.405zm-15.032 62.429c-.116.103-.229.209-.34.319-4.604 4.604-10.73 7.136-17.261 7.136-.023 0-.047 0-.07 0-6.574-.019-12.765-2.599-17.432-7.268-9.783-9.783-9.841-25.053-.132-34.762.112-.112.219-.227.322-.344 9.29-8.854 30.704-12.23 47.413-12.494-.252 17.366-3.637 38.134-12.5 47.413z"/><path d="m321.033 443.325c-8.016-.003-35.163.906-48.002 13.747-.129.129-.253.262-.372.398-5.93 6.124-9.146 14.094-9.068 22.504.078 8.466 3.47 16.478 9.551 22.559 6.08 6.081 14.151 9.442 22.729 9.467h.092c8.374 0 16.248-3.183 22.242-8.98.137-.118.271-.243.402-.373 12.491-12.489 13.774-37.729 13.746-48.066-.054-6.189-5.131-11.238-11.32-11.256zm-12.762 48.437c-.096.087-.189.176-.281.268-3.207 3.207-7.476 4.971-12.027 4.971-.016 0-.033 0-.049 0-4.586-.013-8.906-1.814-12.164-5.073-3.285-3.285-5.118-7.579-5.159-12.09-.042-4.53 1.754-8.845 5.058-12.147.091-.092.18-.186.266-.28 6.113-5.766 20.505-8.6 33.387-9.027-.379 12.564-2.898 26.909-9.031 33.378z"/><path d="m412.195 446.314c-7.851-.001-27.274.986-37.076 10.79-.114.114-.225.231-.33.352-4.745 4.917-7.317 11.313-7.256 18.063.063 6.805 2.787 13.241 7.669 18.123 4.885 4.885 11.37 7.586 18.263 7.605h.074c6.713 0 13.026-2.545 17.841-7.182.124-.108.245-.222.363-.339 9.448-9.449 10.815-27.285 10.789-37.137-.049-5.65-4.686-10.26-10.337-10.275zm-10.846 36.585c-.074.068-.148.139-.221.211-2.022 2.023-4.718 3.137-7.591 3.137-.01 0-.021 0-.03 0-2.901-.008-5.635-1.148-7.697-3.212-2.087-2.086-3.25-4.805-3.276-7.655s1.11-5.572 3.201-7.662c.07-.071.14-.144.207-.217 3.429-3.174 11.828-5.494 21.471-6.057-.532 9.827-2.784 17.934-6.064 21.455z"/></svg>