<svg id="Layer_1" enable-background="new 0 0 497 497" height="512" viewBox="0 0 497 497" width="512" xmlns="http://www.w3.org/2000/svg"><path d="m275.927 358.317h-15.363c8.79-8.192 34.492-32.144 43.207-40.266l-41.887-41.887-83.62 89.729c-4.241 4.572-6.803 10.717-6.721 17.444.17 13.917 11.59 25.062 25.507 24.892h24.566l-53.104 65.352c-3.198 3.936-2.903 9.653.682 13.238 3.581 3.581 9.287 3.881 13.223.695l107.963-87.364c5.18-4.235 8.602-10.716 8.69-17.929.159-12.94-10.203-23.745-23.143-23.904z" fill="#ffce71"/><path d="m294.492 12.051c-12.272-3.112-25.118-4.77-38.345-4.77-67.732 0-125.343 43.289-146.705 103.705v.007c-55.67.737-102.161 46.214-102.161 103.722 0 57.281 46.435 103.716 103.717 103.716h220.695z" fill="#b9bbbc"/><path d="m411.7 162.852c-.004-72.848-49.947-133.742-117.208-150.801-67.354 17.101-117.182 78.132-117.182 150.807 0 85.526 69.009 154.924 154.382 155.573h80.24c42.961 0 77.787-34.827 77.787-77.788 0-43.523-35.57-78.018-78.019-77.791z" fill="#d4d4d5"/><ellipse cx="200.915" cy="193.053" fill="#ff8e9e" rx="19.689" ry="24.725" transform="matrix(.003 -1 1 .003 7.24 393.368)"/><ellipse cx="334.914" cy="193.487" fill="#ff8e9e" rx="19.689" ry="24.725" transform="matrix(.003 -1 1 .003 140.389 527.8)"/><path d="m132.8 394.803.008.008c6.754-6.754 8.366-21.275 8.34-30.822v-.016c-.014-1.519-1.254-2.754-2.773-2.758-9.398-.026-24.205 1.725-30.822 8.34h-.001l.008.008c-7.129 7.129-6.867 18.226.073 25.165 6.972 6.975 18.238 7.003 25.167.075z" fill="#b9f0ff"/><path d="m374.203 393.022.011.011c9.078-9.078 11.246-28.595 11.211-41.427v-.021c-.017-2.041-1.686-3.701-3.728-3.707-12.633-.035-32.535 2.318-41.427 11.21l-.001.001.011.011c-9.582 9.582-9.229 24.497.098 33.825 9.37 9.371 24.513 9.409 33.825.097z" fill="#7ce3ff"/><path d="m95.326 421.883c-16.448-.045-42.36 3.018-53.937 14.595l-.001.001.014.014c-12.475 12.475-12.017 31.894.128 44.04 12.201 12.203 31.917 12.253 44.041.128l.014.014c11.82-11.82 14.642-37.231 14.596-53.937v-.027c-.024-2.66-2.196-4.821-4.855-4.828z" fill="#7ce3ff"/><path d="m321.314 437.618c-12.633-.035-32.535 2.318-41.427 11.21l-.001.001.011.011c-9.582 9.582-9.229 24.497.098 33.825 9.371 9.372 24.513 9.411 33.826.098l.011.011c9.078-9.078 11.246-28.595 11.211-41.427v-.021c-.019-2.042-1.687-3.703-3.729-3.708z" fill="#b9f0ff"/><path d="m409.806 440.518c-9.398-.026-24.205 1.725-30.822 8.34h-.001l.008.008c-7.129 7.129-6.867 18.226.073 25.165 6.973 6.974 18.238 7.002 25.166.073l.008.008c6.754-6.754 8.366-21.275 8.34-30.822v-.016c-.012-1.517-1.253-2.752-2.772-2.756z" fill="#7ce3ff"/><path d="m418.83 155.833c-3.692-86.553-75.253-155.833-162.684-155.833-67.23 0-127.625 41.548-151.838 103.893-27.146 1.584-52.542 13.024-71.98 32.533-20.847 20.924-32.328 48.727-32.328 78.287 0 44.412 26.364 84.451 67.165 102.006 3.694 1.587 7.976-.117 9.565-3.811s-.116-7.975-3.81-9.565c-35.452-15.253-58.36-50.043-58.36-88.63 0-62.748 59.949-109.78 121.664-93.105 3.879 1.049 7.878-1.246 8.928-5.129 1.049-3.882-1.247-7.878-5.129-8.928-6.546-1.769-13.264-2.917-20.056-3.462 23.286-53.939 76.801-89.53 136.179-89.53 79.434 0 144.475 62.804 148.107 141.372-1.577.141-3.15.312-4.706.539-3.979.581-6.733 4.277-6.151 8.256.581 3.978 4.277 6.734 8.256 6.151 3.373-.492 6.832-.743 10.28-.743.037 0 .072-.005.109-.006h.075c38.777 0 70.323 31.632 70.323 70.513 0 38.879-31.629 70.508-70.508 70.508h-300.935c-.008 0-.015 0-.021 0-4.021 0-8.068-.25-12.029-.745-3.99-.494-7.627 2.334-8.125 6.324-.497 3.99 2.334 7.627 6.324 8.125 4.556.568 9.209.856 13.83.856h.023 94.761l-32.832 35.231c-5.588 6.024-8.665 13.865-8.665 22.081.108 18.368 15.025 32.489 32.476 32.489l9.584-.003-43.458 53.481c-5.444 6.703-5.161 16.634 1.184 22.977 3.244 3.245 7.559 5.032 12.149 5.032 3.918 0 7.753-1.357 10.803-3.824l107.991-87.389c2.486-2.033 4.635-4.431 6.39-7.133 2.191-3.372 1.234-7.88-2.137-10.072-3.372-2.193-7.88-1.234-10.071 2.137-.935 1.438-2.078 2.715-3.369 3.771l-107.964 87.369c-.596.482-1.224.584-1.645.584-2.19 0-3.427-2.551-2.033-4.267l53.104-65.351c1.771-2.179 2.131-5.184.923-7.719-1.207-2.536-3.764-4.152-6.574-4.152h-24.567c-.044 0-.087 0-.132.001l-.182.002c-9.551 0-17.847-7.711-17.915-17.929 0-4.531 1.698-8.857 4.769-12.167l42.072-45.145h59.211l-29.272 27.281c-2.188 2.039-2.906 5.209-1.81 7.993 1.096 2.783 3.783 4.613 6.775 4.613l15.274-.001c4.894.061 9.453 2.353 12.507 6.289 2.466 3.177 7.04 3.753 10.215 1.289 3.177-2.465 3.755-7.038 1.29-10.215-5.183-6.679-12.688-10.862-20.981-11.748l27.363-25.5h105.701c46.906 0 85.068-38.161 85.068-85.068-.002-44.648-34.492-81.37-78.171-84.813z"/><path d="m205.789 154.868c-4.021 0-7.28 3.26-7.28 7.28v9.707c0 4.021 3.26 7.28 7.28 7.28s7.28-3.26 7.28-7.28v-9.707c0-4.021-3.26-7.28-7.28-7.28z"/><path d="m330.038 154.868c-4.021 0-7.28 3.26-7.28 7.28v9.707c0 4.021 3.26 7.28 7.28 7.28 4.021 0 7.28-3.26 7.28-7.28v-9.707c.001-4.021-3.259-7.28-7.28-7.28z"/><path d="m222.281 147.712c2.01-3.482.817-7.935-2.665-9.945l-12.609-7.28c-3.482-2.01-7.935-.818-9.945 2.665-2.01 3.482-.817 7.935 2.665 9.945l12.609 7.28c1.146.662 2.399.977 3.633.977 2.516-.001 4.964-1.307 6.312-3.642z"/><path d="m338.765 133.151c-2.011-3.483-6.464-4.674-9.945-2.665l-12.609 7.28c-3.482 2.01-4.675 6.463-2.665 9.945 2.011 3.485 6.466 4.673 9.945 2.665l12.609-7.28c3.482-2.01 4.676-6.463 2.665-9.945z"/><path d="m138.178 353.933c-7.607 0-26.323 1.021-35.774 10.475-9.79 9.751-9.875 25.509.082 35.469 9.988 9.987 25.869 9.681 35.47.081 9.112-9.113 10.473-26.306 10.473-35.742-.01-5.928-4.512-10.247-10.251-10.283zm-10.527 35.721c-4.08 4.08-10.728 4.069-14.869-.072-4.165-4.165-4.294-10.651-.075-14.869 4.156-4.156 14.944-5.727 21.042-6.087-.334 6.138-1.774 16.706-6.098 21.028z"/><path d="m392.704 351.524c-.048-5.674-4.522-10.891-11.279-10.928-7.733 0-33.924.962-46.304 13.344-12.181 12.09-12.307 31.716.108 44.13 12.118 12.12 31.783 12.368 44.133.11 10.684-10.687 13.342-31.487 13.342-46.656zm-23.65 36.35c-6.468 6.468-16.989 6.443-23.529-.1-6.575-6.573-6.753-16.875-.098-23.528 6.575-6.645 23.283-8.712 32.665-9.031-.296 9.748-2.182 25.803-9.038 32.659z"/><path d="m94.972 414.6c-9.854 0-43.211 1.207-58.733 16.73-14.914 14.814-15.237 38.97.141 54.348 7.299 7.3 16.988 11.319 27.285 11.319 10.353 0 19.984-4.094 27.066-11.177 13.449-13.449 16.765-40.162 16.728-59.177-.054-6.25-4.988-12.023-12.487-12.043zm-14.549 60.912c-9.268 9.265-24.357 9.261-33.746-.129-9.459-9.459-9.609-24.262-.127-33.743 9.565-9.608 32.832-12.245 46.335-12.463-.202 13.845-2.731 36.604-12.462 46.335z"/><path d="m321.314 430.337c-14.792-.05-36.1 2.867-46.575 13.343-12.206 12.158-12.271 31.752.109 44.129 5.925 5.925 13.792 9.19 22.15 9.19 8.499 0 16.291-3.389 21.982-9.08 10.68-10.681 13.342-31.466 13.342-46.66-.053-6.022-5.007-10.922-11.008-10.922zm-12.642 47.276c-3.111 3.111-7.258 4.825-11.675 4.825-14.362 0-22.806-17.6-11.952-28.454 6.697-6.661 23.194-8.715 32.666-9.032-.296 9.692-2.17 25.793-9.039 32.661z"/><path d="m409.603 433.237c-7.605 0-26.316 1.021-35.767 10.475-9.794 9.794-9.875 25.509.081 35.468 9.755 9.753 25.36 9.808 35.118.411.121-.105.238-.215.352-.329 8.453-8.453 10.473-24.045 10.473-36.05-.046-5.186-4.151-9.939-10.257-9.975zm-10.521 35.718c-1.963 1.963-4.581 3.045-7.37 3.045-9.07 0-14.443-11.119-7.573-17.986 4.058-4.115 14.855-5.721 21.041-6.086-.339 6.25-1.83 16.819-6.098 21.027z"/><path d="m282.959 177.21v-.412c0-3.794-3.075-6.869-6.869-6.869h-15.383c-3.793 0-6.869 3.075-6.869 6.869 0 7.84 6.025 14.587 13.857 14.955 8.362.395 15.264-6.268 15.264-14.543z"/></svg>