<svg height="472pt" viewBox="0 -8 472 472" width="472pt" xmlns="http://www.w3.org/2000/svg"><g fill="#fdd020"><path d="m416 160c0 57.4375-46.5625 104-104 104s-104-46.5625-104-104 46.5625-104 104-104 104 46.5625 104 104zm0 0"/><path d="m464 168h-16c-4.417969 0-8-3.582031-8-8s3.582031-8 8-8h16c4.417969 0 8 3.582031 8 8s-3.582031 8-8 8zm0 0"/><path d="m296 32c-4.417969 0-8-3.582031-8-8v-16c0-4.417969 3.582031-8 8-8s8 3.582031 8 8v16c0 4.417969-3.582031 8-8 8zm0 0"/><path d="m408 72c-3.234375 0-6.152344-1.949219-7.390625-4.9375s-.550781-6.429688 1.734375-8.71875l16-16c2.007812-2.078125 4.984375-2.914062 7.78125-2.179688 2.796875.730469 4.980469 2.914063 5.710938 5.710938.734374 2.796875-.101563 5.773438-2.179688 7.78125l-16 16c-1.5 1.5-3.535156 2.34375-5.65625 2.34375zm0 0"/></g><path d="m352 360h11.03125c30.171875.726562 58.363281-14.957031 73.660156-40.96875s15.296875-58.273438 0-84.285156c-15.296875-26.015625-43.488281-41.695313-73.660156-40.96875-5.640625 0-11.265625.554687-16.800781 1.648437-6.925781-32.023437-35.371094-54.792969-68.132813-54.539062-10.019531.003906-19.917968 2.144531-29.042968 6.28125-16.0625-41.289063-59.039063-65.5-102.675782-57.84375-43.640625 7.65625-75.808594 45.046875-76.859375 89.339843.023438 10.351563 1.859375 20.617188 5.425781 30.335938-41.28125.734375-74.488281 34.164062-74.945312 75.449219 0 41.726562 37.34375 75.550781 80 75.550781" fill="#a3d4f7"/><path d="m192 400h-20.6875l18.34375-18.34375c3.03125-3.140625 2.988281-8.128906-.097656-11.214844-3.085938-3.085937-8.074219-3.128906-11.214844-.097656l-18.34375 18.34375v-20.6875c0-4.417969-3.582031-8-8-8s-8 3.582031-8 8v20.6875l-18.34375-18.34375c-3.140625-3.03125-8.128906-2.988281-11.214844.097656-3.085937 3.085938-3.128906 8.074219-.097656 11.214844l18.34375 18.34375h-20.6875c-4.417969 0-8 3.582031-8 8s3.582031 8 8 8h20.6875l-18.34375 18.34375c-2.078125 2.007812-2.914062 4.984375-2.179688 7.78125.730469 2.796875 2.914063 4.980469 5.710938 5.710938 2.796875.734374 5.773438-.101563 7.78125-2.179688l18.34375-18.34375v20.6875c0 4.417969 3.582031 8 8 8s8-3.582031 8-8v-20.6875l18.34375 18.34375c3.140625 3.03125 8.128906 2.988281 11.214844-.097656 3.085937-3.085938 3.128906-8.074219.097656-11.214844l-18.34375-18.34375h20.6875c4.417969 0 8-3.582031 8-8s-3.582031-8-8-8zm0 0" fill="#b7f9fe"/><path d="m320 384h-20.6875l18.34375-18.34375c3.03125-3.140625 2.988281-8.128906-.097656-11.214844-3.085938-3.085937-8.074219-3.128906-11.214844-.097656l-18.34375 18.34375v-20.6875c0-4.417969-3.582031-8-8-8s-8 3.582031-8 8v20.6875l-18.34375-18.34375c-3.140625-3.03125-8.128906-2.988281-11.214844.097656-3.085937 3.085938-3.128906 8.074219-.097656 11.214844l18.34375 18.34375h-20.6875c-4.417969 0-8 3.582031-8 8s3.582031 8 8 8h20.6875l-18.34375 18.34375c-2.078125 2.007812-2.914062 4.984375-2.179688 7.78125.730469 2.796875 2.914063 4.980469 5.710938 5.710938 2.796875.734374 5.773438-.101563 7.78125-2.179688l18.34375-18.34375v20.6875c0 4.417969 3.582031 8 8 8s8-3.582031 8-8v-20.6875l18.34375 18.34375c3.140625 3.03125 8.128906 2.988281 11.214844-.097656 3.085937-3.085938 3.128906-8.074219.097656-11.214844l-18.34375-18.34375h20.6875c4.417969 0 8-3.582031 8-8s-3.582031-8-8-8zm0 0" fill="#b7f9fe"/><path d="m240 288h-20.6875l18.34375-18.34375c3.03125-3.140625 2.988281-8.128906-.097656-11.214844-3.085938-3.085937-8.074219-3.128906-11.214844-.097656l-18.34375 18.34375v-20.6875c0-4.417969-3.582031-8-8-8s-8 3.582031-8 8v20.6875l-18.34375-18.34375c-3.140625-3.03125-8.128906-2.988281-11.214844.097656-3.085937 3.085938-3.128906 8.074219-.097656 11.214844l18.34375 18.34375h-20.6875c-4.417969 0-8 3.582031-8 8s3.582031 8 8 8h20.6875l-18.34375 18.34375c-2.078125 2.007812-2.914062 4.984375-2.179688 7.78125.730469 2.796875 2.914063 4.980469 5.710938 5.710938 2.796875.734374 5.773438-.101563 7.78125-2.179688l18.34375-18.34375v20.6875c0 4.417969 3.582031 8 8 8s8-3.582031 8-8v-20.6875l18.34375 18.34375c3.140625 3.03125 8.128906 2.988281 11.214844-.097656 3.085937-3.085938 3.128906-8.074219.097656-11.214844l-18.34375-18.34375h20.6875c4.417969 0 8-3.582031 8-8s-3.582031-8-8-8zm0 0" fill="#b7f9fe"/></svg>