<svg id="Layer_1" enable-background="new 0 0 512 512" height="512" viewBox="0 0 512 512" width="512" xmlns="http://www.w3.org/2000/svg"><path d="m303.38 12.414c-12.642-3.206-25.876-4.914-39.502-4.914-69.776 0-129.126 44.596-151.133 106.835v.007c-57.35.76-105.245 47.61-105.245 106.853 0 59.01 47.837 106.847 106.847 106.847h227.356z" fill="#d4d4d5"/><path d="m424.126 167.767c-.004-75.047-51.455-137.779-120.746-155.353-69.387 17.617-120.719 80.491-120.719 155.359 0 88.107 71.092 159.6 159.042 160.269h82.662c44.258 0 80.135-35.878 80.135-80.136 0-44.837-36.644-80.373-80.374-80.139z" fill="#efedee"/><path d="m495.714 444.5 4.393-4.394c5.858-5.857 5.858-15.355 0-21.213-5.857-5.857-15.355-5.857-21.213 0l-10.607 10.607h-8.787v-8.787l10.606-10.606c5.858-5.857 5.858-15.355 0-21.213-5.857-5.857-15.355-5.857-21.213 0l-4.394 4.394-4.394-4.394c-5.857-5.857-15.355-5.857-21.213 0s-5.858 15.355 0 21.213l10.606 10.606v8.787h-8.787l-10.606-10.606c-5.857-5.857-15.355-5.857-21.213 0s-5.858 15.355 0 21.213l4.393 4.394-4.393 4.394c-5.858 5.857-5.858 15.355 0 21.213 2.929 2.929 6.768 4.394 10.606 4.394s7.678-1.465 10.606-4.394l10.606-10.606h8.787v8.787l-10.606 10.606c-5.858 5.857-5.858 15.355 0 21.213 5.857 5.857 15.355 5.857 21.213 0l4.394-4.394 4.394 4.394c2.929 2.929 6.768 4.394 10.606 4.394s7.678-1.465 10.606-4.394c5.858-5.857 5.858-15.355 0-21.213l-10.604-10.608v-8.787h8.787l10.606 10.606c2.929 2.929 6.768 4.394 10.606 4.394s7.678-1.465 10.606-4.394c5.858-5.857 5.858-15.355 0-21.213z" fill="#efedee"/><path d="m248.558 331.71-4.569-3.668 4.569-3.67c6.46-5.187 7.492-14.628 2.306-21.087-5.185-6.46-14.628-7.494-21.087-2.306l-17.666 14.184-17.944 8.142v-4.021l21.664-17.392c6.46-5.187 7.492-14.628 2.307-21.088-5.188-6.459-14.625-7.492-21.088-2.307l-2.883 2.314v-4.593c0-8.284-6.716-15-15-15s-15 6.716-15 15v4.592l-2.882-2.313c-6.46-5.185-15.901-4.152-21.088 2.307-5.186 6.46-4.153 15.901 2.307 21.088l21.663 17.392v4.021l-17.943-8.142-17.667-14.185c-6.461-5.186-15.901-4.152-21.087 2.307-5.187 6.46-4.154 15.901 2.306 21.087l4.57 3.67-4.57 3.668c-6.46 5.187-7.492 14.628-2.307 21.088 2.963 3.69 7.315 5.61 11.707 5.61 3.294 0 6.611-1.081 9.381-3.304l11.949-9.593 13.752 6.241-7.001 7.736h-20.412c-8.284 0-15 6.716-15 15s6.716 15 15 15h12.067v6.73c0 8.284 6.716 15 15 15s15-6.716 15-15v-15.951l10.253-11.33 10.254 11.331v15.95c0 8.284 6.716 15 15 15s15-6.716 15-15v-6.73h12.067c8.284 0 15-6.716 15-15s-6.716-15-15-15h-20.411l-7.001-7.736 13.752-6.24 11.948 9.592c2.77 2.223 6.086 3.304 9.381 3.304 4.392 0 8.744-1.92 11.707-5.61 5.188-6.46 4.156-15.901-2.304-21.088z" fill="#efedee"/><g fill="#d4d4d5"><circle cx="335" cy="465.662" r="22.5"/><circle cx="55" cy="411.662" r="22.5"/><circle cx="321.998" cy="379.162" r="30"/><circle cx="234.5" cy="489.5" r="15"/><circle cx="165.561" cy="451.662" r="15"/></g><ellipse cx="206.971" cy="198.885" fill="#ff8e9e" rx="25.471" ry="20.283" transform="matrix(1 .003 -.003 1 .624 -.648)"/><ellipse cx="345.029" cy="199.317" fill="#ff8e9e" rx="25.471" ry="20.283" transform="matrix(-1 -.003 .003 -1 689.433 399.714)"/><path d="m424.364 335.542c48.322 0 87.636-39.313 87.636-87.636 0-19.274-6.131-37.553-17.73-52.858-2.503-3.302-7.206-3.949-10.508-1.447-3.301 2.502-3.949 7.206-1.447 10.508 9.607 12.676 14.685 27.821 14.685 43.797 0 40.052-32.584 72.636-72.636 72.636h-164.112c2.659-7.165 1.639-15.503-3.539-21.951-6.975-8.692-18.81-10.647-27.927-5.883 1.779-15.824-13.013-28.507-28.466-24.163-3.144-8.64-11.439-14.826-21.152-14.826-9.712 0-18.007 6.186-21.152 14.824-15.39-4.317-30.26 8.284-28.464 24.177-9.321-4.854-21.104-2.631-27.929 5.87-4.581 5.706-6.167 13.255-4.004 20.537-46.842-7.977-82.619-48.852-82.619-97.932 0-54.068 43.893-98.639 97.844-99.354 3.288-.043 6.059-2.203 7.03-5.171 21.584-60.818 79.432-101.67 144.003-101.67 84.221 0 152.744 68.531 152.749 152.767 0 4.057 3.256 7.5 7.552 7.5l.376-.001c13.303 0 26.346 3.691 37.72 10.674 3.526 2.166 8.146 1.062 10.315-2.468 2.167-3.529 1.063-8.148-2.468-10.315-11.758-7.219-24.997-11.524-38.649-12.615-3.803-89.167-77.525-160.542-167.595-160.542-69.259 0-131.476 42.802-156.421 107.029-27.965 1.631-54.128 13.417-74.153 33.515-21.476 21.555-33.303 50.197-33.303 80.651 0 57.69 42.947 105.531 98.548 113.25-4.496 10.393-.643 22.486 9.115 28.301-9.139 14.875 1.591 34.242 19.184 34.242h4.581c.407 12.052 10.338 21.73 22.487 21.73 12.407 0 22.5-10.094 22.5-22.5v-13.062l2.753-3.042 2.754 3.043v13.061c0 12.406 10.093 22.5 22.5 22.5 12.149 0 22.08-9.679 22.487-21.73h4.581c17.572 0 28.336-19.344 19.184-34.243 9.374-5.587 13.342-16.995 9.548-27.204h164.142zm-192.875 46.446h-12.067c-4.142 0-7.5 3.357-7.5 7.5v6.73c0 4.136-3.364 7.5-7.5 7.5s-7.5-3.364-7.5-7.5v-15.95c0-1.859-.691-3.653-1.939-5.032l-10.254-11.331c-2.978-3.291-8.148-3.286-11.122 0l-10.253 11.33c-1.248 1.379-1.939 3.173-1.939 5.032v15.951c0 4.136-3.364 7.5-7.5 7.5s-7.5-3.364-7.5-7.5v-6.73c0-4.143-3.358-7.5-7.5-7.5h-12.067c-4.136 0-7.5-3.364-7.5-7.5s3.364-7.5 7.5-7.5c3.936 0 7.157-3.033 7.469-6.889l7.291-5.853 9.554 4.335c3.77 1.71 8.216.04 9.929-3.731 1.712-3.771.042-8.217-3.73-9.929l-13.752-6.24c-2.575-1.167-5.589-.789-7.794.981l-11.948 9.592c-3.249 2.608-7.962 2.066-10.545-1.152-2.589-3.225-2.071-7.955 1.152-10.543 6.479-5.199 3.843-3.082 4.603-3.697 3.595-2.921 3.8-8.524-.031-11.668l-4.571-3.671c-3.231-2.594-3.748-7.31-1.152-10.543 2.588-3.225 7.317-3.74 10.544-1.153 3.45 2.77 8.632 2 11.059-1.89 1.872 2.154 1.168 1.423 21.745 17.942v.425c0 4.143 3.358 7.5 7.5 7.5s7.5-3.357 7.5-7.5v-4.021c0-2.273-1.032-4.425-2.805-5.849l-21.666-17.391c-3.225-2.589-3.742-7.319-1.154-10.543 2.589-3.227 7.32-3.743 10.544-1.154l2.882 2.313c2.25 1.807 5.338 2.163 7.938.914 2.602-1.248 4.257-3.877 4.257-6.763v-4.592c0-4.136 3.364-7.5 7.5-7.5s7.5 3.364 7.5 7.5v4.593c0 6.279 7.292 9.785 12.195 5.849l2.881-2.313c3.225-2.589 7.958-2.071 10.545 1.152 2.589 3.225 2.071 7.955-1.153 10.544l-21.664 17.392c-1.773 1.424-2.805 3.575-2.805 5.849v4.021c0 4.143 3.358 7.5 7.5 7.5s7.5-3.357 7.5-7.5v-.425l18.859-15.14c1.067-.857 2.018-1.803 2.886-2.801 2.422 3.885 7.609 4.661 11.061 1.887 3.226-2.588 7.941-2.087 10.542 1.155 2.589 3.223 2.087 7.941-1.154 10.543-4.759 3.822-4.599 3.696-4.599 3.696-3.607 2.932-3.793 8.537.031 11.67l4.569 3.668c3.225 2.589 3.742 7.319 1.154 10.544-2.596 3.233-7.312 3.748-10.544 1.153l-11.948-9.593c-2.206-1.771-5.22-2.149-7.794-.981l-13.752 6.24c-3.772 1.712-5.442 6.157-3.73 9.93 1.711 3.772 6.157 5.441 9.929 3.73l9.553-4.335 7.291 5.854c.312 3.855 3.534 6.888 7.469 6.888 4.136 0 7.5 3.364 7.5 7.5s-3.364 7.5-7.5 7.5z"/><path d="m204.5 167.042v10c0 4.142 3.358 7.5 7.5 7.5s7.5-3.358 7.5-7.5v-10c0-4.142-3.358-7.5-7.5-7.5s-7.5 3.358-7.5 7.5z"/><path d="m332.5 167.042v10c0 4.142 3.358 7.5 7.5 7.5s7.5-3.358 7.5-7.5v-10c0-4.142-3.358-7.5-7.5-7.5s-7.5 3.358-7.5 7.5z"/><path d="m285.734 176.807c-1.666 3.484-5.291 5.735-9.234 5.735s-7.568-2.251-9.234-5.735c-1.787-3.737-6.266-5.317-10.001-3.531-3.737 1.787-5.318 6.265-3.531 10.001 4.144 8.666 13.08 14.265 22.766 14.265s18.623-5.599 22.766-14.265c1.787-3.737.206-8.215-3.531-10.001-3.737-1.789-8.214-.206-10.001 3.531z"/><path d="m505.41 413.59c-6.909-6.907-17.229-8.375-25.589-4.403 3.896-8.155 2.661-18.524-4.411-25.597-8.476-8.475-22.087-8.762-30.91-.86-8.823-7.901-22.435-7.614-30.91.86-6.913 6.913-8.378 17.243-4.396 25.604-8.362-3.983-18.69-2.518-25.604 4.396-8.475 8.476-8.762 22.087-.86 30.91-7.901 8.823-7.614 22.435.86 30.91 7.073 7.071 17.44 8.308 25.597 4.411-3.973 8.358-2.505 18.68 4.403 25.589 8.476 8.474 22.087 8.762 30.91.861 4.13 3.703 9.409 5.729 15 5.729 6.01 0 11.66-2.341 15.909-6.59 7.005-7.004 8.345-17.346 4.419-25.582 8.213 3.914 18.554 2.609 25.581-4.418 4.25-4.249 6.591-9.899 6.591-15.91 0-5.591-2.025-10.871-5.729-15 3.703-4.13 5.729-9.409 5.729-15 0-6.011-2.341-11.661-6.59-15.91zm-15 36.213 4.394 4.395c4.742 4.742 1.315 12.803-5.304 12.803-2.003 0-3.887-.78-5.303-2.197l-10.606-10.606c-1.407-1.406-3.314-2.196-5.304-2.196h-8.787c-4.143 0-7.5 3.357-7.5 7.5v8.787c0 1.989.79 3.896 2.196 5.304l10.607 10.606c4.742 4.742 1.315 12.803-5.304 12.803-2.003 0-3.887-.78-5.303-2.197l-4.394-4.394c-2.931-2.929-7.678-2.928-10.607 0l-4.394 4.394c-4.73 4.733-12.802 1.325-12.802-5.303 0-2.004.779-3.887 2.196-5.303l10.606-10.606c1.406-1.407 2.196-3.314 2.196-5.304v-8.789c0-4.143-3.357-7.5-7.5-7.5h-8.787c-1.989 0-3.896.79-5.304 2.196l-10.606 10.606c-2.93 2.932-7.675 2.932-10.605 0-2.925-2.924-2.925-7.682 0-10.605l4.394-4.394c2.929-2.93 2.929-7.678 0-10.607l-4.394-4.394c-4.723-4.722-1.334-12.802 5.303-12.802 2.004 0 3.887.779 5.303 2.196l10.606 10.606c1.407 1.406 3.314 2.196 5.304 2.196h8.787c4.143 0 7.5-3.357 7.5-7.5v-8.787c0-1.989-.79-3.896-2.196-5.304l-10.606-10.606c-2.929-2.927-2.932-7.675 0-10.605 2.924-2.926 7.682-2.926 10.605 0l4.394 4.394c2.93 2.928 7.678 2.928 10.607 0l4.394-4.394c4.712-4.715 12.803-1.348 12.803 5.303 0 2.003-.78 3.887-2.197 5.303l-10.606 10.606c-1.406 1.407-2.196 3.314-2.196 5.304v8.787c0 4.143 3.357 7.5 7.5 7.5h8.787c1.989 0 3.896-.79 5.304-2.196l10.606-10.606c4.74-4.743 12.803-1.316 12.803 5.303 0 2.003-.78 3.887-2.197 5.304l-4.393 4.394c-2.929 2.928-2.929 7.676 0 10.605z"/><path d="m335 435.662c-16.542 0-30 13.458-30 30s13.458 30 30 30 30-13.458 30-30-13.458-30-30-30zm0 45c-8.271 0-15-6.729-15-15s6.729-15 15-15 15 6.729 15 15-6.729 15-15 15z"/><path d="m55 381.662c-16.542 0-30 13.458-30 30s13.458 30 30 30 30-13.458 30-30-13.458-30-30-30zm0 45c-8.271 0-15-6.729-15-15s6.729-15 15-15 15 6.729 15 15-6.729 15-15 15z"/><path d="m359.498 379.162c0-20.678-16.822-37.5-37.5-37.5s-37.5 16.822-37.5 37.5 16.822 37.5 37.5 37.5 37.5-16.822 37.5-37.5zm-59.999 0c0-12.406 10.093-22.5 22.5-22.5s22.5 10.094 22.5 22.5-10.093 22.5-22.5 22.5-22.5-10.094-22.5-22.5z"/><path d="m234.5 467c-12.407 0-22.5 10.094-22.5 22.5s10.093 22.5 22.5 22.5 22.5-10.094 22.5-22.5-10.093-22.5-22.5-22.5zm0 30c-4.136 0-7.5-3.364-7.5-7.5s3.364-7.5 7.5-7.5 7.5 3.364 7.5 7.5-3.364 7.5-7.5 7.5z"/><path d="m165.561 429.162c-12.407 0-22.5 10.094-22.5 22.5s10.093 22.5 22.5 22.5 22.5-10.094 22.5-22.5-10.094-22.5-22.5-22.5zm0 30c-4.136 0-7.5-3.364-7.5-7.5s3.364-7.5 7.5-7.5 7.5 3.364 7.5 7.5-3.365 7.5-7.5 7.5z"/></svg>