<svg height="464pt" viewBox="0 -16 464 464" width="464pt" xmlns="http://www.w3.org/2000/svg"><path d="m426.289062 150.695312c-40.671874-.933593-72.894531-34.640624-72-75.308593.035157-31.414063 18.972657-59.71875 48-71.730469-10.042968-2.769531-20.449218-3.980469-30.855468-3.5820312-54.921875 0-99.433594 46.5585932-99.433594 104.0000002 0 57.4375 44.511719 104 99.433594 104 42.410156-.09375 79.871094-27.667969 92.566406-68.136719-11.152344 7.40625-24.328125 11.167969-37.710938 10.757812zm0 0" fill="#fce666"/><path d="m352 336.074219h11.03125c30.171875.722656 58.363281-14.957031 73.660156-40.96875 15.296875-26.015625 15.296875-58.273438 0-84.289063-15.296875-26.011718-43.488281-41.691406-73.660156-40.96875-5.640625.003906-11.265625.554688-16.800781 1.648438-6.925781-32.023438-35.371094-54.789063-68.132813-54.535156-10.019531.003906-19.917968 2.144531-29.042968 6.28125-16.0625-41.289063-59.039063-65.5-102.675782-57.84375-43.640625 7.65625-75.808594 45.046874-76.859375 89.339843.023438 10.351563 1.859375 20.617188 5.425781 30.335938-41.28125.730469-74.488281 34.164062-74.945312 75.445312 0 41.730469 37.34375 75.554688 80 75.554688" fill="#a3d4f7"/><g fill="#b7f9fe"><path d="m192 376.074219h-20.6875l18.34375-18.34375c3.03125-3.140625 2.988281-8.128907-.097656-11.214844-3.085938-3.085937-8.074219-3.128906-11.214844-.097656l-18.34375 18.34375v-20.6875c0-4.417969-3.582031-8-8-8s-8 3.582031-8 8v20.6875l-18.34375-18.34375c-3.140625-3.03125-8.128906-2.988281-11.214844.097656-3.085937 3.085937-3.128906 8.074219-.097656 11.214844l18.34375 18.34375h-20.6875c-4.417969 0-8 3.582031-8 8s3.582031 8 8 8h20.6875l-18.34375 18.34375c-2.078125 2.007812-2.914062 4.980469-2.179688 7.78125.730469 2.796875 2.914063 4.980469 5.710938 5.710937 2.796875.734375 5.773438-.101562 7.78125-2.179687l18.34375-18.34375v20.6875c0 4.417969 3.582031 8 8 8s8-3.582031 8-8v-20.6875l18.34375 18.34375c3.140625 3.03125 8.128906 2.988281 11.214844-.097657 3.085937-3.085937 3.128906-8.078124.097656-11.214843l-18.34375-18.34375h20.6875c4.417969 0 8-3.582031 8-8s-3.582031-8-8-8zm0 0"/><path d="m320 360.074219h-20.6875l18.34375-18.34375c3.03125-3.140625 2.988281-8.128907-.097656-11.214844-3.085938-3.085937-8.074219-3.128906-11.214844-.097656l-18.34375 18.34375v-20.6875c0-4.417969-3.582031-8-8-8s-8 3.582031-8 8v20.6875l-18.34375-18.34375c-3.140625-3.03125-8.128906-2.988281-11.214844.097656-3.085937 3.085937-3.128906 8.074219-.097656 11.214844l18.34375 18.34375h-20.6875c-4.417969 0-8 3.582031-8 8s3.582031 8 8 8h20.6875l-18.34375 18.34375c-2.078125 2.007812-2.914062 4.980469-2.179688 7.78125.730469 2.796875 2.914063 4.980469 5.710938 5.710937 2.796875.734375 5.773438-.101562 7.78125-2.179687l18.34375-18.34375v20.6875c0 4.417969 3.582031 8 8 8s8-3.582031 8-8v-20.6875l18.34375 18.34375c3.140625 3.03125 8.128906 2.988281 11.214844-.097657 3.085937-3.085937 3.128906-8.078124.097656-11.214843l-18.34375-18.34375h20.6875c4.417969 0 8-3.582031 8-8s-3.582031-8-8-8zm0 0"/><path d="m232 312.074219c3.234375 0 6.152344-1.949219 7.390625-4.941407 1.238281-2.988281.550781-6.425781-1.734375-8.714843l-18.34375-18.34375h20.6875c4.417969 0 8-3.582031 8-8s-3.582031-8-8-8h-20.6875l18.34375-18.34375c3.03125-3.140625 2.988281-8.128907-.097656-11.214844-3.085938-3.085937-8.074219-3.128906-11.214844-.097656l-18.34375 18.34375v-20.6875c0-4.417969-3.582031-8-8-8s-8 3.582031-8 8v20.6875l-18.34375-18.34375c-3.140625-3.03125-8.128906-2.988281-11.214844.097656-3.085937 3.085937-3.128906 8.074219-.097656 11.214844l18.34375 18.34375h-20.6875c-4.417969 0-8 3.582031-8 8s3.582031 8 8 8h20.6875l-18.34375 18.34375c-2.078125 2.007812-2.914062 4.980469-2.179688 7.78125.730469 2.796875 2.914063 4.980469 5.710938 5.710937 2.796875.734375 5.773438-.101562 7.78125-2.179687l18.34375-18.34375v20.6875c0 4.417969 3.582031 8 8 8s8-3.582031 8-8v-20.6875l18.34375 18.34375c1.5 1.5 3.535156 2.34375 5.65625 2.34375zm0 0"/></g></svg>