<svg id="Layer_1" enable-background="new 0 0 512 512" height="512" viewBox="0 0 512 512" width="512" xmlns="http://www.w3.org/2000/svg"><path d="m249.323 199.158c-6.194-7.626-16.169-12.833-24.842-12.208-18.923 1.156-22.945 11.569-29.792 25.77-7.672 15.185-20.994 27.577-37.367 33.611-10.645 3.983-22.35 5.081-33.309 3.136-15.369-2.641-28.77-10.462-40.422-25.369-7.589-10.621-20.644-13.454-19.481-13.088-5.153-1.619-8.018-7.108-6.399-12.26 1.107-3.526 4.041-5.981 7.425-6.662 13.079-2.598 27.733.15 40.672 9.63 7.428 5.564 15.596 7.558 22.287 6.942 20.113-1.966 22.433-21.335 25.47-27.757 4.669-11.193 11.899-19.742 19.745-26.996 22.395-19.364 49.637-21.018 63.401-18.024 35.456 6.141 60.536 36.584 63.385 67.827 2.054 38.868-21.739 64.401-47.262 72.038-9.288 2.824-19.04 3.356-27.983 1.502-5.305-1.1-8.713-6.292-7.614-11.596.759-3.663 3.47-6.422 6.822-7.417 32.15-9.541 40.054-40.998 25.264-59.079z" fill="#b9f0ff"/><path d="m17.141 326.544c52.753-3.657 70.645-21.044 97.272-20.167 32.798 1.359 48.063 22.459 53.06 27.908 31.802 34.593 81.628 42.381 121.478 22.46 20.648-10.325 26.826-20.485 34.273-25.454 16.591-11.61 45.931-.363 50.519 28.081.696 6.521.019 11.236-.683 14.927-.963 5.068-.381 10.691 4.265 13.242 4.731 2.598 9.674.166 13.97-5.345 2.417-3.1 4.609-6.763 6.451-10.17 22.025-45.956-19.391-93.603-65.339-94.129-30.654-.351-46.914 18.914-55.698 26.404-20.813 17.795-56.333 21.614-82.689 1.845-9.274-6.539-36.748-32.161-84.908-25.875-30.277 4.654-45.836 20.437-81.908 26.824-3.844.681-7.713 1.198-11.596 1.571-4.601.442-8.111 4.304-8.111 8.926.003 5.217 4.439 9.313 9.644 8.952z" fill="#7ce3ff"/><path d="m331.077 230.046c13.82-20.834 41.635-26.429 67.546-7.995 12.476 8.791 32.304 14.052 46.395 7.789 16.037-7.828 16.851-20.384 10.05-27.455-9.719-10.105-25.081-2.484-23.885-2.924-5.513 2.031-11.628-.791-13.659-6.304-5.692-15.448 31.537-41.733 63.837-20.157 36.33 23.634 29.635 81.41-18.357 100.77-37.81 14.79-75.488-5.939-89.23-22.116-4.459-5.41-10.43-10.196-17.372-9.909-5.611.137-12.95 4.284-11.757 3.693-9.706 4.808-19.518-6.372-13.568-15.392z" fill="#55dafe"/><path d="m315.069 166.839h64.966c14.042 0 25.466-11.424 25.466-25.466s-11.424-25.466-25.466-25.466c-4.143 0-7.5 3.357-7.5 7.5s3.357 7.5 7.5 7.5c5.771 0 10.466 4.695 10.466 10.466s-4.695 10.466-10.466 10.466h-64.966c-4.142 0-7.5 3.357-7.5 7.5s3.358 7.5 7.5 7.5z"/><path d="m418.998 300.772h-.431c-4.143 0-7.5 3.357-7.5 7.5s3.357 7.5 7.5 7.5h.431c4.143 0 7.5-3.357 7.5-7.5s-3.357-7.5-7.5-7.5z"/><path d="m486.534 300.772h-37.536c-4.143 0-7.5 3.357-7.5 7.5s3.357 7.5 7.5 7.5h37.536c5.771 0 10.466 4.695 10.466 10.466s-4.695 10.466-10.466 10.466c-4.143 0-7.5 3.357-7.5 7.5s3.357 7.5 7.5 7.5c14.042 0 25.466-11.424 25.466-25.466s-11.424-25.466-25.466-25.466z"/><path d="m25.39 166.838c4.13 0 7.5-3.37 7.5-7.5 0-4.14-3.37-7.5-7.5-7.5-4.14 0-7.51 3.36-7.51 7.5 0 4.129 3.37 7.5 7.51 7.5z"/><path d="m55.38 166.838h77.78c4.13 0 7.49-3.37 7.49-7.5 0-4.14-3.36-7.5-7.49-7.5h-77.78c-4.13 0-7.49 3.36-7.49 7.5 0 4.129 3.36 7.5 7.49 7.5z"/><path d="m125.719 201.268c-5.16 0-10.634-1.972-15.479-5.601-14.578-10.678-31.33-13.96-46.583-10.932-17.619 3.543-18.677 28.412-1.702 33.459 6.189 1.866 11.057 4.548 15.728 10.523 37.884 48.466 102.818 31.195 123.764-12.74 6.155-12.826 9.249-21.579 24.465-21.579 5.819 0 13.053 3.901 17.607 9.508 11.607 14.192 4.951 39.264-21.594 47.143-17.173 5.099-16.146 29.91 1.404 33.546 53.634 11.118 103.298-49.469 77.504-106.839-1.698-3.778-6.138-5.463-9.916-3.766-3.778 1.699-5.464 6.139-3.765 9.916 20.505 45.609-18.249 94.817-60.779 86.001-2.34-.486-2.48-3.797-.18-4.479 37.404-11.103 47.1-48.809 28.952-70.999-7.816-9.623-20.306-15.776-31.121-14.966-23.33 1.426-29.057 15.344-36.062 29.941-18.369 36.244-68.629 48.101-98.371 10.191-7.152-9.906-18.12-14.485-23.241-15.743-2.248-.715-2.048-3.948.246-4.409 30.242-6.004 35.847 19.102 62.228 16.681 24.467-2.391 28.597-25.003 31.663-32.334 16.913-40.543 74.143-57.757 111.125-21.962 2.976 2.883 7.724 2.805 10.605-.173 2.881-2.976 2.803-7.724-.173-10.604-45.998-44.522-119.218-21.918-137.231 31.903-3.08 9.21-6.763 18.314-19.094 18.314z"/><path d="m331.585 270.391c-33.22 0-51.421 21.113-59.748 28.21-9.877 8.444-23.624 13.288-37.713 13.288-28.443 0-37.15-16.002-59.625-27.747-3.671-1.919-8.203-.499-10.121 3.173-1.918 3.671-.498 8.202 3.173 10.12 10.579 5.53 17.822 11.771 22.057 14.774 12.841 9.604 28.232 14.68 44.517 14.68 52.42 0 52.714-41.794 98.199-41.493 33.502.383 64.013 29.233 64.013 60.529 0 20.74-13.284 36.202-15.401 35.04-1.101-.604-.756-3.951-.506-5.268 8.452-44.524-36.22-68.149-61.437-50.6-7.594 5.096-30.591 34.931-75.859 34.931-28.195 0-54.5-12.717-71.517-32.392-6.479-7.488-23.688-27.378-56.956-28.757-28.69-.951-46.073 16.581-98.037 20.181-1.931.215-2.239-2.744-.294-2.93 56.721-5.45 73.985-37.233 125.095-27.768 4.069.757 7.987-1.934 8.741-6.008.755-4.072-1.935-7.986-6.008-8.74-56.597-10.493-76.023 22.471-129.263 27.586-8.492.814-14.895 7.861-14.895 16.391 0 9.575 8.176 17.109 17.66 16.435 29.627-2.054 48.674-8.324 63.979-13.362 15.803-5.202 48.204-18.378 78.633 16.788 31.399 36.319 86.003 49.011 132.034 26.002 30.588-15.296 30.283-29.184 45.941-29.184 14.854 0 28.288 13.412 28.288 30.45 0 6.409-1.368 8.476-1.368 13.543 0 18.575 23.452 29.656 39.345-2.996 24.119-50.319-19.764-104.588-72.927-104.876z"/><path d="m512 216.163c0-20.449-9.677-38.474-26.474-49.399-34.349-22.945-76.084.575-76.084 23.063 0 12.387 12.887 21.144 24.525 16.598 1-.401 3.804-1.808 8.04-1.808 9.711 0 15.562 10.671-.155 18.422-11.035 4.818-27.989.576-38.882-7.1-42.655-30.345-81.204 1.541-81.204 19.939 0 9.873 8.293 18.215 18.109 18.215 11.535 0 15.883-12.342 28.182 2.417 12.204 14.364 38.681 29.824 67.972 29.824 10.246 0 20.241-1.877 29.78-5.609 28.06-11.319 46.191-36.662 46.191-64.562zm-75.971 55.172c-26.153 0-48.102-14.635-56.507-24.497-7.054-8.542-15.112-12.896-23.38-12.589-5.919.17-13.158 3.39-15.185 4.627-2.58.992-5.361-2.057-3.623-4.695 11.582-17.447 34.698-21.842 56.969-5.999 18.112 12.762 40.965 14.682 54.004 8.398 30.556-14.915 18.918-46.963-6.3-46.963-5.477 0-11.256 1.647-13.81 2.924-1.906.44-3.756-1.043-3.756-2.714 0-8.519 26.954-27.825 52.828-10.54 12.54 8.156 19.731 21.597 19.731 36.876 0 29.546-26.729 55.172-60.971 55.172z"/></svg>