<svg id="Capa_1" enable-background="new 0 0 510 510" height="512" viewBox="0 0 510 510" width="512" xmlns="http://www.w3.org/2000/svg"><g><path d="m255 255-131.001 10-123.999-10v-255h255l10 121.627z" fill="#fd9"/><path d="m255 510c-31.007 0-227.097 0-255 0v-255h255l10 121.627z" fill="#d9f2ff"/><path d="m510 255-131.001 10-123.999-10v-255h255z" fill="#cdf"/><path d="m510 510c-31.007 0-227.097 0-255 0v-255h255z" fill="#2c87f4"/><path d="m356.319 105.136c-4.475 9.951-7.743 17.914-10.123 24.352-5.311 14.37-6.196 21.148-6.196 25.512 0 24.811 20.186 45 45 45l10-61.439-10-91.403c-11.518 22.433-19.051 36.557-28.681 57.978z" fill="#9bf"/><path d="m430 155c0-4.364-.885-11.142-6.196-25.513-2.38-6.438-5.647-14.4-10.123-24.352-9.45-21.018-17.296-35.794-28.681-57.977v152.842c24.81 0 45-20.185 45-45z" fill="#69f"/><path d="m310 370v30h75l10-15-10-15c-22.858 0-50.779 0-75 0z" fill="#d9f2ff"/><path d="m460 355c0-24.811-20.185-45-45-45-5.246 0-9.754 0-15 0v30h15c4.136 0 7.886 1.682 10.602 4.398 5.862 5.859 5.868 15.337 0 21.203-2.716 2.717-6.466 4.399-10.602 4.399h-30v30h30c24.81 0 45-20.185 45-45z" fill="#cdf"/><path d="m310 430v30h75l10-15-10-15z" fill="#d9f2ff"/><path d="m385 460h75c0-10.492 0-19.508 0-30h-75z" fill="#cdf"/><path d="m81.934 356.934c-18.461 5.612-31.934 22.794-31.934 43.066 0 24.813 20.187 45 45 45h30l10-53.368-10-66.632c-20.272 0-37.454 13.473-43.066 31.934z" fill="#9bf"/><path d="m110 50v32.58c-6.117 2.17-11.626 5.628-16.208 10.046l-29.166-14.583-13.416 26.833 29.144 14.572c-.579 4.69-.477 9.48.545 14.52l-27.929 16.757 15.435 25.725 27.95-16.77c4.022 3.327 8.632 5.962 13.645 7.74v32.58h15l10-76.42-10-73.58z" fill="#fb3"/><path d="m140 167.42c6.117-2.17 11.626-5.628 16.208-10.046l29.166 14.584 13.416-26.833-29.145-14.573c.579-4.689.477-9.48-.545-14.519l27.929-16.757-15.435-25.725-27.95 16.77c-4.021-3.327-8.632-5.962-13.644-7.74v-32.581h-15v150h15z" fill="#ff8c53"/><path d="m168.066 356.934c-5.611-18.461-22.795-31.934-43.066-31.934v120h30c24.813 0 45-20.187 45-45 0-20.272-13.472-37.454-31.934-43.066z" fill="#69f"/></g></svg>